<mxfile host="app.diagrams.net" modified="2024-05-20T13:10:54.432Z" agent="Mozilla/5.0 (Windows NT 10.0; Win64; x64) AppleWebKit/537.36 (KHTML, like Gecko) Chrome/124.0.0.0 Safari/537.36" etag="83bq6bHSawR5Ip3NpL6H" version="24.4.0" type="github">
  <diagram name="PÃ¡gina-1" id="1ld2QE9z-9IOXmXEH5CW">
    <mxGraphModel dx="5987" dy="2700" grid="0" gridSize="10" guides="1" tooltips="1" connect="1" arrows="1" fold="1" page="0" pageScale="1" pageWidth="827" pageHeight="1169" math="0" shadow="0">
      <root>
        <mxCell id="0" />
        <mxCell id="1" parent="0" />
        <mxCell id="VhOZfITIN7FqA4-uACdg-1" value="" style="shape=image;verticalLabelPosition=bottom;labelBackgroundColor=default;verticalAlign=top;aspect=fixed;imageAspect=0;image=data:image/png,iVBORw0KGgoAAAANSUhEUgAABkAAAASwCAYAAACjAYaXAAAAOXRFWHRTb2Z0d2FyZQBNYXRwbG90bGliIHZlcnNpb24zLjguMywgaHR0cHM6Ly9tYXRwbG90bGliLm9yZy/H5lhTAAAACXBIWXMAACZzAAAmcwHzbHUKAAEAAElEQVR4nOzdd3gUZcPF4bPpvUACoffeO0pVQVEEKYqCIKCiqPgq9vph769iAxERQQXpoiC9SpcuEEoglEBoIaSQnp3vD14iSJLdJJtMsvnd17WX7OzMM2dLIM7ZmcdiGIYhAAAAAAAAAAAAJ+JidgAAAAAAAAAAAABHowABAAAAAAAAAABOhwIEAAAAAAAAAAA4HQoQAAAAAAAAAADgdChAAAAAAAAAAACA06EAAQAAAAAAAAAATocCBAAAAAAAAAAAOB0KEAAAAAAAAAAA4HQoQAAAAAAAAAAAgNOhAAEAAAAAAAAAAE6HAgQAAAAAAAAAADgdChAAAAAAAAAAAOB0KEAAAAAAAAAAAIDToQABAAAAAAAAAABOhwIEAAAAAAAAAAA4HQoQAAAAAAAAAADgdChAAAAAAAAAAACA06EAAQAAAAAAAAAATocCBAAAAAAAAAAAOB0KEAAAAAAAAAAA4HQoQAAAAAAAAAAAgNOhAAEAAAAAAAAAAE6HAgQAAAAAAAAAADgdChAAAAAAAAAAAOB0KEAAAAAAAAAAAIDToQABAAAAAAAAAABOhwIEAAAAAAAAAAA4HQoQAAAAAAAAAADgdChAAAAAAAAAAACA06EAAQAAAAAAAAAATocCBAAAAAAAAAAAOB0KEAAAAAAAAAAA4HQoQAAAAAAAAAAAgNOhAAEAAAAAAAAAAE6HAgQAAAAAAAAAADgdChAAAAAAAAAAAOB0KEAAAAAAAAAAAIDToQABAAAAAAAAAABOhwIEAAAAAAAAAAA4HQoQAAAAAAAAAADgdChAAAAAAAAAAACA06EAAQAAAAAAAAAATocCBAAAAAAAAAAAOB0KEAAAAAAAAAAA4HQoQAAAAAAAAAAAgNOhAAEAAAAAAAAAAE6HAgQAAAAAAAAAADgdChAAAAAAAAAAAOB0KEAAAAAAAAAAAIDToQABAAAAAAAAAABOhwIEAAAAAAAAAAA4HQoQAAAAAAAAAADgdChAAAAAAAAAAACA06EAAQAAAAAAAAAATocCBAAAAAAAAAAAOB0KEAAAAAAAAAAA4HQoQAAAAAAAAAAAgNOhAAEAAAAAAAAAAE6HAgQAAAAAAAAAADgdChAAAAAAAAAAAOB0KEAAAAAAAAAAAIDToQABAAAAAAAAAABOhwIEAAAAAAAAAAA4HQoQAAAAAAAAAADgdChAAAAAAAAAAACA06EAAQAAAAAAAAAATocCBAAAAAAAAAAAOB0KEAAAAAAAAAAA4HQoQAAAAAAAAAAAgNOhAAEAAAAAAAAAAE6HAgQAAAAAAAAAADgdChAAAAAAAAAAAOB0KEAAAAAAAAAAAIDToQABAAAAAAAAAABOhwIEAAAAAAAAAAA4HQoQAAAAAAAAAADgdChAAAAAAAAAAACA06EAAQAAAAAAAAAATocCBAAAAAAAAAAAOB0KEAAAAAAAAAAA4HQoQAAAAAAAAAAAgNOhAAEAAACQrZ9++kkWiyVftxEjRuRpX6tWrVKvXr1UtmxZeXl5qX79+nr11Vd18eLFwnlyyNGOHTt03333qXz58vL09FSNGjX0n//8R6dOncp2/YsXL+brM9K9e/cifmalT0REhB5++GFVqVJFHh4eqlSpkoYPH66DBw+aHQ0AAKBIUIAAAAAAcLj09HS71x0zZoxuvvlmLViwQBcuXFBqaqoOHDig9957Ty1btlREREQhJsXVJk6cqLZt22rGjBk6e/as0tLSdPToUX355Zdq1qyZNm/e7LB95eUzgrxbuHChmjdvrkmTJikqKkrp6ek6deqUfvjhB7Vo0UK//fab2REBAAAKHQUIAAAAgGx17NhRH330kR5++GE1b968UPbx008/6a233srx8cjISPXq1UtpaWmFsn/8Y82aNRo5cqQyMjKyffz8+fPq1auXLly4cM1yf39/LV++XGPHjtXNN99cFFFhw6FDh3T33Xfr0qVL2T6elJSke++9lzNBAACA06MAAQAADrFz5858Xyonp5u7u7tCQkJUp04dtWvXTkOGDNHHH3+sxYsX69y5c2Y/ZcDpVa9eXc8//7wmTpyoHTt2KDw8XJ06dXLoPt58802b6+zfv1+zZ8926H5xvXfeeUdWqzXXdc6dO6dvvvnmmmWurq665ZZb9NRTT2nFihXXPY6i99FHHyklJSXXdVJSUvTJJ58UUSIAAABzuJkdAAAAOAdPT08FBQU59Hr9GRkZiomJUUxMjCRpy5YtWY9ZLBa1aNFCffr00dChQ1W1alWH7RdA9urXr69FixapYcOGOn78eIHHi4mJsfvyVps2bdKgQYMKvE/kbNOmTQ5Z79FHH9WUKVO0ceNGR8RCPjjqvQQAACjpOAMEAAA4RIMGDRQbG6uYmBgtXrxYQ4cOlaurq93bz507Vxs3bsy6rVmzRvPmzdMHH3ygW2+9Ve7u7tesbxiGtm/frv/7v/9TjRo1dM8992j37t2OfloA/sXX11ePPfaYQ8YyDKNQ1kX+2Psa27Ner169ChoHBeDI9xIAAKAkowABAAAOVaZMGd1222364YcftGzZMrm52XfCaYsWLdS+ffusW+fOndWnTx+9+OKLWrJkiY4ePaqnnnoq21LFarVq9uzZatGihUaOHHnd9ekBOJaj5gMJCQlRjRo17Fq3bdu2Dtkncmbva2zPemFhYQWNgwJw5HsJAABQklGAAACAQnPTTTepZ8+eDhmrYsWKGjt2rDZt2pTj5a6sVqsmTJigRo0aafXq1Q7ZrxmGDRtmc36Uo0ePmh0Tdli9erXN9/KNN94wO2aeeXl5OWysV1991eY6derU0YABAxy2T0c6evSozfd42LBhZse0yyuvvCKLxZLrOmXKlNHIkSNtjmVrHFxWWJ+f5557Th4eHrmu4+npqeeeey6fyQEAAEoGChAAAFCoGjZs6NDxWrdurQ0bNqhWrVo5rnP69Gl169ZN48aNc+i+ATjeQw89pBdeeCHHx6tWrarff/9dnp6eRZiqdOrWrZu++OKLHC9fWKZMGf32228KDQ0t4mTIq4YNG2r69Ony9vbO9nFvb29Nnz5dDRo0KOJkAAAARYsCBAAAFCpb30DNj0qVKmnhwoXy9/fPcZ3MzEw98cQT+uyzzxy+fwCO9eGHH2rp0qW6/fbbFRwcLA8PD9WtW1cvv/yydu7cqXr16pkdsdQYNWqUNm7cqLvvvluhoaFyd3dX9erVNWrUKO3evVsdOnQwOyLs1K9fP+3YsUPDhg1TxYoV5e7urooVK2ro0KHasWOH+vbta3ZEAACAQmffRbkBAACKmXr16umdd97RU089let6zz77rGrUqKE+ffoUTTAA+dK9e3d1797d7BiQ1KZNG82aNcvsGHCAevXqafLkyWbHAAAAMA1ngAAAgBJr5MiRqlmzZq7rGIahIUOG6PDhw0WUCgAAAAAAFAcUIAAAoMTy8PCwawLpxMREuybtBQAAAAAAzoNLYAEAgBKtf//+GjlypJKSknJdb/ny5Zo3b16Br3keHx+vM2fOKD4+Xi4uLvLy8lJAQIDCwsJynDi4pEhNTdWpU6cUFxenzMxMeXl5ydfXV2FhYfLy8jI7HgAAAAAAeUIBAgAASjQfHx/17NnTruvVf/jhh3kuQPbs2aNFixZp5cqV2rVrl6Kjo7Ndz9XVVZUqVVLbtm3VpUsX3X///QoODs7TvopadHS0Fi5cqOXLl2vbtm06cuSIrFZrtuuGhISoZcuW6tChgwYNGqTatWs7JMOhQ4c0b948bd26VX///bdiYmIUFxcnFxcX+fv7q1y5cmrQoIGaNWumrl27ql27dnJ3d1fPnj31xx9/qEOHDlq3bl2+9n348GH99ttvWrdunfbv36+TJ0/q0qVLslgs8vHxUVhYmGrWrKmWLVuqR48e6tChgywWi0Oed3ETExOjWbNmacWKFdq9e7dOnjyplJQU+fv7q0yZMmrUqJFatWql22+/XW3atDE7bp6sW7dOS5Ys0datW3Xw4EHFxsYqISFBnp6e8vf3V+XKlbOe30033aTGjRsrNTVVFStW1IULF/Tqq6/qnXfeKZKsK1eu1NmzZ/O0TZ06ddSqVatrloWHh2vixIlavny5Dh8+LMMwVLt2bfXv31/PPPOM/P39HRnbobZu3apZs2Zp3bp1ioqKUnJyssqXL6+wsDB17NhRd911l5o3b252TPyPYRjaunWrli1bpr/++ksRERE6deqUEhMTlZmZKW9vb5UtW1bVqlVTs2bN1KFDB/Xo0UOBgYGm5E1OTtbChQv1xx9/aOvWrYqKilJCQkLWFxluvPFG9enTRz179jQlHwAAKAQGAABAIRozZowhyeYtMjIy3/uYNm2aXfuQZGzZssWuMWfMmGG0a9fO7nH/ffP19TWef/55Iy0tLdf9PPzww4anp+c1NxcXF5vje3h4XLfdlVv37t1z3eeWLVuMPn36GG5ubvl6bi4uLkbfvn2N6Ohou9+jf1u3bp3RqVOnPO87MDDQGDJkiOHq6mpIMjp06JDnfW/cuNG46aab8rzvRo0aGdOnTzcyMzOzHXfNmjXXvRfu7u42x3V1dc3xvfT09DSOHj2a79fZlrNnzxqPPfaY4eHhYffrULNmTWPEiBE21xs6dGi2+1y7dq3RoUOHPN06duxoLFmyxO7nZbVaje+//96oXbt2nt/natWqGX369Mm6/+qrr2aNe/To0eveH3teOxcXl1zf4zVr1hiGYRhdunTJc96rX+ekpCTjsccey/XvkPr16xtRUVGGYRjGoUOH8vxedOjQwZgyZYrN92Dy5Mk2s3fp0uWaz0WbNm3ses6tW7c2Nm7cWOD9Z3c7duzYdWPl59+Cm2+++bpxCvPzk5CQkK/38oMPPrD5XmYnOTnZGDdunFGjRo08vzYeHh7G8OHDjQMHDti9v2rVquV5P2+99VbW9lar1Rg3bpwRGhpq17Zt27Y1IiIi8vXaAACA4oUzQAAAQIn3728/5+a3337L9Rvsx48f16BBg7R+/frrHmvWrJleeukl3XLLLQoICNDhw4f1wQcf6Mcff7xu3UuXLunjjz/WunXrtHjxYgUEBGS7v/T0dKWmptqd/4q0tLQ8P5aSkqJRo0bp+++/l2EY1zxWvnx5vfjii+rbt68qVqyoc+fOaerUqRozZozS09OvWddqtWrevHnatGmTFi9erKZNm9qdOyMjQ08++aQmTJhwXQYXFxf169dPd9xxh6pWraq0tDTt3btXs2bN0pYtWyRJcXFx2b7e9oiOjtZ//vMfzZ49+7rH2rVrp1GjRqlixYratWuXPvjgg+u+ib93714NHDhQ48aN06xZs1S+fPlrHrdarfl6LzMzM5WZmZnj4/9+nRxl/vz5evDBB3XhwoUc1ylfvrwaN26stLQ0bd26VcnJyTpy5IiOHDmS7/3GxMRk+/Nly6lTp+xa7+zZs+rfv3+2Zwb5+fnpoYceUtu2bVWpUiVdvHhRmzZt0vTp03Xs2DFJ0rFjx7L+/G+GYeTrPbb12cjpzKu82L9/v+655x7t2bPH5nqDBg3SmjVrlJiYmK/3olu3bvmNeZ3MzEy9/PLL+uSTT+z+rG/dulU33nijXnjhBX3wwQcOyyI55r2QlO3PdGF+fjIyMvL1XubnbL7p06dr9OjROnPmzHWPBQcH6/HHH1fHjh3l6uqqAwcOaNy4cQoPD89aJy0tTZMnT9aUKVM0ePBgffnllzn+G1kQV96D+Ph4DRo0SAsXLrR72y1btujGG2/U6tWr1aBBA4dnAwAARcjM9gUAADi/ojgDJDMz0/Dx8bFrP61atcpxnJ07dxrly5fPcdvly5dnu93QoUNz3ef999+f4z5tbZuf29Xfqr7i4sWLRtu2bXPc5rXXXss2n61vUdetW9dITEzM/Q36n/T0dKNXr17ZjuPt7Z3rN7rnz59vlCtX7rrt7D0DZMeOHUblypWz3Xf//v2N9PT0a9Y/cOCAERAQkOPzrly5snHw4MFrtlm1apXD38uC/mzk5OOPPzYsFkuO+/Tw8DDGjRt3zeuSkJBgvPzyy7lud/UtpzNAtm3bZtxwww2Gl5dXnl6HyZMn23xeUVFRRp06dbLdvn79+sbp06ez3S41NdX44IMPsj1j5+ozQCIjIwvlPV61apVhGIZx5swZY+nSpcZ//vMfw9PT0+7XOTw8PNufj9xua9asMY4fP2507drV8PPzy9O2Y8aMsfle2HMGRuvWrXP8O8He2+OPP25Yrdbr9n/u3Dljzpw5xuuvv25UqlSpQD9vO3bsMBYsWGB8/fXXRvPmze0aJ7u/hwvz85OUlGTcdtttRnBwcJ62zennNDspKSnGY489luNYlSpVyvYMmvT0dGPIkCE5ble7dm1j+/btue57xYoVxvvvv2+0bt06T5/TEydOGE2aNMn3a9usWTMjNTXV7tcIAAAUPxQgAACgUBVFAWIYRq4H96++eXp6GhkZGddtn5qaatSqVSvXbZ977rls933s2DGbB4WXLl1q93Ox5zI4Vw6Y2mvw4MG5jte6desct7X1urzyyit2ZXjrrbdyHOOpp56yuf3JkyeNBg0aXLOdPQXIhg0bcjzAW6ZMGSMuLi7b7V577bVcn3ejRo2MhISEXPdtz0HgvByAdISvv/461zwWi8VYuHBhjtt//PHHdv2s2Xpely5dMn744QcjJCTErvFsFSBWq9Xo1q1bjtvPmzfP5muzZs0aw9/f/5rtri5AsmNP8ZXdwXBbVq9ebdcl1Dp16mRUrFgx6++3e+65x7jttttsbnd1iZGWlmbMnTvXqFmzpl3vhaMKkCu3ihUrGi+++KIxY8YMY9GiRcY333xj9OjRw+7tx44dm2uW2NhYo2XLlnaNZevfouTkZKNVq1YOe88d/fnJzMw0li9fbrRo0cIhP6dXpKSkGN27d8/1743NmzfnuH1qamqu5ZGPj4+xdetWu7K88sordj23u++++5riu0WLFsYTTzxhvPzyy8Y999xjdwn73Xff2ZULAAAUTy4CAABwApUrV7ZrvdTU1Gwv37NmzRodPnw4122XLl2a7fKqVauqWrVquW773Xff2ZWvMCQlJWnGjBm5rrNt2zbFxMRk+1inTp1y3Ta7S2r92/nz53OdSLphw4a5bi9JFStW1KpVq1SlShWb61693wEDBigxMTHbxx966KEcL71y77335jr23r179cYbb9idpThYt26dnn766VzXGTVqlO64444cH3/mmWdUr169Amfx8fHR0KFDtWLFCnl4eBR4vN9//13Lly/P8XF7PmOdO3fWggUL5O7uXuA8BdWlSxc99thjNtf7888/derUKfXq1UtHjhzRzJkz7foZiY6Ozvqzu7u7+vbtq7Vr16ps2bIFyp1XAwYM0P79+/XBBx9owIAB6tGjhx599FEtWrRIc+bMseuz8corrygiIiLHx4OCgjR58mSH5PXy8tLLL7/skLEKg4uLi2655RatXbs2X5e3ysnIkSO1bNmyHB/v37+/2rZtm+PjHh4eeuutt3J8PCkpSb1799bJkydtZnnnnXfsuvTl7NmzFRUVpRYtWmjDhg3avn27vvrqK7333nuaOXOmdu7cqQoVKtgcZ/z48TbXAQAAxRcFCAAAcAp5uX74iRMnrlt2/vx5m9sdOnQox8eqVq2a67Zr1661HayQxMXFXTePx78ZhpFjAWTruZ0+fVoHDx7MdZ0ZM2bkOm9JVFRUrttfUb58ec2cOVMuLvb9Gjts2LBcx+7Ro0eOjzVu3Fi+vr65jj9hwgTFxsbalcVsCQkJGjBgQK6fBS8vL73++uu5juPi4qIRI0Y4LFfTpk111113FXgcW3PD2PsZ69y5s959990C53GE7t2727Xe6NGjNX/+fFWsWFGScpzD5Gp+fn7XLatUqZIefPDBvIUsgCZNmmjatGny9/fP9vF+/fppwoQJNsdJSkrSiy++mOs6TZs2dVi506RJE4eMU5j8/Pw0evRoh4w1c+ZM/fDDD7mu88gjj9gc584778y1cDh16pSGDx9ucxyLxWKzoL6iT58+2rhxo2644YbrHqtXr56++OILm2Ps2LFDcXFxdu0PAAAUPxQgAADAKeR0AC07CQkJ1y2z59vhISEhOT4WGBiY67anT5/O8SyEwlauXDm7Dvzl9PxsPTdJuX77Wro8aXFupkyZYvcBpvbt22vYsGE211uzZo3NSW9tfYu4Zs2auT6emJiY7aTqxdHYsWOv+dZ/dgYMGKDQ0FCbY9nz7eu8cMQZJbY+Y/Yc6Lzi6aefVt26dQsaqcCyKyn+7aabbtJ///tfWSyWrGWenp42t8vp2/qOeC/sVaZMGbm6uua6zrBhw2yehSZJv/32m82zB+x5Pe3hiDOWioIj3svU1FSbRYqXl5dd75HFYlGXLl1yXWfZsmVavXq1zbHs+XuqefPmmjZtWq4/D3369FFwcHCu41itVu3evdvm/gAAQPFEAQIAAJxCXs4Aya6IaNasWa6X/ZFy/4arPWckxMfH2w5XCFxdXW1+O/qWW27J8WC/Pc/NVnlh68D78ePH1bVrV/3111829yVJzz77rM11bF2eKigoyGa5Y+vAmHS5aCnu4uLi9N///tfmerZ+BgqLrYPg9rD1GZs/f77uvfdeu84EcXd3t3mpsOKiatWq15QfktSxY8dct6lUqVKOZ9044r1wtMcff9zmOhkZGfr++++LIE3J4Yj3curUqTp16lSu6zRs2FBeXl52jdesWTOb69g6C81ed911l7y9vXNdx83Nza5M9pwlCgAAiicKEAAA4BQyMjLsXjenb+/+8ssvGj58+HXX//f399dbb72lV155pUAZc7sEVGF7/vnn9eGHH153QN/V1VX333+/Zs2aVaDxbT03Hx8fm2Ps3LlTbdu2VZcuXTR58uRcLy3VsGFDGYahdevWZfv4vn37bH6L2J6zYuw5s2jbtm021zHbwoUL7TrD5qabbiqCNIXDns/YzJkzVatWLd13331auHBhrp/bxx57TIZh5Dp3TXE1atQotWjRItvHPD09NWXKFLsPWBcHvXv3tmtellWrVhVBmtJl6tSpNtfJy9lS9sxLsm7dOptzcjlS+fLlba5j1hcYAABAwVGAAAAAp5CUlGT3ujldBsXf31/ff/+9YmNjtXXrVv3555/avXu3YmJi9Prrr2d7JoTVatXixYv1999/5zt7UXnhhRd09uxZ/f333/rzzz+1bds2xcbG6qeffsrxTIddu3bpjz/+KPC+7Z2kXro8X8qDDz6o0NBQdezYUe+//7727duXp/3NmzfP5jr2HAC2pwA5d+6cXZnMtGjRIpvrlClTRuXKlSuCNIXD3s9YWlqaZsyYoTvvvFNly5ZV7969NXHiRJ0+fbqQExYdX19frV+/Xu+++66aNGkiLy8v+fn5qXv37lqzZo1uueUWsyPmiY+Pj13f0t+6dausVmsRJCodEhIStGHDBpvr2XM5qisqVapk13r2/J3lKPb8W2AYRhEkAQAAhcHN7AAAAACOcOnSJbvXDQsLy/VxX1/fXOc4yMzM1Pr16/Xrr79q1qxZdk+uXBy4ubmpcePGua6zd+9e/fbbb5o5c6Z27tzpkP326NFDX375ZZ62ufI6r1+/Xq+88ooaNWqkJ554Qg888IDNyclzOjPkanv37r3u0kH5URImQV+7dq3NdWrVqlUESQpPjx498lxEJiYm6vfff9fvv/8ui8Wibt266YknnlCvXr3suvRbcebt7a1XXnmlwGeuFReNGjWyOc9LQkKCDh06VKTzmDizbdu22VUo5WUOLnvOtpCkzZs3a9SoUXaPCwAAkJOS/Vs9AADA/9g7wbjFYsnXwbHY2FhNmzZNgwYNUmhoqLp06aLPPvssq/xwcyu53ytJS0vT0qVL9eSTT6pGjRpq3LixXnnllazywxHPrXv37qpevXqBxti7d68ef/xx1alTR1OmTMl13f379xdoX3lR3L9xbhiGzfkxpLx9i7s4Gj58eIE+q4ZhaNmyZerTp4/atm1r1zffUXSqVatm13rM1eA4R44csWu9vBQgZcqUsWu9iIgIu8cEAADITcn9P3UAAICrHD161K716tata9dcAZJ08eJFzZ07VzNmzNDKlSuvm2ckKChIgwcP1iOPPKInn3yyREyGfUV6erqWLFmiX375Rb/99psSEhKuedzNzU29e/fWI488og0bNuitt94q0P7c3d311Vdf6c477yzQONLlya6HDRumZcuW6bvvvsv28iVnzpyxOU7Tpk01YcKEAucp7mJjY5Wenm5zPXt/LoqrBg0aaPTo0fr4448LPNa2bdvUuXNnffLJJyVmMnRnZ++B85JwRlZJYW+ZlJcCxNak5FfExMTYPSYAAEBuKEAAAIBTsHfC1B49ethc59ChQ/r00081ZcoUJScnX/d4UFCQXnrpJT355JMl7qBxbGysxo8fry+//DLbOQ9cXFw0YsQIvfbaa1lzKmzcuNEh++7Zs6c+/vhjPf/88w4Z7+eff1ZmZqamT59+3WP2HPB3cXFR+/btHZKlOEtNTbVrPXsPTBZn77//vg4ePKj58+cXeKzMzEyNHj1aXl5eGjlypAPSoSDs/bs2Li6ukJOUHvb+3eHp6Wn3mPZMZi9dPjMRAADAEbgEFgAAKPHi4uLs/rZonz59cnwsLS1NTz/9tOrXr69vvvkm2/Ljhhtu0J49e/Tiiy+WuPJj0qRJql69ul599dVsy4/y5ctr/fr1+uabb/I0aXlePPfcc/r5559tzuFhr19++UXTpk27bnlOk7pf7d9nvTgre14LyTkOOLq6umr27Nl69tlnHTbmU089ZfcZZjBfQECA2RGchj2Tg0t5uwygvX/PlLR/XwEAQPFFAQIAAEo8e6/V37RpU3Xt2jXbxzIyMtS7d299/vnnOR7MqVu3rpYsWaJKlSrlN6pp3nnnHT388MOKj4/P9nEPDw8tW7asSM6IGDRokMLDwzVs2LA8fXM4J+++++51y0JCQmxud/LkyWI/f4cjeHl52XUgMykpqQjSFD43Nzd98skn2rhxo26++eYCj5eWluaQy2qhYOz9fJYrV66Qk5Qe9s4LlJfy1N6zSipWrGj3mAAAALmhAAEAACXekiVL7FrvpZdeyvGxt99+2+Y4H330UZ6udV5crFixQv/3f/+X6zqPP/64mjRpUkSJpCpVqmjy5Mk6deqUxo8fr+7du9t9aZR/27dv33WT9VatWtXmdikpKXZfOq2kq1Klis11Tp06VQRJik779u21YsUKHTx4UG+99ZZatGiR77F+//13ByZDfly6dMmu9Thw7jh16tSxaz173xtJOZbw/9agQQO7xwQAAMgNBQgAACjx7ClAOnXqpIEDB2b7WExMjD755JNct/f399cdd9yRr3xme/XVV2UYRq7r3HfffYW2/x9++EEWi0WDBg267rEyZcpo5MiRWrp0qc6dO6dp06bp3nvvzfPlT/bv33/N/c6dO9u13V9//ZWn/ZRUN954o811IiMjiyBJ4Rg2bJgsFou+/fbb6x6rU6eOXn/9dW3fvl3Hjh3TF198oZtvvlkuLvb/r9CJEyec5gyZkioqKsrmOtWrV7er7IN9WrZsaddZehcvXrR7zDNnzti1XocOHeweEwAAIDcUIAAAoERbuXLldQe//83Pz08TJ07M8fFFixbZPLhZo0aNfJ+hUBgyMzPtWi8qKkqbN2+2uV7dunULGsmmuXPnKjo6OsfHAwMDNXDgQP3yyy86deqUvvrqK9WqVcuusf898fFNN91k13Zz5syxa72cZGRkFGh7yf73siA6duxoc50LFy7Y/Fkq7saNG5dr2Ve1alU9+eSTWrFihQ4fPqxXX33V7jkjCjK5dlG8x87OnnlYbrvttlwfd3V1tTlGcbwsnlmfH29vb7v+LrWnnLrCnjPN3N3d1aNHD7vHBAAAyA0FCAAAKNE++OCDXB+3WCyaNGmS6tWrl+M6f//9t839FOWlrywWi811EhMT7RrLnucmFc3zS01N1VtvvWXXuoGBgXriiSe0e/du9ezZ0+b6/57zo23btqpRo4bN7RYtWmT3N5L/LS0tTZ07d9Ybb7yR40FTR76XBdGzZ0+7Crw//vij0LMUpl27dmnmzJl2rVu9enW988472rVrl83PisViUdmyZXN8zJaieI+d3a5du2yuM2DAgFwfDwwMtDlGUb9Xxf3z8+CDD9pcZ9++fXaPt2fPHpvr3HfffQoKCrJ7TAAAgNxQgAAAgGIhP9+6Xb58uZYtW5brOl988YXNg2KxsbE293Xy5Mk8ZSsIb29vm+scP37crrHseW5S0T2/iRMn2nVGyhU+Pj6aMmWKzUtiVatW7Zr7rq6uev75522On5ycbHN+lJyMHj1aGzdu1JtvvpljsePI97IgKlSooHvuucfmeuPGjSuW34DPi2effTZPl+SpXr26xo0bl+s6YWFh8vDwyPax4vIeO7NDhw7ZPHOgS5cuNie9/3dRmtO+bLF3Im97FPfPz913363WrVvnus7evXvtLmm2b9+e6+Ourq75/jsZAAAgOxQgAACgWDh9+nSe1j9x4oSGDh2a4+MeHh767rvvNGrUKJtj2XP2w9GjR7Vz585sH9u7d692795tc4yEhASb60jK8ZvmV9u0aZNdY9l7Zse8efOyXZ6QkKAFCxbY3N7e55aZmakHHnggT5cTKlu2rBo2bJjj43Xr1s32El7Dhw+3azL07777TtOnT7c7j9Vq1ejRo7MOmoeGhuqJJ57Idl173ss9e/bkaRLh/HrmmWdsftv88OHDNufDkS5fLsuW9PR0u7M50smTJzVy5Mg8bdOpU6dcH+/Vq1eOj9nzHl+4cMGuA+v5UZILK3s/97YuVWexWPTuu+/aHKdFixY211m8eHGuj2dkZNj174q9l8cz+/Nji8Vi0aeffprrOqmpqTa/jCBd/jvB1noPPfSQateunaeMAAAAuaEAAQAAhSomJsau9X777Te7xzx48KBuvvnmHL8RXLt2ba1evVoPPfSQXeM1adLErvXuvffea0qQzMxM/fzzz+rYsaNdZ1rYW1o0b97c5jq//vqrXdddt/e5vf7665o1a9Y1yzZu3KgbbrhB27Zts7m9vc9Nuvz+9e/fP0/fos7tYHpOl2jx8vLSzJkzc/zm/hVWq1VDhw7Vp59+avNa+zExMbr77rs1duxYSZevVT9jxgyFhoZmu36zZs1slg5paWmaMGFCrus4QqtWrTR69Gib673++uuaO3dujo9v2LBBDz/8sM1xDh8+bHc2e+Y4yMsk5DNmzNDrr79u9/q5fb4sFouGDx+e4+M1atSw69JKX375pd15rrCnaHL02QGOfi9ys23bNpsH9jMyMmz+fIwZM8auSbO7dOlic52pU6fmeOnAc+fOqXv37lq+fLnNcQ4dOmTXa1mYnx9HvZedOnXSiy++mOs633//vc1x5s6dq/j4+Bwfb926ddbfrbbYU57Z+/tHSkqKzXXsPZsSAAAUQwYAAEAhSUpKMmrUqGFIsnlzd3c3FixYkOt4CQkJxocffmj4+vpmO4aPj4/x8ssvG0lJSXnKGRMTY/j7+9uV08XFxahfv77Rvn17IyQkJGt5vXr1bG5brlw5488//7SZZ+/evXZlqVOnjjFv3jwjNjbWyMzMNOLj440jR44Yq1evNhITE7PGu/HGG+0aT5JRuXJlo0OHDka1atXy9NxcXFyMiRMnGunp6dc9n8mTJ2e7TceOHY3z58/bfD3OnTtnuLm5ZTtGs2bNjLS0tFy3Hz9+vN3Pv0GDBsZbb71lbN682Th16pSRlpZmXLx40Vi/fr3xwgsvGMHBwVnrurq6Gj/++KPN/G3btrXr8//2228bR44cMdLT042UlBQjOjra2LZtmxEeHm5zH/ZKSUkxmjRpYtf7OXz4cGPjxo1GbGysER8fb2zfvt146qmncnwv/n2zWCzG4sWL7co1aNAgm+P16dMnx+2HDh2a7TajRo0yMjIybO7/119/zXG/jz32mM3tBwwYYNdr8vTTTxvh4eFGWlqakZqaapw5c8bYtWuXsWPHjmzH7devn80xXV1djeXLl9vMaK9XXnnF5j5btmxpWK3WXMfJ6ef+37d77rkn13HefffdXLfv27evzSxXZGRkGFWrVrWZKSQkxJg4caJx6tQpIy4uzti1a5fxzjvvGGXLljUkGQ0bNrTrub399tt25Sqsz8+3335rc8ywsDAjOTnZZkar1WoMGTIk17E2bNiQ4/apqalG/fr1c9y2SpUqRlRUlF2vl2EYRt++fW0+txo1atj1+0CjRo1sjtW+ffts/30DAADFHwUIAABwuPj4eGPFihV5OvAuXT5g2q9fP+OHH34wVq5cafz555/GwoULjc8//9y47777jMDAwGy3Cw4ONp555hnj1KlT+c78+eef5ynr1Qcfx48fb0RGRhru7u52bePj42OULVvW6Nq1a4557rjjjnzluXKLjIzMGmvLli2Gh4dHvsYZOnSokZKSYlcJIsnw8PAwypYta5QtW9aIi4szDCP3A6FhYWHGzJkzc3wd0tLSjHvuuSfHg1uHDh2y6/0dP3683e+PPTdfX1/j119/tWvfM2fOLNC+xowZY9d+7HXs2DG7DgLndmvRooVd67m5uRkPPPCAMWnSJGPZsmXG8ePHr8uzbNkyw8vLy67xXnzxRePixYvXjZFTASLJaN26tbF9+/YcX48zZ87k+Pm+7bbbjEuXLtl8TTdv3mxYLJZ8v55Dhw7NyjJv3jzj3XffNdq1a2f39q6ursZtt91mvP3228bMmTONXbt22f+BuMqOHTuuKXZtZT59+nSOY9lbgEgyPvroo2zHmDVrVq4/t3379jVSUlLy9BynTp1aoM/+fffdZxw4cMDu9Xv37m1MnjzZWLJkSdbfif/mqM/P1SIjI406derYtf3tt99uHDlyxOZrl56ebowePTrHrBUqVDAiIiKy3S6nv8clGTfffLNx5syZXPedkZFhnDhxwli0aJHNIubqW+PGjY0ffvjBOHny5DXjXbhwwdi2bZsxcuRIu8dq1qyZMWnSJCMiIsLu0g0AAJiPAgQAADjE0aNHjapVqxoBAQEFOrhk7y0gIMDo37+/MW3aNLsOUNrj1VdfzVOGBg0aGGvWrMna/sMPP8zT9s2aNcsxS1RUlFGuXLl8vz5Hjx69Zrz58+fneOZMdrfg4GBjwoQJWduvXLnS8PHxyVOG2NhYwzCuPRBauXLlbMepW7eu8fbbbxtz5szJKr7ee++9HA9M33zzzUZ0dHSe3t/NmzcbTZs2LfBnr2PHjtke5MvN/fffn+/9vfHGG3nalz2ioqKM1q1b5zmLm5ub8d///tdYtWpVvp7LlTLnl19+MYYMGWI0btw4z2N4e3sbt99+u7Fo0aKs53N1AVKnTp1sD9B26dLF+OKLL4yFCxcaa9euNebMmWM899xzWd/qv/rm4uJijBo1yubZRVfL698fV9+GDRtmGEbeSoPcbl26dLE799KlS43hw4cbrVq1MlxcXPL8ebj55puzPRPq38/FxcXFGD9+vDFlyhQjKCjourH69OljzJgxw1izZo0xY8YMY8CAATnm8fDwMN599918H4QeNmxYnl9TFxcXY8yYMYbVajUiIyPz9b6sWrUqx0yO+Pxs3brVGDFihHHjjTfmufC1WCzGjTfeaHz22Wc2X7+FCxcaYWFhOf58Pvvss8bs2bONZcuWGV988YVRt27dbNf18/MzxowZY9dZWmPGjCnwz8UV+X3/7H0vAQBA8UIBAgAAHOLQoUMFPqDw74NN3t7eRkhIiNGwYUOjW7duxhNPPGGMGzfO2LZtm10HTPJj6dKlRps2bXLN1qhRI+Orr77K9uDopEmTjPLly+e6fYUKFYxHH33U2Lx5c65ZDh8+bLRs2dLu18zX19cYMmSIsX79+mzHO3jwoNG3b99cD3KWL1/eeOmll4yzZ89et/3GjRttFgi+vr5G3759jdmzZ2cdnLz6QOjatWuN06dPG2PGjLnmMlv23lq3bm3MmTMnH+/sZRkZGcbUqVPtPoPh6luLFi2MefPm5Wu/V745nZcDzO3btzcmTZqU50u62SstLc14//33sz0Ynd2td+/eWZfjKmgBktsZG3kd6+rxQkJCjAsXLhh///238cgjj+R41lhONzc3N6N37945XlLIlg8//DBPZ1s1adLEGDt2bNZZLWYUII44sJzdGQhXPxdPT89rfm7Pnj1rPPvss3Z/9q7cXF1djXvvvdc4cOBAvt6fK6xWq/Hyyy/bXRLccsstxtatW7O2L4wCxDCKx+fH3s9OcnKyMW7cOKNWrVp53kdQUJDx6quv2nUJxCsoQAAAQH5ZDMMwBAAAgGscPHhQGzdu1OnTp5WRkSEfHx9VrlxZLVu2VK1atXLdNjMzU9u2bdO+fft09uxZpaamys/PT2FhYWrRooXq1atnc2LsKwzD0MKFCzV37lxt3rxZ0dHRio+Pl4+PjwIDA1W5cmW1adNGnTp1Us+ePeXj42NzzLNnz2rt2rU6duyYkpOT5eXlpXLlyqlRo0Zq0aKFXFxcbL4227dv18mTJ5WcnCxPT0+FhISocePGatasmc1Jx6+2bds2rV27Vps2bdKePXt0/vx5xcbGys3NTYGBgQoJCVGTJk3UqlUr3XnnnapXr57dY9uyf/9+LVq0SFu2bNGBAwcUFRWlhIQEpaWlyc/PT8HBwWrQoIHatGmjfv362TU5vS0RERH6/vvv9eeff+rQoUO6ePGiJCkwMFBly5ZV8+bN1b59e/Xq1Us1atQo8P7skZiYqNmzZ2vRokXauXOnTp48qZSUFAUEBKhevXq66aabdP/996tRo0YO2+evv/6qnTt3FmiMrl27qmvXrrmuk5aWprVr12r9+vXatGmTIiIidOHCBcXFxcnHx0cBAQGqVKmSmjdvrrZt2+quu+5SSEhIgXJFR0dr0qRJWr16tcLDw3XhwgVZrVYFBgYqODhYjRs3Vrt27dSzZ0+Hvqb5tXr1aq1evbpAYzRv3lx9+vS5ZtlPP/2kIUOGKDAwUPPnz892AvK0tDStXLlSa9as0Y4dO3T48GGdO3dOSUlJslqt8vPzU+XKldWkSRN17txZ/fr1U/ny5QuU9WpHjhzRpEmTtHz5ch09elQxMTGyWCwKDAxU9erV1bVrVw0ePNghP/v2KsjnZ+fOnfr1118LtP/q1atr2LBhdq9vtVq1c+dOrV69WmvXrlVkZKRiYmIUExOT9W9nWFiYatSooZYtW6pz5866+eab8/TvBAAAQEFQgAAAAAAAHG7p0qWqUKGCmjRpYnYUAAAAlFIUIAAAAAAAAAAAwOnkfn0DAAAAAAAAAACAEogCBAAAAAAAAAAAOB0KEAAAAAAAAAAA4HQoQAAAAAAAAAAAgNOhAAEAAAAAAAAAAE6HAgQAAAAAAAAAADgdChAAAAAAAAAAAOB0KEAAAAAAAAAAAIDToQABAAAAAAAAAABOhwIEAAAAAAAAAAA4HQoQAAAAAAAAAADgdChAAAAAAAAAAACA06EAAQAAAAAAAAAATocCBAAAAAAAAAAAOB0KEAAAAAAAAAAA4HQoQAAAAAAAAAAAgNOhAAEAAAAAAAAAAE6HAgQAAAAAAAAAADgdChAAAAAAAAAAAOB0KEAAAAAAAAAAAIDToQABAAAAAAAAAABOhwIEAAAAAAAAAAA4HQoQAAAAAAAAAADgdChAAAAAAAAAAACA06EAAQAAAAAAAAAATocCBAAAAAAAAAAAOB0KEAAAAAAAAAAA4HQoQAAAAAAAAAAAgNOhAAEAAAAAAAAAAE6HAgQAAAAAAAAAADgdChAAAAAAAAAAAOB0KEAAAAAAAAAAAIDToQABAAAAAAAAAABOhwIEAAAAAAAAAAA4HQoQAAAAAAAAAADgdChAAAAAAAAAAACA06EAAQAAAAAAAAAATocCBAAAAAAAAAAAOB0KEAAAAAAAAAAA4HQoQAAAAAAAAAAAgNOhAAEAAAAAAAAAAE6HAgQAAAAAAAAAADgdChAAAAAAAAAAAOB0KEAAAAAAAAAAAIDToQABAAAAAAAAAABOhwIEAAAAAAAAAAA4HQoQAAAAAAAAAADgdChAAAAAAAAAAACA06EAAQAAAAAAAAAATocCBAAAAAAAAAAAOB0KEAAAAAAAAAAA4HQoQAAAAAAAAAAAgNOhAAEAAAAAAAAAAE6HAgQAAAAAAAAAADgdChAAAAAAAAAAAOB0KEAAAAAAAAAAAIDToQABAAAAAAAAAABOhwIEAAAAAAAAAAA4HQoQAAAAAAAAAADgdChAAAAAAAAAAACA06EAAQAAAAAAAAAATocCBAAAAAAAAAAAOB0KEAAAAAAAAAAA4HQoQAAAAAAAAAAAgNOhAAEAAAAAAAAAAE6HAgQAAAAAAAAAADgdChAAAAAAAAAAAOB0KEAAAAAAAAAAAIDToQABAAAAAAAAAABOhwIEAAAAAAAAAAA4HQoQAAAAAAAAAADgdChAAAAAAAAAAACA06EAAQAAAAAAAAAATocCBAAAAAAAAAAAOB0KEAAAAAAAAAAA4HQoQAAAAAAAAAAAgNOhAAEAAAAAAAAAAE6HAgQAAAAAAAAAADgdChAAAAAAAAAAAOB0KEAAAAAAAAAAAIDToQABAAAAAAAAAABOhwIEAAAAAAAAAAA4HQoQAAAAAAAAAADgdChAAAAAAAAAAACA06EAAQAAAAAAAAAATocCBAAAAAAAAAAAOB0KEAAAAAAAAAAA4HQoQAAAAAAAAAAAgNOhAAEAAAAAAAAAAE6HAgQAAAAAAAAAADgdChAAAAAAAAAAAOB0KEAAAAAAAAAAAIDToQABAAAAAAAAAABOhwIEAAAAAAAAAAA4HQoQAAAAAAAAAADgdChAAAAAAAAAAACA06EAAQAAAAAAAAAATocCBAAAAAAAAAAAOB0KEAAAAAAAAAAA4HQoQAAAAAAAAAAAgNOhAAEAAAAAAAAAAE6HAgQAAAAAAAAAADgdChAAAAAAAAAAAOB0KEAAAAAAAAAAAIDToQABAAAAAAAAAABOhwIEAAAAAAAAAAA4HQoQAAAAAAAAAADgdChAAAAAAAAAAACA06EAAQAAAAAAAAAATocCBAAAAAAAAAAAOB0KEAAAAAAAAAAA4HTczA4AAAAAwDlZrYYuJqcr9lKaLiSlKfZSmhJSMpSSnqnUDKvSMqxKzbj85yu3q5dl/TndqrRMq1LTL99PzzQkSW6uFrm5WOTm4pL1Z1cXF7m7WuTqYpG7q8s161xe9s86Hm4u8vN0k7+Xu/w83RTg5SZ/r8v3/b3c5OflpkBvd/l48L9NAAAAQEnEb/IAAAAA7BKXnK4Ll9KuKTQuXEpTbFKaLlxK/99/Ly+PTUpTXHK6rIbZqQvO081FQT7uCvL2ULCvu4J8PBTs465gHw8F+XionL+nKgR5qWKgt8ICveTuyon2AAAAQHFgMQzDCf6XBAAAAEBBnY1PUVRssqJik3Tif/+9fD9Zpy4mKzXDanbEYs/FIoX4eapikLcqBHpd89+KgV6qEOStUD9PubhYzI4KAAAAOD0KEAAAAKCUOJeQqpP/KzVOXFVuXCk6KDiKhrurReUDripHAr1VOdhbtcr5qXY5P4X4eZodEQAAAHAKFCAAAACAE7FaDR27kKQDpxN04EyCDpyO16EziYqKTVZyeqbZ8WCHYB931f5fGVKnnH/WnysGeZsdDQAAAChRKEAAAACAEupsfMr/So7Lt/2nExRxNpGiw0n5ebqpVqiv6pT3v6og8VOVYB8uqQUAAABkgwIEAAAAKOYSUzN08H8Fx8ErhceZBF24lGZ2NBQDnm4uqhXqpzrl/dS4UqCaVwlSk0qB8nJ3NTsaAAAAYCoKEAAAAKAYScuwas/JOG0/Hqvtx2O1OypOJy8mi9/akRduLhbVLe+v5lWC1KxKkJpVCVTdcv6cKQIAAIBShQIEAAAAMNHZ+BRtOx6rbcditf3YRe09Fcdk5CgUvh6ualI5UM0qXy5FmlcJYl4RAAAAODUKEAAAAKCIZGRatS86XtuOxWrH8YvafjxWUbHJZsdCKVbO3zOrDGlWOUhNqwQqwMvd7FgAAACAQ1CAAAAAAIUkJjH18qWsjl3MupwVE5SjOLNYpIYVAnRjrRB1qF1WbWuUkY+Hm9mxAAAAgHyhAAEAAAAcJDktU5sjY7T24DmtPXReEWcTzY4EFIi7q0UtqgarQ62yurF2iJpXCZK7q4vZsQAAAAC7UIAAAAAABbDvVJzWHjqvtQfPaduxWObvgFPz9XBVmxpl1KF2iDrUKquGFQPNjgQAAADkiAIEAAAAyINzCan689A5/XnovNYdOq9zialmRwJMU9bXQzfUKpt1yaxqZX3NjgQAAABkoQABAAAAcpGakamtR2P156FzWnvwvMJPx4vfoIHsVQ72VofaIbq5fjl1rhMqbw9XsyMBAACgFKMAAQAAAP7lWMwlrQg/q7WHzmnzkQtMXA7kg5e7izrXCdWtjcrrlvrlFezrYXYkAAAAlDIUIAAAAIAuz+WxZO8ZLdl7WvtPJ5gdB3Aqri4Wta1eRrc2Kq9bG4WpUpC32ZEAAABQClCAAAAAoFSyWg1tPx6rxXtPa8ne0zpxIdnsSECp0ahigG5rFKZbG5VX/bAAs+MAAADASVGAAAAAoNSwWg1tiozRH7ujtWTfGZ1LYAJzwGzVyvro1oaXy5BWVYPl4mIxOxIAAACcBAUIAAAAnJrVauivoxe0YHe0Fu85rXOJlB5AcRXi56FuDcqrR+MwdawdIjdXF7MjAQAAoASjAAEAAIBT2hJ5QQv/jtaiv6N1ljM9gBInxM9DvZtVVL+WldW4UqDZcQAAAFACUYAAAADAaRw+l6jZW6M0b8dJnY5PMTsOAAepV95ffVtWUt8WlVQ+wMvsOAAAACghKEAAAABQoiWmZmjB7lOatTVK247Fmh0HQCFysUgda4eoX8vKuq1RmLw9XM2OBAAAgGKMAgQAAAAl0uYjMZq1LUp//B2tpLRMs+MAKGJ+nm66vXGY+rWsrBtqlTU7DgAAAIohChAAAACUGNFxyZq9LUqzt0XpWEyS2XEAFBOVgrzVp0Ul9WtZSbVC/cyOAwAAgGKCAgQAAADFWmpGppbtPaOZW09oXcR5WfntFUAumlcJUr+WldSneSUFeLubHQcAAAAmogABAABAsfR3VJxmbTuh+TtPKS453ew4AEoYb3dX9WlRUQ/cUF0NKgSYHQcAAAAmoAABAABAsZGUlqE5205q+pbj2hcdb3YcAE6ibY0yeuCGaurRKExuri5mxwEAAEARoQABAACA6aJikzR14zH98tdxxSdnmB0HgJMKC/DSoHZVNbBtVYX6e5odBwAAAIWMAgQAAACm+evoBX2/LlJL951RJpN7ACgiHq4uur1JmIbeUF0tqwWbHQcAAACFhAIEAAAARSo906oFu6M1eX2kdkfFmR0HQCnXpFKght5YTb2aVpSnu6vZcQAAAOBAFCAAAAAoEjGJqZq25bh+3HhMZxNSzY4DANco4+uhe1tX0eAbqqlSkLfZcQAAAOAAFCAAAAAoVPtPx+v7dUc1f+dJpWZYzY4DALlydbHolvrl9GDHGmpfs6zZcQAAAFAAFCAAAAAoFMvDz+j7dZHacDjG7CgAkC8tqgTpsa61dGujMLOjAAAAIB8oQAAAAOAwqRmZmrU1St/9eURHY5LMjgMADlG7nJ8e61JLvZtXlLuri9lxAAAAYCcKEAAAABRYakamftlyQt+sOazouBSz4wBAoagU5K2HO9XQfW2qytuDCdMBAACKOwoQAAAA5FtKeqambzmub9Yc1pl4JjYHUDqU8fXQ8A7VNfTG6grwcjc7DgAAAHJAAQIAAIA8S07L1M+bj2nC2iM6l0DxAaB0CvB20/Aba+jBjjUU6E0RAgAAUNxQgAAAAMBuSWkZ+mnTcX279rDOJ6aZHQcAigU/Tzc9cEM1Pdyppsr4epgdBwAAAP9DAQIAAACbLqVm6MeNxzTxzyOKuUTxAQDZ8fFw1f3tqumRzjUV6u9pdhwAAIBSjwIEAAAAOUpMzdCUDUf13Z9HFJuUbnYcACgRvNxd9MAN1fV411oK8uGMEAAAALNQgAAAAOA6CSnp+mHDUU1aF6mLFB8AkC8B3m56vEttDe9QXZ7urmbHAQAAKHUoQAAAAJAlNT1Tk9cf1fg1hxWXTPEBAI5QIdBLo7vXVf+WleXqYjE7DgAAQKlBAQIAAABJ0q87TuqTpQcUFZtsdhQAcEp1y/vp+dvqq3vD8mZHAQAAKBUoQAAAAEq5zZExendhuHZHxZkdBQBKhbY1yuilHvXVslqw2VEAAACcGgUIAABAKXXkXKI+WLRfS/edMTsKAJRKtzUK0ws96qlWqJ/ZUQAAAJwSBQgAAEApc+FSmsYuP6hpm48rw8qvggBgJlcXi+5tXUVPd6ujcgFeZscBAABwKhQgAAAApcSVCc7HrY5QfEqG2XEAAFfxdnfVgx1raGSXmvL3cjc7DgAAgFOgAAEAACgFmOAcAEqGMr4eevLm2hrSvprcXF3MjgMAAFCiUYAAAAA4MSY4B4CSqX6Yv966q7Ha1ihjdhQAAIASiwIEAADACUWev6T3/whngnMAKOH6t6ykl+9ooBA/T7OjAAAAlDgUIAAAAE4kNSNT41cf1vjVh5WaYTU7DgDAAQK83PTMrfU0pH01ubpYzI4DAABQYlCAAAAAOIn1Eef1+q97dOT8JbOjAAAKQaOKAXr7rsZqWS3Y7CgAAAAlAgUIAABACXc+MVXvLAjXrztPmh0FAFDILBbpnlZV9NLt9VXG18PsOAAAAMUaBQgAAEAJNm3zcX24eL/iktPNjgIAKEKB3u564bZ6Gti2qly4LBYAAEC2KEAAAABKoP2n4/XK3D3afjzW7CgAABM1rRyot+9qrGZVgsyOAgAAUOxQgAAAAJQgyWmZGrv8oCati1SGlV/jAACSi0W6r01VvdCjnoJ8uCwWAADAFRQgAAAAJcTy8DN647e9iopNNjsKAKAYCvZx18t3NNCA1lXMjgIAAFAsUIAAAAAUc9FxyXrjt31asve02VEAACVA5zoh+qB/U1UM8jY7CgAAgKkoQAAAAIqpTKuhHzZE6tOlB3UpLdPsOACAEsTf002v3dlQ97bhbBAAAFB6UYAAAAAUQ0fOJeqZmbu088RFs6MAAEqwrvVC9UG/pgoL9DI7CgAAQJGjAAEAAChmfthwVB8sCldKutXsKAAAJxDg7aYxdzZS/1aVzY4CAABQpChAAAAAionouGQ9P2u31kWcNzsKAMAJ3dKgnN7v20TlAjgbBAAAlA4uZgcAACA/hg0bJovFIovFojfeeMPsOA7TtWvXrOf1ww8/mB0HRWju9ijdNnYt5QcAoNCsCD+r7p+t1bwdJ82OAgAAUCQoQAAAhebqkiK7m4eHh0JDQ9WiRQs9/PDDWrBggTIzmegZpcuFS2l67KdtembmLsUnZ5gdBwDg5OKS0zV6xk49+uNWnUtINTsOAABAoaIAAQCYJj09XefPn9fOnTs1adIk9erVS40bN9Zff/1ldjSgSCwPP6PbPlurRXtOmx0FAFDKLNl7Rrd+tka/7eRsEAAA4LzczA4AACgdgoOD1bZt22uWpaamKioqShEREVnL9u/fr5tuukmrVq1SmzZtijomUCQSUzP01u/7NHPrCbOjAABKsdikdP3nl51atOe03unTWGX9PM2OBAAA4FAUIACAItG0aVMtXrw428eOHDmiF154QXPmzJEkXbp0ScOHD9fu3bvl4pL9yYo//PADc2SgRNocGaPnZu3SiQvJZkcBAECStGjPaW2OvKAP+zdR94ZhZscBAABwGC6BBQAwXc2aNTVr1iz16tUra9nevXu1ZMkSE1MBjpWakal3F4Zr4LebKD8AAMXOhUtpGjF1m978fa/SMqxmxwEAAHAIChAAQLFgsVj05ptvXrNs5cqVJqUBHGvvqTj1+nKdJv55RFbD7DQAAORs8vqj6j9+g47FXDI7CgAAQIFRgAAAio3mzZvL19c3635kZGSO6w4bNkwWi0UWi0VvvPFGtuscPXo0ax2LxZK1/MiRI3rppZfUtGlTBQcHy8/PTw0bNtQzzzyjQ4cO2ZX16nGPHj0qSTp9+rTeeecdtW7dWqGhofLx8VGdOnX06KOPavv27XaNmx/nz5/XZ599pltvvVXVqlWTt7e3goKC1LBhQz3xxBPatGmT3WOlpqbqxx9/VL9+/VSzZk35+fnJzc1NAQEBqlOnju644w698cYb2rRpkwyDI/n2mLLhqPp+vUEHzySaHQUAALv8fTJOd36xTgt2nTI7CgAAQIEwBwgAoNiwWCwKCgrSpUuXv3EYFxfn8H389NNPeuSRR5ScfO0liMLDwxUeHq7x48fr448/1qhRo/I07tKlSzVw4EBduHDhmuURERGKiIjQd999pxdffFHvvvvuNWVMQY0dO1ZvvPHGda9VSkqK4uLiFB4ernHjxun+++/XxIkT5e3tneNYu3bt0oABA3Tw4MHrHktISFBCQoIiIiK0aNEivfnmm5oxY4YGDBjgsOfibBJTM/TSnN1asDva7CgAAORZQmqGRk3foQ2HYzSmV0N5uruaHQkAACDPKEAAAMWGYRiKjY3Nuu/v7+/Q8RcsWKAhQ4ZIklxdXdWkSRMFBgYqMjJSx48fl3S5OHjyySeVmZmpp556yq5xt2/froEDByotLU0Wi0UNGzZUaGiooqKiFBERIUmyWq16//33lZycrM8++6zAz8VqtWrkyJGaOHFi1jKLxaI6deqoYsWKSklJ0Z49e5SYePmsg59//llHjx7VihUr5Onped140dHRuuWWWxQTE5O1LCgoSPXq1ZO/v7+SkpIUHR2to0ePZp35YbVyffCc7D8dr8d/2q4j57l8CACgZJu25bi2H4/V14NaqlY5P7PjAAAA5AmXwAIAFBtbt25VUlJS1v3GjRs7dPzhw4dLkgYOHKioqCjt2LFDq1ev1rFjx7Rq1SrVrFkza93nnntOu3fvtmvcRx99VGlpaerWrZsOHTqkPXv2aNWqVTp06JB27Nihli1bZq07duxY/fHHHwV+Lh999FFW+WGxWPTUU0/pxIkTOnDggFatWqWNGzcqJiZG48ePl4+PjyRp/fr1eumll7Id77333ssqPypWrKgFCxYoJiZGmzZt0rJly7R+/XodOXJEFy5c0PTp09W9e3eHnsniTGZtPaE+X6+n/AAAOI39pxPU66t1mrMtyuwoAAAAeUIBAgAoFgzD0JgxY65Z1q9fP4fu4/z58xoyZIimTZumsLCwax7r2rWr1qxZk7U8IyNDo0ePtnvcm266SX/88Ydq1ap1zWPNmzfXqlWr1LBhw6xlTz31VIHmzzh48KD+7//+T9Ll8uPnn3/W2LFjValSpWvW8/Dw0MiRI/XHH3/Ize3ySZ9ffvll1pwlV7u6lJk6dap69uwpF5frf00ICgrSfffdp6VLl+ruu+/O93NwRinpmXp+1i49P3u3UtI5OwYA4FyS0jL17KxdenbmTiWlZZgdBwAAwC4UIAAA0x05ckT9+/fXokWLspYNHDhQzZs3d+h+ypYtqy+++CLHxytXrqwPP/ww6/7KlSvtmhTd3d1dEydOlLu7e7aPBwQEaPz48Vn3IyIitHz58jwkv9Znn32m9PR0SZfPahk4cGCu63fp0kUjRoyQJGVmZmrChAnXrRMV9c83Ojt06GBXDldXrgV+xZFzierz9XrN4puxAAAnN2f7SfX6cr3Co+PNjgIAAGATBQgAoEjs3r1bPXr0uOZ28803q27duqpVq5bmzZuXtW63bt2umdvCUQYPHqygoKBc1xk4cKDKlCmTdf/XX3+1Oe4dd9xx3Zkf/9a5c2c1adIkT+Nmx2q1atq0aVn3n376abu2u//++7P+vHLlyuse9/LyyvqzvZf+wmULdp9S76/Wa//pBLOjAABQJA7/r/j/edMxs6MAAADkigIEAFAkYmNjtWTJkmtuV+bJuKJOnTqaOnWqlixZIl9fX4dn6NGjh8113N3d1a1bt6z7f/31l0PGlaTbb789T+NmZ9euXYqPv/yNy5CQkGtKldxcPZ/Kzp07r7sEV6tWrbL+PHjwYK1fvz5f+UqTtAyr/m/+Ho2atkOJqVwKBABQuqRmWPXqr3s0atp2JaSkmx0HAAAgW25mBwAA4IrIyEiFh4dnO/eEI9g7qXqjRo2y/mzPJbAKa9zs7NmzJ+vPqampdpcvV0tLS1N8fLwCAwOzlj311FNatWpVVraOHTuqTp066tGjhzp37qxOnTqpfPny+crsjKJik/T4z9u1OyrO7CgAAJhqwe5ohUcn6LuhrVUjxPFfYAEAACgIChAAQJHo0qWLVq9enXU/IyNDJ0+e1M6dO/XJJ59o3bp1ysjI0Pvvv6+0tDR98sknDs9QtmzZPK938eLFQhk3Pj5ehmHIYrHYte0VMTExWX9OSEjQkiVL8rT9FXFxcdcUIHfddZfee+89vfbaa7JaL0/gfejQIR06dEhffvmlJKlJkya655579PDDD6tChQr52q8zWB5+Rs/O3KW4ZL7tCgCAdPmSWHd9vU5fDWypznVDzY4DAACQhUtgAQBM4ebmpmrVqumuu+7S2rVrsybplqT//ve/10yI7igeHh52refp6Zn159TU1EIZ12q1Zk1knheXLl3K8zbZuVJyXO3ll1/W9u3bNXjwYPn5+V33+N9//63/+7//U+3atfXf//7XITlKEqvV0IeL9mvE1K2UHwAA/Et8coaG//CXJq07YnYUAACALBQgAADTWSwWff3112ratGnWsscff1xpaWkO3U9Cgn2TVF+9XkBAQKGM6+npaXdxcrWrz9po1KiRDMPI16169erZjt+sWTP9+OOPunDhgtavX693331Xt9566zWTpCclJem5557TZ599luf8JVV8SroenPKXxq85rH9NnwIAAP4n02ro7QXhen7WLqVmZJodBwAAgAIEAFA8uLu76/PPP8+6f/ToUY0fP96h+4iMjMzzeuXKlTNt3OxcPQ/H2bNn8zWGPdzd3XXjjTfqlVde0ZIlS3T+/HlNmDBBISEhWeuMGTPGYWekFGdHz19Sv3EbtPrAObOjAABQIszaFqWB327WuYQUs6MAAIBSjgIEAFBsdO3aVd26dcu6//777ys5Odlh42/ZsiXP67Vs2dK0cbPTvn37rD+fO3dOR44UzWUmfH199cgjj2jWrFlZyxISErRp06Yi2b9Z1kecV59x6xVxNtHsKAAAlCjbj8eq91frtTvqotlRAABAKUYBAgAoVl5//fWsP585c0bffvutw8aeMWOGzXUiIyOvKSo6duxoc5tZs2ZlO6fG1RITE7Vw4cI8jZudKlWqqEGDBln3p0yZkq9x8qtr167XXIbrzJkzRbr/ojRlw1EN/X6LLiYx3wcAAPkRHZeiARM26redJ82OAgAASikKEABAsdK5c2d17tw56/5HH31k10Tk9li1apWWL1+e6zqvvfaajP9N8lCmTBn16tXL5riHDx/W999/n+s677//vhITL59F4ObmpsGDB9uZ+nqjR4/O+vOnn36q8PDwfI8lKev52iM1NfWaydvLlClToH0XV5lWQ3/8Ha0MKxN+AABQECnpVv3nl536aPF+Wfl3FQAAFDEKEABAsfPaa69l/fnUqVM2y4W8GDRokPbs2ZPtYx999JGmTZuWdX/06NHy9PS0a9z//Oc/Wr16dbaPTZ8+XR988EHW/aFDhyosLMz+0P8ydOhQNWvWTNLlM0u6deumP//80+Z2e/bs0YgRIzR58uRrlh87dkydOnXS77//royMjFzHGDNmjJKSkiRJHh4e11ySy5m4ulj0zeBWqlrGx+woAAA4hXGrD2vEj1uVkMKZlQAAoOi4mR0AAIB/6969u9q1a6fNmzdLkj788EM9/PDDcnd3L9C4AwYM0MyZM9WmTRs9/PDD6t69uwIDAxUZGampU6dq1apVWes2btxYL7zwQp7GveWWWzRkyBD16tVLoaGhOnnypGbNmqV58+ZlrVuhQgV99NFHBXoeHh4emjt3rtq2bauYmBidOnVKnTt31s0336w777xT9evXl7+/vxITExUdHa0dO3Zo+fLlWWeKtGrV6rox161bp3Xr1ikkJEQ9e/ZUmzZtVKNGDQUGBio5OVnh4eGaPn26Nm7cmLXNE088oaCgoAI9l+LkWFyU3F3cVdH/8kTzwb4e+n5YG/Ubt17xKbkXQwAAwLYV4WfVd9wGffdAa1UP8TU7DgAAKAUoQAAAxdLrr7+uO++8U9LlMxSmTp2qhx56qEBjTpgwQfv27dOePXv01Vdf6auvvsp2vRo1amjx4sXy8PCwa9x33nlH586d06pVqzRlypQc5+UoW7aslixZ4pDLRtWsWVObN29W7969tW/fPknSypUrtXLlygKNe/78+VyfwxW9evXS+++/X6B9FSd/ndqlxxe9orSMdK0fPk9+HpcPytQu56evBrXU8B/+UiaX7QAAoMAizibqrq/X6+tBLdWxTojZcQAAgJOjAAEAFEs9e/ZUy5YttX37dkmX59AYOnSo3Nzy/09XUFCQNm7cqKeeeko///zzdXOLXJmb49NPP1VwcLDd47q7u2vJkiV69dVXNX78+Ky5Pq6wWCzq1auXvv76a1WuXDnf+f+tVq1a2r59u7799luNHTtWR44cyXFdPz8/3XTTTRo0aJD69OlzzWPly5fXRx99pN9//12bN29WWlpajuPUq1dPzz33nB566CFZLBZHPRVT/XpgsV5Z+aHSrJcvydF/9iNaeN8Uublc/qx1rhuq1+9sqDd+22tmTKDE8/N0U7Cvu8r4eCjY10NlfD0U7HP55uflJk83F3m6ucjDzUWebq5Z9z3dXOTp7ioPVxd5ul9Zx1VuLhZlWg1lWA1lZFr/919D6Vbr5eVXLcuwGsqwWpWRaSgxNUMJKRlKTE1XQkpG1i0+JV0Xk9J0MSldsf/7b2qG1eyXDXBKccnpGjZ5i97v10T3tK5idhwAAODELEZeZj4FAKAEOXr0qGrUqJF1/+p/8i5cuKBVq1bpxIkTSk9PV5UqVdStWzeFhNj3TcSrD/5HRkaqevXqkqRLly5pxYoVOn78uC5duqRKlSqpS5cuqlKl8P/n/tChQ9q6davOnj2rhIQE+fr6qnz58qpfv76aNGli1yXEUlJStGvXLh06dEinT59WcnKyfH19FRYWphYtWqhBgwaF/jyK0mebJ+rrrdef7dK9RieNu/29a97n137do582HSvKeECx5+piUViAlyoHe//v5qMQP8/LRcf/Co4r//VwK3nTDyalZSg2KV3n4lN0Ki5F0XHJOnUxRacuJis67vJ/zyWmiv+jAvLv+dvq6YmbapsdAwAAOCkKEACA08qtACmonAoQlAzpmRl6ceW7+u3gshzXebLNcP2nzYNZ73VGplXDJv+ldRHniyomYDoXi1T+fwVHlTI+WSVH5WBvVQn2UYVAL7m5lrxiw5HSM606E5+ikxeTFX3xn5LkRGySIs4m6uTFZAoSwIahN1bXmDsbysXFOc4uBQAAxQcFCADAaVGAIDtJ6ckatfg1rT2+2ea6425/T7fW7Jx1Pz45XX3Hrdfhc5cKMyJQ5FxdLKpe1lf1w/xVL8xf9cP8Vae8vyoHe8u9lBccBZWUlqHDZy/p0NkERZxNVMTZRB06m6jjF5KYWwi4Ss8mFfTZvc1L5NliAACg+KIAAQA4LQoQ/FtsSpxGLHhBO8/YP5/HkoE/qVaZ6ln3j56/pD7j1utiUnohJAQKX4VAL9UL81e98v+UHbXK+cnTzdXsaKVKakamIs9fUsSZREWcS9ShM4k6cCZBh88lcsYISq0bapXVt0Nayd/L9mU7AQAA7EEBAgBwWhQguFp0whkN//1ZRcQezdN2Xm4eWj90vgK9/LOWbToSoyGTNis9k1+jULxVK+ujVtWC1bxKkBpUCFC98v4K8ObAYnGWkJKuv0/Gaefxi9oVdVE7T1zUmfhUs2MBRaZRxQD9MLyNQv29zI4CAACcAAUIAMBpUYDgisOxxzTst2cUnXgmX9tXCaigpYOmyd31nwPHv/x1XC/N+dtREYEC83J3UbPKQWpZNVgtqwWrZdUglfXzNDsWHOB0XIp2nrioXScuamfURf0dFafE1AyzYwGFpkoZb019sJ1qhPiaHQUAAJRwFCAAAKdFAQJJ2nVmnx5e8LxiU+IKNE7HKm00uden17z37yzcp+/+jCxoRCBfKgd7q2XVYLWoGqRW1YLVoEIA83WUElaroYhzidp14qK2H4/VhsMxOhaTZHYswKHK+nro+2Ft1KxKkNlRAABACUYBAgAAnNa641v0+OJXlZSe7JDxHm4+UC/e+HhWCWK1Ghrx41atCD/rkPGB3FQO9lbnOqHqUDtErasHq3wAl4fBP6Jik7ThcIzWR5zXhogYnUvkslko+Xw8XPXN4FbqXDfU7CgAAKCEogABAABOacGh5Xph+btKszp2svJPu/+fete9Net+YmqG7h6/QftPJzh0P4Cvh6va1yqrznVC1alOiGqG+pkdCSXIgdMJ2nD4vNZHnNfmIxeUwCWzUEK5u1r00d3N1LdFJbOjAACAEogCBAAAOJ2f/p6rt/4cK6thLZTxfxswWQ1D62Tdj4pNUp+v1+t8Ylqh7A+lg8UiNa4YqE51QtS5bqhaVg2WhxuXtELBZWRatTsqTusPXz47ZNuxWKVlFs7fj0BhsFikl29voEc61zQ7CgAAKGEoQAAAgFP5fMskffnX5ELdh4eLh9YNm6sy3kFZy7Yfi9XAiZuUmsFBRdgv1N9TXeqGqnOdEHWsE6oyvh5mR0IpkJiaodX7z2rpvjNatf8sZ4egxHi4Uw291rOh2TEAAEAJQgECAACcgtWw6s21n+nnPfOKZH9hvqFaMXiGPN3+OWD9646TenrGziLZP0quamV91KNRmG5rFKaW1YLNjoNSLi3Dqo2Hz2vpvjNatu+MziYwdwiKt8Htq+mdPo3NjgEAAEoIChAAAFDiZVoz9cKKdzX/4NIi3W/bis31U58v5GL55zJFnyw9oK9WRhRpDhR/DSr4Xy49GoepfliA2XGAHG0/Fqul+05ryd4zijx/yew4QLbub1dV7/ZtYnYMAABQAlCAAACAEi3DmqFnl72thRErTNn/4MZ9NabzM7JYLFnLHv95m/74+7QpeVB8NKjgr55NKqpn0wqqEeJrdhwgzw6dSdDSfWe0ZO9p7Y6KMzsOcI2Bbavo/X5NzY4BAACKOQoQAABQYqVnZuiZZW9q0eFVpuZ4t+sLurdR76z7yWmZGjBho/4+yQHD0qZeeX/1bFpBPZtWUK1QP7PjAA5z9Pwlzd0RpXk7TurEhWSz4wCSpPvaVNEH/SlBAABAzihAAABAiZSemaH/LPk/LYtca3YUSdKs/hPUIqxR1v0z8Snq/dU6nYnnevrOroyvh/o0r6h7WldRgwpc3grOb3NkjOZuP6k/dkczgTpMN6B1FX3Qr4lcXCy2VwYAAKUOBQgAAChx0jLT9eTi17Ti6Hqzo2RxkYvWDZurcr4hWcv+jorTgAkblZyeaWIyFAZXF4u61A3VPa0r65b65eXh5mJ7I8DJpKZnaum+M5qzPUp/HjqvTCv/awlz3NO6sj7s15QSBAAAXIcCBAAAlChpmWl6fNGrWn1so9lRrlPWO1irH5glbzevrGWL9kTr8Z+3i9+4nEOtUF/d06qK+rWspHIBXrY3AEqJcwmpmr/zpOZuP6l90fFmx0EpdHeryvqoPyUIAAC4FgUIAAAoMdIy0/XEole16tgGs6PkqFm5BprZf4JcXf45I+CrlRH6ZOkBE1OhIPw83dSzaQUNaF1FraoFmx0HKPbCo+M1e1uUZm07ofhkLpGFotOvZSV9cnczShAAAJCFAgQAAJQI6ZkZenLJa1oeuc7sKDb1q3e7PrzlFVks/xyAGT1jp+btOGliKuRV2xpldG/rKrq9SZh8PNzMjgOUOMlpmZq346R+3HRU4dEJZsdBKdGneSX9d0AzuVKCAAAAUYAAAIASoLhNeG6PVzv+R8ObDci6n5qRqYHfbtb247EmpoItnm4u6tWsoh7sUF0NKwaaHQdwGpsjYzR1wzEt2XtaGcwVgkJ2V/OK+nRAc0oQAABAAQIAAIq3DGuGnloyRkuOrDE7Sp79dNcXal+5Zdb984mp6vP1ekXFJpuYCtkJ9fPU4PZVNahdNYX6e5odB3BaZ+JT9PPmY5q++YTOJaaaHQdOrHezivrsXkoQAABKOwoQAABQbGVaMzV62Zv6I2Kl2VHybc0Ds1XJPyzr/v7T8bp7/EYlpnJd/OKgUcUAPdihhno1qygPNxfbGwBwiLQMqxbtidaUDcc4Mw6FplfTChp7XwtKEAAASjEKEAAAUGw9u+wtzT+41OwYBRLg4ac/h82Tr7t31rIV4Wc0YupWcRUYc7hYpO4Ny+vBDjXUrmZZs+MApd7fUXGauvGo5u88pbRMq9lx4GTual5Rnw1ozsToAACUUhQgAACgWHrrz7Gaunu22TEcon7Z2po/YJJcXVyzln335xG9szDcxFSlj7+nmwa0qaJhN1ZXlTI+ZscB8C+n41L03bojmr75uC6lZZodB05kSPtqertPY7NjAAAAE1CAAACAYuerv37Q2C3fmR3Doe6ofbM+v/VNWSz/fAP1pTm79ctfJ0xMVToE+7hrRKeaeuDG6vLzdDM7DgAbLialacrGY5qy4aguXEozOw6cxKiba+u5W+uZHQMAABQxChAAAFCsTNvzq/5vzSdmxygUz7Z7RCNbDckqQdIzrXpg0hZtPBJjcjLnVNbXQyM619SQ9tXkS/EBlDjJaZn65a/jmrDmiE7Hp5gdB07gtZ4N9HCnmmbHAAAARYgCBAAAFBt/RKzU00vfkNVw3mvAf9fzY3WtfkPW/YtJaerz9XodjUkyMZVzCfXz1CNdampwu2ry9nC1vQGAYi01I1OztkZp/OrDOnkx2ew4KMEsFumj/k11T+sqZkcBAABFhAIEAAAUC+tO/KVHFrygNGu62VEK3fL7f1H1oMpZ9w+fS1TfcesVn5xhYqqSL9TfUyO71NT97arJy53iA3A26ZlWzd1+Ul+vitDxC5TGyB9XF4vG3d9StzUKMzsKAAAoAhQgAADAdLvO7NOQ+U8pKb10fLPX181Hfw6bqwBPv6xl6w6d17DJW5Rh5VezvCof4KmRXWppYNuqFB9AKZCRadX8naf02fKDiootHf9uwLE83Vz0/bA26lA7xOwoAACgkFGAAAAAU0VcOKqB855QbEqc2VGKVI3Aqlo0aKrcXP6Zm+KnTcf02q97TExVsoQFeOmxrrV0X5sq8qT4AEqd1IxM/bTpmL5aGaHYJOc/exCO5efpphmPtlejioFmRwEAAIWIAgQAAJjmVMIZ3Tv3MUUnnjU7iiluqd5B39zxQdak6JI05re9mrLhqHmhSoAALzc93rW2hneoTvEBQPEp6Zqw5oi+Xxep5PRMs+OgBAn189Scx25U1bI+ZkcBAACFhAIEAACY4kLyRd0393EduXjc7CimerzVAxrdbkRWCZJpNfTgD39pzcFzJicrftxcLLq/fTU9dUsdlfH1MDsOgGLmTHyKxi4/qJlbo5TJ5QRhp+plfTT7sRsV4udpdhQAAFAIKEAAAECRu5SepCG/PqXdZ8PNjlIsfNnjbd1e66as+/Ep6eo3boMiziaamKp4ubVheb10e33VDPWzvTKAUu3w2UR9tGS/luw9Y3YUlBBNKwdq+oj28vV0s70yAAAoUShAAABAkUrLTNeIBc9rfdRWs6MUK3/cN1V1y9bMun88Jkl9xq3XhUtpJqYyX9PKgXq1ZwO1q1HW7CgASphtx2L1/h/h2nos1uwoKAE61wnRpGFt5O7qYnYUAADgQBQgAACgSD277C3NP7jU7BjFjpebh9YN/VVBXgFZy7ZEXtDg7zYrLdNqYjJzVAry1vO31VOfFpXMjgKghFu274w+XLyfs+pgU5/mlTT2vuZmxwAAAA5EAQIAAIrMF1u+1xd/fW92jGKrkn8FLbt/mjxc3bOWzdp6Qs/P3m1iqqLl7+mmJ25ignMAjpWeadXk9Uf1+fKDupTGROnI2RM31dbzt9UzOwYAAHAQChAAAFAk5h9cqmeXvWV2jGLvxsqt9UPvz+Tyv0nRJen9P8I1Ye0RE1MVPotFGtS2qp69tR4TnAMoNKfjUvTOwn1asDva7Cgoxsbe25wzEAEAcBIUIAAAoNBtPbVbD/z2tNIyS/d8FvYa3uwevdLhP7L8rwSxWg2N/Gmblu5zzgl9G1Tw13t9m6hF1WCzowAoJdYdOq8xv+3R4XOXzI6CYsjTzUUzHmmv5vy7BABAiUcBAgAAClVaZpo6TemvmGQmoc2Lj295VX3r3551PyktQ3eP36h90fEmpnIsHw9Xje5eV8NvrC43Jp0FUMTSMqz67s8j+nJlhJLTuSwWrhXq76nfRnVQhUBvs6MAAIACoAABAACF7nTiOfWeMVwXUi6aHaVE+fWe79S4XP2s+6cuJuuur9frXEKqiakc49aG5fVG70aqGMSBJQDmOnkxWW/9vk9L9p42OwqKmUYVAzR75I3y9mBOKgAASioKEAAAUCSS01N037zHtffcQbOjlBhuLm5aN3SuQnzKZC3beTxW9367SakZVhOT5V/FQC+9eVcjdW8YZnYUALjGmgNnNea3vToak2R2FBQjtzcO0/jBrcyOAQAA8olrDQAAgEIxe9sJpVx1SRFvdy/NvXuietXpZmKqkiXDmqG7Zjyo1Ix/zvhoXjVYH9/d1MRU+ePmYtGITjW1/NkulB8AiqUu9cppyejOeqZ7XXm68b/KuGzRntP6dNkBs2MAAIB84gwQAADgcD9uPKbX5+9R8ypBmvhAK4X6e2U9ZhiGJu6Ypo82jjcxYcnSKqyJpvf7Wi6Wfw7IfbbsoD5fccjEVPZrUSVI7/VrogYVAsyOAgB2OXQmQc/O2qXdUXFmR0Ex8eXAFurVrKLZMQAAQB5RgAAAAIdaH3FeQ7/fogzr5V8xKgZ6adKwNtcd/F5zbJMeWvCcGRFLpPsa3qW3uz4ni8WStWzUtO1asDvaxFS58/Fw1cu3N9D97arKxcViewMAKEYyrYa+WXNYny8/pLTMknnZQTiOl7uLZjxyg5pVCTI7CgAAyAMKEAAA4DBHz1/SXV+vV1xy+jXLfT1cNfa+FuresPw1y49djFLvGQ/qUgbXW7fHm52f1f1N+mbdT0nP1L0TNmpXMfyGcqtqwfp0QDNVK+trdhQAKJD9p+P13Kxd2nMy3uwoMFn5AE/9Nqqjygd42V4ZAAAUCxQgAADAIeJT0tX36w06fC4x28ddLNJLtzfQI51rXrM8ITVRfWeN0NG4E0URs8Sb0W+cWlX4Zw6Qcwkp6v3VekXHpZiY6h8eri4a3b2OHu1ci7M+ADiNjEyrxq0+rC9XHlJ6Jv8LXZo1rRyomY/eIC93V7OjAAAAO1CAAACAArNaDT34w19affCczXXvbVNF7/RpLHfXf+azyLBm6LE/XtGqYxsKM6ZTcJGL1g6dozC/0Kxl+07F6e5vNiopLTOXLQtfgwr++nRAc+b6AOC0wqMvnw2y9xRng5RmdzatoK8GtTQ7BgAAsAMFCAAAKLBPlh7QVysj7F7/hpplNX5wSwX5eGQtMwxDn2yaoAnbfyqMiE6ljFeQ1jwwW97u/1yCY8ne0xr50zaZ8Zudi0V6tHMtje5eVx5uLrY3AIASLD3Tqq9WRujrVRFZ812h9Bndva6euqWO2TEAAIANFCAAAKBAVh84q+E//JXnA+/Vy/po0rA2qhXql7XMMAwtjFihp5e+4diQTqhRaF3NvXuiXF3+uQTH+NUR+nDxgSLNUbWMjz4d0Eytq5cp0v0CgNn2norTc7N2KTw6wewoMIHFIo27v6Vub1zB7CgAACAXFCAAACDfTl5M1p1f/KnYpHTbK2cjwNtN4+9vpQ61Q65ZHn7+kPrPelRp1jRHxHRad9W9VZ90e10Wyz9zbTw3a5dmb4sqkv0PaltVr/ZsIF9PtyLZHwAUN2kZVn24eL8mrYs0OwpM4Ofppt+f7KgaIb5mRwEAADmgAAEAAPmSlmHVvRM2aseJiwUax83ForfuaqRB7apds/xC8kX1njFcpy/ZnlekNHv5xlF6qMV9WffTMqy6/7tN+utobKHts5y/pz66u6m61itXaPsAgJJk2b4zen72Ll3M5xcCUHI1rBCgeY/fKE8mRQcAoFjiIs0AACBf3vsjvMDlhyRlWA29Mm+P3l6wT9arrqVexjtIKwbPUOsKzQq8D2f2/oavtP7E1qz7Hm4umjCktaqU8S6U/XWuE6LFT3em/ACAq3RvWF5//KeTWlULNjsKiti+6Hi9+fs+s2MAAIAccAYIAADIswW7T2nUtB0OH/fm+uX0xcAW8rvqkkpWw6o31n6maXvmOXx/zmTVkJmqElAx6/7BMwnqP26DElIzHDK+i0V6ultdjbqptlxcLLY3AIBSKCPTqk+XHdT4NYfzPDcWSrbP72uuu5pXMjsGAAD4FwoQAACQJ0fOJar3V+uV6KAD6/9WP8xf3w1trcrBPlnLDMPQ9L3z9X9rPimUfToDPw9frRs6T34e/7xuqw+c1UNTtirTWrBf90L8PPT5fS2um6sFAJC9tQfP6ZmZO3U+kbmsSgtfD1f99mRH1Qr1MzsKAAC4CgUIAACwW0p6pvp8vV77TycU6n5C/Dz07ZDWavmvS4lsi96tgXNHySproe6/pKoTXEO/3/eD3Fz+uQ755PWRBbo0R9saZfTlwBYqH+DliIgAUGqcjU/RUzN2auPhGLOjoIjUD/PXr090kBfzgQAAUGwwBwgAALDb67/uKfTyQ5LOJ6Zp4MRNmr/z5DXLW1VoqrVDZyvIK6DQM5REh2Ij9dSSMbr6+y3DO9TQ/e2q5nksi0V6rEstTR/RnvIDAPKhXICXfn6onZ7uVkdcObB02H86Qf83f6/ZMQAAwFUoQAAAgF1m/HVCs7ZFFdn+UjOseuqXnfp02YFrlof5ldPaB+aoYdk6RZalJFlyZLW+3jrlmhLkzd6N1KF2WbvHCPJx13cPtNaLt9eXK0ftACDfXFwserpbXf38cHuV8/c0Ow6KwMytJzRne9H9vgQAAHLHJbAAAIBN4dHx6vP1eqVmmHPpqV5NK+iTe5rJ86pLSmRaM/Xc8rf1+6HlpmQq7ibc8aFuqdEh635ccrr6fr1eR85fynW7ZpUD9fX9La+ZgwUAUHDnElI18qdt2nYs1uwoKGTe7q76bVQH1Snvb3YUAABKPQoQAACQq4SUdPX6cp2OxiSZmqNFlSB9+0Arhfr/czkmwzA0YfvP+mTTNyYmK76WDpqmmsH/XP7qyLlE9R23QXHJ6dmuP/TG6nr1jgbycOMkYQAoDGkZVr3669+atZUzBJxdnXJ+mj+qg3w83MyOAgBAqUYBAgAAcjXyp21avOe02TEkSRUDvTRpWBs1qHDtHCCrj23UwwueNylV8eXj5qV1w+YpwPOfb6BuOHxeD0zaogzrP78Cerq56IP+TdW3RSUzYgJAqTN5faTeWRiuTCv/O+7M+respP8OaG52DAAASjW+3gcAAHL0/brIYlN+SNKpuBTdPX6DloefuWZ512o3aPn9v8jXjcs2XS0pI0V9Zz6s9MyMrGU31grRW3c1zrof6u+pGY+0p/wAgCI0vEMN/TC8jQK93c2OgkI0Z/tJzdp6wuwYAACUapwBAgAAsrX/dLx6f7leaZnmzPuRGxeL9NLtDfRI55rXLI9PTVS/WSN0NI6DDVfrUrW9vrvzY1ks/0xo/vaCfdoSeUHfPtBKFQK9TUwHAKXX0fOX9PDUrYo4m2h2FBQSL3cXzX+io+qFMR8IAABmoAABAADXScuw6q6v1yk8OsHsKLm6r00Vvd2nsdxd/zmpNT0zQ48telmrj200MVnx82jL+/Vc+5FZJYjVaigt0yqvqyaWBwAUvYSUdD09Y6dWhJ81OwoKSa1QP/3+JPOBAABgBi6BBQAArvPZsoPFvvyQpF/+OqEHJm3RxaS0rGXurm6a2PMjPdpysInJip8J23/WHxErs+67uFgoPwCgGPD3ctfEIa31WJdaZkdBITl8LlHv/7Hf7BgAAJRKnAECAACu8dfRC7p3wkaVpHlZa4T4atLQ1qoZ6pe1zDAMLYxYoaeXvmFesGLGw9VDG4fPV6Anl+EAgOJo/s6TenHObqWkF7/LT6JgLBZp6oNt1alOqNlRAAAoVTgDBAAAZLmUmqFnZ+4qUeWHJEWev6S+4zZow+HzWcssFovurNNNv987WR4uHiamKx7KeAfpp7s+p/wAgGLsruaVNPPRGxTq52l2FDiYYUgvzN6t+JR0s6MAAFCqUIAAAIAsby/Yp+MXksyOkS9xyel6YNIWTdt8/JrlDULqaN2wuQrzLb3fuKwdXF1z7v5WLSs0MTsKAMCGppWDNOexG1W9rI/ZUeBg0XEpevO3vWbHAACgVKEAAQAAkqQV4Wf0y18nzI5RIBlWQ6/M+1tvL9gn61WnsZTxDtKKwTPUukIzE9OZo23F5prZf7yqBFQ0OwoAwE5Vy/po9mM3qkmlQLOjwMHmbD+pZftOmx0DAIBSgwIEAADowqU0vTTnb7NjOMykdZEa8eNWJaZmZC3zdPPQtL5famCjPuYFK2LdanTS5F7/VQCXvQKAEifEz1O/PNJeneqEmB0FDvbK3D26cCnN7BgAAJQKFCAAAECvzPtb5xJTzY7hUCvCz+ru8RsUFfvPJb1cLC56q8uzeqvLsyYmKxp3N+ipr3u8I083riMPACWVr6ebvh/WRnc15yw+Z3IuMVWvznOeL54AAFCcUYAAAFDKzdkepcV7nPNSDPtPJ6jv1xu043hs1jKLxaJBjfvql37j5OKkvwo90uJ+fXDzy3J1cTU7CgCggNxdXfT5fS30cKcaZkeBAy3ac1rzd540OwYAAE7PYhiGYXs1AADgjE5eTNbtY9cqPiXD9solmKebiz6+u6l6N690zfLTiWd154xhupgSb1Iyx7LIopc6PKGHmt9ndhQAQCGY+OcRvfdHuPi/eOcQ6O2upaM7q3yAl9lRAABwWs75tUcAAGCX52ftcvryQ5JSM6z6zy879dmyg9csD/Mrp7UPzFHDsnVMSuY4bi6u+vCWVyg/AMCJjehUU58OaC53V4vZUeAAccnpenHObrNjAADg1ChAAAAopb5fF6kNh2PMjlGkPl9xSE9O267U9MysZT7u3po34DvdWaebickKxsvNU+Nuf0/96t9udhQAQCHr26KSJg1tIx8PLnPoDFYfOKfpW46bHQMAAKfFJbAAACiFDp1J0J1frlNqhtXsKKZoUSVI3z7QSqH+/1xywjAMfbP9J/130wQTk+VdgKe/Jvb8UK0qNDU7CgCgCO06cVEPfL9FccnpZkdBAfl6uGrx051VpYyP2VEAAHA6nAECAEApY7Uaem7WrlJbfkjSjhMXdddX6xUe/c/cHxaLRSNbDtZ3d35sYrK8KesdrGl9vqT8AIBSqFmVIP38cDsFerubHQUFdCktU8/P3mV2DAAAnBIFCAAApcyPm45pV1Sc2TFMdyouRXeP36Dl4WeyllksFnWtdoOW3z9dPm7Fe0LSEJ8y+rnPF6ofUtvsKAAAkzSuFKhpI9opyIcSpKTbdOSCvl8XaXYMAACcDgUIAAClyJn4FH2y5IDZMYqNS2mZemTqVn279sg1y6sHVdG6YfNUPbCKSclyV86nrH7u86Vql6lhdhQAgMkaVQzUtIfbKZgSpMT7aMl+HY9JMjsGAABOhQIEAIBS5M3f9yohNcPsGMWK1ZDe+yNcL83ZrfTMfy4LFuDpr0UDf1TXajeYmO56Yb6h+rnvV6oVXM3sKACAYqJhxUBNG9GeEqSES0m36v9+22N2DAAAnAoFCAAApcSq/Wf1x9+nzY5RbP3y14nrJpN1d3XTxJ4f6ZEWg0xM9o8KfuX0c98vVSOoeJ6ZAgAwT4MKAZo2or3K+HqYHQUFsPrAOS3aE212DAAAnIbFMAzD7BAAAKBwJadlqvtnaxQVm2x2lGKvRoivJg1trZqhflnLDMPQgkPLNXrZm6blunzmx5eqFljZtAwAgOJv/+l43T9xs2IupZkdBflUIdBLy5/pIl9PN7OjAABQ4nEGCAAApcDnKw5Sftgp8vwl9R23QRsOn89aZrFY1Ktud/1+72R5uBT9N2vL+ZTVj32+oPwAANhUPyxA0x9prxA/zgQpqaLjUvTZ8oNmxwAAwClQgAAA4OT2n47Xd39Gmh2jRIlLTtfQ77do+pbj1yxvEFJH64bNVZhvaJFlCfUpq5/6cNkrAID96pb31/QR7RXq52l2FOTTD+uPKjw63uwYAACUeBQgAAA4uVfm7lGGlSte5lV6pqGX5/6ttxfsk/Wq16+Md5BWDJ6h1hWaFXqGst7B+vGuz1UzuGqh7wsA4FzqlPfX9EcoQUqqDKuh135lQnQAAAqKAgQAACc2bfMxbT8ea3aMEm3SukiN+HGrLqVmZC3zdPPQtL5famCjuwptv/4efprc+1PVLlO90PYBAHButcv5aepDbRXgzVwSJdG2Y7H65a/jtlcEAAA5YhJ0AACc1LmEVN3y6WrFJ2fYXhk2Najgr++GtlGlIO+sZYZhaNqeXzVm7X8dui9PVw9N7v2p2lZs7tBxAQCl07ZjsRr83WYlp2eaHQV5FOTjrpXPdlUZX+Z0AQAgPzgDBAAAJ/XOwn2UHw4UHp2gPl+t186rzqixWCy6v0lf/dJ3nFwc9GuVq8VVX9z2FuUHAMBhWlUL1oQhreThyiGAkuZiUrreXxRudgwAAEosfvsBAMAJ/XnonObvPGV2DKdzLjFV9367Sb/vuva1bV2xqdYMna0gr4ACjW+RRe/d9KJuqdGxQOMAAPBvneuG6tN7m8nFYnYS5NXsbVH66+gFs2MAAFAiUYAAAOBkUtMz9TqTZhaa1Ayrnpy+Q2OXH7xmeQW/clr7wBw1KFsn32O/1OEJ9W9wR0EjAgCQrTubVtQ7fZqYHQN5ZBjSa/P2KCPTanYUAABKHAoQAACczFerInQ0JsnsGE5v7PJD+s/0HUq96nrqPu7e+nXAd7qz9i15Hu/RloP1UPP7HBkRAIDrDGpXVaO71zU7BvLowJkETVoXaXYMAABKHAoQAACcyPGYJE1Yc8TsGKXGb7tO6b5vN+lcQmrWMlcXV3126xt6tv2jdo8zoMGdev6GkYUREQCA6zx1Sx0NblfV7BjIo89XHNLJi8lmxwAAoEShAAEAwIl8sDhcaVweoUjtOHFRfb5er/Do+KxlFotFI1sO1nd3fmxz+1trdtbbXZ8vzIgAAFznrbsa67ZGYWbHQB4kpWXqrd/3mh0DAIAShQIEAAAnsfXoBf3x92mzY5RKJy8m6+7xG7Qi/EzWMovFoq7VbtCy+6fLx80r2+3aV2qhsbe+IVcX16KKCgCAJMnFxaIv7muudjXKmB0FebBk7xmtPXjO7BgAAJQYFCAAADiJdxeGmx2hVLuUlqkRU7dq4p/XXoKsRlAVrRs2T9UDq1yzvFZwNY27/T15uHoUZUwAALJ4urtq4gOtVbe8n9lRkAfvLwqX1WqYHQMAgBKBAgQAACewYNcp7Thx0ewYpZ7VuFxEvTRnt9KvuhRZgKe/Fg38UV2qtpcklfEO0sSeHyvA09+sqAAASJICvN01aWgblfGlkC8pwqMTNHdHlNkxAAAoESyGYfC1AQAASrDUjEzd8t81ioplUszi5IZaZfXN4FYK9HbPWmYYhsZumaQuVdupZYUmJqYDAOBaWyIv6P7vNik9k0MEJUGFQC+teq6rvNy5jCYAALnhDBAAAEq4H9YfpfwohjYejlGfr9fryLnErGUWi0Wj2z1M+QEAKHba1iijd/rw71NJER2Xou/XRZodAwCAYo8CBACAEuzCpTR9vSrC7BjIQeT5S+o7boM2HD5vdhQAAGy6t00VPdSxhtkxYKfxqw8rJjHV7BgAABRrFCAAAJRgn684pPiUDLNjIBdxyeka+v0WrTtECQIAKP5euaOButYLNTsG7JCQmqEvVvJFGAAAckMBAgBACXX4XKJ+3nTM7BiwQ/2wALWuHmx2DAAAbHJ1sejLgS1Uu5yf2VFgh2mbjyny/CWzYwAAUGxRgAAAUEJ9sGi/MqxMVFrclfP31MQHWjNJKQCgxPD3ctekoa0V7ONudhTYkJ5p6KPF+82OAQBAsUUBAgBACbTpSIyW7TtjdgzY4Onmom8faK2wQC+zowAAkCfVyvpq/OBWcne1mB0FNizac1rbjsWaHQMAgGKJAgQAgBLonYX7zI4AO3zQv6maVwkyOwYAAPnSvmZZvdm7sdkxYIf3/gg3OwIAAMUSBQgAACXM3O1R2nMy3uwYsGFwu6rq26KS2TEAACiQQe2qaniH6mbHgA3bjsVq8Z7TZscAAKDYoQABAKAESUnP1MdLDpgdAzb8P3v3HR1lmbdx/JpMeg8loSf03mVBmqCAFRBB7Iqyurqor8pa1t52XRuuXVFU7IqIYsGOUqSIdOmhBkhISO/JTN4/wNkECKnz3DOZ7+ccz85kZp654nrOPJnrue9fz5ZRum9sN9MxAACoF/ec01X942NMx0AVHv9mi0ocTtMxAADwKBQgAAB4kTeX7tLBrELTMXASUSEBevnyfgryr9nQ88zMTM2bN08333yzhg8frmbNmikoKEjh4eFq06aNxo4dq//+97/KyKj/Pb4TEhJks9lq/c9bb71Vr8e+6667qszsdDr1+uuva8iQIYqKilJoaKh69uypBx98ULm5udX+3R0Oh3r37i2bzaYuXbqouLi42q8FAF/hb/fTC5f2ZSi6h9uVlqf3V+w1HQMAAI/ibzoAAAConryiUs1ctNN0DJyEzSY9Pbm3WsWEVvs1W7Zs0e23367vvvvuhF++FxcXKy8vT/v27dOXX36pe+65R//617/0f//3f7LZPGMwbePGjS19v8LCQl1wwQVasGBBhZ9v3LhRGzdu1Hvvvacff/xRbdq0qfJYL774otavXy9Jev755xUYGOiWzADg7ZpHheiZi/ro6rd+U1mZ6TSozHM/btcF/VoqIpiyCgAAiQIEAACvMfvX3crILzEdAyfxt+HtNKprXI1es3HjRn355ZcVfma329WhQwfFxcXJ4XBo8+bNSk9PlyTl5+fr1ltv1caNG/Xaa6/VSwly2mmnKSUlpdrPX758ubKysiRJjRo10plnnlmt1w0YMECNGjWq8nmdO3c+6eN33HGHq/yw2Wzq3bu3wsLC9Ntvv6m4uFg7duzQpEmTtGzZMtntla/ESUlJ0f333y9JmjhxokaPHl2t3wMAfNWIzrG64bT2eunnRNNRUInDecWauWinpo85+WcpAAC+ggIEAAAvkFdUqtcWs/rDkw1s20i3n9ml1q/39/fXeeedpylTpmjkyJGKjIx0PVZWVqb58+dr2rRp2r9/vyRp1qxZ6t+/v2644YY6Z589e3a1n5uVlaVmzZq57l988cXVXjXxxBNPaMSIETWNV0FSUpJeeuklSVJYWJi++uornXbaaZKkPXv2aNSoUdqxY4d+++03zZ07V5MnT670WHfccYeysrIUGhqqZ555pk65AMBXTB/TWav2ZGjlrnTTUVCJt5bu1l+HtVNUCKtAAABgBggAAF7gnWV7WP3hwZqGB+n5S/rK7lfz1RgBAQH661//qsTERM2bN0/jx4+vUH5IR1Y5jB8/XsuWLatQPtx///0qKbH2v4uPP/5YhYX/m0MzZcoUS9//k08+kcPhkCTdeOONrvJDkuLj4zVjxgzX/Q8//LDS4yxdulTvvPOOJOnee+9V69at3ZQYABoWu59Nz1/SV43D2DLQU+UUlerNpbtMxwAAwCNQgAAA4OHyi0s1k9UfHsvuZ9Nzl/RVbGRwrV4/fvx4vfbaa9WaV9G6dWs99NBDrvtpaWlatGhRrd63tsqvFunatasGDBhg6fv//vvvrtuXXnrpcY+fd955iomJOe655TkcDk2bNk1lZWXq1KmTpk+f7p6wANBAxUUG65mL+qgWvT8s8sbSXcop5OIZAAAoQAAA8HBvL9uj9Lzjh2PDM9w6qpNObW/dEPCxY8dWuL9lyxbL3nvHjh1aunSp6/5VV11l2Xv/KTU11XU7ISHhuMdtNpvi4+MlSYcOHTrhMV566SWtW7dOEoPPAaC2hndqqmkjO5iOgUpkF5Tq7WV7TMcAAMA4ChAAADxYfnGpXlvE6g9PNbJzrG483dovf44dIp6dnW3Ze7/99tuu235+frriiisse++aKCsrq/SxQ4cOuQafX3DBBRozZoxVsQCgwbllVCed2s66iwBQM7OW7FJ+canpGAAAGEUBAgCAB3t3+V4dZvWHR2oaHqSnJ/e2/H337Kl4NWdsbKwl71tWVuaamSFJo0ePVosWLSx57/KaNm3qun3sv4s/7d2797jn/umOO+5QZmYmg88BoB7Y/Wx69uI+ahLOSjpPlJ5XrHdYBQIA8HEUIAAAeKiCYodmLko0HQOV+M/EnmpkYADsp59+WuH+oEGDLHnfX375Rbt373bdr83w86eeekp9+/ZVdHS0goKC1Lx5cw0ePFh33XWXNmzYUK1j9OvXz3X7/fffP+7xr7/+WhkZGcc9V5J+/fVX1yqWe+65p1pzVwAAJxcbGaz/XtRXNuaBeKTXF+9SYYnDdAwAAIyxlZ1sjwAAAGDMa4t36l9fbTYdAydw8YDW+s/EXpa/b1ZWlrp06aLk5GRJUq9evVyzLNzt6quv1ltvvSVJioqKUnJysoKDqx78npCQUOlKjfJsNpsuuOACzZw587htvsrbs2eP2rVrJ6fTqfDwcC1YsEBDhw6VJCUlJWn06NGuuSjvv/++LrnkEklHBp+fcsopWrt2rTp27KiNGzcy+wMA6tED8//Q7F93m46BE3hgbDddPaSt6RgAABjBChAAADxQYYlDM39h9ocnatMoVPed183Ie0+fPt1VfkjSo48+asn75uXl6ZNPPnHdnzx5crXKj2NFRUVpwIABOuOMMzRw4MAKRUdZWZnmzp2rfv36ad++fZUeIz4+Xtddd50kKTc3V8OHD1f//v01bNgwdezY0VV+9OnTR5MmTXK97uWXX9batWslSc899xzlBwDUs7vO6qK2TcJMx8AJvPJLoopKWQUCAPBNFCAAAHigd5fvUWpukekYOIafTXp6cm+FBflb/t5vvPGGZs2a5bp/0UUXaezYsZa896effqrc3FzX/Zpsf5WQkKBHH31UGzduVGZmplauXKkffvhBy5cvV1pamhYtWqThw4e7nr9nzx6NHTtWxcWVz755+umnNWrUKElHipPVq1dryZIlKiwsdL3n3LlzFRAQIElKTU3VfffdJ0maMGGCzjrrLNex9u3bpxtuuEFt27ZVUFCQ4uLiNGHCBC1durTavyMAQAoJtOvpC3vL7sdeWJ4mJbtIH/+WZDoGAABGsAUWAAAeprDEoWGPL6QA8UDXn9ZOd53d1fL3Xbx4sUaPHq2ioiP/TbRt21Zr1qxRVFSUJe8/atQo/fjjj5Kkjh07atu2bfV6fKfTqeuvv16vvfaa62fPPfecbrrppkpf43A49Nprr2n27Nn6448/VFpaqrZt2+qCCy7Q7bffrsjISNdz/9y+KzQ0VJs2bVJ8fLwkacmSJTrnnHOUk5Nz3PFtNptmzJihW265pf5+UQDwAY8v2KKXf2GGmadpGR2in28foQA718ECAHwLBQgAAB7mjSW79PCXm0zHwDG6No/Q59OGKtDf2i8O1q1bp9NOO01ZWVmSpNjYWC1evFidOnWy5P337dunhIQEOZ1OSdIjjzyie++9t97fp7S0VP369XMNQ6+vomXZsmUaMmSIysrK9Oijj+qee+6RJB06dEjdu3dXWlqagoODdffdd2vYsGFKTEzUAw88oP3798tms+mnn37SiBEj6pwDAHxFcalT415Yoi3Jx5fLMOs/E3vq4gFtTMcAAMBSVP8AAHiQwhIHV016oEC7n2ZM7mN5+bF161aNGTPGVX7ExMTou+++s6z8kKR33nnHVX7YbDZdeeWVbnkff39/TZ8+3XV/+/bt1RqefjJOp1PTpk1TWVmZOnTooH/84x+ux5588kmlpaVJkl599VXdd999GjFihKZOnaoffvhBdrtdZWVluvPOO+uUAQB8TaC/n2ZM7q0AO1theZqXFiaq1OE0HQMAAEtRgAAA4EE++T1JqTlsfeVpbhvTSV2bR1b9xHq0a9cujRo1SocOHZIkhYeHa8GCBerdu7elOWbPnu26PXLkSLVp474rR49daVHXFSAvv/yy1qxZI+nIllpBQUGuxz744ANJUsuWLXXppZdWeF2XLl00fvx4SdLKlSuVmEgpCQA10a1FlG4+o6PpGDjG3vR8fb7ugOkYAABYigIEAAAP8ubSXaYj4BgDEmJ03bB2lr5nUlKSzjjjDCUlHRlYGhISoi+//FIDBw60NMfy5csrlBBXXXWVW9+vefPmFe7/uUKjNsoPPj///PN19tlnux7bv3+/9u/fL0kaNmyY/P2PH2r/55B16UgJAgComb+P6KA+raNNx8AxXvxph5xOdkIHAPgOChAAADzEwi2HlJiaZzoGygkLtOvpC/vIz8+6bTxSUlI0atQo7dp1pAwLCgrSZ599ptNOO82yDH8qv/ojPDxcEydOdOv75efnV7gfGhpa62PdddddysjIUEhIiJ555pkKjx08eNB1u0WLFid8fcuWLV23DxzgalkAqCm7n01PX9hbQRZvH4mT25mWpwUbk03HAADAMpyJAADgIWYtYfWHp7n9rC5q07j2X8LXVHp6ukaPHq2tW7dKkgICAvTxxx9rzJgxlmX4U1FRkT766CPX/UmTJiksLMyt77lp06YK92NjY2t1nOXLl+vNN9+UJP3zn/9UQkJChceLimq2zVxNnw8AOKJ9bLjuOKuz6Rg4BiuOAQC+hAIEAAAPsC0lR0t21H67H9S/Xq2idOWgeMveLzs7W2eeeaY2bNggSbLb7Xrvvfc0btw4yzKUN3/+fGVkZLjuu3v7K0n68MMPXbdDQkLUt2/fGh+j/ODz9u3b64477jjuOVFRUa7bla3u+HOLLEmKjo6ucQ4AwBFTh7bTgIQY0zFQzqo9Gdq4P8t0DAAALEEBAgCAB3iD1R8exe5n02MX9LRs66v8/Hyde+65WrVqlSTJz89Pb775pi688EJL3v9Eym9/lZCQ4PYtuH7//XfNnDnTdf/MM89UcHBwjY/z6quvavXq1ZKOH3z+pw4dOrjmfixatEilpaXHPeeHH35w3e7SpUuNcwAA/udfE3oqwG7ddpKoGqtAAAC+ggIEAADD0vOKNW/N/qqfCMtMGZyg7i2iqn5iPSgqKtL48eO1ZMkSSZLNZtPMmTN1xRVX1Om4u3fvls1mc/3z4IMPVvu1KSkp+vbbb133r7zyStlsNf/iatKkSVq4cKHKyk4+bPXHH3/U2Wef7dpqymaz6YEHHqjx+6Wlpemee+6RJI0bN07nnHPOCZ8XHBysIUOGSDqyAuTdd9+t8PiWLVs0f/58SUdmn1g9fB4AGppOcRGaOrSt6Rgo58v1B5WWyxaPAICGz990AAAAfN17K/aoqNRpOgaOah4VrNtGd7Ls/Z599tkKqw2io6M1Z84czZkzp1qvHz16tKZPn16vmd577z3XqgibzaYrr7yyVsf54YcfNHfuXLVp00bnnHOO+vbtq9atWysiIkJ5eXnaunWrPv/8c/30008VXvf444+rT58+NX6/8oPPn3322ZM+96abbtIvv/wiSbrhhhu0b98+DR8+XImJibr//vtdv/9f//pXt88+AQBfcPMZHfXFuoPan1lgOgokFZU69d6Kvfq/MzqajgIAgFtRgAAAYFBxqVPvLNtjOgbKeWhcd4UFWXeKlJ+fX+F+RkZGhdUXVWnWrFl9R6qw/dXQoUPVvn37Oh1v7969euWVV6p8XmBgoB577DHddtttNX6PFStW6I033pB0pAg5dvD5sSZOnKgLL7xQc+bMUWFhoe6///7jntO5c2c9/PDDNc4CADheaKC/HhzXTde+/bvpKDjqveV79PcR7RVgZ3MQAEDDxaccAAAGfbn+gA7lsP2ApxjdLU5jutd/oeBN1q5dq/Xr17vu12X4+TXXXKPOnTtX+byQkBBNmTJFa9asqVX5UX7webt27U44+PxE3nvvPU2bNk1+fsefEo8aNUoLFy5UREREjfMAAE5sdLdmGtU11nQMHHUop0hfbzhoOgYAAG5lK6tqU2YAAOA25z2/WBv3Z5uOAUlhgXZ9f9tpahEdYjpKg5ORkaH169dr9+7dSk1NVUFBgUJDQxUTE6Nu3bqpX79+CgwMrPXxd+3a5Vq1cuaZZ+rUU0+t0euTkpL0/fffKzk5WZGRkRoyZEittuACAFQtKSNfo2csUkGJw3QUSOrTOlqfTRtiOgYAAG5DAQIAgCErd6Vr8qvLTMfAUfee21V/HdbOdAwAABq8V35O1H++2WI6Bo767O+D1adNjOkYAAC4BVtgAQBgyKwlu0xHwFHdW0Tq6iFtTccAAMAnTB3WVp3iwk3HwFFvLN1tOgIAAG5DAQIAgAH70vP1/aZk0zEgyc8m/WtCT9n9bKajAADgEwLsfnrk/B6mY+CoBRsPKiW70HQMAADcggIEAAAD3vp1t5xsQukRLh7QRn1aR5uOAQCATxnYtrEm9W9lOgYklTjK9O7yPaZjAADgFhQgAABYLLeoVB//ts90DEgKD/LXbWM6mY4BAIBP+ufZXRQVEmA6BiR9sHKvikoZTA8AaHgoQAAAsNi81fuVU1RqOgYk3TCivZqEB5mOAQCAT2ocHqSbz+hgOgYkpeUW68t1B03HAACg3lGAAABgsY9W7TUdAZJaRAVr6lAGnwMAYNIVgxLUulGI6RiQ9Oavu0xHAACg3lGAAABgoc0Hs7Vxf7bpGJB0+1ldFBxgNx0DAACfFujvpzvO7GI6BiRt3J+t3/dkmI4BAEC9ogABAMBCH69i9ocn6NUqShP6tjQdAwAASBrbu4V6t4oyHQOSPvyNlcoAgIaFAgQAAIsUlzr12Zr9pmNA0j3ndjUdAQAAlHM3n80e4ev1B5XHrDoAQANCAQIAgEW+35SijPwS0zF83phucRrYtrHpGAAAoJyBbRtrdLc40zF8Xl6xQ1+uZxg6AKDhoAABAMAibH9lXoDdprvOZp9xAAA80V1ndZHdz2Y6hs/jnBUA0JBQgAAAYIGDWQVavD3VdAyfd9nAeLVrGm46BgAAOIH2seG6eEBr0zF83u97MpR4KNd0DAAA6gUFCAAAFvjk9yQ5y0yn8G2RIf76vzM6mo4BAABO4pZRnRQWaDcdw+d9xCoQAEADQQECAIAFPvk9yXQEn3fjyI6KCQs0HQMAAJxE04ggXXdae9MxfN681ftV6nCajgEAQJ1RgAAA4GbLdx7WnsP5pmP4tNiIIF11arzpGAAAoBquHdZWsRFBpmP4tNTcIi3cesh0DAAA6owCBAAAN2OQpHk3jGivoAC20wAAwBuEBvrrllGdTMfweZ/8vt90BAAA6owCBAAAN8opLNGCDcmmY/i0phFBuuQvbUzHAAAANTCpfyu1iAo2HcOnLdxySJn5xaZjAABQJxQgAAC40RfrDqqgxGE6hk+7/rR2Cmb1BwAAXiXQ30/Xj2AWiEnFDqe+WHfQdAwAAOqEAgQAADeaw/ZXRjWNCNJlA5n9AQCAN7poQGvFRTILxKRPVyeZjgAAQJ1QgAAA4CbbU3K0Zl+m6Rg+7W/DWf0BAIC3CvK362/DWQVi0pp9mdqZmms6BgAAtUYBAgCAm8z5nSvmTGoSHsjqDwAAvNylA9uoSXig6Rg+7dM1DEMHAHgvChAAANzki3UHTEfwadcNb6+QQFZ/AADgzYID7PrrsHamY/i0zyhAAABejAIEAAA3WLU7XQezCk3H8FlNwgN1xSBWfwAA0BBcMSheMaEBpmP4rKSMAi3fedh0DAAAaoUCBAAAN/hqw0HTEXzatcPasfoDAIAGIizIX9cMbWs6hk/7cj3ntgAA70QBAgBAPXM6y/Q1BYgxjcMCdcWprP4AAKAhmTI4QZEh/qZj+Kxv/0iW01lmOgYAADVGAQIAQD37bU+6UrKLTMfwWdcOa6fQQL4gAQCgIYkIDtDVg1kFYkpqTpFW780wHQMAgBqjAAEAoJ59uY7VH6aEB/nrskFtTMcAAABucM3QtgoP4iIHUxZsTDYdAQCAGqMAAQCgHjmcZfqGPw6NufCUVooIZkgqAAANUVRIgC7nQgdjvv2Dc1wAgPehAAEAoB6t3JWu1Fy2vzLBz3Zkf3AAANBwXXlqgux+NtMxfFJSRoE2JGWZjgEAQI1QgAAAUI++Yvi5MaO6xim+cZjpGAAAwI1aRIfozO5xpmP4rG9YBQIA8DIUIAAA1KPv+KPQmGuGMhgVAABfMIVh6MZ8s5GLfQAA3oUCBACAevL7ngwdymH7KxO6t4jUoHaNTccAAAAW+EvbRureItJ0DJ+UmJqn7Sk5pmMAAFBtFCAAANQThp+bc80QrgQFAMCXXD0kwXQEn8U2WAAAb0IBAgBAPfnmD7YEMKFpeJDG9m5hOgYAALDQ2N4t1Dgs0HQMn8RFPwAAb0IBAgBAPfjjQJb2pReYjuGTLj81XoH+nNIAAOBLgvztunRgG9MxfNIfB7K1Lz3fdAwAAKqFbwsAAKgHXAlnRpC/ny7nyw8AAHzS5YPiFWC3mY7hkxZw7gsA8BIUIAAA1AMKEDPG92mpxuFBpmMAAAAD4iKDdXaP5qZj+CTOfQEA3oICBACAOtqdlqfth3JNx/BJ1wxNMB0BAAAYxDB0M9bsy1BKdqHpGAAAVIkCBACAOvplW6rpCD7plPgYdWkWaToGAAAwqG+bGPVpHW06hs8pK5O+/YNVIAAAz0cBAgBAHS3aTgFiwuQBrU1HAAAAHmDK4ATTEXwS22ABALwBBQgAAHVQXOrUssTDpmP4nLBAu87tyZ7fAABAOrtHM0WFBJiO4XNW7c5QfnGp6RgAAJwUBQgAAHWwem+G8osdpmP4nHN6NVdYkL/pGAAAwAMEBdg1vk8L0zF8TrHDqZW70k3HAADgpChAAACog0XM/zBi8ilsfwUAAP6HcwMzFm9PMx0BAICTogABAKAOGIBuvXZNwjQgoZHpGAAAwIP0aBml7i0iTcfwOUsoQAAAHo4CBACAWkrLLdKmg9mmY/icC09pZToCAADwQBeyCsRyW1NydCi70HQMAAAqRQECAEAtLd6eprIy0yl8i93Ppon9KEAAAMDxzu/TQkH+fM1htSU7WAUCAPBcnBkAAFBLzP+w3mmdmio2Mth0DAAA4IGiQwN1RtdY0zF8DnNAAACejAIEAIBaYs9j6zHgFAAAnMwFrBS1HCtAAACejAIEAIBa2HQgS6m5RaZj+JQm4VzVCQAATm5Ep6ZqHBZoOoZPSc0p0pZk5uIBADwTBQgAALWwaBtXulnt/L4tFWDn1AUAAFTO3+6ncX1amI7hc1gZDQDwVHyLAABALfyynfkfVpvUny0tAABA1S7oyzmD1ShAAACeigIEAIAayi8u1e+7M0zH8CkdY8PVpVmk6RgAAMAL9GwVpU5x4aZj+JQVu9JVVOowHQMAgONQgAAAUEPLEg+r2OE0HcOnnNeruekIAADAi4zr3dJ0BJ9SUOLQ6j2ZpmMAAHAcChAAAGpoEUv8LXdeL/byBgAA1Xd2j2amI/icxWwRCwDwQBQgAADU0NIdFCBW6to8Qu1j2cYCAABUX/vYcHXg/MFSSzhHBgB4IAoQAABqIDO/WImpuaZj+JRze7L6AwAA1ByrQKy1cX+WMvOLTccAAKACChAAAGpg9d5MlZWZTuFbzmX+BwAAqIWzKEAs5SyTfk08bDoGAAAVUIAAAFADv+/JMB3Bp3RtHqG2TcJMxwAAAF6oe4sotW4UYjqGT+FcGQDgaShAAACogdX8UWeps7pz5SYAAKi9s7qzktRKa/ZyrgwA8CwUIAAAVFOpw6l1SZmmY/iUM9m6AgAA1AHbYFnrjwPZKi51mo4BAIALBQgAANW0+WCO8osdpmP4jLZNwtSlWaTpGAAAwIv1j49RXGSQ6Rg+o6jUqT8OZJmOAQCACwUIAADV9DtL+i11Zvc40xEAAEADMKYbq0CstGZvpukIAAC4UIAAAFBNzP+wFvM/AABAfTi7J+cUVmIOCADAk1CAAABQTb9TgFimaXiQ+rSJMR0DAAA0AAPbNlZMaIDpGD5jzb5M0xEAAHChAAEAoBqSswq1P7PAdAyfMaxTE9MRAABAA2H3s2k022BZJimjQKk5haZjAAAgiQIEAIBqWc1SfksN79jUdAQAANCAjOzCuYWVVjMHBADgIShAAACoBra/so7NJg3ryAoQAABQfwa3byI/m+kUvoM5IAAAT0EBAgBANTAA3TrdW0SqcXiQ6RgAAKABiQoJUK9W0aZj+Iw1rAABAHgIChAAAKpQVOLQHweyTcfwGWx/BQAA3GEoK0wtsz4pS6UOp+kYAABQgAAAUJX1+7NUzB9wlhneiQIEAADUv2EdKECsUlDi0JbkHNMxAACgAAEAoCrM/7BOWKBd/eNjTMcAAAANUN82MQoNtJuO4TPYBgsA4AkoQAAAqMLafZmmI/iMU9s3VoCd0xMAAFD/Av39NLBtY9MxfMaafVxEBAAwj28YAACowuaDzP+wCttfAQAAdxrGHBDLsAIEAOAJKEAAADiJ/OJS7U3PNx3DZzAAHQAAuBMFiHV2peUpM7/YdAwAgI+jAAEA4CS2peSqrMx0Ct/QplGoEpqEmY4BAAAasI5xEWoWGWw6hs9gEDoAwDQKEAAATmIrf7RZhu2vAACAFYayCsQynEsDAEyjAAEA4CS2JDP/wyqD2jYyHQEAAPiAoR0oQKyyPYUCBABgFgUIAAAnwbJ96/SLjzEdAQAA+IAhFCCW2UoBAgAwjAIEAICTYNm+NZpHBatFdIjpGAAAwAc0jQhSfONQ0zF8wraUXNMRAAA+jgIEAIBKpOYUKj2v2HQMn9Cf1R8AAMBC/dpw7mGFrIISpWQXmo4BAPBhFCAAAFSC7a+sQwECAACs1LdNtOkIPoMV1QAAkyhAAACoBAWIdbgKEwAAWKlva849rLL9EOfUAABzKEAAAKgEV6tZIyTAru4tIk3HAAAAPqRr8wgFB/CViBW2JjMHBABgDp/2AABUYktytukIPqFXqyj52zklAQAA1vG3+6lnyyjTMXzC9hQuKgIAmMO3DQAAnIDDWabtKVytZgXmfwAAABPYgtMa2w9xTg0AMIcCBACAE9idlqeiUqfpGD6hHwUIAAAwoC8FiCVyi0qVlJFvOgYAwEdRgAAAcAIMQLcOV18CAAAT+rWJNh3BZ2xjZTUAwBAKEAAATmBrCvM/rNC2SZgahQWajgEAAHxQbGSwWkQFm47hE7ZxcREAwBAKEAAATmBrMlepWYH5HwAAwCS2wbLGtkMUIAAAMyhAAAA4gT2H80xH8Ak9W0aZjgAAAHxYv/ho0xF8wlZWgAAADKEAAQDgBPalM6jRCl2aRZiOAAAAfFjf1qwAscKOQ7lyOstMxwAA+CAKEAAAjpGeV6y8YofpGD6hMwUIAAAwqHOzCNlsplM0fEWlTh3MLjQdAwDggyhAAAA4RlIGqz+sEBcZpOhQBqADAABzwoL81TI6xHQMn7A/o8B0BACAD6IAAQDgGPvS+ePMCl2aRZqOAAAAoE5xrEi1wv5MzrEBANajAAEA4Bj7WAFiCeZ/AAAAT9CZAsQSrAABAJhAAQIAwDGS+OPMEsz/AAAAnqBjXLjpCD5hfyYXGQEArEcBAgDAMZLS+ePMCqwAAQAAnoCLMqzBChAAgAkUIAAAHIMtsNzP38+m9rFcbQkAAMzr0DRcfjbTKRo+VlkDAEygAAEA4Bj8ceZ+CU3CFORvNx0DAABAQQF2xTcOMx2jwWMIOgDABAoQAADKOZRdqKJSp+kYDV5XtpoAAAAepBNzQNyuqNSp1Jwi0zEAAD6GAgQAgHL2sfrDEp2bRZqOAAAA4NIpjoszrMAqEACA1ShAAAAoZx8D0C3BsFEAAOBJOlOAWIJB6AAAq1GAAABQDvM/rNG+KftsAwAAz9GRAsQSrAABAFiNAgQAgHL2ZbACxN1sNqllTIjpGAAAAC7tmoYpwG4zHaPBowABAFiNAgQAgHLYAsv9YiOCFORvNx0DAADAJcDup+ZRXKDhbvu52AgAYDEKEAAAymELLPdrHRNqOgIAAMBxWKHqfqwAAQBYjQIEAIByUrILTUdo8Fo3ogABAACep1U0BYi7MQQdAGA1ChAAAI7KLSpVUanTdIwGrxVXVwIAAA/EChD3yy4sVXZhiekYAAAfQgECAMBR6bnFpiP4BFaAAAAAT9SSFSCWOJjJimsAgHUoQAAAOCo9nwLECswAAQAAnogVINbI4JwbAGAhChAAAI5Kz+OPMSu0bsSXCwAAwPOwAsQaFCAAACtRgAAAcFQGBYjb2f1sahYZbDoGAADAcZpHhchmM52i4cvMZwYIAMA6FCAAABzFFlju1zwqWP52Tj8AAIDnCfT3U2xEkOkYDV4m59wAAAvxDQQAAEcxBN39GIAOAAA8WctozlXcLYMVIAAAC1GAAABwFCtA3I8B6AAAwJO1YhC62zEDBABgJQoQAACOYgaI+7WIZv4HAADwXAxCd78sVoAAACxEAQIAwFGHKUDcLiY00HQEAACASrVkBYjbsQIEAGAlChAAAI5iBYj7NQ6jAAEAAJ6LIejuxwwQAICVKEAAADiKGSDuF0MBAgAAPFg0q1Xdji2wAABWogABAECSw1mmrAL+GHO3RhQgAADAg8WEBpiO0OBlFnDREQDAOhQgAADoyF7EZWWmUzR8FCAAAMCTRVOAuF2Jo0w5hVx4BACwBgUIAABi/odVGIIOAAA8GVtgWSOTbbAAABahAAEAQFI6BYjbRQT5K9CfUw8AAOC5Aux+Cg/yNx2jwaMAAQBYhW8hAACQlMn8D7djADoAAPAGbIPlfhn5XHwEALAGBQgAAJLyix2mIzR4zP8AAADegC073S+TAgQAYBEKEAAAJBWVUoC4GwUIAADwBqwAcb8MtsACAFiEAgQAAElFJU7TERo8ChAAAOANWAHifgWsvgYAWIQCBAAASYUl/BHmbnyZAAAAvAErQNyvyMHFRwAAa1CAAAAgqaiUP8LcLYYvEwAAgBfgog33K6EAAQBYhAIEAABRgFghJNBuOgIAAECVWAHifsWcewMALEIBAgCAGIJuhSB/TjsAAIDniwymAHE3VoAAAKzCNxEAAIgh6FYI8mcFCAAA8HyBXLThdqwAAQBYhU91AADEFlhWYAUIAADwBgF2zlncrZgVIAAAi/CpDgCA2ALLCkEBnHYAAADPxwoQ92MFCADAKnyqAwAgqZAtsNyOLbAAAIA3CLDbTEdo8JgBAgCwCgUIAABiBYgV2AILAAB4g0C2wHK7EkeZ6QgAAB/BpzoAAGIGiBWCAlgBAgAAPB9bYLkfW2ABAKzCpzoAAJKK2ALL7VgBAgAAvAFD0N2PIegAAKvwqQ4AgNgCywoUIAAAwBuwAsT9WAECALAKn+oAAIgtsKzAFlgAAMAbsALE/RiCDgCwCp/qAABIKixhBYi7sQIEAAB4A1aAuB8rQAAAVuFTHQAASWVlphM0fBQgAADAGwTabaYjNHisAAEAWIVvIgAAkOTHJyIAAAAkBfqzbae7sf0sAMAqfN0DAIAkfxoQt3M4WWYDAAA8XwArQNyu1MF5IQDAGnzbAwCAJLsff+i6WykFCAAA8AJctOF+nHoDAKxCAQIAgLjSzwp8mQAAALwBpyzuZ+fcGwBgEQoQAADEChArMOwSAAB4g1LOWdyO7WcBAFbhEwcAAPFHmBVYAQIAALyBs4xzFnfj4iMAgFX4tgcAAPFHmBWYAQIAALwB5yzuZ7dx7g0AsAYFCAAAkvwpQNyOFSAAAMAbcM7ifv7MAAEAWIQCBAAAsQLECnyZAAAAvEGpg3MWd+PcGwBgFQoQAADEChAr8GUCAADwBkWlDEF3N869AQBWoQABAECSnSHobudw8mUCAADwfEWlDtMRGjx/O+feAABr8IkDAIDYh9gKDBQFAADegBUg7hdIAQIAsAifOAAAiH2IrcAMEAAA4A2KSihA3C0ogK+jAADW4BMHAABJARQgbsfVlAAAwBuwBZb7BfnzdRQAwBp84gAAIGaAWCGnsNR0BAAAgCoVO7how90C7XbTEQAAPoJvewAAEDNArJBTVGI6AgAAQJVyuWjD7dgCCwBgFT5xAACQ5M8WWG7HlwkAAMAbZBZw0Ya7sQUWAMAqfOIAACApNJBl+O6WW0QBAgAAPF9mPgWIuwVSgAAALMInDgAAkiKCA0xHaPCYAQIAALxBVn6x6QgNXpA/Fx8BAKxBAQIAgKTwYH/TERo8ChAAAOAN2ALL/cJYfQ0AsAgFCAAAksKDKEDcLYsvEwAAgBdgCyz3iw5l9TUAwBoUIAAASIpgBYjbZbKdBAAA8AKZBZyzuFtUSKDpCAAAH0EBAgCApAhWgLgdV1MCAABvwDmL+7ECBABgFQoQAAAkhTME3e0yWAECAAC8QBYFiNvFUIAAACxCAQIAgNgCywrMAAEAAJ6u1OFUTlGp6RgNXlQoW2ABAKxBAQIAgChArFBU6lR+MV8oAAAAz8UFG9aIDmEFCADAGhQgAABIimYQoyXS89gGCwAAeK5MChC3C7T7KYz5ewAAi1CAAAAgKSTQriB/PhbdLSW7yHQEAACASjH/w/2iWP0BALAQ3/QAAHAUf4y538HMAtMRAAAAKnWY1apuF8UAdACAhShAAAA4KoZhjG53MLvQdAQAAIBKHeBiDbdj/gcAwEoUIAAAHBXN1WhuxwoQAADgyfZzruJ2nHMDAKxEAQIAwFH8MeZ+B7JYAQIAADwXK0DcL5pV1wAAC1GAAABwFH+MuR8rQAAAgCfbn8G5irsxdw8AYCUKEAAAjmI/Yvc7yAoQAADgwdgCy/1YdQ0AsBIFCAAARzUODzIdocFLyy1SicNpOgYAAMBxikudSs0tMh2jwYsOYdU1AMA6FCAAABzVPCrYdIQGz1kmpWSzCgQAAHieg1kFKisznaLhYwUIAMBKFCAAABxFAWINtsECAACe6EAm5yhWoAABAFiJAgQAgKOaUYBYgkHoAADAE+3PzDcdwSc0jwoxHQEA4EMoQAAAOKpZZLD8bKZTNHwHWAECAAA80H5WgFiiZTQFCADAOhQgAAAc5W/3U9MIBqG7G1tgAQAAT7Q/g1Wq7hYTGqCQQLvpGAAAH0IBAgBAOS1Yku92u1JzTUcAAAA4zgG26XS7ljGcawMArEUBAgBAOcwBcb8dhyhAAACA59lPAeJ2bH8FALAaBQgAAOW04I8ytzuQVai8olLTMQAAAFyKSh3am84QdHfjXBsAYDUKEAAAymnOChBLsAoEAAB4kp2peXI4y0zHaPBYAQIAsBoFCAAA5TRnBogldjAHBAAAeJBtKTmmI/gEVoAAAKxGAQIAQDmsALFGIitAAACAB9mWwrmJFShAAABWowABAKCc5tEUIFZgCywAAOBJtrMCxBJsgQUAsBoFCAAA5cRGBMvuZzMdo8GjAAEAAJ6ELbDcL8jfT00jgkzHAAD4GAoQAADKsfvZFMsfZm63Jz1fxaVO0zEAAABUVOLQ3vR80zEaPLaaBQCYQAECAMAxGITufg5nmXal5ZmOAQAAoMTUXDnLTKdo+FrGcI4NALAeBQgAAMdowRwQS7ANFgAA8AQMQLcGA9ABACZQgAAAcAxWgFhjRypfNgAAAPOY/2ENBqADAEygAAEA4Bhtm4SZjuATElkBAgAAPMB2zkksQQECADCBAgQAgGN0iA03HcEnbNyfZToCAAAAK0AswhZYAAATKEAAADgGBYg1dh3OU3ZBiekYAADAhxUUO7QvPd90DJ8Q3zjUdAQAgA+iAAEA4BiNwgLVKCzQdIwGr6xMWp/EKhAAAGDOhv1ZcpaZTtHwhQXa1SqGAgQAYD0KEAAATqAjq0AssS4p03QEAADgw9bszTAdwSd0jIswHQEA4KMoQAAAOAG2wbLGun2ZpiMAAAAftpZzEUt0jOPcGgBgBgUIAAAnQAFiDb50AAAAJq3Zm2k6gk/oxAoQAIAhFCAAAJxA+6YUIFY4lFOkg1kFpmMAAAAflJxVqOTsQtMxfALbywIATKEAAQDgBFgBYh0GoQMAABPW7GP+h1WYAQIAMIUCBACAE2gRHaKwQLvpGD6BOSAAAMCEtWx/ZYnwIH+1jA4xHQMA4KMoQAAAqER7VoFYgjkgAADAhDWcg1iC7a8AACZRgAAAUAn+WLPGBrbAAgAAFit1ODkHsQjbXwEATKIAAQCgEswBsUZOUakSD+WajgEAAHzItpQcFZQ4TMfwCZ3iOKcGAJhDAQIAQCUoQKyzNinTdAQAAOBD1jD/wzKsqgYAmEQBAgBAJdo35Y81q6zclW46AgAA8CHMILMOW2ABAEyiAAEAoBLxjcMUaOej0gpLd6SZjgAAAHzIalaAWCIiyF8tokNMxwAA+DC+1QEAoBJ2P5sSmoSajuETkjIKtPdwvukYAADAByRnFSoxlfljVujI/A8AgGEUIAAAnES35lGmI/iMX3eyCgQAALgfK0+tw/ZXAADTKEAAADiJ3q0pQKzy647DpiMAAAAfsIQCxDKdWAECADCMAgQAgJPo1SradASf8WsiX0YAAAD3owCxTue4SNMRAAA+jgIEAICT6NEiUv5+NtMxfEJabrG2JueYjgEAABqwrck5Ss0pMh3DJ9hsUi9WUwMADKMAAQDgJIIC7OrcjL2LrcIqEAAA4E7M/7BO+6bhigwOMB0DAODjKEAAAKhCn9bRpiP4DL6UAAAA7rR4O+caVunbJtp0BAAAKEAAAKhKbwoQy6zclS6Hs8x0DAAA0ACVOJxaueuw6Rg+oy/n0AAAD0ABAgBAFXozCN0y2YWl2pCUaToGAABogFbvzVBescN0DJ/Rt02M6QgAAFCAAABQlY6x4QoLtJuO4TOWJnJlJgAAqH9stWmd0EC7OsUxRw8AYB4FCAAAVfDzs6lHyyjTMXwGX04AAAB3WML8D8v0ahUlu5/NdAwAAChAAACoDuaAWOe33enKLiwxHQMAADQgOYUlWpeUZTqGz+jDuTMAwENQgAAAUA3MAbFOiaNMP285ZDoGAABoQH5NPCyHs8x0DJ/B/A8AgKegAAEAoBp6t2YLLCt9tynFdAQAANCAfPtHsukIPqUvK0AAAB6CAgQAgGpoFROqJuGBpmP4jJ+3pqq41Gk6BgAAaABKHE79uJnVpVZpERWs2Mhg0zEAAJBEAQIAQLX1Yhssy+QWlerXRAaVAgCAulu+87CyCpgvZpU+baJNRwAAwIUCBACAamIQurW++4NtsAAAQN19u5Htr6zE/A8AgCehAAEAoJr6tGIOiJW+30wBAgAA6sbpLNO3zBazVB8uGgIAeBAKEAAAqqlvmxj52Uyn8B2pOUVavSfDdAwAAODF1uzLVGpOkekYPsPfz6aeLbloCADgOShAAACopsiQAHVvwR90VvpuE1tWAACA2vuG7a8s1aV5hIID7KZjAADgQgECAEANDOnQ2HQEn/I9W1YAAIA6+PYPChAr9WP+BwDAw1CAAABQA4PbNzEdwackpuYp8VCu6RgAAMALbT6Yrb3p+aZj+JQhHThXBgB4FgoQAABqYEBCIwXa+fi0EttgAQCA2mD7K2vZ/Ww6tT2rpQEAnoVvcAAAqIGQQLv6tok2HcOn8OUFAACoDba/slavllGKDA4wHQMAgAooQAAAqKHBLO231LqkLO1MZRssAABQfbvT8rQlOcd0DJ8ytCPnyAAAz0MBAgBADQ1mab/lPl2z33QEAADgRb5cf9B0BJ8zlIuEAAAeiAIEAIAa6tM6WqGBdtMxfMpnFCAAAKAGPl2dZDqCTwkNtKtvmxjTMQAAOA4FCAAANRRg99Nf2jYyHcOnJGUUaMXOw6ZjAAAAL/D7ngztTMszHcOn/KVtIwX68xUTAMDz8OkEAEAtDG7PEn+rsQ0WAACojrm/s/rDamx/BQDwVBQgAADUwpAOzAGx2tfrD6qoxGE6BgAA8GBFJQ59uf6A6Rg+hwHoAABPRQECAEAtdG8RpZjQANMxfEpOUam+35RiOgYAAPBg321KUXZhqekYPqVpeJC6NIs0HQMAgBOiAAEAoJYGtWMViNXmrmYbLAAAUDm2v7LeELa/AgB4MAoQAABqiT/2rLd4e6rScotMxwAAAB7oUHahFu9IMx3D5wztyEVBAADPRQECAEAtDW7PH3tWK3WWaf5a9vUGAADH+3TNfjmcZaZj+JyhHZqajgAAQKUoQAAAqKV2TcPVPCrYdAyf8+katrYAAADHY/sr67VvGq5mnA8DADwYBQgAAHUwvBNXvFlt4/5sbUvJMR0DAAB4kHX7MrX9UK7pGD5nWEe2hAUAeDYKEAAA6mB0tzjTEXzShyv3mo4AAAA8yNzVrP4wgZl4AABPRwECAEAdDOvQRKGBdtMxfM4nvycpv7jUdAwAAOABikod+mIdM8KsFmj306B2jUzHAADgpChAAACog6AAO9tgGZBdWKp5q/ebjgEAADzAV+sPKiO/xHQMnzO4fWNFBAeYjgEAwElRgAAAUEdsg2XG28v2mI4AAAA8AOcEZpzZo5npCAAAVIkCBACAOjqjS6z8/WymY/icrSk5WrHzsOkYAADAoPVJmVq7L9N0DJ/jZ+MiIACAd6AAAQCgjqJDAzWgLfsfm8AVnwAA+LZ3OBcw4pSERmoSHmQ6BgAAVaIAAQCgHozhCjgjvv0jWSnZhaZjAAAAAzLyijWf4edGnNWd7a8AAN6BAgQAgHowhj8CjSh1lun9FXtNxwAAAAZ8vGqfikqdpmP4pDHdufgHAOAdKEAAAKgHLaND1L1FpOkYPun9lXtV4uDLDwAAfInDWcZWmIb0aBmpVjGhpmMAAFAtFCAAANQTVoGYkZpTpAUbDpqOAQAALPTtH8nan1lgOoZPOpNzXgCAF6EAAQCgnjAHxByuAAUAwLe8sWSX6Qg+i/kfAABvQgECAEA96do8Um0asR2ACav2ZGjTgSzTMQAAgAXWJ2Vq1Z4M0zF8UvumYeoYF2E6BgAA1UYBAgBAPRrNKhBj3ly623QEAABggTeW7DYdwWex/RUAwNtQgAAAUI/GdKcAMeWztft1MIu9wAEAaMgOZRfqqw0HTMfwWRQgAABvQwECAEA9OiW+kRqHBZqO4ZNKHGV6fTH7gQMA0JC9tniXShxlpmP4pBZRwerdOtp0DAAAaoQCBACAemT3s+n0rrGmY/isD1fuVWZ+sekYAADADTLyivXeij2mY/isMaz+AAB4IQoQAADq2dheLUxH8Fl5xQ7NXsYXIwAANESzlu5SfrHDdAyfdVYPChAAgPehAAEAoJ4N6dBEsRFBpmP4rNm/7lYBX44AANCgZBeUaPbS3aZj+KxGYYEakNDIdAwAAGqMAgQAgHpm97NpfJ+WpmP4rPS8Yn34217TMQAAQD1669fdyikqNR3DZ53do5nsfjbTMQAAqDEKEAAA3OCCfhQgJr36y04VlbIKBACAhiCvqFRvLN1lOoZPm9ivlekIAADUCgUIAABu0LV5pLo2jzAdw2clZxfqk1VJpmMAAIB68M7yPcrMLzEdw2e1axKmfvExpmMAAFArFCAAALjJBVwpZ9TLvySqxOE0HQMAANRBYYlDsxaz+sOkif05pwUAeC8KEAAA3GR87xbslWxQUkaB5q3ZbzoGAACogw9W7lVqbpHpGD7Lz8bWrgAA70YBAgCAm8RGBmtohyamY/i0FxfukMNZZjoGAACohaJSh179ZafpGD5tcPsmah4VYjoGAAC1RgECAIAbTejLFXMm7Tmcr89YBQIAgFf6ZFWSkrMLTcfwaWx/BQDwdhQgAAC40Zndmyks0G46hk+b8f02FZU6TMcAAAA1UOpw6uVfEk3H8GnhQf46q3sz0zEAAKgTChAAANwoJNCus3s2Nx3Dp+3PLNDby/aYjgEAAGrgg5X7lJRRYDqGTzunZ3OFcCEPAMDLUYAAAOBmDI4078WFO5RdWGI6BgAAqIa8olI9++M20zF83sT+nMMCALwfBQgAAG42qG1jNY8KNh3Dp2Xml+iVn9lGAwAAb/DqokSl5RabjuHT2jQK1cC2jU3HAACgzihAAABwMz8/m87vwxV0pr25dLdSGKQKAIBHO5RdqNcX7zIdw+dNZAUzAKCBoAABAMACbINlXkGJQ8/+sN10DAAAcBLP/LBN+cUO0zF8ms0mTezfynQMAADqBQUIAAAW6BgXoR4tI03H8Hkfr9qnxNRc0zEAAMAJ7DiUq49XJZmO4fMGtm2kVjGhpmMAAFAvKEAAALDIhf1bm47g80qdZXry262mYwAAgBN4/JstcjjLTMfweRP7sfoDANBwUIAAAGCRC/q1VFig3XQMn/fNxmSt3ZthOgYAAChn5a50fb8pxXQMnxcaaNc5PZubjgEAQL2hAAEAwCIRwQGa0JdZIJ7gP99sMR0BAACU89jXm01HgKSzezRTWJC/6RgAANQbChAAACx05eAE0xEgafnOdC3ccsh0DAAAIOmr9Qe1Zl+m6RiQdPmgeNMRAACoVxQgAABYqFNchAa1a2Q6BiT96+vNKnE4TccAAMCnlTicevJbVmZ6gh4tI9W3TYzpGAAA1CsKEAAALHblqQmmI0DSjkO5mrVkl+kYAAD4tHeX79Huw/mmY0CcowIAGiYKEAAALDamW5yaRQabjgFJz/+4XQezCkzHAADAJ6XmFOmZ77eZjgFJ0aEBGte7hekYAADUOwoQAAAs5m/306UD25iOAUl5xQ49+iVDVwGgLtLS0vTYY4/p9NNPV4sWLRQUFKTY2Fj169dPd911lzZt2lSt4yQkJMhms9X6n7feeqvefqd169ZpxowZuvDCC9WlSxdFRUUpICBATZo0Ub9+/fT3v/9dixcvrtExp0yZUuPfadCgQdU69k8//aRx48YpNjZWQUFBSkhI0HXXXaddu2q20nHatGmy2WwKCgrS9u3ba/Ta2vjXV5uVXVjq9vdB1Saf0lrBAXbTMQAAqHe2srKyMtMhAADwNak5RRryn59UzAwKj/Du1IEa2rGJ6RgA4HWef/553X333crNza30OXa7XXfddZceeOABBQQEVPq8hIQE7dmzp9ZZ5s+fr7Fjx9b69ZL0+OOP65VXXtHu3bur9fyhQ4fqrbfeUvv27at87pQpUzR79uwa5Rk4cKCWL19+0uc89NBDevDBB0/4WFhYmD777DONGjWqyvdas2aNTjnlFDmdTt19993617/+VaOsNbV852FdPPPkvxus4WeTfv7HSLVpHGo6CgAA9Y4CBAAAQ27+YI3mrztgOgYktW8apgX/N1yB/iyOBYDqmj59umbMmFHhZ/Hx8Wrbtq3y8/O1fv16FRYWuh678sorT1oAXHXVVUpJSan2+y9fvlxZWVmSpEaNGungwYMKDAys4W9RUY8ePfTHH39U+Fnjxo2VkJCgqKgoHTp0SJs2bZLT+b8LGGJiYvTzzz+rV69eJz12+QKkffv26tChQ5V5unbtqmeeeabSxz/99FNNnDjRdb9t27aKj4/X+vXrlZ6eLkmKiorShg0b1Lp160qPU1ZWpiFDhmjZsmVq06aNNm/erNBQ930ZXuJw6uxnF2vHocqLM1hnZOdYvXn1ANMxAABwC3/TAQAA8FVXDU6gAPEQial5mrVkp24YUfWXUQAA6f33369QfnTv3l0zZ87U4MGDXT/Ly8vTk08+qUceeUROp1Nvv/22+vTpo1tvvfWEx6zJ6oisrCw1a9bMdf/iiy+uc/lRXkJCgqZOnarzzz9f3bt3l81mcz124MAB3X///Zo1a5YkKSMjQ+PGjdPmzZsVEhJSreNffvnlla7aqIm7777bdfupp57S9OnTJUn5+fm67LLL9NlnnykrK0uPPfaYXnrppUqP89Zbb2nZsmWSpGeeecat5Yckvb54J+WHB7ny1HjTEQAAcBsucwQAwJD+8THq3iLSdAwc9fxPO3Qgk4HoAFCV4uJi/fOf/3Tdj4+P1+LFiyuUH9KR7ZcefPBB/fe//3X97OGHH3atTKiLjz/+uMLqkilTptT5mJLUuXNnvf/++0pMTNS9996rHj16VCg/JKlFixZ6/fXXdc8997h+tmfPHr3yyiv1kqG61q5dq61bt0o6slXWn+WHJIWGhurVV191FTIfffSRKtv8ITMzU3fddZckacyYMbrgggvcmjspI1/P/bjDre+B6mvXJEwju8SajgEAgNtQgAAAYNCVpyaYjoCj8osdeuTL6g3qBQBf9v3332vv3r2u+48//rhiYmIqff5NN92k3r17SzryZfuLL75Y5wzlV4t07dpVAwbUz/Y9c+fO1SWXXCI/v6r/VH7ggQfUpk0b1/1PP/20XjJU1++//+66femllx73eGxsrMaMGSNJSk9Pr3Suyb333qtDhw4pMDBQzz//vFuylvfQF5tUUOJw+/ugeqYMSTAdAQAAt6IAAQDAoPF9Wig6tPKBsLDWgo3JWrQt1XQMAPBoCxcudN0OCgrShAkTqnzNxRdf7Lo9Z86cOr3/jh07tHTpUtf9q666qk7Hq62AgACdddZZrvtbtmyx9P1TU//3eZWQkHDC57Rt29Z1+9ChQ8c9vnbtWtfKlenTp6tTp071G/IYP2xO0febqj/nBe4VGeKvSf1bmY4BAIBbUYAAAGBQcIBdk0+pfCgprPfg/D9UXOqs+okA4KPKryTo3LlztWZvlB8QvmHDBu3atavW7//222+7bvv5+emKK66o9bHqqlGjRq7b2dnZxnJUprJtr/58bNq0aXI4HGrdunWFLb3cobDEoQfn/1H1E2GZiwe0UWggo2EBAA0bBQgAAIZdPjBefraqnwdr7EzL0yu/JJqOAQAeKysry3U7IiKiWq+JjKw482rt2rW1eu+ysjK98847rvujR49WixYtanWs+rBnzx7X7dhYa+coNG3a9IQ5yiv/8/LPl45sI/brr79KkmbMmKGwsDA3pPyf53/aoaQMZm15CrufjeHnAACfQAECAIBhbRqHMnzSw7zw0w5tSfa8K3kBwBOULz1ycnKq9ZpjV0ds2lS7mUu//PJLhRUo9TX8vDYKCwu1YMEC1/1BgwZV+7ULFizQaaedptjYWAUGBqpp06bq1auXrr/+en3zzTfVOka/fv1ctz/44IPjHk9LS9N3330nSYqJiamwHVZWVpbuvPNOSUdKpEmTJlU7e20kpubqtUU73foeqJkx3eLUKibUdAwAANyOAgQAAA9w3fB2piOgnGKHU/+Ys06lDrbCAoBjtWr1v5kB27ZtU3FxcZWv2bBhQ4X7td0Cq/zw86ioKJ1//vm1Ok59ePbZZ5WZmem6f6JB5JVZuXKlFi1apNTUVJWUlCgtLU0bNmzQq6++qrPPPlt9+/bV+vXrT3qMPn36qEOHDpKkZcuW6dlnn3U9VlBQoL///e/Kz8+XJF144YWy2f633PS+++7ToUOHFBAQ4PbB505nme74ZL2K+Uz1KNcMbVv1kwAAaAAoQAAA8AAD2zZW//gY0zFQzsb92XqZrbAA4DhDhw513S4sLNTnn39e5Ws+/PDDCveru3KkvLy8PH3yySeu+5MnT1ZwcHCNj1Mftm3bpocffth1v3///jUqY4KCgtSrVy+NHDlSQ4YMUZs2bSo8vnbtWg0aNEjffvttpcew2Wx69NFHXfdvueUWdejQQaeffrpat27tGjYfHh6uf/7zn67nrVu3Ti+99JIk6bbbblPnzp2rnbs2Xlu8U7/vyXDre6BmerWK0oCERlU/EQCABoACBAAAD3H9ae1NR8Axnv+RrbAA4FjnnHOOYmL+V9rfddddFVZCHOull146buZHbQqQTz/9VLm5ua77pra/ys3N1YQJE1yrK4KCgvT6669XWGFxIlFRUbrxxhv1yy+/KDc3V+vWrdNPP/2kJUuWaM+ePdq2bZumTp3qen5BQYEmT56sbdu2VXrMiy66qEK5kZiYqIULF+rw4cOSpODgYH300UdKSEiQVHHweatWrXTfffe5Xpufn69HH31UvXr1UlhYmKKjozVs2DC9/fbbJx2mfjLbU3I04/vK88OMG0ZwzgkA8B0UIAAAeIjR3eLUMTbcdAyUw1ZYAHC88PBw3XHHHa77O3fu1PDhw7V8+fIKz8vPz9cjjzyim2666bhjlJSU1Ph9y29/1bFjRw0ePLjGx6grh8Ohyy67rMIMkyeeeEJ9+vSp8rXPPvusnn/+eQ0fPlz+/v7HPd6xY0e9/vrrmj17tqtMyc7OrlBwnMi///1vffvttzr33HPVpEkTBQYGqk2bNpo6dao2bNigc845x/Xct99+W0uXLpVUcfB5cnKyTjnlFN13333asGGD8vPzlZWVpSVLluiqq67SRRddpNLS0ip/x/JKHU5Nn7NORaV8hnqSjrHhOrtHc9MxAACwjK2stpdyAACAejf39yRNn7POdAwc47bRnXTzGR1NxwAAj+F0OjVu3Dh99dVXFX6ekJCgtm3bKj8/X+vXr1dBQYEkafjw4crNzdXq1aslSRMnTqywnVVV9u3bp4SEBDmdR75Mf+SRR3TvvffW029TPWVlZZo6darefPNN189uueUWPfPMM/X+Xn//+9/18ssvSzqy1dW+ffvUsmXLOh0zKytLnTt3VkpKikaNGqXvv/9e0pHfa+TIkfrll18kSVdddZUuu+wy5ebm6sknn9SyZcskSQ888IAefPDBar/fcz9uZ/WHB3r24j4a36du/y0BAOBNWAECAIAHGdenhVpGh5iOgWM8/9N2bT7IVlgA8Cc/Pz/NmzdP06ZNk5/f//6s3L17txYuXKgVK1a4yo/zzjtPn332mYqKilzPi46OrtH7vfPOO67yw2az6corr6z7L1FDt956a4Xy45prrtGMGTPc8l533nmn63ZZWZl++OGHOh/z/vvvV0pKynGDz7/++mtX+XH11Vfrrbfe0ujRozVhwgT9+OOP6tjxyAUAjz/+uDIyqjfLY9OBLD3/0/Y6Z0b9atskTOf1amE6BgAAlqIAAQDAgwTY/fTXYW1Nx8AxShxlbIUFAMcICAjQCy+8oA0bNui2225Tnz59FBMTo8DAQLVu3Vrnn3++PvvsM33xxReKiYlRWlqa67XHDv2uSvntr0aOHFnj19fVPffco2effdZ1/+KLL9Zrr71W5dyP2oqPj3fN7ZB00jkg1bF+/Xq9+OKLko4UOV26dHE99sEHH7hu33777RVeFxIS4trCrLCwUJ9++mmV71Vc6tRtH69TiYPNJjzNDSPay+7nnv9mAQDwVBQgAAB4mIsGtFZMaIDpGDjGHwey9eLPiaZjAIDH6datm55++mmtWbNG6enpKioq0t69ezVv3jyNHz9ekpSenq6UlBTXawYMGFDt4y9fvrxCAXDVVVfVX/hq+Pe//61///vfrvvjxo3TO++8U2Hlizs0b/6/OQ3ly6PaKD/4/P7776/w2IoVKyRJzZo1U9euXY977ahRo1y3V65cWeV7Pfvjdm1JrvmQe7hXq5gQTejL1lcAAN9DAQIAgIcJDfTX1KHtTMfACbzAVlgAUCu//fab67afn1+NCpDyqz/Cw8M1ceLEes12Mv/97391zz33uO6feeaZ+vjjj084xLy+5efnu26HhobW+jjvvPOOlixZIkl6+umnXYPP/3Tw4EFJUosWJ94aqfzskQMHDpz0vdbuy9Qrv3CxgCe6/rT2CrDzFRAAwPfw6QcAgAe6anC8IkPc/+UKaqbEUabpH69TUanDdBQA8CrlB56PHj1aTZo0qdbrioqK9NFHH7nuT5o06bgv8N1l5syZuvXWW133R4wYoXnz5ikoKMjt711cXKwdO3a47sfGxtbqOFlZWbrjjjskSWeccYYmT5583HPKz2apysmeW1Ti0PSP18nhZOsrTxMXGaQLT2llOgYAAEZQgAAA4IEiggN09WBmgXiiTQez9djXW0zHAACvkZSUpPfff991/9prr632a+fPn19h8LZV21+9++67uuGGG1z3Bw8erC+++EIhISGWvP+XX36pvLy8Cu9fGw888ICSk5OPG3xeXlRUlKTKV3fs37/fdftkw+uf/G6rElNza5UT7vW34e0V5G83HQMAACMoQAAA8FBXD0lQeBCrQDzRW7/u1nd/JJuOAQAez+Fw6Prrr3dt5/SXv/xFEyZMqPbry29/lZCQoNNOO63eMx7r008/1ZQpU+R0OiVJp5xyir7++muFh4e7/b0lKSMjQ3feeafrfmxsbK0KkA0bNrgGn99yyy0nnO8hyTUQPTk5WZs2bTru8R9++OG45x5r0bZUzVqyq8YZ4X5NwgN16cA2pmMAAGAMBQgAAB4qOjRQVwyKNx0Dlbj9k/Xan1lgOgYAGJGTk6NPPvlEDkflWwIePnxYkydP1ldffSVJCggI0GuvvVbt4eEpKSn69ttvXfevvPJK2Wy2WuVNSEiQzWaTzWbTiBEjKn3eN998o0suucT1e/Xp00ffffeda5VEbd155516++23q9xuateuXRo9enSF7a/uueceBQQE1Pg9p02bptLSUrVs2fK4wefllR9y/sQTT1R4rKCgoMLKkfLP/VNyVqFu/Witytj5yiP9dWg7BQew+gMA4LtsZWWcpgAA4KkO5xZp6OMLVVDCzAlP1D8+Rh9dN0j+DBUF4GOSk5PVvHlzxcXFady4cRo0aJDi4+Nlt9uVkpKin3/+WR9//LHS09MlSXa7Xe+///4JZ1BUZsaMGZo+fbokyWazafv27Wrfvn2t8iYkJGjPnj2SpNNOO00///zzCZ8XGhqqgoL/ldsDBgxQo0aNqv0+s2fPVlxc3HE/P//88/X5558rKipK55xzjgYMGKAOHTooOjpaJSUl2rt3r3744QfNmTNHxcXFrteNHTtW8+bNk91esy+w3333XV1xxRWSpA8//FAXXXRRpc9NSkpSp06dXL/3VVddpcsvv1y5ubl68skn9euvv0o6UgatWbOmwmsdzjJd8tpyrdyVXqN8sEZ0aICW3Hk6K4oBAD6NAgQAAA/3yJeb2FbCg/19RHvdcdaJtwQBgIbqzwKkOmJiYvTaa69p4sSJNXqP3r17a/369ZKkYcOGadGiRTXO+afqFiC1XWHyp127dikhIeG4n/9ZgNTEFVdcoVdeeUWhoaE1el12drY6d+6s5ORkjRw5Uj/99FOVr3nxxRd14403Vvp4WFiYFi9erL59+1b4+RPfbNFLPyfWKB+sc+voTvq/MzqajgEAgFFcrggAgIf72/B2Cg7gI9tTvfxLohZtSzUdAwAsFRYWptGjRyswMLDS50RHR+u6667Tli1balx+rF271lV+SNYNP3eXcePGaeDAgfL3P/mV+H5+fho9erQWLFigt99+u8blh1Rx8PkLL7xQrddMmzZNr776qiIjI497rEOHDvr++++PKz8WbUvVy79QfniqiCB/XT04wXQMAACMYwUIAABe4PEFW/iSwYM1CQ/Ugv8bpqYRwaajAIClCgsLtWbNGu3du1cpKSnKz89XXFycEhISNHTo0FrNrmjICgsLtWHDBu3cuVMHDx5UXl6e/P39FR0drbZt22rQoEEnLCGqq6SkRE888YRKSkrUuXNnXXLJJTV6fU5Ojr799lvt3LlTAQEB6tmzp0aMGHFccZOSXahznl2sw3nFlRwJpk0b2UG3n9nZdAwAAIyjAAEAwAtkF5Ro2BMLlVVQYjoKKjG4fWO9O3Wg/Pzqtn0KAACezOEs06WvLdcK5n54rLBAuxbfeboahVW+QgsAAF/BfhoAAHiByJAA/X1E7Qa/whq/Jh7Wiz/vMB0DAAC3mvH9NsoPD3fd8HaUHwAAHEUBAgCAl5gyOEEtothiyZP994ftWsmXQgCABmrRtlS9RNnv0ZpGBOna4e1MxwAAwGNQgAAA4CWCAuy6dXQn0zFwEg5nmW76YLUOZReajgIAQL1KyS7UrR+tFZtoe7ZbR3VUaKB/1U8EAMBHUIAAAOBFJvZrpU5x4aZj4CRSsov0t3d+V1Gpw3QUAADqRYnDqZs/WMPQcw/Xvmm4Jp/S2nQMAAA8CgUIAABexM/PptvP7GI6BqqwZl+m7p230XQMAADqxUPz/2Duhxe486zO8rfzNQ8AAOXxyQgAgJcZ3S1OAxJiTMdAFeb8nqQ3luwyHQMAgDp5e9luvbtir+kYqMKAhBiN6d7MdAwAADwOBQgAAF7orrO7mo6AavjX15u1eHuq6RgAANTK0h1peviLTaZjoBruPodzQwAAToQCBAAAL9Q/PkZjusWZjoEqOJxluvH9Ndqdlmc6CgAANbI7LU9/f2+1Sp1MPfd0Z/dopr5tWB0MAMCJUIAAAOClbj+zs+x+NtMxUIWsghJd+/Yq5RaVmo4CAEC1ZBeWaOrsVcoqKDEdBVXw97PpjrOYDwcAQGUoQAAA8FId4yI0sV8r0zFQDdsP5eqWD9fIyVW0AAAP53SW6eYP1igxNdd0FFTDJX9po7ZNwkzHAADAY1GAAADgxW4d3VHBAXyce4MfNh/S099vMx0DAICT+veCzfp5K/OrvEF4kL/+b1RH0zEAAPBofGMCAIAXax4VoimDE0zHQDW9uHCHvlx3wHQMAABOaM6qfXp98S7TMVBN1w1vpybhQaZjAADg0ShAAADwcjeM6KCokADTMVBNt3+yXuuTMk3HAACgglW703XPvI2mY6CaYiOCdO2wdqZjAADg8ShAAADwclEhAbqF7Q+8RkGJQ9e89Zt2p+WZjgIAgCRpf2aBrn/3dxU7nKajoJpuHd1JIYF20zEAAPB4FCAAADQAV56aoG7NI03HQDWl5RbryjdWKjWnyHQUAICPy8gr1pWzViott9h0FFRTh9hwTT6ltekYAAB4BQoQAAAaALufTQ+P7y6bzXQSVNfe9Hxd/dZK5RWVmo4CAPBR+cWluuat35SYmms6Cmrg/vO6ye7HSR8AANVBAQIAQANxSkIjTezXynQM1MDG/dm6/t3fVcKWIwAAi5U4nPr7u6u1Zl+m6SiogXN7NtfwTk1NxwAAwGtQgAAA0IDcdXYXRYb4m46BGli8PU23z1lvOgYAwMfcPme9ft6WajoGaiA8yF/3j+1mOgYAAF6FAgQAgAakSXiQpo/ubDoGauiztfv1r682m44BAPARj3y5SZ+t3W86BmrollEdFRcZbDoGAABehQIEAIAG5vJB8eregoHo3ua1xTv1+uKdpmMAABq4V35O1Kwlu0zHQA11bR6hKYMTTMcAAMDrUIAAANDA2P1semR8Dwaie6F/fb1Z87kiFwDgJh+v2qf/fLPFdAzUkM0mPXp+T/nb+QoHAICa4tMTAIAGqF98jCb1ZyC6tykrk/4xZ72WbE8zHQUA0MB8vylF//x0g+kYqIUL+7dW//gY0zEAAPBKFCAAADRQd53VRVEhAaZjoIaKHU5d/+7vWrsv03QUAEAD8dvudN30wWo5nGWmo6CGYkID9M+zu5iOAQCA16IAAQCggWocHqTpYzqZjoFayC0q1ZWzVmh9UqbpKAAAL7clOVtTZ/+mwhKn6SiohTvO6qKYsEDTMQAA8FoUIAAANGCXD4xXj5YMRPdG2YWlumLWSm3cn2U6CgDAS21LydFlr61QdkGp6SiohX5tonXJX9qYjgEAgFejAAEAoAHzYyC6V8sqKNHls1Zo0wFKEABAzew4lKtLX1uuw3nFpqOgFux+Nj16fg/TMQAA8HoUIAAANHB928Towv6tTcdALWXml+iy11do88Fs01EAAF4iMTVXl7y2XGm5lB/e6spT49WtRZTpGAAAeD0KEAAAfMBdZzMQ3ZtlHC1BtiRTggAATm5XWp4ufW25UnOKTEdBLcVGBOm20cxxAwCgPlCAAADgAxqFBeq+87qajoE6SM8r1mWvrdC2lBzTUQAAHmr30fIjJZvyw5vdd143RQRz4QoAAPWBAgQAAB8xqX9rjewcazoG6uBwXrEufW25tlOCAACOkZiaq4tmLtPBrELTUVAHQzs00djeLUzHAACgwaAAAQDAh/xnYk9FhvibjoE6SMst1qWvrVDioVzTUQAAHmLHoVxdPJOVH94uNNCuf01g8DkAAPWJAgQAAB8SFxmsB87rbjoG6ig1t0iXvLZciamUIADg67Ym5+jimcuY+dEA/PPsropvHGY6BgAADQoFCAAAPmZi/1Y6oytbYXm7QzlFuujVZdp0IMt0FACAIZsPZuuS15YrLbfYdBTU0dAOTXTFqfGmYwAA0OBQgAAA4IP+PYGtsBqCtNxiXTxzuVbtTjcdBQBgsdV7MnTJa8uVnkf54e0igvz1xKRepmMAANAgUYAAAOCD4iKD9cBYtsJqCLILS3XFrJX6Zesh01EAABb5acshXfb6CmXml5iOgnpw/9huahEdYjoGAAANEgUIAAA+amI/tsJqKApKHPrr26v05foDpqMAANzsk9/36bq3V6mgxGE6CurB6V1ideEprU3HAACgwaIAAQDAhz02oaeiQgJMx0A9KHGU6eYP1uj9FXtMRwEAuMkrPyfqH3PWq9RZZjoK6kF0aID+c0FP0zEAAGjQKEAAAPBhsZHBemBsN9MxUE+cZdLd8zbq2R+2mY4CAKhnj3y5Sf/5ZovpGKhHD4/rrtjIYNMxAABo0ChAAADwcRf0a6XR3eJMx0A9euaH7bp33gY5uUIYALxeicOpWz5cq1lLdpmOgnp0Ts9mGtenpekYAAA0eBQgAABA/57QQ9GhbIXVkLy7Yq+mvb9aRaXsEQ8A3iqvqFR/nb1Kn63dbzoK6lGT8EA9ej5bXwEAYAUKEAAAoKYRwXpwbHfTMVDPFmxM1lVvrFR2YYnpKACAGkrPK9alry3XL9tSTUdBPfvXhJ5qFBZoOgYAAD6BAgQAAEiSzu/bUmPYCqvBWb4zXRe89Kv2HM4zHQUAUE1JGfma9PKvWpeUZToK6tn5fVrqzO7NTMcAAMBnUIAAAAAXrkhsmHYcytX5Ly7V8p2HTUcBAFRhzd4MTXjpV+1Mo7huaOIig/TweFbcAgBgJQoQAADg0jQiSE9d2Fs2m+kkqG8Z+SW6YtYKffjbXtNRAACVmLs6SRfPXK7UnCLTUeAGj0/spcgQZq4BAGAlChAAAFDB6V1iNXVoW9Mx4AYljjLdNXeDHvlykxzOMtNxAABHOZ1l+vfXmzX943UqKnWajgM3uPQvbTSic6zpGAAA+BxbWVkZf/0CAIAKShxO9h5v4EZ0bqrnL+mriGCuRAUAk7ILS3TzB2v081aGnTdUXZpF6LNpQxQcYDcdBQAAn0MBAgAATmhfer7OfW6xsgtLTUeBm3SMDdesqwaoTeNQ01EAwCftTsvT1NmrlJiaazoK3CQs0K75Nw1V+6bhpqMAAOCT2AILAACcUOtGoXrsgl6mY8CNth/K1fgXl2jFLoajA4DVlmxP0/gXl1J+NHCPTuhJ+QEAgEEUIAAAoFLn9mquywa2MR0DbpSRX6LLX1+hj37bZzoKAPiMt37drSlvrlRWQYnpKHCjyae01oS+LU3HAADAp7EFFgAAOKmiEofGv7hUW5JzTEeBm10zJEH/PKerAuxcIwMA7lDicOr+zzfqg5WUzg1d57gIfX4jcz8AADCNAgQAAFRpx6FcjXthifKLHaajwM36tYnW85f2U8voENNRAKBBSc0p1I3vr9GKXemmo8DNQgPt+uLGoWofy9ZXAACYxuV9AACgSh1iw/Xw+O6mY8ACq/dm6tznFuunLYdMRwGABmPJ9jSd8+wSyg8f8ej5PSg/AADwEBQgAACgWib1Zx9rX5GZX6Kps3/T4wu2qNThNB0HALyWw1mmp7/bqivfWKHU3CLTcWCByae01gX9WpmOAQAAjmILLAAAUG15RaUa+/wS7UzLMx0FFvlL20Z6/pK+iosMNh0FALxKSnahbv6ALa98CXM/AADwPBQgAACgRjYdyNKEl35VUSkrA3xF47BA/ffiPhrWsanpKADgFRZtS9WtH63V4bxi01FgkdBAu+bfOFQd2PoKAACPwhZYAACgRrq1iNLd53Q1HQMWOpxXrKveWKlnvt8mp5NrZwCgMqUOp574ZouuenMl5YePefT8HpQfAAB4IFaAAACAWrn+3d/1zcZk0zFgscHtG+vZi/uqaUSQ6SgA4FEOZhXopvfXaNWeDNNRYLELT2mlJyf1Nh0DAACcAAUIAAColdyiUl3w0lJtS8k1HQUWi40I0tOTe7MlFgAc9ePmFP1jzjpl5JeYjgKLdYoL1+fThiokkLkfAAB4IgoQAABQa3sO52n8i0uVyRc+Psdmky4bGK+7z+mi0EB/03EAwIiiEoee/G6rZi3ZJf6y9j1hgXZ9ztwPAAA8GgUIAACokyXb03TVmyvlYDaET0poHKqnJ/dR//gY01EAwFLr9mVq+px12nGIlZC+yM8mvXrFKRrdLc50FAAAcBIUIAAAoM7eXLpLD32xyXQMGOJnk/42vL1uHd1Jgf5+puMAgFsVlzr17I/b9coviZT/PuyOMzvr7yM7mI4BAACqQAECAADqxe2frNOcVUmmY8CgLs0iNGNyb3VrEWU6CgC4xaYDWZo+Z502H8wxHQUGnd+npf57cR/TMQAAQDVQgAAAgHpRXOrUxTOXa/XeDNNRYFCA3ab/O6OTbhjRXnY/m+k4AFAvSh1Ovfhzol74abtKHPwJ7cv6tI7WR9cNUlAAQ88BAPAGFCAAAKDepOYUatwLS3Uwq9B0FBjWt3W0nprcW+2bMhgWgHfblpKj6R+v04b9WaajwLBmkcGaf+MQxUYGm44CAACqiQIEAADUq/VJmbrwlWUqKnWajgLDggP8dOdZXXT1kLamowBAjTmcZZq5KFH//WE7n2lQcICf5vxtsHq2YptHAAC8CQUIAACod5+t2a9bPlprOgY8RP/4GP1rQg91aRZpOgoAVEtiaq7+8fE6rdmXaToKPMQLl/TVeb1bmI4BAABqiAIEAAC4xWNfb9ari3aajgEP4e9n0zVD2+qWUR0VGuhvOg4AnFBhiUMvLtyhmYt2suoDLjed3kHTx3Q2HQMAANQCBQgAAHALp7NM18z+TT9vTTUdBR6kRVSwHhzXXWO6NzMdBQAq+GnLIT0wf6P2pReYjgIPclaPZnrl8v6mYwAAgFqiAAEAAG6TXViiCS8uVWJqnuko8DCju8XpwXHd1TI6xHQUAD4uKSNfD3+xSd9tSjEdBR6mW/NIfXLDqaxcBADAi1GAAAAAt0pMzdWEF5cqu7DUdBR4mNBAu24+o6P+OrSt/O1+puMA8DHFpU69vninnv9phwpKHKbjwMM0CQ/U5zcOpagHAMDLUYAAAAC3W7QtVVNn/6YSB6cdOF7nuAg9OqGHBiQ0Mh0FgI/4NTFN9332hxJTc01HgQcKtPvp/WsH6hQ+lwAA8HoUIAAAwBLz1uzXbR+vFWceOBGbTbqwf2v98+wuigkLNB0HQAN1KLtQj361WfPXHTAdBR7syUm9dOEprU3HAAAA9YACBAAAWOaVXxL1nwVbTMeAB4sM8deNIzvqqsHxCvK3m44DoIEodTj1zvI9mvHdNuUUsSUjKnfj6R30jzGdTccAAAD1hAIEAABY6pEvN2nWkl2mY8DDtYoJ0R1ndta4Pi1NRwHg5RZsPKgnv9mqnWl5pqPAw13yl9Z67IJepmMAAIB6RAECAAAsd9P7q/XF+oOmY8AL9G4VpbvP7aqBbRubjgLAy/y2O12Pfb1Fq/dmmI4CL3Bm92Z66bJ+svvZTEcBAAD1iAIEAABYrrjUqSlvrtSviYdNR4GXGN0tTned1UXtY8NNRwHg4XYcytXj32zR95tSTEeBlxjYtpHevuYvCgpg60UAABoaChAAAGBETmGJLp65XH8cyDYdBV7C38+mi//SRreM6qgm4UGm4wDwMIeyC/XMD9v08aokOZz8mYvq6dY8Uh/+bZAigwNMRwEAAG5AAQIAAIxJzSnUhJd+VVJGgeko8CLhQf7622ntdO2wdgrmal3A5+UUlujVRTs1a/EuFZQ4TMeBF2ndKESf3jBYTSOCTUcBAABuQgECAACM2pmaq0mvLFN6XrHpKPAyzSKDddPpHXThKa0V6O9nOg4Ai5U4nHpvxV49/+N2HeYzBDXUJDxQn1w/WAlNwkxHAQAAbkQBAgAAjFu7L1OXvrZc+cVcuYuaax4VrL+d1l6XDGjN/u2ADygudWru6iS9/HOi9qbnm44DLxQe5K8PrxukHi2jTEcBAABuRgECAAA8ws9bD+mvs1eplH3bUUuxEUH622ntdOlf4hUSSBECNDSFJQ59+Ns+zfwlUQeyCk3HgZcKtPvpzasHaEiHJqajAAAAC1CAAAAAjzH39yRNn7POdAx4uSbhgfrrsHa68tR4hQb6m44DoI7yikr1zvI9mrV4l1Jzi0zHgRfzs0nPX9JP5/ZqbjoKAACwCAUIAADwKC8t3KEnvt1qOgYagEZhgZo6tK2uGpyg8CCKEMDbZBeU6M1fd+vNpbuUmV9iOg4agEfG99AVp8abjgEAACxEAQIAADzOo19t0uuLd5mOgQYiKiRA1wxJ0NVD2ioyJMB0HABVOJxbpFlLdumdZXuUU1RqOg4aiP87o6NuHd3JdAwAAGAxChAAAOCRHvriD725dLfpGGhAIoP9dfFf2ujKU+PVKibUdBwAx0jJLtTMRTv1/oq9KihxmI6DBuTygW306ISepmMAAAADKEAAAIDHuv/zjXp72R7TMdDA2P1sGt0tTlcPSdDAto1NxwF83oakLL2xdJe+Wn9QxQ6n6ThoYM7v01IzJveWn5/NdBQAAGAABQgAAPBo987boHdX7DUdAw1U9xaRunpIgsb2bqEgf7vpOIDPcDjL9M3GZL25dJdW7ckwHQcN1LjeLfTMRX1kp/wAAMBnUYAAAACP989P1+uDlftMx0AD1iQ8UJcObKPLB8YrNjLYdBygwcrIK9ZHq/bpnWV7tD+zwHQcNGDn9WquZy/uS/kBAICPowABAABe4c656/XRb5QgcK8Au03n9myhq4ckqHfraNNxgAZjfVKm3lm2R/PXHVBRKdtcwb3O6tFML1zSV/52P9NRAACAYRQgAADAKzidZbpz7nrN+T3JdBT4iH5tYnTlqfE6u0czBQWwPRZQU0UlDn25/qDeXrZb65KyTMeBjxjTLU4vXtZPAZQfAABAFCAAAMCLOJ1luv2TdZq7er/pKPAhkSH+Gt+7pS4a0Fo9WkaZjgN4vI37szR3dZI+W7NfGfklpuPAh5zRNVYvX9Zfgf6UHwAA4AgKEAAA4FWczjLd9vE6fbaWEgTW694iUhcNaK3xfVoqKiTAdBzAYxzKLtS8Nfv16er92pqSYzoOfNDpXWL1yuWUHwAAoCIKEAAA4HUczjLd+tFazV93wHQU+Kggfz+d0TVWE/u10mmdmrLPPHxSYYlD3/2RrE9X79fiHWlyOPnTEmaM6RanFy7tR/kBAACOQwECAAC8ksNZpv/7cI2+XH/QdBT4uCbhgRrfp6Uu6NdS3VuwRRYavt92p2vu70n6esNBZReWmo4DH3d2j2Z67pK+zPwAAAAnRAECAAC8VqnDqZs/XKOvNySbjgJIkro0i9A5PZvr7B7N1DEuwnQcoN7sPZyveWv369PVSdpzON90HECSdF6v5vrvRX1YhQcAACpFAQIAALxaqcOpGz9Yo282UoLAs7RvGq6zezbT2T2asTIEXmnzwWx990eyvv0jRZsOZpuOA1Qwvk8LzZjcR3Y/m+koAADAg1GAAAAAr1fqcOofc9YzGB0eq3WjEJ3V/cjKkH7xMabjAJX6fU+GvtmYrO82JbPSAx5rYr+WenJSb/lRfgAAgCpQgAAAgAbj/s836u1le0zHAE6qWWSwzuxxZGXIgIRGXL0Mo0ocTi1LPKxv/0jWd5tSlJpTZDoScFIXD2itf0/oSfkBAACqhQIEAAA0KE9/t1XP/7TDdAygWhqHBeqMrnEa3rGJhnRoopiwQNOR4APyikq1aHuqvtmYrIVbDjHIHF5j2sgOuv3MzqZjAAAAL0IBAgAAGpzXF+/Uo19tNh0DqBE/m9SjZZSGdWyqYR2bqH98jAIY7It6UOJwas3eTC3dkaYlO9K0bl+mSp38GQjvYbNJD4ztrimDE0xHAQAAXoYCBAAANEgfr9qnf366QQ6+5IOXCgu0a2C7xhrWsYmGdWyqDrHhpiPBi2xJzj5SeGw/rJW7Diuv2GE6ElArgXY/zZjcW+f1bmE6CgAA8EIUIAAAoMFasPGg/u+DtSp2OE1HAeqseVSwhnZsouEdm+rU9o3VJDzIdCR4kAOZBa4VHr8mHmaWBxqE8CB/vXJ5fw3t2MR0FAAA4KUoQAAAQIO2dEea/vbO78otYo97NCxtGoWqb5to9WsTo35tYtS1eYT82TLLJzicZdqWkqO1+zK1dl+mftuVrp1peaZjAfWqSXig3pzyF/VsFWU6Cupo9+7datu2ret+Q/ka6ueff9bIkSMlSfHx8dq9e7fZQACAE/I3HQAAAMCdhnRooo/+NkhT3vhNqblcEY2GY296vvam5+vztQckScEBfurVKlr92kSrb5sY9WsTraYRwYZToj4kZxUeLTsytHZfptYnZSmfLa3QgLVuFKJ3rhmohCZhpqNUy5QpUzR79uwKP1u6dKkGDx5crdePGDFCv/zyiyRp+vTpeuqpp+o9IwAAvooCBAAANHjdW0Rp7g2DdcUbK7TncL7pOIBbFJY4tXJXulbuSnf9rFVMiPq1iVHfNtHq3SpaHePCFREcYDAlqpJfXKoNSVlac3R1x9q9mUrOLjQdC7BMt+aRmn3NAK8vcO+991799NNPpmMAAODzKEAAAIBPaNM4VHNvGKwpb67Uxv3ZpuMAlkjKKFBSRoHmrzvg+lmLqGB1bhapzs3C1SkuQp2bRahD03AFBdgNJvU9RaUO7UzN07aUHG0/lKvtKbnanpKjPen5cjgbxvYwQE2d2q6xZl7Zv0EUtQsXLtSPP/6oM844w3QUAAB8GgUIAADwGU3Cg/Thdafq+nd+15IdaabjAEYcyCrUgaxCLdx6yPUzu59N8Y1C1alZhDrHRbiKkYTGocwVqaPCEocSU48UHNtScrTj0JH/3ZdRQNEBlHN2j2b678V9FOTfcMrYe+65hwJEUkJCQoOZ+wEA8D4UIAAAwKeEB/nrjSkD9I856ypcFQ/4MoezTDvT8rQzLU/fbEx2/dzfz6ZmUcFqFROiltEhahUTqpYxIa77LaJDFODjBUlxqVPJWYU6kFWg/ZkFOnD0n4OZhdp1OE/70vNFzwGc3GUD2+iR8T3k52czHaXOOnTooB07dkiSVqxYoS+++EJjx441nAoAAN9FAQIAAHxOoL+fnrukr9o1DdN/f9huOg7gsUqdZa5ttE7EzybFRhwtSGKOFiTRwYoJC1Sj0EBFhwYqJjRA0aGBCvT3rqLE4SxTdkGJMgtKlFVQopTsQh3ILF9yFGp/ZoHScovEhc1A7d0yqqNuGdXJdIx607t3b/Xs2VPz5s2TJN1///0677zzZLN5f7kDAIA3ogABAAA+65ZRndShabj+8ck6FZY4TccBvI6zTErOLlRydqFW7ck46XPDAu2KCQtUTLlS5EhRcuR2SKBdgXY/Bfof/cfupyD/ivePvW33s6nUWSans0yOP/8pO/K/xaVOFTucKi51qqj0yP8WlzpVWOpQVkGJsvKPFBtZBSXKPHo7s6BYmfklyi4oUU5RKcUG4EYBdpseHt9Dl/yljeko9e6RRx7R559/LqfTqbVr12rOnDmaPHlyvb7H/v379dZbb+nrr7/Wzp07lZ6erqioKLVu3VpjxozRlVdeqa5du9bre06ZMkWzZ8+WJD3wwAN68MEH5XQ69cUXX+jdd9/V2rVrdfDgQeXl5bkel6Tdu3erbdu2ruNUth3WiY7vcDg0d+5czZ49Wxs3blRKSooaNWqknj176rLLLtNll10mu/3k26Y9+OCDeuihhyRJV111ld566y1J0oIFCzRr1iytWbNGBw4cUEREhLp06aKLLrpIU6dOVXBwcF3+dVXqhx9+0KeffqrFixfr4MGDysnJUZMmTdStWzeNHTtWU6dOVVhYWLWOtWnTJr355ptavHixduzYoezsbNntdkVGRio+Pl69evXS0KFDNW7cODVq1Mgtvw8AeDoKEAAA4NPO691CrRuF6rp3Viklu8h0HKDByit2KK+48tUkAHxHo7BAvXx5Pw1s29h0FLfo3r27Lr74Yr3//vuSjnyZP3HixCq/qK+uGTNm6P7771deXl6Fn6empio1NVWrV6/WU089pZtuuklPPPGE/P3d89VPSkqKLrvsMv34449uOX5qaqouuugiLVy4sMLPDx48qIMHD+q7777Tyy+/rDlz5qhVq1bVPm5eXp6mTp2qjz76qMLPCwsLlZqaqsWLF+uFF17Qxx9/rJ49e9bL7yJJiYmJuvbaa4/7fSTpwIEDOnDggH744Qf95z//0Ztvvqkzzzyz0mOVlZXpzjvv1NNPPy2ns+JFPCUlJSosLNShQ4f022+/adasWeratas2bdpUb78LAHgT71qHDgAA4Aa9W0fr82lD1aNlpOkoAAA0aF2aRWj+jUMabPnxp4ceeshVPGzZskXvvPNOvRx3+vTpmj59eoXyo0OHDhoxYoR69Ojh2mqrtLRUzzzzjCZNmqTS0tJ6ee/yioqKdM4557jKj7i4OA0dOlSDBg1STExMnY9fWlqq8ePHu8qCZs2aafjw4TrllFMUFBTket7y5ct1xhlnKDU1tdrHnjJliqv8aNSokYYMGaKBAwcqPDzc9ZwtW7Zo1KhR2r69frZKXb16tQYPHlyh/IiMjNTAgQM1cuRIdezY0fXzgwcPauzYsa5t1E7knnvu0ZNPPukqP2w2mzp16qQRI0bo9NNPV9++fSv8PseWJADgSyhAAAAAJDWLCtacvw3WOT2bmY4CAECDdGb3OM29YbBaxYSajuJ2HTp00JQpU1z3H3roIZWUlNTpmHPmzNGMGTNc9wcMGKC1a9dq+/btWrhwoTZs2KBdu3bpvPPOcz3n888/12OPPVan9z2RF198UatXr1b79u317bff6uDBg1q8eLGWLVumlJQUTZ06tU7Hf/XVV7Vs2TI1bdpUc+fO1f79+/XLL7/ot99+U3Jysm699VbXc7dt26Zp06ZV67hfffWVPvnkE4WFhWnmzJlKTk7WkiVLtHz5cqWkpOixxx5zFVeHDh3SFVdcUefy4PDhwxo3bpwOHTokSercubPmz5+v9PR0LV++XD/99JO2bdumzZs3a9SoUZKOrOK4+uqrtWfPnuOOl5ycrKeeesp1/9prr9WBAwe0detWLVy4UD/++KNWr16t7OxsrVmzRvfcc4+aNm1ap98BALwZBQgAAMBRIYF2vXRZf918RgfTUQAAaFBuPL2DXr3iFIUF+c5O3Pfff79rtcLu3bv1+uuv1/pYxcXFuvnmm133+/Xrp4ULF6p3794VnhcfH6/PP/9c48aNc/3skUceUVJSUq3f+0RycnLUunVrLVmyRGPGjKkw5D0gIECtW7eu0/HT0tIUFham77//XhdccIH8/P739VV0dLRmzJihe++91/WzOXPmaPHixdU6rp+fn+bNm6drr71WAQEBrsdCQ0N111136ZVXXnH9bMWKFXrvvffq9Lvcdttt2r9/v6QjpdVvv/2msWPHHrclWpcuXbRgwQKdffbZkqSsrCw9/PDDxx3v+++/d5VpQ4cO1cyZM9Ws2fEX8NhsNvXp00ePPvqofv755zr9DgDgzShAAAAAjnHb6M567uI+CvLnVAkAgLoIDvDTC5f01T/GdDYdxXKtW7fW3/72N9f9Rx99VIWFhbU61ty5c5WcnCzpyBfbs2bNqnRQtp+fn2bOnKmIiAhJR1YTvPrqq7V635OZMWPGCb94ry933nnncQVPeQ888IA6derkul++uDiZKVOmaPTo0ZU+PnXqVI0cObLGxz2RpKQk1yyYwMBAffDBB67/X07E399fM2fOdBUz77//vrKyso475p+GDBlSrRz1NX8GALwRf9UDAACcwLg+LfXR305VbERQ1U8GAADHaX50e8nzercwHcWYu+++W6GhR7b8OnDggF588cVaHeezzz5z3T7ttNPUp0+fkz4/Li5Ol1566QlfXx+aNm2q888/v16PWZ6/v79uuOGGKp9TvmCaP39+tbaruummm6p8zo033ui6/euvv7q2r6qpDz/80DWD5bzzzlP79u2rfE2rVq102mmnSToymP3XX3+t8HhwcLDr9vr162uVCwB8CQUIAABAJfq0jtbnNw5R9xYMRwcAoCb6tYnW/BuHqGerKNNRjIqLi6vwhft//vMf5ebm1vg4K1ascN3+c4ukqpSfBbJp0ybl5OTU+H0rM2jQINesDHfo37+/mjRpUuXzyv+7yM3N1ZYtW076/Li4uCrLI0k688wzK2zrtWrVqipfcyLlt+U6/fTTq/26Hj16uG6vXr26wmP9+/d33V6wYIHuvvvu41aJAAD+x3c23wQAAKiF5lEh+uT6wbrt47VasDHZdBwAADzexH4t9e8LeirIn213JOmOO+7Qyy+/rOzsbKWlpem///1vhfkVVSktLa0wDLtnz57Vel355zmdTu3atUu9evWqfvCTqM5KhrooXwCcTKdOnRQQEOCaibF9+3Z169atzscNCwtTQkKCdu3a5TpubWzcuNF1e9asWfriiy+q9bodO3a4bqelpVV4bNiwYerXr5+rGHnsscf0zDPP6IwzztDpp5+uoUOHqn///mx7BQBHUYAAAABUISTQrpcv76+nv9uq53/aUfULAADwQX426a6zu+q64e1MR/EojRo10vTp0/XAAw9Ikp566ilNmzZNMTEx1Xp9ZmZmhfuNGzeu1uuOXUGRkZFRrddVx8nmWNSH6v6OdrtdUVFRrpLg2H9XtT3un8/9swCp6riVOXz4sOv2mjVranWMY1d32Gw2zZ07V+ecc442b94s6chWWV999ZW++uorSVJkZKTGjBmjKVOm6Nxzz63V+wJAQ8EWWAAAANU0fUxnvXJ5f0UGcw0JAADlRQT5640pAyg/KnHrrbe6vnzPysrSk08+We3XFhUVVbgfGBhYrdcd+7xjj1MXfn7u/Tqpur+jJAUF/W9eW1W/o7uOW5m8vLxava68E801SUhI0Jo1a/Tcc8+dcFVPdna2PvnkE5133nk69dRTXUUOAPgiChAAAIAaOKtHM3150zD1aMlcEAAAJKl903DNmzZEIzrHmo7isSIiInTnnXe67j/33HPVHqwdFVVxjkp1Z3kc+7zo6Ohqvc4T1GReSfnnRkae/PzMXcetTPn/7+bMmaOysrIa//PWW2+d8NhBQUG66aabtG7dOu3fv1/vvvuurr322uO2J1u+fLlGjhxZryuAAMCbUIAAAADUUJvGoZp7w2BdPijedBQAAIya2K+lvrhpiDrEhpuO4vFuvPFGNW/eXNKRlQH//ve/q/W68PBwhYSEuO5X92r+xMTECvebNm1azaTmVfd3TE9PV3Z2tut+bOzJS7jqHresrEy7d++u9nErExcX57pd3cKrNlq0aKHLLrtMM2fO1I4dO7RmzRpdcMEFrsf37NmjF154wW3vDwCejAIEAACgFoL87Xr0/B56/pK+CgtkyCQAwLeEBNj11IW99PTkPgoNZGvI6ggJCdE999zjuv/KK68oKSmpWq/t27ev6/bKlSur9ZoVK1a4bsfExCghIaF6QT3AqlWrVFZWVuXzjv13Uf7f04ls3ry5WqtAtm7dWqFY6devX5WvOZFBgwa5bi9fvrxWx6iNPn366JNPPtHIkSNdP/vuu+8se38A8CQUIAAAAHUwtncLzb9pqLo0c+8wUAAAPEWnuHDNv3GIJvVvbTqK17n22msVH39kBWlRUZEeeeSRar1u2LBhrttz585VSUlJla959913XbeHDh0qm81Ww7TmHDhwQIsXL67yeR9++KHrdvfu3ascLF9SUqJ58+bV6LjR0dHq0aNHla85kTPPPNN1+/PPPz9uoLk72Ww2jRs3znU/JSXFsvcGAE9CAQIAAFBH7ZuG67NpQzT5FL4IAgA0bJNPaa3Ppw1VxziK/9oIDAzU/fff77r/xhtvaM+ePVW+7uqrr3bdTk5O1rPPPnvS58+dO7fCCpCpU6fWIq1Z995770lXgWzatEnvvfee6/6UKVOqddyHH35YhYWFlT6emppa4d/vZZddJn//2q1yuuCCC1yFV3Z2tqZPn16r45RXnZUxfyq/2qVRo0Z1fm8A8EYUIAAAAPUgOMCuJyb10tMX9lZIAFtiAQAaltBAu565qI+emNRLIWz9WCdXXXWVOnXqJEkqLS2tMGuiMp07d9akSZNc9++++2599tlnJ3zu8uXLdc0117ju9+7dW+edd16dMpuwePFi3XzzzXI4HMc9lpSUpPPPP1+lpaWSjsw3qW7Jk5iYqEsvvfSEJUhGRobOP/98ZWZmSpKCg4N1yy231Pp38Pf31+OPP+66P2vWLF1//fXKz88/6evy8vL01ltv6YwzzjjusVtvvVV333239u3bd9Jj7Nq1Sy+99JLr/vDhw2uYHgAaBjbqBAAAqEcT+7dSz1ZR+vt7q7XjUK7pOAAA1FmXZhF68bJ+at+UQef1wW6366GHHtIll1xSo9e9+OKLWrx4sVJSUlRSUqIJEyZo4sSJmjhxolq2bKm0tDR9/fXXmj17tqsYCA4O1ttvvy273btKq/Hjx2vBggV64YUX9Ouvv+qvf/2runTpooKCAi1evFivvPKKq6SQpGeffbbK7a8k6YwzztCaNWs0b9489erVS9dff7169+6t0tJSrVq1Si+99JIOHDjgev7999+vDh061Ol3ueiii7RixQo988wzkqRXX31Vc+fO1aWXXqrBgwe7BqVnZGRoy5YtWrFihb7//nvl5+dXGKL+p8zMTD377LP6z3/+o8GDB+u0005T79691bRpUwUEBCg5OVmLFi3SW2+95VoBEhkZqZtvvrlOvwcAeCsKEAAAgHrWKS5C828cors/3ajP1u43HQcAgFq75C+t9eDY7gpidWO9uuiii/TYY49p/fr11X5NbGysFi5cqNGjR2v//iPnF3PnztXcuXNP+PyIiAjNnz9fvXr1qpfMVurTp4/OPfdcXX/99Vq9erX+/ve/V/rcf/3rX9Uuk1q1aqVbb71VEydO1Pbt20+6JdV1112nf/7znzXOfiIzZsxQ48aNdd9996msrExpaWl67rnn9Nxzz9X6mGVlZVq6dKmWLl160ueFhYXpk08+UatWrWr9XgDgzdgCCwAAwA1CA/3134v76LELeirIn1MuAIB3CQ/y13MX99FjF/Si/HADm81W7QHo5XXt2lXr16/XzTffrLCwsBM+JyAgQJdccok2btyoESNG1DGpOddee62++uordezY8YSPt23bVvPnz9fdd99do+Oee+65WrJkifr163fCx2NjYzVr1iy9+uqrNc58Mvfcc4/Wrl2rSZMmKSgo6KTP7dKli+688079/PPPxz123XXX6Zprrqmy0AgODtall16qjRs3avTo0XWJDgBezVZWk+lJAAAAqLHNB7N14/urlZiaZzoKAABV6t4iUi9c2k9tm5z4C3Z4hsLCQi1atEg7d+5Uenq6IiMj1aZNG40YMUKRkZGm49XYlClTNHv2bEnSAw88oAcffND12IoVK/THH38oJSVFjRo1Us+ePXXqqafKZrNVedz/b+/OY/uu7zuOv33bcRw7p53EcUjihISQAOEIlADrylU6ulJoRzda1rVqtalaxQ6hrTuo1rXrOqlqJ7FqYwV1HVW3llbtytFrtCWUMwFCmpQAiZ2TXHYu3zb7I1GAVdAAjr/224+H9FN+v5+ln16y8scveub7/dxyyy3xyU9+MiKOnr9yxx13HP/ZU089FWvXro2dO3dGXV1dLF68OC655JI3fOj5ieru7o7Vq1fH5s2bY9++fRERUV9fH/Pnz49ly5bFrFmzTuhz2tvbY926ddHW1hadnZ1RUlIS9fX1ceqpp8a55547Jv8eAAw3t8ACADjJlsycFN/744vis/dujDse3BL++wkAo9UNK1vir68+LarKXfUx2lVXV8fll19e9IwRsXLlyli5cuWwf+7y5csLuUVYTU1NXHrppW/6c1paWqKlpWUYFgHk5X4MAAAjoLqiLP726qVx54fPj+bJNUXPAYBXmF5XFbfdeE586ppl4gcAkIYAAgAwgi5YMDXu+fhF8Z5zHEQJwOjwzjNmxQ9uujguXdJY9BQAgGElgAAAjLC66or43HVnxG03nhPTJ772IZgAcLJMra2Mf7lhRXzxfWdFw4TKoucAAAw7AQQAoCCXLmmM+266OK5a1lT0FADGmStPb4rv33RxvP30mUVPAQA4aQQQAIACTamtjFt/7+z4wvVnRn1NRdFzAEiuYUJFfOH6M+NLN5wdU12FCAAkV/Liiy++WPQIAAAidh3oiZu/+VT85Jk9RU8BIKG3LZkRn7lmWcyYVF30FACAESGAAACMMv/5UFv8/d0boqtvsOgpACQwqbo8/ubq0+K6s+cUPQUAYEQJIAAAo1DbviPxZ//9ZDy6paPoKQCMYZcsmh7/cO2ymFlfU/QUAIARJ4AAAIxSQ0Mvxm0PbI7P/+CZ6O53NQgAJ662siw+8Y7T4ndXthQ9BQCgMAIIAMAot62jK275zvr44YbdRU8BYAy4YMHU+Nx1y6N58oSipwAAFEoAAQAYI76/flfc8p31seNAT9FTABiFpk+sir98x5K45qzZRU8BABgVBBAAgDGkq28gPv+DTXH76s0xMORrHAARZaUlccP5c+NPL18Uk6orip4DADBqCCAAAGPQxl0H4xPfejoeb3NIOsB4dtachvjUNafH0ln1RU8BABh1BBAAgDHsa4+0x2fv3RidXf1FTwFgBDVMqIibr1wc7zvPIecAAK9GAAEAGOP2He6Nz9yzMb7x+LaipwBwkpWURLz3nDlx85WLY0ptZdFzAABGNQEEACCJh5/fF5/49tPx7O7DRU8B4CQ4beak+NS7To8VcycXPQUAYEwQQAAAEukfHIp//enz8c8/3hQ9/UNFzwFgGNRVlcefXL4oPnDBfyn2RgAAEb1JREFUKVFWWlL0HACAMUMAAQBIaOv+rrjlu+vjRxt2Fz0FgDfhnWfMir96x5KYMam66CkAAGOOAAIAkNjqZ/fGp+/eEOt3HCx6CgCvw4LpE+Pv3rU03rJgWtFTAADGLAEEAGAcuGvNtvin+34ZOw70FD0FgNcwfWJVfPzShXH9uXOivKy06DkAAGOaAAIAME709g/Gl1dvjlv/97k41DtQ9BwAXqa2siw+cvH8+PBF86O2qrzoOQAAKQggAADjzP4jffGFH22KOx9ui/5BXwUBilReWhLXn9cSH3/bwpheV1X0HACAVAQQAIBxavPeI/HZezfGvU/vKnoKwLj09tOb4s+vODXmT59Y9BQAgJQEEACAce6xLfvj03dviDXtnUVPARgXzj1lcvzF25fEirmTi54CAJCaAAIAQEREfO+pnfGP922Mtn1dRU8BSKl1xsS4+crFcdlpjUVPAQAYFwQQAACO6xsYiq8+1BZf/PGm6OzqL3oOQAqNk6ripssWxXvOnhNlpSVFzwEAGDcEEAAAfsXB7v749wc2x+0Pbo6D3QNFzwEYk+qqyuOjlyyID62aFzWVZUXPAQAYdwQQAABe1cGe/rhj9Zb48urNrggBOEG1lWVxw/lz4yMXz4+pE6uKngMAMG4JIAAA/FqHewfiKw9uidse2Bz7j/QVPQdgVJpUUx4ffMu8+OCFp0TDhMqi5wAAjHsCCAAAJ6yrbyC++lB7/NtPn489h3uLngMwKkytrYwPrZoX779gbtRVVxQ9BwCAYwQQAABet57+wbjz4fb40k+ei92HhBBgfGqcVBUfvXhBvO+8Fmd8AACMQgIIAABvWG//YHz9sa3xpfufix0HeoqeAzAimifXxB9esiCuO6c5qsqFDwCA0UoAAQDgTesbGIpvPL41br3/udjW0V30HICTYsH02vij32iN3z5zVpSXlRY9BwCAX0MAAQBg2PQPDsVda7bHrfc/G237uoqeAzAsFjfVxcfe2hpXLZsZpaUlRc8BAOAECSAAAAy7waEX44cbXojbV2+Oh57fX/QcgDfkjOb6+NhvtsZlpzUVPQUAgDdAAAEA4KT6xY4DcfuDW+I7T+yI3oGhoucAvKay0pK47LTG+IML58V586YUPQcAgDdBAAEAYETsO9wbdz7SHv/x87bYfai36DkArzCppjx+55yWuPEtc6N58oSi5wAAMAwEEAAARlT/4FDcvW5n3L56SzyxtbPoOcA4N39abfz+hafEdWc3x4TK8qLnAAAwjAQQAAAKs7a9I25fvSXuXrczBoZ8LQVGRklJxCWLpseNF5wSb108o+g5AACcJAIIAACF23WgJ77y8y3xtUfao6Orv+g5QFINEyrivefMiRtWzo2WqW5zBQCQnQACAMCo0dM/GN9+YnvcsXpLbNx1qOg5QBLLm+vjAxfMjauXz4qqirKi5wAAMEIEEAAARqU1bR3x9ce2xv88uSOO9A0WPQcYY6orSuO3ls+K958/N86Y01D0HAAACiCAAAAwqh3pHYjvrdsZX390azze1lH0HGAUKymJOPeUKXHtiua4allT1FVXFD0JAIACCSAAAIwZz+4+HP/12Na4a8222Hu4r+g5wCjRMmVCvHvF7Hj3Wc3O9gAA4DgBBACAMad/cCju/+Xu+Oaa7fHjDbujb3Co6EnACKurKo+rls+Ma1c0x3nzphQ9BwCAUUgAAQBgTOvs6ovvPrkzvrlmWzyxtbPoOcBJVFoSsap1Wlx7dnNcsbQpqh1oDgDAaxBAAABI47k9h+OuNdvjW2u2xY4DPUXPAYZJ64yJcd2K5njXWbOjqb666DkAAIwRAggAACk9/Py+uOfpXXHv07ti10ExBMaayRMq4p1nzo5rV8yO5c0NRc8BAGAMEkAAAEhvbXtH3PP0rrjn6Z2xdX930XOAV9E0qTouX9oYVyxtipXzpkR5WWnRkwAAGMMEEAAAxpX1Ow4cjSHrdsVzew4XPQfGvfnTauOKpU1xxdLGOLNlctFzAABIRAABAGDc2vTCoeO3yfrFzoNFz4FxY9ns+uPRY2FjXdFzAABISgABAICIaNt35HgMeXJbZ/iWDMOnrLQkzj1lclyxtCkuX9oUsxtqip4EAMA4IIAAAMD/s6OzO+5bvyt+tGF3PLplf/QODBU9CcacqvLSWLVwWlyxtCkuXdIYU2ori54EAMA4I4AAAMBr6OkfjEc274+fbdobDzy7JzbsPFT0JBi15k2rjQtbp8Wq1mlx0cJpUVtVXvQkAADGMQEEAABehz2Heo7FkL3xs017Y8+h3qInQWGmT6yKCxZMjVULp8WFrdPc2goAgFFFAAEAgDdhw86DR2PIM3vikS37o6ff7bLIq7ayLM6bNzVWLZwaF7ZOi8VNk4qeBAAAr0oAAQCAYdLbPxiPbumIn23aEw88uzd+sfOgw9QZ08pLS+KMOQ2xqvXoFR5ntTRERVlp0bMAAOCECCAAAHCS7D3cG49u2R9r2jpjbXtHrNt+wIHqjGplpSVxamNdrJw/JS5snRbnz58aE53jAQDAGCWAAADACOkfHIr1Ow7G2vaOWNveGWvaO2JbR3fRsxjHZtZXx5lzGo4+Whpi2ez6mFApeAAAkIMAAgAABdp9sCfWbu2MNW0dsebYVSLOEeFkqK0si+XNL8WOM+c0ROOk6qJnAQDASSOAAADAKNI/OBQbdh6MNe1Hb5u1pr0jtu53lQivT2lJxKLGulfEjkUz6qK0tKToaQAAMGIEEAAAGOUOdPfHL3cdimdeOPTSny8cis6u/qKnMQrUVpZF64yJsaixLhY21sXy5vpYNrs+ap3dAQDAOCeAAADAGLX7YE9sfFkQeWbXodi0+3B09Q0WPY2ToK6qPFpnTIyFjXWxsHFiLDz2fHZDTdHTAABgVBJAAAAgmfZ9XUeDyMuuGHl+z5HoG3S2yFgwqbo8WmccjRyLGifGwmPPZ9YLHQAA8HoIIAAAMA4MDb0Yuw/1xvbO7tjW0RXbO7pjW0f38dfbOrqjd0AgGQlV5aXRVF8dsxpqYnZDTcxqqI6Z9TUxZ/KEaJ0xMZrqHUwOAADDQQABAAAiImLPod7Y3tEV2zqPxZHjkeRoMDni1lq/VklJxNTaypjVUPMrgePo6+qYXidwAADASBBAAACAE9JxpC/2HemLjq6+6Ozqi/1H+o8/7+jqP/beS887u/pjYGhs/3Ojsqw06msqon5CRdTXVETDhIpoqKk49l7l0fdqKmJ6XdXR6FFfHVUVZUXPBgAAQgABAABOooM9/dHxsijS0dUfB7v7o29wKPoGXvYYHIreV7wefMXP+gZe9vNjryMiykpLjj5KSqK0tCTKj70uLTn6vKK8NKrKS6OyvDQqy0qjqrzs6PNj71eVlx4LG5XHA0d9zUuxY0JlecG/QQAA4I0SQAAAAAAAgHRKix4AAAAAAAAw3AQQAAAAAAAgHQEEAAAAAABIRwABAAAAAADSEUAAAAAAAIB0BBAAAAAAACAdAQQAAAAAAEhHAAEAAAAAANIRQAAAAAAAgHQEEAAAAAAAIB0BBAAAAAAASEcAAQAAAAAA0hFAAAAAAACAdAQQAAAAAAAgHQEEAAAAAABIRwABAAAAAADSEUAAAAAAAIB0BBAAAAAAACAdAQQAAAAAAEhHAAEAAAAAANIRQAAAAAAAgHQEEAAAAAAAIB0BBAAAAAAASEcAAQAAAAAA0hFAAAAAAACAdAQQAAAAAAAgHQEEAAAAAABIRwABAAAAAADSEUAAAAAAAIB0BBAAAAAAACAdAQQAAAAAAEhHAAEAAAAAANIRQAAAAAAAgHQEEAAAAAAAIB0BBAAAAAAASEcAAQAAAAAA0hFAAAAAAACAdAQQAAAAAAAgHQEEAAAAAABIRwABAAAAAADSEUAAAAAAAIB0BBAAAAAAACAdAQQAAAAAAEhHAAEAAAAAANIRQAAAAAAAgHQEEAAAAAAAIB0BBAAAAAAASEcAAQAAAAAA0hFAAAAAAACAdAQQAAAAAAAgHQEEAAAAAABIRwABAAAAAADSEUAAAAAAAIB0BBAAAAAAACAdAQQAAAAAAEhHAAEAAAAAANIRQAAAAAAAgHQEEAAAAAAAIB0BBAAAAAAASEcAAQAAAAAA0hFAAAAAAACAdAQQAAAAAAAgHQEEAAAAAABIRwABAAAAAADSEUAAAAAAAIB0BBAAAAAAACAdAQQAAAAAAEhHAAEAAAAAANIRQAAAAAAAgHQEEAAAAAAAIB0BBAAAAAAASEcAAQAAAAAA0hFAAAAAAACAdAQQAAAAAAAgHQEEAAAAAABIRwABAAAAAADSEUAAAAAAAIB0BBAAAAAAACAdAQQAAAAAAEhHAAEAAAAAANIRQAAAAAAAgHQEEAAAAAAAIB0BBAAAAAAASEcAAQAAAAAA0hFAAAAAAACAdAQQAAAAAAAgHQEEAAAAAABIRwABAAAAAADSEUAAAAAAAIB0BBAAAAAAACAdAQQAAAAAAEhHAAEAAAAAANIRQAAAAAAAgHQEEAAAAAAAIB0BBAAAAAAASEcAAQAAAAAA0hFAAAAAAACAdAQQAAAAAAAgHQEEAAAAAABIRwABAAAAAADSEUAAAAAAAIB0BBAAAAAAACAdAQQAAAAAAEhHAAEAAAAAANIRQAAAAAAAgHQEEAAAAAAAIB0BBAAAAAAASEcAAQAAAAAA0hFAAAAAAACAdAQQAAAAAAAgHQEEAAAAAABIRwABAAAAAADSEUAAAAAAAIB0BBAAAAAAACAdAQQAAAAAAEhHAAEAAAAAANIRQAAAAAAAgHQEEAAAAAAAIB0BBAAAAAAASEcAAQAAAAAA0hFAAAAAAACAdAQQAAAAAAAgHQEEAAAAAABIRwABAAAAAADSEUAAAAAAAIB0BBAAAAAAACAdAQQAAAAAAEhHAAEAAAAAANIRQAAAAAAAgHQEEAAAAAAAIB0BBAAAAAAASEcAAQAAAAAA0hFAAAAAAACAdAQQAAAAAAAgHQEEAAAAAABIRwABAAAAAADSEUAAAAAAAIB0BBAAAAAAACAdAQQAAAAAAEhHAAEAAAAAANIRQAAAAAAAgHQEEAAAAAAAIB0BBAAAAAAASEcAAQAAAAAA0hFAAAAAAACAdAQQAAAAAAAgHQEEAAAAAABIRwABAAAAAADSEUAAAAAAAIB0BBAAAAAAACAdAQQAAAAAAEhHAAEAAAAAANIRQAAAAAAAgHQEEAAAAAAAIB0BBAAAAAAASEcAAQAAAAAA0hFAAAAAAACAdAQQAAAAAAAgHQEEAAAAAABIRwABAAAAAADSEUAAAAAAAIB0BBAAAAAAACAdAQQAAAAAAEhHAAEAAAAAANIRQAAAAAAAgHQEEAAAAAAAIB0BBAAAAAAASEcAAQAAAAAA0hFAAAAAAACAdAQQAAAAAAAgHQEEAAAAAABIRwABAAAAAADSEUAAAAAAAIB0BBAAAAAAACAdAQQAAAAAAEhHAAEAAAAAANIRQAAAAAAAgHQEEAAAAAAAIB0BBAAAAAAASEcAAQAAAAAA0hFAAAAAAACAdAQQAAAAAAAgHQEEAAAAAABIRwABAAAAAADSEUAAAAAAAIB0BBAAAAAAACAdAQQAAAAAAEhHAAEAAAAAANIRQAAAAAAAgHQEEAAAAAAAIB0BBAAAAAAASEcAAQAAAAAA0hFAAAAAAACAdAQQAAAAAAAgHQEEAAAAAABIRwABAAAAAADSEUAAAAAAAIB0BBAAAAAAACAdAQQAAAAAAEhHAAEAAAAAANIRQAAAAAAAgHQEEAAAAAAAIB0BBAAAAAAASEcAAQAAAAAA0hFAAAAAAACAdAQQAAAAAAAgHQEEAAAAAABIRwABAAAAAADSEUAAAAAAAIB0BBAAAAAAACAdAQQAAAAAAEhHAAEAAAAAANIRQAAAAAAAgHQEEAAAAAAAIB0BBAAAAAAASEcAAQAAAAAA0hFAAAAAAACAdAQQAAAAAAAgHQEEAAAAAABIRwABAAAAAADSEUAAAAAAAIB0BBAAAAAAACAdAQQAAAAAAEhHAAEAAAAAANIRQAAAAAAAgHT+D6GfaLE2+tznAAAAAElFTkSuQmCC;" vertex="1" parent="1">
          <mxGeometry x="-725.9966900634765" y="-46.000003814697266" width="1600" height="1200" as="geometry" />
        </mxCell>
        <mxCell id="VhOZfITIN7FqA4-uACdg-2" value="" style="shape=image;verticalLabelPosition=bottom;labelBackgroundColor=default;verticalAlign=top;aspect=fixed;imageAspect=0;image=data:image/png,iVBORw0KGgoAAAANSUhEUgAABkAAAASwCAYAAACjAYaXAAAAOXRFWHRTb2Z0d2FyZQBNYXRwbG90bGliIHZlcnNpb24zLjguMywgaHR0cHM6Ly9tYXRwbG90bGliLm9yZy/H5lhTAAAACXBIWXMAACZzAAAmcwHzbHUKAAEAAElEQVR4nOzdd3gU1dvG8XvTewIECJ3Qe29KVUFRBEEFFUVAUbEi9vqCvXcF+SGCqCCgokgH6V167wQIoYaQQnp23j/QlUiS3SSbTHbz/VzXXmRnzpy5t6Qwz55zLIZhGAIAAAAAAAAAAHAjHmYHAAAAAAAAAAAAcDYKIAAAAAAAAAAAwO1QAAEAAAAAAAAAAG6HAggAAAAAAAAAAHA7FEAAAAAAAAAAAIDboQACAAAAAAAAAADcDgUQAAAAAAAAAADgdiiAAAAAAAAAAAAAt0MBBAAAAAAAAAAAuB0KIAAAAAAAAAAAwO1QAAEAAAAAAAAAAG6HAggAAAAAAAAAAHA7FEAAAAAAAAAAAIDboQACAAAAAAAAAADcDgUQAAAAAAAAAADgdiiAAAAAAAAAAAAAt0MBBAAAAAAAAAAAuB0KIAAAAAAAAAAAwO1QAAEAAAAAAAAAAG6HAggAAAAAAAAAAHA7FEAAAAAAAAAAAIDboQACAAAAAAAAAADcDgUQAAAAAAAAAADgdiiAAAAAAAAAAAAAt0MBBAAAAAAAAAAAuB0KIAAAAAAAAAAAwO1QAAEAAAAAAAAAAG6HAggAAAAAAAAAAHA7FEAAAAAAAAAAAIDboQACAAAAAAAAAADcDgUQAAAAAAAAAADgdiiAAAAAAAAAAAAAt0MBBAAAAAAAAAAAuB0KIAAAAAAAAAAAwO1QAAEAAAAAAAAAAG6HAggAAAAAAAAAAHA7FEAAAAAAAAAAAIDboQACAAAAAAAAAADcDgUQAAAAAAAAAADgdiiAAAAAAAAAAAAAt0MBBAAAAAAAAAAAuB0KIAAAAAAAAAAAwO1QAAEAAAAAAAAAAG6HAggAAAAAAAAAAHA7FEAAAAAAAAAAAIDboQACAAAAAAAAAADcDgUQAAAAAAAAAADgdiiAAAAAAAAAAAAAt0MBBAAAAAAAAAAAuB0KIAAAAAAAAAAAwO1QAAEAAAAAAAAAAG6HAggAAAAAAAAAAHA7FEAAAAAAAAAAAIDboQACAAAAAAAAAADcDgUQAAAAAAAAAADgdiiAAAAAAAAAAAAAt0MBBAAAAAAAAAAAuB0KIAAAAAAAAAAAwO1QAAEAAAAAAAAAAG6HAggAAAAAAAAAAHA7FEAAAAAAAAAAAIDboQACAAAAAAAAAADcDgUQAAAAAAAAAADgdiiAAAAAAAAAAAAAt0MBBAAAAAAAAAAAuB0KIAAAAAAAAAAAwO1QAAEAAAAAAAAAAG6HAggAAAAAAAAAAHA7FEAAAAAAAAAAAIDboQACAAAAAAAAAADcDgUQAAAAAAAAAADgdiiAAAAAAAAAAAAAt0MBBAAAAAAAAAAAuB0KIAAAAAAAAAAAwO1QAAEAAAAAAAAAAG6HAggAAAAAAAAAAHA7FEAAAAAAAAAAAIDboQACAAAAAAAAAADcDgUQAAAAAAAAAADgdiiAAAAAAAAAAAAAt0MBBAAAAAAAAAAAuB0KIAAAAABy9MMPP8hisRTo9sADD+TrXEuXLlXv3r1Vrlw5+fn5qUGDBnr55Zd14cKFonlwyNWWLVt05513qmLFivL19VVkZKSeeOIJxcTE5Nj+woULBXqP9OjRo5gfWelz8OBBDRs2TNWqVZOPj4+qVKmioUOHav/+/WZHAwAAKBYUQAAAAAA4XUZGhsNtR40apWuvvVazZ8/W+fPnlZaWpn379untt99Wq1atdPDgwSJMisuNHz9e7dq107Rp03TmzBmlp6crKipKX3zxhZo3b67169c77Vz5eY8g/+bMmaMWLVpowoQJio6OVkZGhmJiYjRp0iS1bNlSs2bNMjsiAABAkaMAAgAAACBHnTp10vvvv69hw4apRYsWRXKOH374Qa+//nqu+48cOaLevXsrPT29SM6Pfy1fvlzDhw9XZmZmjvvPnTun3r176/z589m2BwcHa/Hixfr000917bXXFkdU2HHgwAHdfvvtunjxYo77k5OTdccddzASBAAAuD0KIAAAwCm2bt1a4Klycrt5e3srPDxcdevWVfv27TVo0CB98MEHmj9/vs6ePWv2QwbcXs2aNfXss89q/Pjx2rJli/bs2aPOnTs79Ryvvfaa3TZ79+7Vzz//7NTz4kpvvvmmrFZrnm3Onj2rr7/+Ots2T09PXXfddRoxYoT+/PPPK/aj+L3//vtKTU3Ns01qaqo+/PDDYkoEAABgDi+zAwAAAPfg6+ursLAwp87Xn5mZqdjYWMXGxkqSNmzYYNtnsVjUsmVL9e3bV4MHD1b16tWddl4AOWvQoIHmzZunRo0a6dixY4XuLzY21uHprdatW6eBAwcW+pzI3bp165zS7qGHHtJ3332ntWvXOiMWCsBZryUAAICrYwQIAABwioYNGyouLk6xsbGaP3++Bg8eLE9PT4eP//XXX7V27Vrbbfny5Zo5c6beffddXX/99fL29s7W3jAMbd68Wf/3f/+nyMhI9e/fX9u3b3f2wwLwH4GBgXr44Yed0pdhGEXSFgXj6HPsSLvevXsXNg4KwZmvJQAAgCujAAIAAJyqbNmyuuGGGzRp0iQtWrRIXl6ODTht2bKlOnToYLt16dJFffv21fPPP68FCxYoKipKI0aMyLGoYrVa9fPPP6tly5YaPnz4FfPTA3AuZ60HEh4ersjISIfatmvXzinnRO4cfY4daRcREVHYOCgEZ76WAAAArowCCAAAKDLXXHONevXq5ZS+KleurE8//VTr1q3Ldborq9WqcePGqXHjxlq2bJlTzmuGIUOG2F0fJSoqyuyYcMCyZcvsvpajR482O2a++fn5Oa2vl19+2W6bunXrasCAAU47pzNFRUXZfY2HDBlidkyHvPTSS7JYLHm2KVu2rIYPH263L3v94JKiev8888wz8vHxybONr6+vnnnmmQImBwAAcA0UQAAAQJFq1KiRU/tr06aN1qxZo9q1a+fa5tSpU+revbvGjBnj1HMDcL77779fzz33XK77q1evrj/++EO+vr7FmKp06t69uz7//PNcpy8sW7asZs2apfLlyxdzMuRXo0aNNHXqVPn7++e439/fX1OnTlXDhg2LORkAAEDxogACAACKlL1PoBZElSpVNGfOHAUHB+faJisrS48++qg++eQTp58fgHO99957WrhwoW688UaVKVNGPj4+qlevnl588UVt3bpV9evXNztiqfHYY49p7dq1uv3221W+fHl5e3urZs2aeuyxx7R9+3Z17NjR7Ihw0K233qotW7ZoyJAhqly5sry9vVW5cmUNHjxYW7ZsUb9+/cyOCAAAUOQcm5QbAACghKlfv77efPNNjRgxIs92Tz/9tCIjI9W3b9/iCQagQHr06KEePXqYHQOS2rZtqxkzZpgdA05Qv359TZw40ewYAAAApmEECAAAcFnDhw9XrVq18mxjGIYGDRqkQ4cOFVMqAAAAAABQElAAAQAALsvHx8ehBaSTkpIcWrQXAAAAAAC4D6bAAgAALu22227T8OHDlZycnGe7xYsXa+bMmYWe8zwhIUGnT59WQkKCPDw85Ofnp5CQEEVEROS6cLCrSEtLU0xMjOLj45WVlSU/Pz8FBgYqIiJCfn5+ZscDAAAAACBfKIAAAACXFhAQoF69ejk0X/17772X7wLIzp07NW/ePC1ZskTbtm3TyZMnc2zn6empKlWqqF27duratavuvvtulSlTJl/nKm4nT57UnDlztHjxYm3atEmHDx+W1WrNsW14eLhatWqljh07auDAgapTp45TMhw4cEAzZ87Uxo0btWPHDsXGxio+Pl4eHh4KDg5WhQoV1LBhQzVv3lzdunVT+/bt5e3trV69emnu3Lnq2LGjVq1aVaBzHzp0SLNmzdKqVau0d+9enThxQhcvXpTFYlFAQIAiIiJUq1YttWrVSj179lTHjh1lsVic8rhLmtjYWM2YMUN//vmntm/frhMnTig1NVXBwcEqW7asGjdurNatW+vGG29U27ZtzY6bL6tWrdKCBQu0ceNG7d+/X3FxcUpMTJSvr6+Cg4NVtWpV2+O75ppr1KRJE6Wlpaly5co6f/68Xn75Zb355pvFknXJkiU6c+ZMvo6pW7euWrdunW3bnj17NH78eC1evFiHDh2SYRiqU6eObrvtNj311FMKDg52Zmyn2rhxo2bMmKFVq1YpOjpaKSkpqlixoiIiItSpUyfdcsstatGihdkx8TfDMLRx40YtWrRIf/31lw4ePKiYmBglJSUpKytL/v7+KleunGrUqKHmzZurY8eO6tmzp0JDQ03Jm5KSojlz5mju3LnauHGjoqOjlZiYaPsgw9VXX62+ffuqV69epuQDAABFwAAAAChCo0aNMiTZvR05cqTA55gyZYpD55BkbNiwwaE+p02bZrRv397hfv97CwwMNJ599lkjPT09z/MMGzbM8PX1zXbz8PCw27+Pj88Vx/1z69GjR57n3LBhg9G3b1/Dy8urQI/Nw8PD6Nevn3Hy5EmHX6P/WrVqldG5c+d8nzs0NNQYNGiQ4enpaUgyOnbsmO9zr1271rjmmmvyfe7GjRsbU6dONbKysnLsd/ny5Ve8Ft7e3nb79fT0zPW19PX1NaKiogr8PNtz5swZ4+GHHzZ8fHwcfh5q1aplPPDAA3bbDR48OMdzrlixwujYsWO+bp06dTIWLFjg8OOyWq3Gt99+a9SpUyffr3ONGjWMvn372u6//PLLtn6joqKueH0cee48PDzyfI2XL19uGIZhdO3aNd95L3+ek5OTjYcffjjPnyENGjQwoqOjDcMwjAMHDuT7tejYsaPx3Xff2X0NJk6caDd7165ds70v2rZt69BjbtOmjbF27dpCnz+n29GjR6/oqyC/C6699tor+inK909iYmKBXst3333X7muZk5SUFGPMmDFGZGRkvp8bHx8fY+jQoca+ffscPl+NGjXyfZ7XX3/ddrzVajXGjBljlC9f3qFj27VrZxw8eLBAzw0AAChZGAECAABc3n8//ZyXWbNm5fkJ9mPHjmngwIFavXr1FfuaN2+uF154Qdddd51CQkJ06NAhvfvuu/r++++vaHvx4kV98MEHWrVqlebPn6+QkJAcz5eRkaG0tDSH8/8jPT093/tSU1P12GOP6dtvv5VhGNn2VaxYUc8//7z69eunypUr6+zZs5o8ebJGjRqljIyMbG2tVqtmzpypdevWaf78+WrWrJnDuTMzM/X4449r3LhxV2Tw8PDQrbfeqptuuknVq1dXenq6du3apRkzZmjDhg2SpPj4+Byfb0ecPHlSTzzxhH7++ecr9rVv316PPfaYKleurG3btundd9+94pP4u3bt0l133aUxY8ZoxowZqlixYrb9Vqu1QK9lVlaWsrKyct3/3+fJWX7//Xfdd999On/+fK5tKlasqCZNmig9PV0bN25USkqKDh8+rMOHDxf4vLGxsTl+f9kTExPjULszZ87otttuy3FkUFBQkO6//361a9dOVapU0YULF7Ru3TpNnTpVR48elSQdPXrU9vV/GYZRoNfY3nsjt5FX+bF37171799fO3futNtu4MCBWr58uZKSkgr0WnTv3r2gMa+QlZWlF198UR9++KHD7/WNGzfq6quv1nPPPad3333XaVkk57wWknL8ni7K909mZmaBXsuCjOabOnWqRo4cqdOnT1+xr0yZMnrkkUfUqVMneXp6at++fRozZoz27Nlja5Oenq6JEyfqu+++0z333KMvvvgi19+RhfHPa5CQkKCBAwdqzpw5Dh+7YcMGXX311Vq2bJkaNmzo9GwAAKAYmVl9AQAA7q84RoBkZWUZAQEBDp2ndevWufazdetWo2LFirkeu3jx4hyPGzx4cJ7nvPvuu3M9p71jC3K7/FPV/7hw4YLRrl27XI955ZVXcsxn71PU9erVM5KSkvJ+gf6WkZFh9O7dO8d+/P398/xE9++//25UqFDhiuMcHQGyZcsWo2rVqjme+7bbbjMyMjKytd+3b58REhKS6+OuWrWqsX///mzHLF261OmvZWG/N3LzwQcfGBaLJddz+vj4GGPGjMn2vCQmJhovvvhinsddfsttBMimTZuMq666yvDz88vX8zBx4kS7jys6OtqoW7dujsc3aNDAOHXqVI7HpaWlGe+++26OI3YuHwFy5MiRInmNly5dahiGYZw+fdpYuHCh8cQTTxi+vr4OP8979uzJ8fsjr9vy5cuNY8eOGd26dTOCgoLydeyoUaPsvhaOjMBo06ZNrj8THL098sgjhtVqveL8Z8+eNX755Rfj1VdfNapUqVKo77ctW7YYs2fPNr766iujRYsWDvWT08/honz/JCcnGzfccINRpkyZfB2b2/dpTlJTU42HH344176qVKmS4wiajIwMY9CgQbkeV6dOHWPz5s15nvvPP/803nnnHaNNmzb5ep8eP37caNq0aYGf2+bNmxtpaWkOP0cAAKDkoQACAACKVHEUQAzDyPPi/uU3X19fIzMz84rj09LSjNq1a+d57DPPPJPjuY8ePWr3ovDChQsdfiyOTIPzzwVTR91zzz159temTZtcj7X3vLz00ksOZXj99ddz7WPEiBF2jz9x4oTRsGHDbMc5UgBZs2ZNrhd4y5Yta8THx+d43CuvvJLn427cuLGRmJiY57kduQicnwuQzvDVV1/lmcdisRhz5szJ9fgPPvjAoe81e4/r4sWLxqRJk4zw8HCH+rNXALFarUb37t1zPX7mzJl2n5vly5cbwcHB2Y67vACSE0cKXzldDLdn2bJlDk2h1rlzZ6Ny5cq2n2/9+/c3brjhBrvHXV7ESE9PN3799VejVq1aDr0WziqA/HOrXLmy8fzzzxvTpk0z5s2bZ3z99ddGz549HT7+008/zTNLXFyc0apVK4f6sve7KCUlxWjdurXTXnNnv3+ysrKMxYsXGy1btnTK9+k/UlNTjR49euT5c2P9+vW5Hp+WlpZn8SggIMDYuHGjQ1leeuklhx7b7bffnq3w3bJlS+PRRx81XnzxRaN///4OF2G/+eYbh3IBAICSyUMAAABuoGrVqg61S0tLy3H6nuXLl+vQoUN5Hrtw4cIct1evXl01atTI89hvvvnGoXxFITk5WdOmTcuzzaZNmxQbG5vjvs6dO+d5bE5Tav3XuXPn8lxIulGjRnkeL0mVK1fW0qVLVa1aNbttLz/vgAEDlJSUlOP++++/P9epV+644448+961a5dGjx7tcJaSYNWqVXryySfzbPPYY4/ppptuynX/U089pfr16xc6S0BAgAYPHqw///xTPj4+he7vjz/+0OLFi3Pd78h7rEuXLpo9e7a8vb0Lnaewunbtqocffthuu5UrVyomJka9e/fW4cOHNX36dIe+R06ePGn72tvbW/369dOKFStUrly5QuXOrwEDBmjv3r169913NWDAAPXs2VMPPfSQ5s2bp19++cWh98ZLL72kgwcP5ro/LCxMEydOdEpePz8/vfjii07pqyh4eHjouuuu04oVKwo0vVVuhg8frkWLFuW6/7bbblO7du1y3e/j46PXX3891/3Jycnq06ePTpw4YTfLm2++6dDUlz///LOio6PVsmVLrVmzRps3b9aXX36pt99+W9OnT9fWrVtVqVIlu/2MHTvWbhsAAFByUQABAABuIT/zhx8/fvyKbefOnbN73IEDB3LdV7169TyPXbFihf1gRSQ+Pv6KdTz+yzCMXAtA9h7bqVOntH///jzbTJs2Lc91S6Kjo/M8/h8VK1bU9OnT5eHh2J+xQ4YMybPvnj175rqvSZMmCgwMzLP/cePGKS4uzqEsZktMTNSAAQPyfC/4+fnp1VdfzbMfDw8PPfDAA07L1axZM91yyy2F7sfe2jCOvse6dOmit956q9B5nKFHjx4OtRs5cqR+//13Va5cWZJyXcPkckFBQVdsq1Kliu677778hSyEpk2basqUKQoODs5x/6233qpx48bZ7Sc5OVnPP/98nm2aNWvmtOJO06ZNndJPUQoKCtLIkSOd0tf06dM1adKkPNs8+OCDdvu5+eab8yw4xMTEaOjQoXb7sVgsdgvU/+jbt6/Wrl2rq6666op99evX1+eff263jy1btig+Pt6h8wEAgJKHAggAAHALuV1Ay0liYuIV2xz5dHh4eHiu+0JDQ/M89tSpU7mOQihqFSpUcOjCX26Pz95jk5Tnp6+lS4sW5+W7775z+AJThw4dNGTIELvtli9fbnfRW3ufIq5Vq1ae+5OSknJcVL0k+vTTT7N96j8nAwYMUPny5e325cinr/PDGSNK7L3HHLnQ+Y8nn3xS9erVK2ykQsupSPFf11xzjT766CNZLBbbNl9fX7vH5fZpfWe8Fo4qW7asPD0982wzZMgQu6PQJGnWrFl2Rw848nw6whkjloqDM17LtLQ0u4UUPz8/h14ji8Wirl275tlm0aJFWrZsmd2+HPk51aJFC02ZMiXP74e+ffuqTJkyefZjtVq1fft2u+cDAAAlEwUQAADgFvIzAiSnQkTz5s3znPZHyvsTro6MSEhISLAfrgh4enra/XT0ddddl+vFfkcem73ihb0L78eOHVO3bt30119/2T2XJD399NN229ibniosLMxuccfehTHpUqGlpIuPj9dHH31kt52974GiYu8iuCPsvcd+//133XHHHQ6NBPH29rY7VVhJUb169WzFD0nq1KlTnsdUqVIl11E3zngtnO2RRx6x2yYzM1PffvttMaRxHc54LSdPnqyYmJg82zRq1Eh+fn4O9de8eXO7beyNQnPULbfcIn9//zzbeHl5OZTJkVGiAACgZKIAAgAA3EJmZqbDbXP79O5PP/2koUOHXjH/f3BwsF5//XW99NJLhcqY1xRQRe3ZZ5/Ve++9d8UFfU9PT919992aMWNGofq399gCAgLs9rF161a1a9dOXbt21cSJE/OcWqpRo0YyDEOrVq3Kcf/u3bvtforYkVExjows2rRpk902ZpszZ45DI2yuueaaYkhTNBx5j02fPl21a9fWnXfeqTlz5uT5vn344YdlGEaea9eUVI899phatmyZ4z5fX1999913Dl+wLgn69Onj0LosS5cuLYY0pcvkyZPttsnPaClH1iVZtWqV3TW5nKlixYp225j1AQYAAFB4FEAAAIBbSE5OdrhtbtOgBAcH69tvv1VcXJw2btyolStXavv27YqNjdWrr76a40gIq9Wq+fPna8eOHQXOXlyee+45nTlzRjt27NDKlSu1adMmxcXF6Ycffsh1pMO2bds0d+7cQp/b0UXqpUvrpdx3330qX768OnXqpHfeeUe7d+/O1/lmzpxpt40jF4AdKYCcPXvWoUxmmjdvnt02ZcuWVYUKFYohTdFw9D2Wnp6uadOm6eabb1a5cuXUp08fjR8/XqdOnSrihMUnMDBQq1ev1ltvvaWmTZvKz89PQUFB6tGjh5YvX67rrrvO7Ij5EhAQ4NCn9Ddu3Cir1VoMiUqHxMRErVmzxm47R6aj+keVKlUcaufIzyxnceR3gWEYxZAEAAAUBS+zAwAAADjDxYsXHW4bERGR5/7AwMA81zjIysrS6tWr9dtvv2nGjBkOL65cEnh5ealJkyZ5ttm1a5dmzZql6dOna+vWrU45b8+ePfXFF1/k65h/nufVq1frpZdeUuPGjfXoo4/q3nvvtbs4eW4jQy63a9euK6YOKghXWAR9xYoVdtvUrl27GJIUnZ49e+a7EJmUlKQ//vhDf/zxhywWi7p3765HH31UvXv3dmjqt5LM399fL730UqFHrpUUjRs3trvOS2Jiog4cOFCs65i4s02bNjlUUMrPGlyOjLaQpPXr1+uxxx5zuF8AAIDcuPZf9QAAAH9zdIFxi8VSoItjcXFxmjJligYOHKjy5cura9eu+uSTT2zFDy8v1/1cSXp6uhYuXKjHH39ckZGRatKkiV566SVb8cMZj61Hjx6qWbNmofrYtWuXHnnkEdWtW1ffffddnm337t1bqHPlR0n/xLlhGHbXx5Dy9ynukmjo0KGFeq8ahqFFixapb9++ateunUOffEfxqVGjhkPtWKvBeQ4fPuxQu/wUQMqWLetQu4MHDzrcJwAAQF5c93/qAAAAl4mKinKoXb169RxaK0CSLly4oF9//VXTpk3TkiVLrlhnJCwsTPfcc48efPBBPf744y6xGPY/MjIytGDBAv3000+aNWuWEhMTs+338vJSnz599OCDD2rNmjV6/fXXC3U+b29vffnll7r55psL1Y90abHrIUOGaNGiRfrmm29ynL7k9OnTdvtp1qyZxo0bV+g8JV1cXJwyMjLstnP0+6KkatiwoUaOHKkPPvig0H1t2rRJXbp00Ycffugyi6G7O0cvnLvCiCxX4WgxKT8FEHuLkv8jNjbW4T4BAADyQgEEAAC4BUcXTO3Zs6fdNgcOHNDHH3+s7777TikpKVfsDwsL0wsvvKDHH3/c5S4ax8XFaezYsfriiy9yXPPAw8NDDzzwgF555RXbmgpr1651yrl79eqlDz74QM8++6xT+vvxxx+VlZWlqVOnXrHPkQv+Hh4e6tChg1OylGRpaWkOtXP0wmRJ9s4772j//v36/fffC91XVlaWRo4cKT8/Pw0fPtwJ6VAYjv6sjY+PL+IkpYejPzt8fX0d7tORxeylSyMTAQAAnIEpsAAAgMuLj493+NOiffv2zXVfenq6nnzySTVo0EBff/11jsWPq666Sjt37tTzzz/vcsWPCRMmqGbNmnr55ZdzLH5UrFhRq1ev1tdff52vRcvz45lnntGPP/5odw0PR/3000+aMmXKFdtzW9T9cv8d9eKuHHkuJPe44Ojp6amff/5ZTz/9tNP6HDFihMMjzGC+kJAQsyO4DUcWB5fyNw2goz9nXO33KwAAKLkogAAAAJfn6Fz9zZo1U7du3XLcl5mZqT59+uizzz7L9WJOvXr1tGDBAlWpUqWgUU3z5ptvatiwYUpISMhxv4+PjxYtWlQsIyIGDhyoPXv2aMiQIfn65HBu3nrrrSu2hYeH2z3uxIkTJX79Dmfw8/Nz6EJmcnJyMaQpel5eXvrwww+1du1aXXvttYXuLz093SnTaqFwHH1/VqhQoYiTlB6OrguUn+Kpo6NKKleu7HCfAAAAeaEAAgAAXN6CBQscavfCCy/kuu+NN96w28/777+fr7nOS4o///xT//d//5dnm0ceeURNmzYtpkRStWrVNHHiRMXExGjs2LHq0aOHw1Oj/Nfu3buvWKy3evXqdo9LTU11eOo0V1etWjW7bWJiYoohSfHp0KGD/vzzT+3fv1+vv/66WrZsWeC+/vjjDycmQ0FcvHjRoXZcOHeeunXrOtTO0ddGUq5F+P9q2LChw30CAADkhQIIAABweY4UQDp37qy77rorx32xsbH68MMP8zw+ODhYN910U4Hyme3ll1+WYRh5trnzzjuL7PyTJk2SxWLRwIEDr9hXtmxZDR8+XAsXLtTZs2c1ZcoU3XHHHfme/mTv3r3Z7nfp0sWh4/766698ncdVXX311XbbHDlypBiSFI0hQ4bIYrHof//73xX76tatq1dffVWbN2/W0aNH9fnnn+vaa6+Vh4fj/xU6fvy424yQcVXR0dF229SsWdOhYh8c06pVK4dG6V24cMHhPk+fPu1Qu44dOzrcJwAAQF4ogAAAAJe2ZMmSKy5+/1dQUJDGjx+f6/558+bZvbgZGRlZ4BEKRSErK8uhdtHR0Vq/fr3ddvXq1StsJLt+/fVXnTx5Mtf9oaGhuuuuu/TTTz8pJiZGX375pWrXru1Q3/9d+Piaa65x6LhffvnFoXa5yczMLNTxkuOvZWF06tTJbpvz58/b/V4q6caMGZNnsa969ep6/PHH9eeff+rQoUN6+eWXHV4zojCLaxfHa+zuHFmH5YYbbshzv6enp90+SuK0eGa9f/z9/R36WepIceofjow08/b2Vs+ePR3uEwAAIC8UQAAAgEt7991389xvsVg0YcIE1a9fP9c2O3bssHue4pz6ymKx2G2TlJTkUF+OPDapeB5fWlqaXn/9dYfahoaG6tFHH9X27dvVq1cvu+3/u+ZHu3btFBkZafe4efPmOfyJ5P9KT09Xly5dNHr06FwvmjrztSyMXr16OVTAmzt3bpFnKUrbtm3T9OnTHWpbs2ZNvfnmm9q2bZvd94rFYlG5cuVy3WdPcbzG7m7btm122wwYMCDP/aGhoXb7KO7XqqS/f+677z67bXbv3u1wfzt37rTb5s4771RYWJjDfQIAAOSFAggAACgRCvKp28WLF2vRokV5tvn888/tXhSLi4uze64TJ07kK1th+Pv7221z7Ngxh/py5LFJxff4xo8f79CIlH8EBATou+++szslVo0aNbLd9/T01LPPPmu3/5SUFLvro+Rm5MiRWrt2rV577bVcCzvOfC0Lo1KlSurfv7/ddmPGjCmRn4DPj6effjpfU/LUrFlTY8aMybNNRESEfHx8ctxXUl5jd3bgwAG7Iwe6du1qd9H7/xZKczuXPY4u5O2Ikv7+uf3229WmTZs82+zatcvhIs3mzZvz3O/p6Vngn8kAAAA5oQACAABKhFOnTuWr/fHjxzV48OBc9/v4+Oibb77RY489ZrcvR0Y/REVFaevWrTnu27Vrl7Zv3263j8TERLttJOX6SfPLrVu3zqG+HB3ZMXPmzBy3JyYmavbs2XaPd/SxZWVl6d57783XdELlypVTo0aNct1fr169HKfwGjp0qEOLoX/zzTeaOnWqw3msVqtGjhxpu2hevnx5Pfroozm2deS13LlzZ74WES6op556yu6nzQ8dOmR3PRzp0nRZ9mRkZDiczZlOnDih4cOH5+uYzp0757m/d+/eue5z5DU+f/68QxfWC8KVC1aOvu/tTVVnsVj01ltv2e2nZcuWdtvMnz8/z/2ZmZkO/V5xdHo8s98/9lgsFn388cd5tklLS7P7YQTp0s8Ee+3uv/9+1alTJ18ZAQAA8kIBBAAAFKnY2FiH2s2aNcvhPvfv369rr702108E16lTR8uWLdP999/vUH9NmzZ1qN0dd9yRrQiSlZWlH3/8UZ06dXJopIWjRYsWLVrYbfPbb785NO+6o4/t1Vdf1YwZM7JtW7t2ra666ipt2rTJ7vGOPjbp0ut322235etT1HldTM9tihY/Pz9Nnz4910/u/8NqtWrw4MH6+OOP7c61Hxsbq9tvv12ffvqppEtz1U+bNk3ly5fPsX3z5s3tFh3S09M1bty4PNs4Q+vWrTVy5Ei77V599VX9+uuvue5fs2aNhg0bZrefQ4cOOZzNkTUO8rMI+bRp0/Tqq6863D6v95fFYtHQoUNz3R8ZGenQ1EpffPGFw3n+4UihydmjA5z9WuRl06ZNdi/sZ2Zm2v3+GDVqlEOLZnft2tVum8mTJ+c6deDZs2fVo0cPLV682G4/Bw4ccOi5LMr3j7Ney86dO+v555/Ps823335rt59ff/1VCQkJue5v06aN7WerPY4Uzxz9+yM1NdVuG0dHUwIAgBLIAAAAKCLJyclGZGSkIcnuzdvb25g9e3ae/SUmJhrvvfeeERgYmGMfAQEBxosvvmgkJyfnK2dsbKwRHBzsUE4PDw+jQYMGRocOHYzw8HDb9vr169s9tkKFCsbKlSvt5tm1a5dDWerWrWvMnDnTiIuLM7KysoyEhATj8OHDxrJly4ykpCRbf1dffbVD/UkyqlatanTs2NGoUaNGvh6bh4eHMX78eCMjI+OKxzNx4sQcj+nUqZNx7tw5u8/H2bNnDS8vrxz7aN68uZGenp7n8WPHjnX48Tds2NB4/fXXjfXr1xsxMTFGenq6ceHCBWP16tXGc889Z5QpU8bW1tPT0/j+++/t5m/Xrp1D7/833njDOHz4sJGRkWGkpqYaJ0+eNDZt2mTs2bPH7jkclZqaajRt2tSh13Po0KHG2rVrjbi4OCMhIcHYvHmzMWLEiFxfi//eLBaLMX/+fIdyDRw40G5/ffv2zfX4wYMH53jMY489ZmRmZto9/2+//ZbreR9++GG7xw8YMMCh5+TJJ5809uzZY6SnpxtpaWnG6dOnjW3bthlbtmzJsd9bb73Vbp+enp7G4sWL7WZ01EsvvWT3nK1atTKsVmue/eT2ff/fW//+/fPs56233srz+H79+tnN8o/MzEyjevXqdjOFh4cb48ePN2JiYoz4+Hhj27ZtxptvvmmUK1fOkGQ0atTIocf2xhtvOJSrqN4///vf/+z2GRERYaSkpNjNaLVajUGDBuXZ15o1a3I9Pi0tzWjQoEGux1arVs2Ijo526PkyDMPo16+f3ccWGRnp0N8DjRs3tttXhw4dcvz9BgAASj4KIAAAwOkSEhKMP//8M18X3qVLF0xvvfVWY9KkScaSJUuMlStXGnPmzDE+++wz48477zRCQ0NzPK5MmTLGU089ZcTExBQ482effZavrJdffBw7dqxx5MgRw9vb26FjAgICjHLlyhndunXLNc9NN91UoDz/3I4cOWLra8OGDYaPj0+B+hk8eLCRmprqUBFEkuHj42OUK1fOKFeunBEfH28YRt4XQiMiIozp06fn+jykp6cb/fv3z/Xi1oEDBxx6fceOHevw6+PILTAw0Pjtt98cOvf06dMLda5Ro0Y5dB5HHT161KGLwHndWrZs6VA7Ly8v49577zUmTJhgLFq0yDh27NgVeRYtWmT4+fk51N/zzz9vXLhw4Yo+ciuASDLatGljbN68Odfn4/Tp07m+v2+44Qbj4sWLdp/T9evXGxaLpcDP5+DBg21ZZs6cabz11ltG+/btHT7e09PTuOGGG4w33njDmD59urFt2zbH3xCX2bJlS7bCrr3Mp06dyrUvRwsgkoz3338/xz5mzJiR5/dtv379jNTU1Hw9xsmTJxfqvX/nnXca+/btc7h9nz59jIkTJxoLFiyw/Uz8L2e9fy535MgRo27dug4df+ONNxqHDx+2+9xlZGQYI0eOzDVrpUqVjIMHD+Z4XG4/xyUZ1157rXH69Ok8z52ZmWkcP37cmDdvnt1CzOW3Jk2aGJMmTTJOnDiRrb/z588bmzZtMoYPH+5wX82bNzcmTJhgHDx40OGiGwAAMB8FEAAA4BRRUVFG9erVjZCQkEJdXHL0FhISYtx2223GlClTHLpA6YiXX345XxkaNmxoLF++3Hb8e++9l6/jmzdvnmuW6Ohoo0KFCgV+fqKiorL19/vvv+c6cianW5kyZYxx48bZjl+yZIkREBCQrwxxcXGGYWS/EFq1atUc+6lXr57xxhtvGL/88out8PX222/nemH62muvNU6ePJmv13f9+vVGs2bNCv3e69SpU44X+fJy9913F/h8o0ePzte5HBEdHW20adMm31m8vLyMjz76yFi6dGmBHss/xZyffvrJGDRokNGkSZN89+Hv72/ceOONxrx582yP5/ICSN26dXO8QNu1a1fj888/N+bMmWOsWLHC+OWXX4xnnnnG9qn+y28eHh7GY489Znd00eXy+/Pj8tuQIUMMw8hf0SCvW9euXR3OvXDhQmPo0KFG69atDQ8Pj3y/H6699tocR0L997F4eHgYY8eONb777jsjLCzsir769u1rTJs2zVi+fLkxbdo0Y8CAAbnm8fHxMd56660CX4QeMmRIvp9TDw8PY9SoUYbVajWOHDlSoNdl6dKluWZyxvtn48aNxgMPPGBcffXV+S74WiwW4+qrrzY++eQTu8/fnDlzjIiIiFy/P59++mnj559/NhYtWmR8/vnnRr169XJsGxQUZIwaNcqhUVqjRo0q9PfFPwr6+jn6WgIAgJKFAggAAHCKAwcOFPqCwn8vNvn7+xvh4eFGo0aNjO7duxuPPvqoMWbMGGPTpk0OXTApiIULFxpt27bNM1vjxo2NL7/8MseLoxMmTDAqVqyY5/GVKlUyHnroIWP9+vV5Zjl06JDRqlUrh5+zwMBAY9CgQcbq1atz7G///v1Gv3798rzIWbFiReOFF14wzpw5c8Xxa9eutVtACAwMNPr162f8/PPPtouTl18IXbFihXHq1Clj1KhR2abZcvTWpk0b45dffinAK3tJZmamMXnyZIdHMFx+a9mypTFz5swCnfefT07n5wJzhw4djAkTJuR7SjdHpaenG++8806OF6NzuvXp08c2HVdhCyB5jdjIb1+X9xceHm6cP3/e2LFjh/Hggw/mOmost5uXl5fRp0+fXKcUsue9997L12irpk2bGp9++qltVIsZBRBnXFjOaQTC5Y/F19c32/ftmTNnjKefftrh994/N09PT+OOO+4w9u3bV6DX5x9Wq9V48cUXHS4SXHfddcbGjRttxxdFAcQwSsb7x9H3TkpKijFmzBijdu3a+T5HWFiY8fLLLzs0BeI/KIAAAICCshiGYQgAAADZ7N+/X2vXrtWpU6eUmZmpgIAAVa1aVa1atVLt2rXzPDYrK0ubNm3S7t27debMGaWlpSkoKEgRERFq2bKl6tevb3dh7H8YhqE5c+bo119/1fr163Xy5EklJCQoICBAoaGhqlq1qtq2bavOnTurV69eCggIsNvnmTNntGLFCh09elQpKSny8/NThQoV1LhxY7Vs2VIeHh52n5vNmzfrxIkTSklJka+vr8LDw9WkSRM1b97c7qLjl9u0aZNWrFihdevWaefOnTp37pzi4uLk5eWl0NBQhYeHq2nTpmrdurVuvvlm1a9f3+G+7dm7d6/mzZunDRs2aN++fYqOjlZiYqLS09MVFBSkMmXKqGHDhmrbtq1uvfVWhxant+fgwYP69ttvtXLlSh04cEAXLlyQJIWGhqpcuXJq0aKFOnTooN69eysyMrLQ53NEUlKSfv75Z82bN09bt27ViRMnlJqaqpCQENWvX1/XXHON7r77bjVu3Nhp5/ztt9+0devWQvXRrVs3devWLc826enpWrFihVavXq1169bp4MGDOn/+vOLj4xUQEKCQkBBVqVJFLVq0ULt27XTLLbcoPDy8ULlOnjypCRMmaNmyZdqzZ4/Onz8vq9Wq0NBQlSlTRk2aNFH79u3Vq1cvpz6nBbVs2TItW7asUH20aNFCffv2zbbthx9+0KBBgxQaGqrff/89xwXI09PTtWTJEi1fvlxbtmzRoUOHdPbsWSUnJ8tqtSooKEhVq1ZV06ZN1aVLF916662qWLFiobJe7vDhw5owYYIWL16sqKgoxcbGymKxKDQ0VDVr1lS3bt10zz33OOV731GFef9s3bpVv/32W6HOX7NmTQ0ZMsTh9larVVu3btWyZcu0YsUKHTlyRLGxsYqNjbX97oyIiFBkZKRatWqlLl266Nprr83X7wkAAIDCoAACAAAAAHC6hQsXqlKlSmratKnZUQAAAFBKUQABAAAAAAAAAABuJ+/5DQAAAAAAAAAAAFwQBRAAAAAAAAAAAOB2KIAAAAAAAAAAAAC3QwEEAAAAAAAAAAC4HQogAAAAAAAAAADA7VAAAQAAAAAAAAAAbocCCAAAAAAAAAAAcDsUQAAAAAAAAAAAgNuhAAIAAAAAAAAAANwOBRAAAAAAAAAAAOB2KIAAAAAAAAAAAAC3QwEEAAAAAAAAAAC4HQogAAAAAAAAAADA7VAAAQAAAAAAAAAAbocCCAAAAAAAAAAAcDsUQAAAAAAAAAAAgNuhAAIAAAAAAAAAANwOBRAAAAAAAAAAAOB2KIAAAAAAAAAAAAC3QwEEAAAAAAAAAAC4HQogAAAAAAAAAADA7VAAAQAAAAAAAAAAbocCCAAAAAAAAAAAcDsUQAAAAAAAAAAAgNuhAAIAAAAAAAAAANwOBRAAAAAAAAAAAOB2KIAAAAAAAAAAAAC3QwEEAAAAAAAAAAC4HQogAAAAAAAAAADA7VAAAQAAAAAAAAAAbocCCAAAAAAAAAAAcDsUQAAAAAAAAAAAgNuhAAIAAAAAAAAAANwOBRAAAAAAAAAAAOB2KIAAAAAAAAAAAAC3QwEEAAAAAAAAAAC4HQogAAAAAAAAAADA7VAAAQAAAAAAAAAAbocCCAAAAAAAAAAAcDsUQAAAAAAAAAAAgNuhAAIAAAAAAAAAANwOBRAAAAAAAAAAAOB2KIAAAAAAAAAAAAC3QwEEAAAAAAAAAAC4HQogAAAAAAAAAADA7VAAAQAAAAAAAAAAbocCCAAAAAAAAAAAcDsUQAAAAAAAAAAAgNuhAAIAAAAAAAAAANwOBRAAAAAAAAAAAOB2KIAAAAAAAAAAAAC3QwEEAAAAAAAAAAC4HQogAAAAAAAAAADA7VAAAQAAAAAAAAAAbocCCAAAAAAAAAAAcDsUQAAAAAAAAAAAgNuhAAIAAAAAAAAAANwOBRAAAAAAAAAAAOB2KIAAAAAAAAAAAAC3QwEEAAAAAAAAAAC4HQogAAAAAAAAAADA7VAAAQAAAAAAAAAAbocCCAAAAAAAAAAAcDsUQAAAAAAAAAAAgNuhAAIAAAAAAAAAANwOBRAAAAAAAAAAAOB2KIAAAAAAAAAAAAC3QwEEAAAAAAAAAAC4HQogAAAAAAAAAADA7VAAAQAAAAAAAAAAbocCCAAAAAAAAAAAcDsUQAAAAAAAAAAAgNuhAAIAAAAAAAAAANwOBRAAAAAAAAAAAOB2KIAAAAAAAAAAAAC3QwEEAAAAAAAAAAC4HQogAAAAAAAAAADA7VAAAQAAAAAAAAAAbocCCAAAAAAAAAAAcDsUQAAAAAAAAAAAgNuhAAIAAAAAAAAAANwOBRAAAAAAAAAAAOB2KIAAAAAAAAAAAAC3QwEEAAAAAAAAAAC4HQogAAAAAAAAAADA7VAAAQAAAAAAAAAAbocCCAAAAAAAAAAAcDsUQAAAAAAAAAAAgNuhAAIAAAAAAAAAANwOBRAAAAAAAAAAAOB2KIAAAAAAAAAAAAC3QwEEAAAAAAAAAAC4HQogAAAAAAAAAADA7VAAAQAAAAAAAAAAbocCCAAAAAAAAAAAcDsUQAAAAAAAAAAAgNuhAAIAAAAAAAAAANwOBRAAAAAAAAAAAOB2KIAAAAAAAAAAAAC3QwEEAAAAAAAAAAC4HQogAAAAAAAAAADA7VAAAQAAAAAAAAAAbocCCAAAAAAAAAAAcDsUQAAAAAAAAAAAgNuhAAIAAAAAAAAAANwOBRAAAAAAAAAAAOB2KIAAAAAAAAAAAAC3QwEEAAAAAAAAAAC4HQogAAAAAAAAAADA7VAAAQAAAAAAAAAAbocCCAAAAAAAAAAAcDteZgcAAAAA4L6S0jJ1ITld8SkZiruYoQsp6YpPzlB8SoZSMrKUkWVVRpah9EyrMq3/fn1p+9/3s6zK/PvrjCzrZfsNZVkNeXla5OPpIW9PD/l4XfrX18tD3p4W230fLw/5XLY/+3aL/Lw9FeLvrdAcbn7enmY/jQAAAAAKgAIIAAAAAIdcTMvUiQspOpOQpgvJ6bqQkqELyZeKGheSMy5tS874e/ulokdGlmF27ELz9fJQiL+3wvy9VS7IR2UDfVQ20FflAi99XS7QR2X/3h4R4qewAB+zIwMAAACQZDEMw/X/RwIAAACg0M4mpurEhVSdiEvRiQspirnw77/RcSmKT8kwO6JLCPTxVJUy/qpaJkBVwvxVtYz/pfth/qpSJkDlg33NjggAAACUChRAAAAAgFLAajV04u9CxokLyZcVOpIVcyFVMRdSlJZpNTtmqeDn7aEqYf5/F0cCVKWMf7ZCScVgP3l4WMyOCQAAALg8CiAAAACAm4mOS9b+00nafzpRB04nat/pRB06c1EpGVlmR4MDfDw9VKt8oOpVDFb9iOBL/1YMVvVyAWZHAwAAAFwKBRAAAADARZ2MT9GB00nadzrx72JHkg6cTtTFdAod7ijAx1N1KwSpXsSlgkj9v/+tEOJndjQAAACgRKIAAgAAAJRwF5LTtfNEgg6cuVTo2P93oSMhNdPsaCgBygR4q17F4OwjRiKCFervbXY0AAAAwFQUQAAAAIASJDPLqr2nErXl2AVtOR6nzUfjFBWbbHYsuKCqZfzVqnoZtaweplbVy6hR5RB5e3qYHQsAAAAoNhRAAAAAABOdSUjV5mMXtOVYnLYcv6Ad0fGs1YEi4eftoaZVQtWqehm1qlFGraqHqXww02cBAADAfVEAAQAAAIpJWmaWdp1I0OZjcZdGeByLU0x8qtmxUIoxSgQAAADujAIIAAAAUETiLqZr9aFz2nT0UsFjd0yC0rOsZscCcvXPKJGW1cuoVfUyal2jjMoH+5odCwAAACgQCiAAAACAk6RlZmnT0TitOnBOKw+c066YeFn5axsurkFEsDrXLa/OdcPVPrKsfL09zY4EAAAAOIQCCAAAAFAIe04maNXBc1p14Jw2HDnP+h1wa75eHmoXWdZWEGlYKcTsSAAAAECuKIAAAAAA+XAmIVUr/y54rDp4TmcT08yOBJimfLCvOtcNV6c64epctzzTZQEAAKBEoQACAAAA5CE5PVPrD5/XqoPntPLAWe0/nWR2JKBEsliyT5fVribTZQEAAMBcFEAAAACA/4iOS9ai3ae1cPdpbYqKY+FyoAD8vD3UrmZZda1fXjc0jlDVMgFmRwIAAEApQwEEAAAA0KW1PBbuPq2Fu05pV0yC2XEAt9O0SqhubBKhG5tWUmR4oNlxAAAAUApQAAEAAECpZLUa2nQsTgt2ndKi3ad1NDbZ7EhAqdEgIthWDKlXMdjsOAAAAHBTFEAAAABQalithjZEndec7Sc1f9cpFjAHSoDa5YN0Y9MI3dgkQo0rh5odBwAAAG6EAggAAADcWpbV0IYj5zVnx0kt2HlKZ5MoegAlVfWyAZdGhjSJUIvqZcyOAwAAABdHAQQAAABuae2hWM3eHqMFu07pXFK62XEA5FPlUD/1bBKhnk0qqU2NMvLwsJgdCQAAAC6GAggAAADcxvHzyfp5U7R+2Ryt6LgUs+MAcJKIED/d2qqK+repxgLqAAAAcBgFEAAAALi05PRMzd1xUj9vitb6I+fFX7eAe2tbs4z6t6mmXk0rKdDXy+w4AAAAKMEogAAAAMAlrT8Sq583RmvujpO6mJ5ldhwAxSzAx1O9mlbS7W2qqn1kObPjAAAAoASiAAIAAACXceJCin75e4qro7HJZscBUELUKBeg21tX1e2tq6pSqL/ZcQAAAFBCUAABAABAiZaakaX5O09pxqbjWnMolimuAOTKwyJ1qhOu/m2q6frGFeXr5Wl2JAAAAJiIAggAAABKpE1H4/TzpuOave2kEtMyzY4DwMWE+nurT/PK6t+mqppVDTM7DgAAAExAAQQAAAAlRmpGln7bekKTVkdp76lEs+MAcBMNIoJ1T4cauq1VVfn7MCoEAACgtKAAAgAAANOdik/V5LVRmrrhmOKSM8yOA8BNhfp768621TT46pqqHMZaIQAAAO6OAggAAABMs/lonCauPqJ5O08p08qfpQCKh5eHRTc0jtDQjjXVpmZZs+MAAACgiFAAAQAAQLHKyLJqzvaTmrj6iLZFx5sdB0Ap17xqqIZ2jFSvZpXk7elhdhwAAAA4EQUQAAAAFItzSWn6cf0x/bjuqM4kppkdBwCyqRDsq0FX1dDAdtVVLsjX7DgAAABwAgogAAAAKFK7YuI1cXWU/tgWo7RMq9lxACBPvl4euqVFFd3XqaYaRISYHQcAAACFQAEEAAAATpdlNbRw9ylNXB2lDUfOmx0HAArkqtrldF/HSF3XoII8PCxmxwEAAEA+UQABAACA02RkWfXL5miNWXpIx84nmx0HAJyiRrkADetUSwPaVJWvt6fZcQAAAOAgCiAAAAAotPRMq2ZsPK6xyw8pOi7F7DgAUCQqBPvqwS61dHf7GvL3oRACAABQ0lEAAQAAQIGlZWTpp7+O6+vlh3QyPtXsOABQLMoG+uj+TpG696oaCvbzNjsOAAAAckEBBAAAAPmWmpGlH9cf1bjlh3UmMc3sOABgihB/Lw29OlJDO9ZUWICP2XEAAADwHxRAAAAA4LDk9Ex9v/aovll5RGeTKHwAgCQF+Xrp3qtq6IHOtVQmkEIIAABASUEBBAAAAHYlpWVq8poofbPqiM5fTDc7DgCUSEG+XhrSsaYe6FxLof5MjQUAAGA2CiAAAADIVUJqhiaujtLE1Ud0ITnD7DgA4BKCfb00tFNNDetUSyEUQgAAAExDAQQAAABXSEjJ0DerDmvS6iglpGaaHQcAXFKIn5fu7xSpoZ0iFcJi6QAAAMWOAggAAABs0jOtmrw2Sl8sOaj4FEZ8AIAzhPp7a3jXWrqvY6R8vT3NjgMAAFBqUAABAACAJGn2thi9v2Cfjp1PNjsKALilKmH+evaG+urbsorZUQAAAEoFCiAAAACl3F9R5/X2nD3acvyC2VEAoFRoVjVUL/dqqPaR5cyOAgAA4NYogAAAAJRSR85d1Lvz9mrBrlNmRwGAUun6RhX1wo0NVKt8kNlRAAAA3BIFEAAAgFLm/MV0ffbnAU1Zf1QZWfwpCABm8va0aGD7GhpxXV2VDfQxOw4AAIBboQACAABQSqRlZOnb1Uc0ZukhJaZlmh0HAHCZED8vPXJNHQ3tWFO+XiyUDgAA4AwUQAAAAEqBXzdH66OF+3XiQorZUQAAeahaxl/P3VBffVqwUDoAAEBhUQABAABwY2sOndPbc/do54kEs6MAAPKhRbUwvdKrodrULGt2FAAAAJdFAQQAAMANHYtN1muzd+nPPWfMjgIAKISeTSL0Qs8GqhkeaHYUAAAAl0MBBAAAwI2kZ1o1bsUhfbnkoNIyrWbHAQA4gY+nh4Z3q6VHu9WRrzfrgwAAADiKAggAAICbWHc4Vi/P3KlDZ5PMjgIAKAI1ywXozb5N1aluuNlRAAAAXAIFEAAAABcXm5Smt+bu0a+bT5gdBQBQDG5pUVmv3txI4UG+ZkcBAAAo0TzMDgAAQFEZMmSILBaLLBaLRo8ebXYcp+nWrZvtcU2aNMnsODDZ1A3HdN3Hyyl+AEAp8vvWGF330XJNWX/M7CgAAAAlGgUQAICpLi9S5HTz8fFR+fLl1bJlSw0bNkyzZ89WVlaW2bEB0+09laDbxq7Ri7/u0IXkDLPjAACKWXxKhl6auUO3jV2jvacSzI4DAABQIlEAAQCUaBkZGTp37py2bt2qCRMmqHfv3mrSpIn++usvs6MBpkhOz9Tbc/fo5s9XadPROLPjAABMtulonG7+fJXenbdHKel8SAQAAOByXmYHAADgH2XKlFG7du2ybUtLS1N0dLQOHjxo27Z3715dc801Wrp0qdq2bVvcMQHTLNp9WqNn7dKJCylmRwEAlCCZVkNfLz+s2dtP6o1bmuiaBhXMjgQAAFAiUAABAJQYzZo10/z583Pcd/jwYT333HP65ZdfJEkXL17U0KFDtX37dnl45DygcdKkSayRAbcQcyFFo2ft0sLdp82OAgAowaLjUjR00l+6qWmERvVurIohfmZHAgAAMBVTYAEAXEKtWrU0Y8YM9e7d27Zt165dWrBggYmpgKKVZTU0fuVhdf94OcUPAIDD5u44pe4fLdekNVGyWg2z4wAAAJiGAggAwGVYLBa99tpr2bYtWbLEpDRA0Yo6d1H9v16rt+bsUTJzugMA8ikxLVOjZ+1SvzGrdfBMktlxAAAATEEBBADgUlq0aKHAwEDb/SNHjuTadsiQIbJYLLJYLBo9enSObaKiomxtLBaLbfvhw4f1wgsvqFmzZipTpoyCgoLUqFEjPfXUUzpw4IBDWS/vNyoqSpJ06tQpvfnmm2rTpo3Kly+vgIAA1a1bVw899JA2b97sUL8Fce7cOX3yySe6/vrrVaNGDfn7+yssLEyNGjXSo48+qnXr1jncV1pamr7//nvdeuutqlWrloKCguTl5aWQkBDVrVtXN910k0aPHq1169bJMPjUaUFMXhulGz9bqc3HWOQcAFA426Lj1evzlfp2Ve5/MwEAALgr1gABALgUi8WisLAwXbx4UZIUHx/v9HP88MMPevDBB5WSkn2h6T179mjPnj0aO3asPvjgAz322GP56nfhwoW66667dP78+WzbDx48qIMHD+qbb77R888/r7feeitbMaawPv30U40ePfqK5yo1NVXx8fHas2ePxowZo7vvvlvjx4+Xv79/rn1t27ZNAwYM0P79+6/Yl5iYqMTERB08eFDz5s3Ta6+9pmnTpmnAgAFOeyzu7lR8qp77eZtWHDhndhQAgBtJy7Tq9dm7tXjPaX3Yv7kqh+X+ux4AAMCdUAABALgUwzAUF/fvp+KDg4Od2v/s2bM1aNAgSZKnp6eaNm2q0NBQHTlyRMeOHZN0qXDw+OOPKysrSyNGjHCo382bN+uuu+5Senq6LBaLGjVqpPLlyys6OloHDx6UJFmtVr3zzjtKSUnRJ598UujHYrVaNXz4cI0fP962zWKxqG7duqpcubJSU1O1c+dOJSVdmhbjxx9/VFRUlP7880/5+vpe0d/Jkyd13XXXKTY21rYtLCxM9evXV3BwsJKTk3Xy5ElFRUXZRn5YrdZCP47SYuaWExo1a6cSUjLNjgIAcFNrDsWq56crNLpPY93aqqrZcQAAAIocU2ABAFzKxo0blZycbLvfpEkTp/Y/dOhQSdJdd92l6OhobdmyRcuWLdPRo0e1dOlS1apVy9b2mWee0fbt2x3q96GHHlJ6erq6d++uAwcOaOfOnVq6dKkOHDigLVu2qFWrVra2n376qebOnVvox/L+++/bih8Wi0UjRozQ8ePHtW/fPi1dulRr165VbGysxo4dq4CAAEnS6tWr9cILL+TY39tvv20rflSuXFmzZ89WbGys1q1bp0WLFmn16tU6fPiwzp8/r6lTp6pHjx5OHcnirs5fTNcjP27SyGlbKX4AAIpcQmqmnpq+TQ//sEnnL6abHQcAAKBIUQABALgMwzA0atSobNtuvfVWp57j3LlzGjRokKZMmaKIiIhs+7p166bly5fbtmdmZmrkyJEO93vNNddo7ty5ql27drZ9LVq00NKlS9WoUSPbthEjRhRq/Yz9+/fr//7v/yRdKn78+OOP+vTTT1WlSpVs7Xx8fDR8+HDNnTtXXl6XBoZ+8cUXtjVLLnd5UWby5Mnq1auXPDyu/FMiLCxMd955pxYuXKjbb7+9wI+hNFi857Ru+GSF5u44ZXYUAEApM2/nKd3w6Qot2XvG7CgAAABFhgIIAMAlHD58WLfddpvmzZtn23bXXXepRYsWTj1PuXLl9Pnnn+e6v2rVqnrvvfds95csWeLQouje3t4aP368vL29c9wfEhKisWPH2u4fPHhQixcvzkfy7D755BNlZGRIujSq5a677sqzfdeuXfXAAw9IkrKysjRu3Lgr2kRHR9u+7tixo0M5PD09HY1cqiSlZeq5n7dr2HcbdTYpzew4AIBS6mximu6b9Jde/HW7LqYxChEAALgfCiAAgBJj+/bt6tmzZ7bbtddeq3r16ql27dqaOXOmrW337t2zrW3hLPfcc4/CwsLybHPXXXepbNmytvu//fab3X5vuummK0Z+/FeXLl3UtGnTfPWbE6vVqilTptjuP/nkkw4dd/fdd9u+XrJkyRX7/fz8bF87OvUXrrT+8KX516dvPG52FAAAJElTNxzXjZ+t1Mao82ZHAQAAcCoKIACAEiMuLk4LFizIdvtnnYx/1K1bV5MnT9aCBQsUGBjo9Aw9e/a028bb21vdu3e33f/rr7+c0q8k3XjjjfnqNyfbtm1TQkKCJCk8PDxbUSUvl6+nsnXr1ium4GrdurXt63vuuUerV68uUL7SKi0jS2/M3q07x69TdFyK2XEAAMjm2PlkDRi3Vu/N26v0TKvZcQAAAJzCy+wAAADkx5EjR7Rnz54c155wBkcXVW/cuLHta0emwCqqfnOyc+dO29dpaWkOF18ul56eroSEBIWGhtq2jRgxQkuXLrVl69Spk+rWrauePXuqS5cu6ty5sypWrFigzO5u54l4jZy2VQfOJJkdBQCAXFkNaezyQ1q+/6w+vqO5GkSEmB0JAACgUCiAAABKjK5du2rZsmW2+5mZmTpx4oS2bt2qDz/8UKtWrVJmZqbeeecdpaen68MPP3R6hnLlyuW73YULF4qk34SEBBmGIYvF4tCx/4iNjbV9nZiYqAULFuTr+H/Ex8dnK4Dccsstevvtt/XKK6/Iar30ydADBw7owIED+uKLLyRJTZs2Vf/+/TVs2DBVqlSpQOd1N5PXRunN2XuUnsWnaQEArmH3yQTd8uVqPd+zge7rFGl2HAAAgAJjCiwAQInl5eWlGjVq6JZbbtGKFStsi3RL0kcffZRtQXRn8fHxcaidr6+v7eu0NPuLWBekX6vValvIPD8uXryY72Ny8k+R43IvvviiNm/erHvuuUdBQUFX7N+xY4f+7//+T3Xq1NFHH33klByu6mJaph6fsln/9/suih8AAJeTlmnV67N3a/gPm5SYmv+/RwAAAEoCCiAAAJdgsVj01VdfqVmzZrZtjzzyiNLT0516nsTExHy3CwmxPz1EQfr19fV1uHByuctHbTRu3FiGYRToVrNmzRz7b968ub7//nudP39eq1ev1ltvvaXrr78+2yLpycnJeuaZZ/TJJ5/kO7872HsqQX2+XKU/tp80OwoAAIUyf+cp9f5ilfacTDA7CgAAQL5RAAEAuAxvb2999tlntvtRUVEaO3asU89x5MiRfLerUKGCaf3m5PJ1OM6cOVOgPhzh7e2tq6++Wi+99JIWLFigc+fOady4cQoPD7e1GTVqlNNGpLiKnzcdV9+vVuvQ2dL1uAEA7isqNll9v1qtaX8dNzsKAABAvlAAAQC4lG7duql79+62+++8845SUlKc1v+GDRvy3a5Vq1am9ZuTDh062L4+e/asDh8+XKB+8iswMFAPPvigZsyYYduWmJiodevWFcv5zZaakaVnf96mZ2ZsV2oGU14BANxLWqZVz/+yXc/O2KbUjCyz4wAAADiEAggAwOW8+uqrtq9Pnz6t//3vf07re9q0aXbbHDlyJFuholOnTnaPmTFjRo5ralwuKSlJc+bMyVe/OalWrZoaNmxou//dd98VqJ+C6tatW7ZpuE6fPl2s5zfD4bNJ6vvVas3YGG12FAAAitSMTdHqN2a1jpxjpCMAACj5KIAAAFxOly5d1KVLF9v9999/36GFyB2xdOlSLV68OM82r7zyigzDkCSVLVtWvXv3ttvvoUOH9O233+bZ5p133lFSUpKkSwvA33PPPQ6mvtLIkSNtX3/88cfas2dPgfuSZHu8jkhLS8u2eHvZsmULde6Sbvb2GPX5crX2nnJsnRcAAFzdnpOJ6vPFKs3dwVpXAACgZKMAAgBwSa+88ort65iYGLvFhfwYOHCgdu7cmeO+999/X1OmTLHdHzlypHx9fR3q94knntCyZcty3Dd16lS9++67tvuDBw9WRESE46H/Y/DgwWrevLmkSyNLunfvrpUrV9o9bufOnXrggQc0ceLEbNuPHj2qzp07648//lBmZmaefYwaNUrJycmSJB8fn2xTcrmT9Eyr/u/3nXpsyhYlpeX9nAAA4G4S0zL1yI+b9dofu5SRxdSPAACgZPIyOwAAAAXRo0cPtW/fXuvXr5ckvffeexo2bJi8vb0L1e+AAQM0ffp0tW3bVsOGDVOPHj0UGhqqI0eOaPLkyVq6dKmtbZMmTfTcc8/lq9/rrrtOgwYNUu/evVW+fHmdOHFCM2bM0MyZM21tK1WqpPfff79Qj8PHx0e//vqr2rVrp9jYWMXExKhLly669tprdfPNN6tBgwYKDg5WUlKSTp48qS1btmjx4sW2kSKtW7e+os9Vq1Zp1apVCg8PV69evdS2bVtFRkYqNDRUKSkp2rNnj6ZOnaq1a9fajnn00UcVFhZWqMdSEkXHJeuRHzdre3S82VEAADDVxNVR2nb8gr4c2EqVw/zNjgMAAJANBRAAgMt69dVXdfPNN0u6NEJh8uTJuv/++wvV57hx47R7927t3LlTX375pb788ssc20VGRmr+/Pny8fFxqN8333xTZ8+e1dKlS/Xdd9/lui5HuXLltGDBAqdMG1WrVi2tX79effr00e7duyVJS5Ys0ZIlSwrV77lz5/J8DP/o3bu33nnnnUKdqyRavOe0np6+TfEpGfYbAwBQCmw+dkG9Pl+pz+5sqS71ypsdBwAAwIYpsAAALqtXr15q1aqV7f4777xjd3ome8LCwrR27Vrdd999OU5t5eXlpSFDhmjTpk2qUqWKw/16e3trwYIFevbZZxUUFHTFfovFoj59+mjr1q1q2rRpoR7D5WrXrq3Nmzfr888/V61atfJsGxQUpN69e2vq1KkaMmRItn0VK1bU+++/r86dO9st+tSvX1/jx4/X77//7vD0YK7AajX03ry9emDyRoofAAD8R1xyhoZM3KBPFu2X1er42mEAAABFyWLkZ1VTAADcTFRUlCIjI233L/+1eP78eS1dulTHjx9XRkaGqlWrpu7duys8PNyhvi0Wi+3rI0eOqGbNmpKkixcv6s8//9SxY8d08eJFValSRV27dlW1atWc86DycODAAW3cuFFnzpxRYmKiAgMDVbFiRTVo0EBNmzZ1aAqx1NRUbdu2TQcOHNCpU6eUkpKiwMBARUREqGXLlmrYsGGRP47ilpCaoSembtGyfWfNjgIAQInXrV55fTGwpYL9Cjc1KQAAQGFRAAEAlGp5FUAKK7cCCFxL1LmLGjZ5ow6eSTI7CgAALqNexSBNGNxW1coGmB0FAACUYkyBBQAAkIvVB8+p75jVFD8AAMin/aeT1Per1doYdd7sKAAAoBSjAAIAAJCD79ZEafC3G3QhmfU+AAAoiNiL6br7m/WaueWE2VEAAEApRQEEAADgP7KshubuOKlMFnEFAKBQ0jKtGjltqz5cuM/sKAAAoBSiAAIAAPAfnh4WfX1Pa1Vn3nIAAJziyyUH9eiPm5WakWV2FAAAUIpQAAEAAJB0LP6EYhJP2+6XCfTRt0PaKsTPy8RUAAC4jzk7TuqOcWt1NjHV7CgAAKCUsBiGwdwOAACgVNt0crsenvuS0jLTtXroTAX5BNr2rdh/VkMn/aUspsMCAMApKof6acKQtmpYKcTsKAAAwM1RAAEAAKXaH/sX6/klbys9K12SVLtMDc258zt5efw78mPSmiiNnrXLrIiAWwjx81JogLfC/H0UFuCtMH9vhQX8/fXf2/19POXt6SEfT4u8vTzk7ekhb4/Lvvb0kLenRT7/fO3lIU+LRRlZVqVnWZWeab309WX/pmVZlZFpKD3r323pWVYlpWYqITVD8SmXbgkpGUpIydSFlHSdv3jplpHFf5WAohLo46lP72ypHo0qmh0FAAC4MQogAACg1Prir4n6bMOEK7b3iOysMTe+LYvFYtv2ym879cO6o8UZDyjxPCxShWA/VQ7zV9Uy/qoS5q/KYf6qFOansgE+fxc8vBXq7y0vT9ebfTchNUPnky4VQ2IvpulsYppOXEhVdFyyTsSl6MSFFJ1OSBUDxICC8bBIL9zYUA92qWV2FAAA4KYogAAAgFInPStDLy19T7/tm59rm8fbDtUTbe+zFUEys6waMvEvrTp4rrhiAqbz8rCoWtkAVQnzV5Uyl4obVf/5OvRSocPbBQsbzpSRZdXJC6mKvvBvUSQ6LkUn4lIUfSFZJy+kKpMKCZCnO9tW0xt9m5T6nycAAMD5KIAAAIBSJT41UQ/Pe1EbYrbabTvmxrd1fa0utvsJKRnqN2a1Dp29WIQJgeLn6WFRjbIBqlsxWPUqBql+xWDVrRisyPBA+XhxQbIwsqyGos5d1L7Tidp/OlH7Tl36Nyo2mbWFgMtcVbucxg1qrRA/b7OjAAAAN0IBBAAAlBqnL57T0FlPaf/5ww4fs+CuH1S7bE3b/ahzF9V3zGpdSM4ogoRA0bJYpGplAlSvYpDqVQz++xak2uWD5OvtaXa8UiUtI0sHzybZCiL7TiVp/+lEnbiQYnY0wDSNK4fou/vaKTzI1+woAADATVAAAQAApULUheMaMuspRSeezNdxfl4+Wj34d4X6Bdu2rTscq0ET1rNAMkq8KmH+alk97NKtWhk1rBQifx8KHSVZYmqGDpxO0o4T8dp8LE6bj8Xp+HmKIig9IsMD9f397VS1TIDZUQAAgBugAAIAANzerrP7dN8fzyg2Ja5Ax1cLqaSFA6fI2/PfaTl++uuYXvhlh7MiAoXm7+2pZlVD/y54lFHLamGqEOJndiw4wdnENG35uxiy5dgFbYu+oNQMq9mxgCITEeKnH4a1V50KQWZHAQAALo4CCAAAcGvrT2zRQ3NfUFJ64dbt6FStrSb2/ti2KLokvTlnt75ZeaSwEYF8s1ikyHKB/xY7qoepfsVgebGAcKmQmWXVnpOJthEijBKBOyoT4K1JQ9upebUws6MAAAAXRgEEAAC4rUWHV2jEwtFKz0p3Sn/DWtyl569+xFYEsVoNPfD9Rv2554xT+gfyEhHip851w9Wpbrg61glnjnxkczYxTeuPxGrlgXNauf+sYuJTzY4EFFqQr5fG39tGV9UuZ3YUAADgoiiAAAAAtzRj92y9suwDZRlZTu334x7/pz71rrfdT0rL1O1j12jvqUSnngcI9PFUh9rl1KlOuDrXLc9UMMiXQ2eStOLAWa08cE7rDscqOd25PwuB4uLr5aEvB7ZUj0YRZkcBAAAuiAIIAABwO99smap313xVZP3PGjBRjcrXtd2PjktW369W61ySc0aaoHTy9LCoWZVQdfp7lEer6mXkzZRWcIL0TKs2H4vTiv2XCiK7YuJl5X+BcCGeHha9f1sz3da6qtlRAACAi6EAAgAA3Mqn67/RlxsnFek5fDx8tGrIryrrH2bbtvlonO4av05pmSxMDMeFB/moe8OK6lq/vDrWDleIv7fZkVAKnL+YrtUHz2nFgbNatveszialmR0JsMtikf7v5kYa2jHS7CgAAMCFUAABAABu453VX2rC1p+K5VwRgeX15z3T5OvlY9v225YTenLa1mI5P1xXjXIBur5RhK5vXFGtq5eRh4fF7EgoxaxWQ38dPa/5O09p/s5TOsnaISjhnriujp7qUd/sGAAAwEVQAAEAAC7Palj1f8s/0k+7fi/W87ar3EI/9P1cHpZ/pyn6cOE+fbnkYLHmQMnXsFKwbmxSSdc3rqgGESFmxwFyteVYnObtPKV5O0/q+PkUs+MAORp8dU291qex2TEAAIALoAACAABcWqY1U8//+bZ+37/QlPPf06SfRnV5ShbLv5/if+THTZq745QpeVByNK4cohubVNJNTSNUqzwLmMP17DwRr3k7T2n+zpM6dPai2XGAbPq2qKIP+zeTF2slAQCAPFAAAQAALis9K0NPLhylhYdXmJrjzW7P6c7GfWz3U9KzNGDcWu04EW9iKpihfsVg3dKism5sWkmR4YFmxwGcZt+pRM3feVJzd5zSvtOJZscBJEnXNaygMXe3kq+Xp9lRAABACUUBBAAAuKTUzDQ9Mu8lrTi23uwokqQZt32tlhFNbPdPJ6Sqz5erdDqBxYXdXai/t25pUVm3t66qZlXDzI4DFLndMfGasSlav205objkDLPjoJS7tkEFfX1Pa/l4MRIEAABciQIIAABwOSkZqXpgzrNad2KL2VFsPOShVUN+VYXAcNu2HdHxGjBurVIyskxMhqLg6WFR57rh6t+6mro3qsCnj1EqpWdatXjPac3YGK0VB84qy8p/LWGO6xtV1Fd3t5I302EBAID/oAACAABcSlpmmh6c87xWR280O8oVyvmX0bJ7Z8jfy8+2bd7Ok3rkx83iLy73ULt8kPq3rqp+raqoYoif/QOAUuJ0Qqp+3RytGRujdfgc64Wg+N3UNEJf3NVKnh4W+40BAECpQQEEAAC4jPSsdA2f+5JWHFtndpRcNa/QUNNvGydPj38/hfrlkoP6cOE+E1OhMEL8vNS7+aUprlpWL2N2HKDE23Q0TtM3Htec7SeVlJZpdhyUIn2aV9and7SQB0UQAADwNwogAADAJWRkZeqx+S/rz6jVZkex69b6N+q9616SxfLvBZiR07Zq5pYTJqZCfrWqXkaDr66hno0j5OvNFFdAfqWkZ2nuzpP6acMx/RUVZ3YclBK3taqiD25vThEEAABIogACAABcQKY1UyMWjNKCw8vNjuKwlzs9oaHNB9jup2Vm6a7/rdfmY1wELMl8PD3Uq1klDe1YkwXNASfaFROvb1cd0R/bTio9y2p2HLi5O9tW07u3NTM7BgAAKAEogAAAgBIty5qlpxa9rjkH/zQ7Sr79cMvn6lC1le3+uaQ09f1qtaLjUkxMhZyEB/no7vY1dE+H6iofzNoeQFE5m5imH9cf1Q/rjupcUrrZceDG7ulQQ2/2bWJ2DAAAYDIKIAAAoESzGlY9uXC05h5cYnaUAll+78+qEhxhu7/3VIJuH7uWefFLiMaVQ3Rfx0jd3LySfL2Y5gooLmmZWfpjW4wmro7SrpgEs+PATd3Xsab+r3djs2MAAAATUQABAAAlnmEYemHJO/pl71yzo+RbiE+QVg6ZqUBvf9u2P/ec1gOTN8rKX2Gm8PSw6IbGFTXk6ki1iyxrdhyg1Ft/OFbfrj6iRbtP83MRTvdgl1p66aaGZscAAAAmoQACAABKpOPnk1WtbIDtvmEYem3FJ/ph568mpiqYBuXq6PcBE+Tp8e8Ig29WHtabc/aYmKr0CfHz0sD21TXoqpqqEuZv/wAAxer4+WRNWhOl6X8dVyKj5OBEj15TR8/eUN/sGAAAwAQUQAAAQInzyaL9Gr/ysCYMbqurapezbTcMQx+u+1rjNv9oYrqCuanOtfrs+tdksVhs2174Zbt++uu4ialKh1B/b93XKVJDO9ZUiJ+32XEA2JGUlqkf1h7V+JWHFXuRdULgHCO719WI7vXMjgEAAIoZBRAAAFCiXD4ywtfLQ+MGtVa3+hVs+w3D0JiN3+mTDd+YFbHAnm7/oIa3HmQrgmRkWXXvhA1aezjW5GTuqWygj4Z1itS9V9dUkK+X2XEA5FNKepambjimcSsO6XRCmtlx4Aaeu6G+HrmmjtkxAABAMaIAAgAASoypG47pxV93ZNvm4+mhz+9qqZ5N/l1I3DAMTdo2XW+t/qK4IxbaN70+ULeaV9nuX0hOV9+vVisqNtnEVO4lPMhHD3SupUFX1VCAD4UPwNWlZWZpxsZofb38kKLjUsyOAxc3qncjDe0YaXYMAABQTCiAAACAEuGPbTEa8dOWHBfA9fKw6KMBzXVLiyq2bYZhaNruP/TKsveLMaVzLL77J9UMq2q7f+hskvqNWa2EFOa8L4wKwb56qGstDWxXQ/4+nvYPAOBSMrKs+nlTtL5aepBCCArMYpE+u6OF+lz2NwUAAHBfFEAAAIDp/txzWg99v0mZOVU//uZhkd6+tanubFs92/ZZ+xfpqUWvFXVEpwr0CtDKIb8qxDfItm3VgXMaMnFDns8BchYR4qfh3WrrrrbV5OtN4QNwd+mZVs3YeFxfLT2omPhUs+PABfl4eujbIW3VqW642VEAAEARowACAABMtfX4Bd35v7VKzbDabWuxSP9385VTVyw+vFLD571YVBGLRM3Qapo/8Ht5efw7RdMP647qld92mpjKtVQK9dOj19RR/zZV5etF4QMobdIzrfrpr2Mas/SQTiVQCEH+BPl66acHO6hJlVCzowAAgCJEAQQAAJjmWGyybh27WueS0vN13PM96+vhbtkXMV19fKMGz3rSiemK3rU1rta4Xu/ZFkWXpFGzdum7NVHmhXIBQb5eerhbbd3fKVJ+jPgASr20jCxNXB2lMcsOKiGVqQThuPJBvvrl4atVvVyA2VEAAEARoQACAABMcSE5XbeNXaNDZy8W6PjHr62jp6+vn23b5pM7NeDX4c6IV2weaX2vRrZ/wFYEybIaum/SX1q+/6zJyUoeLw+L7mxXXU92r6vwIF+z4wAoYc5fTNeni/dryvpjTCcIh9UsF6CfH76a3ysAALgpCiAAAKDYpWVmadCEDdpw5Hyh+hnWOVKv9GqUbdvuswfUd/r9ssr+lFolxRc939CNta+x3U9IzdCtY9bo4JkkE1OVLD0aVdQLNzZQ7fJB9hsDKNUOnU3Su/P2atHu02ZHgYtoWiVUPz3YQYG+XvYbAwAAl0IBBAAAFLsnpm7RrG0xTunrng419GbfJtm2HYo7ql4/DVam1XWmQpl752TVK1fLdv9YbLL6jlmt8xfzNz2Yu2leNVQv9Wqo9pHlzI4CwMWsOxyrt+bs0Y4T8WZHgQvoVq+8vhncRl6eHmZHAQAATkQBBAAAFKv35+/VmGWHnNrn7a2r6r3bmsnT49+1NI4nnNQNP96tdKtrFBD8vHy0avBvCvMLsW3bcOS87vlmvdKzXGc0i7NULeOv526orz4tqpgdBYCLm7nlhD6Yv1cx8SyUjrzd1a6a3rm1mdkxAACAE1EAAQAAxWbqhmN68dcdRdL3zc0q6ZM7Wsj7sk9unko6q+t/vEvJma5x0atKcCUtunuKfDy9bdtmbDyuZ3/ebmKq4hXi76VHu9XRkI415evFAucAnCMtI0sTVh3RmGWHlJTmOqMDUfyeu6G+HrmmjtkxAACAk1AAAQAAxWL5vjO6/7uNRbowbfeGFfTV3a2yXTiPTYlTjx/uUkK6a6yncXXVNprU5xN5WP4dzfLO3D0at+KwiamKnsUi3dGmmp7v2UBlAn3MjgPATZ1LStOni/ZryoZjYp105MRikT67owUjEAEAcBMUQAAAQJHbHROv/l+v1cX0rCI/V+e64frfoDby9/m3CBKfmqDrp9yt2JS4Ij+/Mwxt3l8vdXxClr+LIFaroeE/bNJCN13Qt0FEsN7q11Sta5QxOwqAUmLr8Qt66dcd2n0ywewoKIF8PD30/f3t1L4W608BAODqKIAAAIAidTI+Rf2+WqNTCcU3DVX7yLKaMKStgny9bNuS0i+q55R7dOri2WLLURgfXPey+jW40XY/OT1Tt49d61YX6wJ8PDXiurq6v1Mki84CKHaZWVZNXBOlTxbtV3IxFOjhWkL9vfXrw1erdoUgs6MAAIBCoAACAACKTGJqhvp/vVZ7TyUW+7lbVgvTpPvaKdT/3/U0kjNS1PunITqacKLY8xTEb/2/UZMKDWz3Yy6k6JavVutsYpqJqZyjR6OKGt2nsaqE+ZsdBUApd+JCikbP2qVFbjrKDgVXtYy/fnu0o8KDfM2OAgAACogCCAAAKBKZWVYNnfSXVh44Z1qGxpVDNPm+dip32YWLtMw09ZvxgPafL/lranh5eGnV4F8VHlDWtm3rsTjd8b91Ssu0mpis4CqH+ml0n8a6vnGE2VEAIJuFu05p1KxdOhlffCMWUfK1iyyrH4e1lzcjFQEAcEkUQAAAQJF49udtmrEx2uwYqlMhSFOGtVeFED/btvSsDN3xy8PacXavickcUzEgXEsGTZOv179FnFlbT+iJn7aaF6oAvDwsGtoxUiN71FWAj5f9AwDABBfTMvXxov2atCZKWaySjr8N6lBDb/RtYnYMAABQABRAAACA03297JDenV9yigs1ywXoxwc6ZJtuKdOaqUG/j9BfMdtMTOaY1hFNNfXWr+Rh+ffTp58s2q/P/jxgYirHtapeRm/1a6KGlULMjgIADtl5Il4vzdyh7dHxZkdBCfHebc10R9tqZscAAAD5RAEEAAA41coDZzVk4l8l7pOzVcL89eOw9qoZHmjblmXN0gOzn9OK4+tNTOaYOxvdoje6PSOLxWLb9tiUzZq9/aSJqfLm7+2pF29qoHuvqml2FADIN6vV0OR1R/XB/L26yCLppZ6vl4emPdhBLaqXMTsKAADIBwogAADAaaLjktX7i1WKS84wO0qOKgT76sdh7VW3YrBtm9Ww6rF5r2jhkRUmJnPMa12e1t1N+9nup2Zk6Y5xa7WtBH5CuVX1MvpoQHNFXlZwAgBXdCw2WU9N36qNR+PMjgKTVQzx1ezHO6l8sJ/9xgAAoESgAAIAAJwiLSNLt329RjtPJJgdJU9lA330w/3t1KhyqG2b1bDq2cVv6vf9C01M5phpt45R60rNbPfPJqaqz5erS8yivT6eHhrRva6Gd60tTw+L/QMAwAVYrYb+t+KwPl60X+lZVrPjwESta5TR1Ac6yMeLRdEBAHAFFEAAAIBTPDNjm37eZP6i544I8ffS5KHtsk1jYRiG/m/5h5q663cTk9nnIQ+tGPyLIoLK27btjonX7V+vVbLJU7Q0iAjWJ3e0YK0PAG5rz8kEjZy2VXtPJZodBSYa2K663r61qdkxAACAA/jIAgAAKLTv1x51meKHJCWkZOqeCRu0/kisbZvFYtHrXZ/Rfc3vMDGZfVZZ1WfaUKVk/Dvio1HlUH1yRwtZTBpw4WGRhnetpVmPdaL4AcCtNawUolmPddLwrrXEILfSa8qGY5qy/qjZMQAAgAMYAQIAAApl89E43fG/tcrIcr0/Kfy8PfS/QW3Upd6/oykMw9Bnf03Ql39NMi+YAxqXr6dfbx8vTw9P27axyw7qvfn7ijVHjXIB+qh/c7WpWbZYzwsAZttw5LyenrFVx8+nmB0FJvDx9NCUB9rz+w8AgBKOAggAACiws4mpuvmLVTqdkGZ2lALz9fLQlwNbqUejirZthmHomy1T9d7aMSYms++Wetfrw+6vynLZ0I/inIrs7vbV9XKvhgrw8SqW8wFASZOUlqk3Zu/WtL+Omx0FJigf7Ks/HuukiFAWRQcAoKSiAAIAAAokI8uqgePX6a+oOLOjFJqXh0Wf3tFCNzevbNtmGIZ+3DlTo1d8bGIy+168+jHd3/JO2/30TKvu/qZoX5cKwb764PZm6lq/QpGdAwBcyeI9p/XiLzt0Nsl1PxCAgmlZLUw/PdRBvl6e9hsDAIBiRwEEAAAUyOhZuzRpTZTZMZzGwyK9f3sz3d66mm2bYRj6bd8CPfvnmyYms++7Pp+qY7U2tvvnL6brlq9WFcm0LJ3rhuvTO1qoXJCv0/sGAFd2/mK6npq+Vcv2nTU7CorZgDbV9P7tzcyOAQAAckABBAAA5NvMLSc0ctpWs2M4ncUivd6niQZdVSPb9gWHluvR+S+blMoxSwdNV7WQf0ew7D+dqNvGrFFiWqZT+vewSCOuq6vHr60rD1b+BYBcfbnkoD5ZvF9ZVv6rXZq8fktj3XtVTbNjAACA/6AAAgAA8mV3TLxuHbtGqRlWs6MUmZd7NdQDnWtl27bi6HrdN/tpkxLZF+QTqFWDZyrIJ8C2bdm+M7r/u42FvggXHuSjT+9oqU51wwsbEwBKhTWHzmnE1K1MiVWKeHtaNOWBDmrLougAAJQoHmYHAAAAriM+JUMP/bDJrYsfkvTWnD367M8D2bZ1qdFeU/t9ZVIi+5LSL6r/zw8p05pl29atfgW90qthofptF1lWc57oTPEDAPLh6trhmvNEJ7WL5GJ4aZGRZWjE1C2KT8kwOwoAALgMBRAAAOAQq/XSf+yLYl2JkuiTRfv13ry92ba1rdxcv/X/xqRE9h2IO6IRC0bp8gG+QztG6u721fPdl8UiDe9aS1OGtVfFED9nxgSAUqFCiJ+mDGuvh7rUkoWZA0uFmPhUPf/LdrNjAACAy1AAAQAADvly6UEt21+6FnYdu/yQRs/alW1bkwoNNPfOyfIooX9GLTi8TF9t/C5bEeS1Po3VsU45h/sIC/DWN/e20Qs3NpSXZ8l8nADgCrw8PfTiTQ31v0FtFOLvZXYcFIP5O0/px3VHzY4BAAD+xhogAADAri3H4tT/67XKLKULut7Rtpre6dc02+LfR+OjdeOUe5VuTTcxWe7G3fSerovsaLsfn5Khfl+t1uFzF/M8rkW1MH05sKWqlgnIsx0AIH+On0/Wwz9u0s4TCWZHQRHz8/bQ7492Uv2IYLOjAABQ6lEAAQAAeUpKy9RNn63UsfPJZkcx1S0tKuuj/s2zjYiISTytG6YMVEpmyVzkduHAKapV5t/prw6fTVK/MWtynZ98yNU19dJNDeXjxagPACgKaZlZev2P3fpx/TGzo6CI1asYpFmPdZKft6fZUQAAKNX43y0AAMjTqN93lvrihyT9vjVGj07ZovTMfxeArxxcUUvuma4gn0ATk+Wu7/T7lJCWaLtfq3yQxt7TSl4e2Sej9/Xy0Cd3tNDoPo0pfgBAEfL18tRb/Zrq4wHN5cvPW7e2/3SS3py92+wYAACUevzFBQAAcvXHthj9svmE2TFKjAW7TunB7zcqNSPLtq18YDktvWe6wvxCTEyWs+TMVPWbPkwZWZm2bVfXDtfrtzSx3S8f7KtpD3ZQv5ZVzIgIAKXSra2q6qcHO6h8kK/ZUVCEflh/TAt2nTI7BgAApRpTYAEAgByduJCiGz9boYSUTPuNS5mrapfTN/e2UaDvvwvaJqQl6cYp9+h08jkTk+Wsa/UO+ubmD2Sx/Dvy443Zu7XhyHn9797WqhTqb2I6ACi9ouOSNey7jdp7KtF+Y7ikUH9vzRvRWZXD+F0LAIAZKIAAAIArWK2G7hy/ThuOnDc7SonVqnoZTbqvrUL8vG3bLmak6Oaf7tXxhJMmJsvZQ63u1jMdhtuKIFarofQsK3OTA4DJktIy9fiULVq674zZUVBE2keW1ZQHOsjzP1NQAgCAoscUWAAA4Apjlh2i+GHH5mNxGjh+neIuptu2BXr7a95dP6h2mRomJsvZuM0/au7BJbb7Hh4Wih8AUAIE+Xrpm8FtdF/HmmZHQRFZf+S8vlxywOwYAACUSowAAQAA2Ww9Fqfbv16rTCt/IjiifsVg/TCsncoH+9m2pWel6/YZD2l3bMm62OHj6aO1Q39XqG+w2VEAADn4cd1RjZq1i9/BbsjTw6KfHuygtjXLmh0FAIBShREgAADA5mJapkZM28qFl3zYdzpRd4xbp5PxKbZtPp4++qX/eLWMaJLHkcWrrF+Yvr/lU4ofAFCC3d2hhiYNbacQfy/7jeFSsqyGnvxpq+JTMsyOAgBAqUIBBAAA2IyetUtHY5PNjuFyDp+7qP5fr9Wxy547b08vTe33la6u2sbEZJfUCquun28fp9aVmpkdBQBgR6e64Zr5cEfVKBdgdhQ42YkLKXrhl+1mxwAAoFShAAIAACRJs7fHaMamaLNjuKzouBQNGLdWh84m2bZ5eXhqYu+PdV3NTqbl6lCllWbcNk7VQ6uYlgEAkD+1KwTpt0c6qn0k0yW5m3k7T2nK+qNmxwAAoNSgAAIAABRzIUUvzdxhdgyXdyohVXeMW6s9JxNs2zw9PDT2prd1c53rij1Pn3o9NLH3xwr1Y9orAHA1ZQJ99P397XVzs0pmR4GTvTF7T7ZRowAAoOhQAAEAoJSzWg2NnLZVCSmZZkdxC+eS0nXX+HXaHn3Bts3D4qFPrh+t/g1vLrYcg5v118c9Rsnbk3nkAcBV+Xh56PM7W2pgu+pmR4ETpWRk6YVfmQoLAIDiQAEEAIBSbtyKQ1p/5LzZMdzKheQM3T1+vTZG/fu8WiwWvX3N87q36e1Ffv4n2w3Tq51HFPl5AABFz8PDordvbapHutU2OwqcaM2hWKbCAgCgGFgMwzDMDgEAAMxx6EySbvp8pdIyrWZHcUsBPp4af28bdawTbttmGIY+Xvc/jd38vdPP52Hx0OguT2lgk75O7xsAYL6vlx/Su/P2mh0DThLs66UFI7uocpi/2VEAAHBbjAABAKAUe+HX7RQ/ilByepbum/SXluw9Y9tmsVj0VIcH9XT7B516Lh8Pb312/WsUPwDAjQ3vWlvv3tZUHhazk8AZEtMyWYMNAIAiRgEEAIBS6od1R/VXVJzZMdxeWqZVD32/UfN2nrRts1gsGt56kF7p9IRTzuHv5af/9XpPN9a5xin9AQBKrjvbVteXA1vJx5P/zruDZfvO6pdN0WbHAADAbfEXEwAApdDJ+BSm0ChGGVmGHpuyRTO3nLBts1gsGtysv96+5vlC9R3kE6iJvT9Wp+rtChsTAOAibmpaSd8MbqMAH0+zo8AJXp+9W2cTU82OAQCAW6IAAgBAKfTqbzuVlJZpdoxSJctq6OnpWzV1wzHbNovFogGNeuvT60cXqM8w3xB9f8tnalO5mZNSAgBcRZd65fXD/e0V6u9tdhQUUnxKhl75bZfZMQAAcEsUQAAAKGVmb4vR4j1n7DeE01kN6cVfd2ji6iPZtt9ct7vG3fRevvoKDyirH/t9oaYVGjgzIgDAhbSqUUbTHuqg8sG+ZkdBIS3YdUqzt8eYHQMAALdDAQQAgFLkQnK6Rv/BJwzN9tofu/XV0oPZtl0X2VHf3/KZQ8dXCqqon/p9pfrlahdFPACAC2kQEaKfh1+lSqF+ZkdBIY2etUvnL6abHQMAALdCAQQAgFLkjdm7dS6J/1iXBB8s2KcPFuzLtu2qqq31823j8jyuWkhl/XTrV6oZVq0o4wEAXEiNcoGa+kAHVQxhJIgrO5eUrtGz+KAKAADORAEEAIBSYsX+s/pl8wn7DVFsvlp6UG/M3p1tW4uIxpp9xyR55PBnWuXgivqh7+eqEhxRXBEBAC6iZnigpgzroPJBFEFc2axtMVq0+7TZMQAAcBsUQAAAKAWS0zP10swdZsdADiasOqKX//PaNAivowUDf5CXh5dtW0Rgef1wyxcUPwAAuapdIUg/DGuvsoE+ZkdBIbzy2w4lpGSYHQMAALdAAQQAgFLgo4X7FR2XYnYM5OLH9cf01PStyrIatm2RZapr8d1T5eflowoB5fR9389VPbSyiSkBAK6gfkSwfhzWXmEB3mZHQQGdTkjTG3N2228IAADsshiGYdhvBgAAXNXW4xd065jVsvIbv8S7qWmEPruzpbw9//2MypmLsUpIS1SdsjXNCwYAcDk7ouN19zfrlJCaaXYUFNDk+9qpS73yZscAAMClUQABAMCNZWRZ1fuLVdp7KtHsKHDQdQ0raMzdreTr5Wl2FACAi9t6LE73TNigpDSKIK4oMjxQC57sIh8vJu8AAKCg+C0KAIAbG7vsEMUPF/PnnjO6f9JGpaRnmR0FAODiWlQvo0lD2yrAh6K6Kzpy7qK+XXXE7BgAALg0CiAAALipw2eT9NXSg2bHQAFsOhqng2eSzI4BAHADbWqW1cQhbeXvTRHEFX2x5IBOJ6SaHQMAAJdFAQQAADf1+uzdSsu0mh0D+eTj6aFxg1qradVQs6MAANxE+1rl9M3gNvJlKiWXczE9S2/P3WN2DAAAXBZ//QAA4IaW7TujZfvOmh0D+eTpYdHnd7VkwVMAgNN1rBOuLwe2lKeHxewoyKfft8bor6jzZscAAMAlUQABAMDNZGRZ9cZsPinoaiwW6b3bmqpnkwizowAA3FSPRhF6s28Ts2OgAEbP2iWr1TA7BgAALocCCAAAbmby2igdOsv6Ea7m2evr6/bW1cyOAQBwc3e1q66R3euaHQP5tCsmQVM2HDM7BgAALocCCAAAbuT8xXR99ucBs2Mgn+5qV02PXFPH7BgAgFJiRPd6urt9dbNjIJ8+XLhPF5LTzY4BAIBLoQACAIAb+WjhPiWkZJodA/nQrV55vXEL05EAAIrXG7c00Q2NmXbRlVxIztCHC/ebHQMAAJdCAQQAADex52SCpjI1gktpXDlEX93dSl6e/EkGACheHh4WfX5nC7WqXsbsKMiHKeuPandMvNkxAABwGfxvGwAAN/H6H7vF2piuo3Kon74d0laBvl5mRwEAlFK+3p76ZnAb1SwXYHYUOMhqSKP/2G12DAAAXAYFEAAA3MC8nSe19nCs2THgoGBfL307tK0qhviZHQUAUMqVDfTRpKHtVDbQx+wocNCGI+f1+9YTZscAAMAlUAABAMDFpWVk6e25e8yOAQd5e1o09p7WahARYnYUAAAkSTXDA/XNvW3k68UlAlfx9tw9upjGum8AANjDXzcAALi48SuP6Pj5FLNjwEFv92uqTnXDzY4BAEA2rWqU0ad3tpCHxewkcMTphDR9ueSg2TEAACjxKIAAAODCTiekaswy/vPrKp64ro76t6lmdgwAAHJ0Y5NKeub6+mbHgIMmrDqiI+cumh0DAIASjQIIAAAu7L35e5WcnmV2DDjg1lZV9FQPLioBAEq2R66po15NK5kdAw5Iz7Lqvfl7zY4BAECJRgEEAAAXtfVYnGZuYQFMV9CyWpjevbWZ2TEAAHDIB/2bqUFEsNkx4ID5O09pe/QFs2MAAFBiUQABAMBFvfbHbhmG2SlgT3iQj8be01o+BVxY9uzZs5o3b55ef/119enTR5UqVZLFYrHdJk2a5NzAf+vWrVu28+T3Nnr06Dz737Ztmz7++GP1799fDRo0UGhoqLy9vRUeHq5WrVrpkUce0cqVK/Ode8mSJerTp48qVKggX19f1axZUw8++KCOHDmSr34effRRWSwW+fr66sCBA/nOAQCuLMDHS/8b1Eah/t5mR4EDPliwz+wIAACUWF5mBwAAAPk3b+dJbTl+wewYsMPLw6KvBrZSRKhfvo89deqUOnTooKNHjxZBsqJXrly5HLe/9957+vrrrxUVFZXj/tjYWMXGxmrLli0aO3asOnXqpEmTJql27dp2z/naa69dUXg5evSoxo8frylTpui3335T9+7d7fazZcsWff3115KkZ555RnXr1rV7DAC4m+rlAvTFXS01dNJfyrLyiYuSbOWBc1p7KFZX1c75dy8AAKWZxTD47CgAAK7EajXU87MV2n86yewosOPVmxvq/k61CnRsVFSUIiMj7babOHGihgwZUqBz5OW5/2fvvuOjLPP1j1+TSe+BFDqh9w6CNBFQXEUEAVFsWLChrq511bXsurr2tRdEUbEioNjWgqAgEFB6E6RDEhJCIL3N5PwBzkkgkDrPPZP5vF8vX2cmeebJNZzz+2XyXM99f+++W+vWravy8WvXrlVqaqokyW63a9++fWrUqNEJx3Xt2lUbN24s97WGDRsqMTFRUVFRSktL06ZNm+R0Ol3fj4mJ0aJFi9S9+8m3EZs7d67Gjx/vet6qVSu1bNlS69at06FDhyRJUVFRWr9+vZo3P/kg+tLSUg0aNEjLli1TixYttHnzZoWGhlbtHwEA6qHXf9qux79hzoSn690iWnNvGmQ6BgAAHocVIAAAeJn5a5MpP7zAmB5Nalx+HC8uLk59+vRR37591a9fP11wwQV1ct5TefLJJ6t8rNPpVMuWLV3PR40aVWH5UVZiYqKuueYajR07Vl26dJHNZnN9Lzk5WQ8++KBmzJghScrMzNSYMWO0efNmhYSEVHi+++67z/X46aef1h133CFJysvL06WXXqrPPvtMR44c0eOPP65XXnnlpLlmzpypZcuWSZKee+45yg8APu/6M9poY3KW5q9NNh0Fp7Bqz2F9v+mAzuqcYDoKAAAehRUgAAB4EYezVCOf/Uk7D+aajoJT6NgoQvNuGqSQQHuNz5GVlaXvvvtO/fr1K1cuSCpXFrhrBUh1fP/99zr77LNdzz/55BNNnDixwmPHjx+vCRMmaNKkSfLzO/VclAceeED//ve/Xc+fffZZ3X777Scct2bNGvXq1UuS1L9/fy1fvrzc99PS0pSYmKj8/Hw1aNBABw8eLPdv+KfDhw+rQ4cOSktL09lnn61vv/32lPkAwFfkFzk0/tWl2pSSZToKTqFjowh9fesQ+fmd+DsOAABfxRB0AAC8yJxV+yg/PFxkiL9ev7xPrcoPSYqMjNSECRNOKD880TvvvON6HBMTozFjxpz02Dlz5uiSSy6ptPyQpIceekgtWrRwPZ87d26Fx/3222+ux5MnTz7h+/Hx8a6C5tChQyedP/LAAw8oLS1NgYGBevHFFyvNBwC+IiTQrjeu6KOYUIaie7Itqdms1AEA4DgUIAAAeImiEqdeWLDNdAycgs0mPT+pl1o2DDMdxTLZ2dmaN2+e6/mkSZMUFBRUJ+cOCAjQOeec43q+ZUvFe9Cnp6e7HicmJlZ4TNl5KmlpaSd8f82aNa7B53fccYfat29fk8gAUG81iwnVy5f2lp3VBR7t2e+3qtjhrPxAAAB8BAUIAABe4pNf92pfZr7pGDiF20a005kd403HsNTs2bOVl5fnel7X23E1aNDA9Tgrq+Zbr5xq19fS0lJNmzZNDodDzZs31/3331/jnwMA9dnANrH6+186mo6BU9hzKE8fr9xrOgYAAB6DAgQAAC9QWOzQSz/+YToGTmFEp3j9daTvrRoou/1Vx44d1b9//zo9/+7du12P4+MrLpfi4uIqPP5k5yl7vHT0PSxdulTS0TkjYWG+s4IHAKrr2iGtNdzHyn5v8+KP21RQ7DAdAwAAj0ABAgCAF5iVtFupWQWmY+AkWjQI1XMX9TQdw3I7d+7U4sWLXc+vvPLKOj1/QUGBvvnmG9fzAQMGVHhc7969XY8//PDDE75/8OBBfffdd5KOzigpux3WkSNHdM8990iSzjrrLE2YMKFOsgNAffbUhO6Kj6ib7Q5R9w5kFWrm0l2mYwAA4BEoQAAA8HB5RSV6ddF20zFwEv5+Nj1/cU9FhvjeYNh3333XtbWUn5+fLrvssjo9//PPP6/Dhw+7nlc04FySevbsqbZt20qSli1bpueff971vfz8fN10002ubbomTpwom+3/96//xz/+obS0NAUEBDD4HACqqGF4kJ6b1FOMA/Fcr/20XVkFxaZjAABgHAUIAAAe7p2lu3Qwp8h0DJzErSPaqVeLGNMxLFdaWqp3333X9XzEiBFq1qxZnZ1/69at+uc//+l63qdPH40dO7bCY202mx599FHX89tuu01t27bV8OHD1bx5c82ePVuSFB4err///e+u49auXatXXnlFkvS3v/1NHTp0qLP8AFDfDWobqxvOaGM6Bk7icF6xpv+8w3QMAACMowABAMCDZRcU63X+ePVY/RJjNO3MtqZjGLFkyRLt2PH//7dZl8PPc3JyNG7cONeqjaCgIL355pvlVm4cb9KkSeXKje3bt2vhwoXKyMiQJAUHB+vjjz9WYmKipPKDz5s1a6Z//OMfrtfm5eXp0UcfVffu3RUWFqbo6GgNGTKk3IoXAID0t7Paq1fzaNMxcBJvLdmpgzmFpmMAAGAUBQgAAB7srSU7dTiP7Qs8UWSwv56b1FN2H93/o+zw88jISI0bN65OzutwOHTppZdq06ZNrq89+eST6tmzZ6Wvfeyxx/Ttt9/qvPPOU2xsrAIDA9WiRQtdc801Wr9+vc4991zXse+++65++eUXSeUHn6empqpv3776xz/+ofXr1ysvL09HjhzRkiVLdOWVV2rSpEkqKSmpk/cKAN7O3+6nFy7ppYggf9NRUIHcIodeWfiH6RgAABhFAQIAgIc6nFekGUt2mo6Bk3h0bFc1iwk1HcOI/Px817ZS0tG5GiEhIbU+b2lpqaZOnar58+e7vnbbbbfp1ltvrfI5zj77bH355ZdKT09XYWGhdu/erTfffNM1I0QqP/h85MiRmjhxouvnX3zxxdq8ebOko0Pdv/vuO82dO1enn366JGn27NnlttsCAF/XvEGoHruwm+kYOIkPV+zVoVy2UgUA+C4KEAAAPNQbP+9QVgF3mnuicb2aakzPpqZjGDNv3jxlZWW5ntfV9le333673n77bdfzq6++Ws8++2ydnLusBx98UAcOHDhh8PnXX3+tn376SZJ01VVXaebMmTrrrLM0btw4LViwQO3atZMkPfHEE8rMzKzzXADgrc7v0UQT+9TdHCjUnfxih2Yu5YYaAIDvogABAMADZeQUaubSXaZjoALNG4Tonxd0MR3DqLLbX7Vp00aDBw+u9Tnvv/9+Pf/8867nF198saZPn37KuR81sW7dOr388suSjhYuHTt2dH3vww8/dD2+6667yr0uJCREt9xyiySpoKBAc+fOrdNcAODtHrmgi1rHhpmOgQq8u2y38oq4qQYA4JsoQAAA8EBH/1B1mI6B4/j72fT8pF6KCA4wHcWY/fv364cffnA9v+KKK2p9zscee0yPPfaY6/mYMWP03nvvyc+v7j+qlh18/uCDD5b7XlJSkiSpUaNG6tSp0wmvHTlypOvxihUr6jwbAHiz0EB/vTi5lwLtXGbwNIfzivXRir2mYwAAYASfTAAA8DAFxQ69t3y36RiowC3D26p3yxjTMYyaNWuWnE6nJMlms9W6APnvf/+r+++/3/V81KhR+uSTT+TvX/cDdd977z0tWbJEkvTMM8+4Bp//KSUlRZLUpEmTCl/ftOn/b3uWnJxc5/kAwNt1aRKlu8/pYDoGKvDm4h0qdjhNxwAAwHIUIAAAeJjZv+5jWKUH6tsyRjcPb2c6hnFlt78644wzlJiYWONzvfHGG7r99ttdz4cNG6Z58+YpKCioNhErdOTIEd19992SpBEjRuiiiy464ZjCwsIqn686xwKAL7l6UCv1buHbNwt4ouQjBZq/lvIeAOB7KEAAAPAgTmepZizZYToGjhMWaNd/L+4pu1/dzqPwNitXrtTmzZtdz6+88soan2vWrFm68cYbXc8HDhyoL774QiEhIbXKeDIPPfSQUlNTTxh8XlZUVJSkk6/u2L9/v+txdHR0nWcEgPrAz8+mpyZ0V5A/lxs8zes/bTcdAQAAy/GJBAAAD/LdpgPalZFnOgaOc9c5HdUsJtR0DOPKrv4ICwvThAkTanSeuXPnasqUKa6ttPr27auvv/5a4eHhdZLzeOvXr3cNPr/tttsqnO8hyTUQPTU1VZs2bTrh+2Vnn5Qdng4AKK9NfLhuHcGqSU+z9UCOfth8wHQMAAAsRQECAIAHeeNn7szzNL1bxOiKAS1Nx6gzNpvN9d+UKVOq/LqioiJ9+OGHrufjx4+vUWHxv//9T5dccokcDockqWfPnvruu+9cqy/cYdq0aSopKVHTpk1PGHxeVtkh508++WS57+Xn55dbOVL2WADAia4f2lpdm0aajoHjvLaIz5oAAN9iKy0tLTUdAgAASL/uOqQJry0zHQNlBNr99NWtg9UuIcLIz586daree++9E75edv6Ev7+/7Hb7CccUFBRUeE6b7f+38bryyis1c+bMKmWZO3euxo8f73q+YMECDR8+vEqvLSs0NFT5+fmu5/369VODBg2q/Pp33nlHCQkJVT5+1qxZuvzyyyVJH330kSZNmnTSY/ft26f27du78l155ZW67LLLlJOTo6eeekpLly6VdLS0Wb16dZUzAICv2pySpTEvLVGxg8sOnuTTG05X38Sq/+4FAMCb+ZsOAAAAjnrjZ2Z/eJppZ7YxVn5IUnFxcaXDtktKSlRSUuL2LGW3v2rZsqXOPPPMGp2nbPkhHZ0rUpvXn0pWVpbuuusuSdKZZ555yvJDkpo1a6annnpKN998s6Sj77ns+5aObv311ltvVSszAPiqTo0jdeOwNnphwR+mo6CM137arjcpQAAAPoItsAAA8AA70tmT2dO0TwjXjcPamo7hEdLT0/XNN9+4nl9++eXlVpJ4qrKDz1966aUqvWbatGl6/fXXFRl54rYtbdu21ffff69evXrVdVQAqLduPrOdOhi8mQAnWrAlTVsPZJuOAQCAJdgCCwAAD3Df3PX6YMUe0zFwjJ9NmnPjQPVqEWM6CmqouLhYTz75pIqLi9WhQwddcskl1Xp9dna2vv32W+3YsUMBAQHq1q2bhg0bJn9/FlADQHWt3XtYF766VA4nlx88xfjeTfXMRT1NxwAAwO0oQAAAMOxgTqEG/edHFZY4TUfBMVcNStRD53cxHQMAgHrj8a8363W2+/QYAXabfrrrTDWJDjEdBQAAt2ILLAAADHt32S7KDw/SLCZEd43qYDoGAAD1yt/Oaq/WsWGmY+CYYkepZizZaToGAABuRwECAIBBBcUOvbdst+kYKOOxcd0UGsg2RwAA1KWgALuemNBdXjBCymd8uGKPDucVmY4BAIBbUYAAAGDQ7F/3KTOv2HQMHDOuV1MNbR9nOgYAAPVSv8QGGt+7mekYOCavyKHZv+0zHQMAALeiAAEAwBCns1RvLmEvbE/RICxQD47ubDoGAAD12j3ndFREECstPcUHSXtMRwAAwK0oQAAAMOS7TQe0OyPPdAwcc+fZHRQTFmg6BgAA9VpcRJD+OrKd6Rg4ZufBXC3ZdtB0DAAA3IYCBAAAQ95Zust0BBzTpUmkLu7X3HQMAAB8wpUDE9U2Ptx0DBwzK4l5dACA+osCBAAAA7an5WjZjgzTMXDMg+d3lp8fU1kBALBCgN1PD53PtpOe4odNB3Qgq8B0DAAA3IICBAAAA97nTjuPcV63xurfqqHpGAAA+JQh7eI0qksj0zEgqcRZqo9W7jUdAwAAt6AAAQDAYgXFDs1Ztd90DEgK8vfT38/taDoGAAA+6R+jOynIn8sSnuCjFXvkcJaajgEAQJ3jkwYAABb7cl2yjuQXm44BSdcNba1mMaGmYwAA4JOaxYTqhjPamI4BSSlHCvTjlgOmYwAAUOcoQAAAsNj7y/eYjgBJjSKDdeMwLroAAGDSjcPaqFlMiOkYkDSLz6gAgHqIAgQAAAttTD6i1XsPm44BSff8paNCA/1NxwAAwKcFB9h1/3mdTMeApJ+3pWtPRp7pGAAA1CkKEAAALMTqD8/Qu0WMxvVqajoGAACQ9JeujTWobUPTMXxeaan0wYrdpmMAAFCnKEAAALBIbmGJ5q9NNh3D59ls0kPndzYdAwAAlPHg6C7ys5lOgdm/7lNRidN0DAAA6gwFCAAAFvlqfYpyCktMx/B5F/Zqqh7No03HAAAAZXRoFKELerI607SM3CJ9syHFdAwAAOoMBQgAABb5aMVe0xF8XkiAXXef09F0DAAAUIHbR7ZXgJ1lIKa9n8SWrQCA+oMCBAAAC/yRlqNVezJNx/B5V5zeUgmRwaZjAACACrRoGKpJ/VqYjuHzVuw8pK0Hsk3HAACgTlCAAABggY9WciedaeFB/rr+jDamYwAAgFO4dXhbBQdwqcI0VoEAAOoLPlUAAOBmxQ6n5q3abzqGz7tqUKIahAWajgEAAE4hPjJYUwYmmo7h8+at2qfCYofpGAAA1BoFCAAAbvbD5gPKyC0yHcOnRYUEaOrQ1qZjAACAKrjhjDaKDPY3HcOnZRWU6IfNaaZjAABQaxQgAAC42ccMPzdu6pDWigwOMB0DAABUQXRoIDcueIB5q/eZjgAAQK1RgAAA4EYHsgr087Z00zF8WoOwQF01KNF0DAAAUA1XD2ql2HC2rjTpp63pOsQqZgCAl6MAAQDAjb5alyJnqekUvu2GM9ooLIhtNAAA8CZhQf6admZb0zF8WrGjVF+uSzYdAwCAWqEAAQDAjb5Yyx+NJsVHBOmK01uajgEAAGpgcv8WahodYjqGT/ts9X7TEQAAqBUKEAAA3GRfZp5W7z1sOoZPm3ZmWwUH2E3HAAAANRDkb9dfR7YzHcOnrdpzWLsO5pqOAQBAjVGAAADgJqz+MKtpdIguOa2F6RgAAKAWxvduppYNQ03H8GmfrWEVCADAe1GAAADgJl+uSzEdwafdPLytAv35qAMAgDez+9k0dUhr0zF82jy2wQIAeDGuCgAA4Abb03O0MTnLdAyf1SwmRBP7NDMdAwAA1IGJfZopLjzIdAyftTsjT2vY1hUA4KUoQAAAcIMv2f7KqGsGt5K/nY85AADUB0EBdk0ZlGg6hk9ja1cAgLfiygAAAG7wBdtfGRMVEqBJ/ZqbjgEAAOrQ5QNaKjzI33QMn/UVn20BAF6KAgQAgDq2OSVLf6TlmI7hsy4b0FKhgVwgAQCgPokMCdAlp7UwHcNnpWYVKGlnhukYAABUGwUIAAB1jC0CzAny99OUgS1NxwAAAG5w7ZBWCmSLS2O+WMsqEACA9+GTAwAAdexLtggwZmyvpoqLCDYdAwAAuEFCZLDG9mpqOobP+mZ9ihzOUtMxAACoFgoQAADq0Jq9h7XnUJ7pGD7JZpOmDmltOgYAAHCj64e2ls1mOoVvysgt0i9/HDQdAwCAaqEAAQCgDrH9lTnDO8arbXy46RgAAMCN2sSH6+zOCaZj+Kwv1vFZFwDgXShAAACoQ1+x/ZUx17H6AwAAn3DjGW1MR/BZP2w6wDZYAACvQgECAEAdWbHzkFKzCkzH8Ek9mkWpf+uGpmMAAAAL9GwRowGtG5iO4ZMy84q1ak+m6RgAAFQZBQgAAHWE7a/MmTqU1R8AAPiS64ayCsSUBZsPmI4AAECVUYAAAFBHvt2YajqCT2reIER/6drYdAwAAGChYe3j1CwmxHQMn/TD5jTTEQAAqDIKEAAA6sCG/UeUll1oOoZPunpQK9n9bKZjAAAAC/n52XTJaS1Mx/BJf6TlaE9GnukYAABUCQUIAAB1YOHv3AlnQmigXRP6NDMdAwAAGHBR3+YKsHMThAkLtrANFgDAO1CAAABQBxZuSTcdwSeN6dFEEcEBpmMAAAAD4iKCNKpLI9MxfNIPzAEBAHgJChAAAGopM7dIa/Zmmo7hky4b0NJ0BAAAYBCfBcxYsfOQsguKTccAAKBSFCAAANTST1vT5Sw1ncL3dG8Wpa5No0zHAAAABg1o3VBt4sJNx/A5xY5S/bz1oOkYAABUigIEAIBaYv6HGdzxCQAAJOmyAQxDN4E5IAAAb0ABAgBALTidpfp5K/M/rBYZ7K/zuzcxHQMAAHiA8b2bKTiAyxtWW/R7upwsgwYAeDg+IQAAUAtr9h5WZh77H1vtgp5NFRJoNx0DAAB4gMiQAJ3fgxsjrHYot0ir9jAHDwDg2ShAAACoBba/MuPi05qbjgAAADzIpf3ZGtOEBZv5LAwA8GwUIAAA1AIFiPW6NIlUlyYMPwcAAP+vZ/NodW0aaTqGz2EOCADA01GAAABQQ+nZBdqYnGU6hs+5uB+DTgEAwIkuG8AqEKttPZCjvYfyTMcAAOCkKEAAAKihhb+nq5S5j5YKDvDTBT3Z4xsAAJxodPcmDEM34IfNrAIBAHguPhkAAFBDC7ew/ZXV/tK1sSJDAkzHAAAAHig8yF9nd25kOobP+ZHPxAAAD0YBAgBADZQ4nFqy7aDpGD5nfO9mpiMAAAAPNrZXU9MRfM6KnYdUWOwwHQMAgApRgAAAUAO/7s5UdmGJ6Rg+JS48SKe3aWg6BgAA8GBD28UqNjzQdAyfUlji1Oq9h03HAACgQhQgAADUANtfWe8v3RrJ7mczHQMAAHgwf7ufRndnXpjVknZkmI4AAECFKEAAAKiBJX+w/ZXVzu/BxQwAAFC5cWyDZbnlOw6ZjgAAQIUoQAAAqKasgmJtTskyHcOnNI4KVr/EBqZjAAAAL9CjebRax4aZjuFTVu3JVGEJc0AAAJ6HAgQAgGpatTtTzlLTKXzLed0bm44AAAC8yOgefHawUmGJU2v3HjEdAwCAE1CAAABQTSt2ssTfauezlzcAAKiGMT3YBstqy5kDAgDwQBQgAABU08pdFCBWatkwVD2aR5uOAQAAvEjb+HB1bBRhOoZPSdpJAQIA8DwUIAAAVENhiUPr9rG830rndWMLCwAAUH3n92AFqZVW7T6sYofTdAwAAMqhAAEAoBrW7j2iwhL+sLMSFy8AAEBNsIWmtfKLHVq797DpGAAAlEMBAgBANbD9lbXaxoerU+NI0zEAAIAXatEwVN2bRZmO4VOSmJUHAPAwFCAAAFTDSv6os9T53dn+CgAA1NzITgmmI/iUJAahAwA8DAUIAABV5HSW6rfdmaZj+JTRbH8FAABqYWSneNMRfMqvuzNVwhwQAIAHoQABAKCKNqdmKbuwxHQMn9EmLlxt4sJNxwAAAF6sc5MoNYkKNh3DZ+QVObR+/xHTMQAAcKEAAQCgilaw/ZWlzuwYZzoCAACoB4Z3ZBWIlZJ28JkZAOA5KEAAAKgiBqBb68wOXKwAAAC1N4I5IJZazhwQAIAHoQABAKCKVu5k/odVwoP81S+xgekYAACgHhjYpqFCAuymY/iMX3dnyuEsNR0DAABJFCAAAFTJzoO5Ss8pNB3DZwxqG6tAfz6mAACA2gsKsGtwu1jTMXxGTmGJNqdkmY4BAIAkChAAAKqE7a+sxfwPAABQl0Z0YmtNKzEIHQDgKShAAACogpUMQLcU8z8AAEBdGtExXjab6RS+YyMFCADAQ1CAAABQBb/tZv6HVTo3jlRCZLDpGAAAoB6JiwhW96ZRpmP4DFaAAAA8BQUIAACVyC0s0c6MXNMxfMawDmx/BQAA6t7wTgmmI/iMLanZKnE4TccAAIACBACAymxOyVJpqekUvuPMjmx/BQAA6t5I5oBYprDEqW1pOaZjAABAAQIAQGU2pWSZjuAzokMD1LtFjOkYAACgHurSJEoJkUGmY/iMDWyDBQDwABQgAABUYlMyBYhVhraLk92PCaUAAMA9+rdqaDqCz9jAZ2gAgAegAAEAoBKsALEO8z8AAIA7DWhNAWKV9ftYAQIAMI8CBACAUyhxOPV7arbpGD5jYJtY0xEAAEA91r91A9MRfMbmlCw5nAzSAwCYRQECAMApbE/PVWGJ03QMn9C8QYgaRQWbjgEAAOqxNnHhiotgDogV8osd2p7OIHQAgFkUIAAAnALbX1nntETuyAQAAO43oBWfOazCIHQAgGkUIAAAnAID0K3Tj4sRAADAAv2ZA2KZjXyWBgAYRgECAMApbErhrjWr9GMFCAAAsEB/brqwzHpWgAAADKMAAQDgFDanMADdCrHhgWoTF246BgAA8AHtEiIUGx5oOoZPYDU1AMA0ChAAAE4i5Ui+DuUWmY7hE/qy+gMAAFjoNFaBWCKnsIRB6AAAoyhAAAA4Ce5Ysw4D0AEAgJX6t2IOiFU2sg0WAMAgChAAAE5iUwoFiFWY/wEAAKw0gEHoltnATUUAAIMoQAAAOAlWgFgjPMhfnZtEmo4BAAB8SIdGEYoJDTAdwyewBRYAwCQKEAAAToIVINbo3SJadj+b6RgAAMDHMAfEGjvTc01HAAD4MAoQAAAqkFNYoj2H8kzH8An9uPgAAAAM6NY02nQEn7A3M08OZ6npGAAAH0UBAgBABXak56iUv9MswfwPAABgQtembMFphWJHqfZyYxEAwBAKEAAAKrAngz/SrOBnk7o1jTIdAwAA+KCufAaxzM6DbIMFADCDAgQAgArs5i41S7RsGKawIH/TMQAAgA+KDQ9So8hg0zF8AgUIAMAUChAAACqwK4M/0qzQuTFbTwAAAHO6NWMViBUoQAAAplCAAABQAbbAskbnJhQgAADAnK58FrEEBQgAwBQKEAAAKsAKEGuwAgQAAJjEHBBrUIAAAEyhAAEA4DgFxQ6lZReajuETWAECAABMogCxRvKRfBUWO0zHAAD4IAoQAACOszsjT6WlplPUf7HhgUpg8CgAADAoITJYcRFBpmPUe6Wl0i62mAUAGEABAgDAcfYcYom+FTqx/RUAAPAAXZuwCsQKbIMFADCBAgQAgOPs5u40SzD/AwAAeIKuTflMYoVdFCAAAAMoQAAAOA7L863B/A8AAOAJujEHxBI7KEAAAAZQgAAAcJw9GfxxZoUubDcBAAA8QBcKEEvsPJhjOgIAwAdRgAAAcBxWgLhfSIBdrWPDTMcAAABQ0+gQhQbaTceo95gBAgAwgQIEAIAyShxOJR/ONx2j3uvQKEJ+fjbTMQAAACRJiQ25McPdDuYUKbug2HQMAICPoQABAKCMfZn5KnGWmo5R77VLCDcdAQAAwKUVK1MtsfcQK60BANaiAAEAoIw9/FFmCe6yBAAAnqRVHJ9NrJCWXWg6AgDAx1CAAABQxi4GoFuiZYNQ0xEAAABcWnFzhiUoQAAAVqMAAQCgjH2ZzP+wQksuMgAAAA/CFljWSMuiAAEAWIsCBACAMtK5K80SLRuyAgQAAHgOChBrpGUXmI4AAPAxFCAAAJRxMIcCxN1iQgMUGRJgOgYAAIBLTFigokP5fOJubIEFALAaBQgAAGVQgLgf218BAABPxBwQ90vLYgUIAMBaFCAAAJRxMLvIdIR6j+2vAACAJ2oVRwHibqwAAQBYjQIEAIBjnM5SHcqjAHE3ChAAAOCJElkB4nbM2wMAWI0CBACAYw7lFcnhLDUdo95jCywAAOCJWjMI3e0KS5w6zA1HAAALUYAAAHAM8z+s0bIBK0AAAIDnYQssa7ANFgDAShQgAAAcw/wPa7ACBAAAeKJmMdykYYW0LAoQAIB1KEAAADiGFSDuFxZoV1xEkOkYAAAAJ4gKCVCQP5dJ3O1AdoHpCAAAH8JvdgAAjqEAcT/urAQAAJ6MGzXcL50VIAAAC1GAAABwDAWI+8VHclEBAAB4rviIYNMR6r00VoAAACxEAQIAwDEZOcwAcbfYcAoQAADgubhZw/0Ygg4AsBIFCAAAx6SzAsTtKEAAAIAni2cLLLejAAEAWIkCBACAY9gCy/0ahgeajgAAAHBSCZFsgeVuaVlsgQUAsA4FCAAAxxzMZgssd4tjBQgAAPBgrABxvyP5xaYjAAB8CAUIAADHZOSyAsTdYlkBAgAAPBgFiPvlFjpMRwAA+BAKEAAAJB3OK1Kxo9R0jHovlosKAADAg8WzBZbbFTmcKipxmo4BAPARFCAAAIil+FZhCDoAAPBkcdysYYm8ohLTEQAAPoICBAAASXlFLMV3N5tNahjGFlgAAMBzxYYHKcBuMx2j3ssppAABAFiDAgQAAEn5FCBuFxUSIH87Hz0AAIBnY8Wq+zEHBABgFa5CAAAgKb+YP8LcjYsJAADAG/CZxf1yWQECALAIBQgAAGILLCvEcTEBAAB4gfAgf9MR6j22wAIAWIUCBAAASQWsAHG72HDmfwAAAM8XFmQ3HaHey2UIOgDAIhQgAACIFSBWiAgOMB0BAACgUmGsAHG7PGaAAAAsQgECAICYAWKFkEDupgQAAJ6PLbDcjy2wAABWoQABAEBSPsvw3Y4CBAAAeANWgLgfQ9ABAFahAAEAQKwAsUJIAAUIAADwfGHctOF2rAABAFiFAgQAADEDxAqhXEwAAABegBUg7pfLZ28AgEUoQAAAkFTAH2FuF8wKEAAA4AUoQNwvjxUgAACLUIAAACApjy2w3I4VIAAAwBswBN392AILAGAVChAAACTlswLE7ShAAACAN2AFiPsxBB0AYBUKEAAAxBB0K7AFFgAA8AYMQXc/ZoAAAKxCAQIAgFgBYoXQQO6mBAAAno8VIO5XWlpqOgIAwEdQgAAAIFaAWCEkgI8dAADA81GAAABQf3AlAgAAsQLECiGsAAEAAF7A389mOgIAAKgjFCAAAEgqcbIM391CmAECAAAASeyABQCwCgUIAACwRJA/HzsAAIDns7EABACAeoMrEQAAwBJcTAAAAIAksQAEAGAVChAAAAAAAAAAAFDvUIAAAAAAAAAAAIB6hwIEAABJpUxiBAAAgCQb+3a6HZ+9AQBWoQABAAAAAAAAAAD1DgUIAAAAAADAMaz/cD/WfwAArEIBAgCA2OrACux0AAAAAAAArEQBAgCAJD/6D7crcdKAAAAAAAAA61CAAAAgyU4D4nYOChAAAOAFWBjsfqwMBgBYhQIEAABJ/n78SnS3EqfTdAQAAAAAAOBDuNoDAIBYAWIFVoAAAABvwEcW9ytlDDoAwCIUIAAASPKnAHE7ZoAAAABvUFDkMB0BAADUEQoQAADEChArsAIEAAB4g/xiChB382PQCgDAIhQgAABI8rfzR5i75XE3JQAA8AIFFCBuFxJgNx0BAOAjKEAAABArQKyQXVBsOgIAAEClWAHifsEUIAAAi1CAAAAgKcDOr0R3yyksMR0BAACgUqwAcT8KEACAVbjaAwCApNBA/ghzt5wCChAAAOD58tm20+3YAgsAYBUKEAAAJEUEB5iOUO+xAgQAAHiDPFaAuF1IIJejAADW4DcOAACSwoP8TUeo97JYAQIAALxANp9Z3I4VIAAAq1CAAAAgKSKYAsTd2AILAAB4Az6zuB8zQAAAVqEAAQBArACxQk5hsekIAAAAlWLbTvcLYf4eAMAiFCAAAIgZIFbgbkoAAOANsgq4acPdQilAAAAWoQABAECsALEC+2kDAABvwE0b7hcexM1HAABrUIAAACBmgFghm+0kAACAF8jlM4vbcfMRAMAqFCAAAIg/wqzA3ZQAAMAbZOQWmY5Q73HzEQDAKhQgAACIP8KskM1+2gAAwAukZRWajlDvcfMRAMAqFCAAAEgKpwBxuyP5FCAAAMCzOZylysilAHE3PnsDAKxCAQIAgLgLzQq5RQ7lsKc2AADwYIdyC+UsNZ2i/uOzNwDAKhQgAABIiggOkJ/NdIr678CRAtMRAAAATiotm9UfVmAFCADAKhQgAAAcExbIH2LulppFAQIAADxXOgWI29lsUjifuwEAFqEAAQDgGO5Ec78DFCAAAMCDsQLE/SKDA+TH0msAgEUoQAAAOIa9iN2PAgQAAHgyVoC4X1xEkOkIAAAfQgECAMAxEcEBpiPUe6lZXFQAAACeiwLE/ShAAABWogABAOCYqBAKEHdLZQg6AADwYGnZfFZxt3gKEACAhShAAAA4JiGSP8bcLY0tsAAAgAdjBYj7sQIEAGAlChAAAI5JiAw2HaHeS6UAAQAAHowh6O4XH8FnbgCAdShAAAA4hgLE/dKzC+V0lpqOAQAAUCFWgLgfK0AAAFaiAAEA4JhGURQg7lbiLFVGLhcWAACA58nKL1ZekcN0jHqPGSAAACtRgAAAcAwzQKyReoQCBAAAeJ6dB3NNR/AJrAABAFiJAgQAgGPYAssaqVn5piMAAACcYFcGBYgV4sIpQAAA1qEAAQDgmNjwIAXa+dXobrsy8kxHAAAAOMEuVoC4XaDdTzFhgaZjAAB8CFd5AAAogyX57rc9Lcd0BAAAgBPsPMhNGu4WG075AQCwFgUIAABlsA2W++3g7koAAOCB2ALL/eL5rA0AsBgFCAAAZTSKYgWIu+1IZwUIAADwPAxBdz9WWwMArEYBAgBAGY24K83tDuYUKSu/2HQMAAAAl8zcIh3h84nbMQAdAGA1ChAAAMpgWb41trMKBAAAeBC2v7JGfCQFCADAWhQgAACUwQoQa+xI5yIDAADwHGx/ZQ1WgAAArEYBAgBAGY2iKECswAoQAADgSVgBYg1WgAAArEYBAgBAGfEMZrTEdlaAAAAAD7LrYJ7pCD6heYNQ0xEAAD6GAgQAgDJYAWKNHawAAQAAHoQtsNzPZpMSG4aZjgEA8DEUIAAAlBEa6K/IYH/TMeq93Rl5cjhLTccAAACQJO2iAHG7RpHBCg6wm44BAPAxFCAAAByHpfnuV+Rwau8htpoAAADm7c7IVXZhiekY9V5iLKs/AADWowABAOA4rfnjzBI7uNMSAAB4gI3JWaYj+IRWbH8FADCAAgQAgOO0jgs3HcEnbE7hYgMAADBvw/4jpiP4BFaAAABMoAABAOA4beL448wK6/ZxsQEAAJjHChBrtIplm1kAgPUoQAAAOA4rQKyxft9h0xEAAAC0MZmbMqyQyBZYAAADKEAAADhOK5bnWyL5SIEO5hSajgEAAHxY6pECHcwpMh2j3vOzSS0asgIEAGA9ChAAAI4TFuSvRpHBpmP4hPVsgwUAAAzawOoPSzSJDlGQv910DACAD6IAAQCgAm3iWQVihXUMHQUAAAYx/8MabH8FADCFAgQAgAq0jmUOiBWYAwIAAEzayM0Ylkhki1kAgCEUIAAAVKB1HH+kWWEdW2ABAACDNlCAWCKR+R8AAEMoQAAAqECbOFaAWCEtu1BpWQWmYwAAAB+UmVuk5CN8DrECK0AAAKZQgAAAUAFWgFiHOSAAAMAEBqBbpxUzQAAAhlCAAABQgWYxoQoO4NekFdazDRYAADBg434GoFvB7mdT8wZsgQUAMIMrOwAAnEQrlupbgjkgAADAhJW7D5mO4BOaRAcr0J/LTwAAM/gNBADASTAHxBoMHwUAAFZzOku1chcFiBX4TA0AMIkCBACAk2AOiDXScwq1JyPPdAwAAOBDtqRmKSu/xHQMn9ClSZTpCAAAH0YBAgDASbSO5W41qyzbkWE6AgAA8CFJO1n9YZWuTSNNRwAA+DAKEAAATqJtPAWIVZZtpwABAADWoQCxTpfGrAABAJhDAQIAwEm0T4hQoJ1flVZYtuOg6QgAAMCHrKQAsURkiL9aNAw1HQMA4MO4qgMAwEkE+vupQ6MI0zF8woGsQu1IzzEdAwAA+IBtB7KVkVtkOoZPYP4HAMA0ChAAAE6hezP+aLPKcuaAAAAAC6xg9YdlujRh/gcAwCwKEAAATqEbBYhlmAMCAACswPwP63RlBQgAwDAKEAAATqF7U/5os8ryHVyMAAAA7pe0k5surMIKEACAaRQgAACcQvuECAX58+vSCuk5hdp2INt0DAAAUI/tOpirA1mFpmP4hJAAu9rEhZuOAQDwcVzRAQDgFPztfurcmDvXrLKMOSAAAMCNVuxixalVOjWOkJ+fzXQMAICPowABAKASzAGxDnNAAACAOyVxs4VlujD/AwDgAShAAACoRHcKEMss56IEAABwo5+3HjQdwWd0ZZYeAMADUIAAAFCJbk2jTUfwGZl5xdqckmU6BgAAqIfW7D2s9Bzmf1iFAegAAE9AAQIAQCXaxocrNNBuOobP+HlruukIAACgHlq4Jc10BJ8RYLepfUKE6RgAAFCAAABQGbufjUHoFvph8wHTEQAAQD20YAufMazSPiFCgf5ccgIAmMdvIwAAqoA5INZZteewDuUWmY4BAADqkQNZBdqYzDabVmEAOgDAU1CAAABQBd2aRZuO4DMczlL9yB2aAACgDv24JU2lpaZT+I6uTVk9DQDwDBQgAABUQfem3MVmpe83sUc3AACoOz8y/8NS/RIbmI4AAIAkChAAAKqkTXy4woP8TcfwGYu3pauwxGE6BgAAqAcKSxz65Y+DpmP4jKiQAHVgADoAwENQgAAAUEXdWAVimbwih5b+kWE6BgAAqAeWb89QXhE3VlilX2KM/PxspmMAACCJAgQAgCrrmxhjOoJP+WEzc0AAAEDtLWD7K0ud1qqh6QgAALhQgAAAUEWnt+GPOStRgAAAgLrA/A9r9W/F/A8AgOegAAEAoIr6tIhRkD+/Oq1yIKtQa/ceNh0DAAB4sd9Ts7UvM990DJ8RHuSvrmwbCwDwIFzFAQCgioIC7OrZPNp0DJ/CKhAAAFAbP27hs4SV+rSMkZ35HwAAD0IBAgBANbANlrUoQAAAQG18uS7FdASfwvZXAABPQwECAEA1nN6aAsRKm1OytS8zz3QMAADghban5WhjcpbpGD7lNAoQAICHoQABAKAaeraIZg6Ixb7izk0AAFADn6/dbzqCTwkO8FP3ZtGmYwAAUA5XcAAAqIYgf7v6tIwxHcOnfLaGixcAAKD65q9JNh3Bp/RqEaNAbhQCAHgYfjMBAFBNzAGx1uaUbG1JZfsKAABQdWv3HtauDLbRtNIAtr8CAHggChAAAKqJOSDW+2w1q0AAAEDVzV/L6g+r9eczMgDAA1GAAABQTT2aRys00G46hk/5nC0sAABAFTmdpfpyHZ8drBRo91Ov5tGmYwAAcAIKEAAAqinA7qe+zAGxVMqRAi3bnmE6BgAA8AJJOw/pQFah6Rg+pUfzKAUFcIMQAMDzUIAAAFADzAGx3jy2wQIAAFUwfy2fGax2Wis+GwMAPBMFCAAANcAcEOv9b0OKCosdpmMAAAAPVuxw6psNqaZj+Jz+DEAHAHgoChAAAGqga9MohQf5m47hU7IKSvTD5jTTMQAAgAf7aWu6DucVm47hU4ID/HQaBQgAwENRgAAAUAP+dj/1S+QPPat9toYtLQAAwMnNX8Pwc6sNbBOrYOZ/AAA8FAUIAAA1xBwQ6y36PU2ZuUWmYwAAAA+UXVCsHzYfMB3D54zoGG86AgAAJ0UBAgBADQ1tH2s6gs8pdpTqq/UppmMAAAAP9NnqZOUVMS/MamdSgAAAPBgFCAAANdSxUaSaxYSYjuFz5q5iGywAAHCiD1bsNh3B53RqHKEm0XweBgB4LgoQAABq4azOCaYj+JxVezK19UC26RgAAMCDrNqdqc0pfD6w2vCOfBYGAHg2ChAAAGphZCf+6DPh/aQ9piMAAAAP8n4Sqz9MYP4HAMDTUYAAAFAL/Vs1UGSIv+kYPmfeqn3KZ49vAAAg6Uh+sb5cx4wwqzUIC1TP5tGmYwAAcEoUIAAA1IK/3U/D2nPnm9WyCko0f22y6RgAAMADzPltnwpLnKZj+JxhHeLk52czHQMAgFOiAAEAoJaYA2IGW10AAACJrTFNGc72VwAAL0ABAgBALZ3RIU4Bdu5+s9q6fUe0ft8R0zEAAIBBSTsytD09x3QMnxNgt2lo+zjTMQAAqBQFCAAAtRQZHKD+rRqajuGT3lvOKhAAAHwZqz/M6JvYQJHBAaZjAABQKQoQAADqwEi2wTLi8zX7lZlbZDoGAAAwICOnUP/bkGo6hk9i+ysAgLegAAEAoA6M7MQfgSYUljj18a97TccAAAAGzP5tn4ocDD83gQIEAOAtKEAAAKgDzWJC1blxpOkYPmnW8t1yOktNxwAAABb7cAXbX5nQKjZMbeLCTccAAKBKKEAAAKgjIztzJ5wJ+zLztWDLAdMxAACAhb7fdEC7M/JMx/BJrP4AAHgTChAAAOrIyE7MATFl5tJdpiMAAAALvbl4h+kIPosCBADgTShAAACoI92bRatRZLDpGD7plz8ytDkly3QMAABggbV7Dytp5yHTMXxSg7BA9W/VwHQMAACqjAIEAIA6xDB0c15dtN10BAAAYIHprP4w5txujeVv51ISAMB78FsLAIA6NLIz22CZ8tX6FO3OyDUdAwAAuNG+zDx9syHVdAyfNaZHE9MRAACoFgoQAADq0MA2sYoODTAdwyc5nKV642fuCAUAoD57a8lOOZylpmP4pCZRwTqN7a8AAF6GAgQAgDoU6O+n87o1Nh3DZ3362z6lZRWYjgEAANzgcF6RPlq513QMn3U+qz8AAF6IAgQAgDo2tldT0xF8VmGJUzOW7DQdAwAAuME7S3cpr8hhOobPuqAnBQgAwPtQgAAAUMf6JTZQ8wYhpmP4rPeT9uhIfrHpGAAAoA7lFZXo7aW7TMfwWW3jw9W5SZTpGAAAVBsFCAAAbnBBT1aBmJJTWKJ3l+0yHQMAANShD1fs0eE8bnAwheHnAABvRQECAIAbjKUAMertX3Ypny0yAACoF4pKnHpzMVtcmkQBAgDwVhQgAAC4Qdv4cHVtGmk6hs86lFukj1buMR0DAADUgc/W7FfKkQLTMXxW92ZRSowNMx0DAIAaoQABAMBNxjEM3ajpP+9QscNpOgYAAKiFEodTryz8w3QMn8bwcwCAN6MAAQDATcb0aCK7n810DJ+VfKRAn6/ZbzoGAACohU9+3addGXmmY/gsP5s0ujsFCADAe1GAAADgJnERwRrUpqHpGD7tlYXbVcIqEAAAvFJhsUMv/rjNdAyf1r91QyVEBpuOAQBAjVGAAADgRmPZBsuoHQdzNfu3faZjAACAGpiVtJvZH4Yx/BwA4O0oQAAAcKNzujZSaKDddAyf9vwP21RQ7DAdAwAAVENuYYleWbjddAyfFmj307ndGpuOAQBArVCAAADgRqGB/jqrc4LpGD4tNatAM5fuMh0DAABUw1u/7FRGbpHpGD5taPtYRYUEmI4BAECtUIAAAOBm49gGy7hXF21XVn6x6RgAAKAKjuQXa/rPO0zH8HkX9OQzLADA+1GAAADgZkPaxSk2PNB0DJ92JL9Yr/3ENhoAAHiD1xZtV1ZBiekYPi0mNEBnd2EVMwDA+1GAAADgZnY/m85ngKRxb/2yUweyGKQKAIAnS89m60pPMKFPcwX5M8cOAOD9KEAAALAA22CZV1Ds1PM/bDMdAwAAnMJLC7crv9hhOoZPs9mkyf1bmI4BAECdoAABAMAC3ZtFq0uTSNMxfN4nv+7VjvQc0zEAAEAF9mXm6cOkPaZj+LzTWzdUq9gw0zEAAKgTFCAAAFhk8mncSWdaibNUz3y31XQMAABQgRcW/KEih9N0DJ93af+WpiMAAFBnKEAAALDIBb2aKiyQvZRN+3pDitbvO2I6BgAAKGNzSpbmrNpnOobPiwsPYvg5AKBeoQABAMAi4UH+GsssEONKS6Un/rfFdAwAAFDGw/M3yuEsNR3D503s20wBdi4VAQDqD36rAQBgoUsZKOkRlvxxUIt+TzMdAwAASPpybbKSdh4yHcPn+dmkS9iyFQBQz1CAAABgoc5NotSzebTpGNDRO00LSxymYwAA4NPyixx67OvNpmNA0tB2cWreINR0DAAA6hQFCAAAFmMViGfYlZGn6T/vNB0DAACf9sqiP5R8pMB0DEiazGdUAEA9RAECAIDFzu/RRJEh/qZjQNLLC//Q/sP5pmMAAOCT9h7K0xs/7zAdA5IaRQZrRCeGnwMA6h8KEAAALBYcYNfEPs1Nx4Ck/GKHHv1yk+kYAAD4pEe/2qTCEqfpGJA0qV9z2f1spmMAAFDnKEAAADDgitNbysbfmB7hmw2pWrwt3XQMAAB8ypJtB/XtxgOmY0CS3c+mi0/j5hwAQP1EAQIAgAEtG4ZpWPt40zFwzMPzN6qIO1ABALBEicOpR77YaDoGjjmzQ5waR4WYjgEAgFtQgAAAYMiUgS1NR8Ax29Nz9dYSBqIDAGCFd5ft1ra0HNMxcMyl/flMCgCovyhAAAAw5IwO8WoVG2Y6Bo558cdtSj1SYDoGAAD1WkZOof77w1bTMXBMs5gQndE+znQMAADchgIEAACDrjidO+48RW6RQ//+ioHoAHAyBw8e1OOPP67hw4erSZMmCgoKUnx8vHr37q17771XmzZV//8PLSgo0HvvvaeJEyeqbdu2ioyMVGBgoGJjY9W3b19NmzZNy5Ytc8O7OWrt2rV69tlnNXHiRHXs2FFRUVEKCAhQbGysevfurZtuukmLFy+u8fmTkpJ0yy23qG/fvoqNjVVgYKAiIyPVtm1bTZw4Ue+8847y8/OrfL7Vq1fr4osvdv37N23aVJdeeqnWrVtXrVxPPfWUbDabbDabfvrpp+q+rVp58tvflVVQYunPxMld1r+l/Bh+DgCox2ylpaWlpkMAAOCrsguKNeCxBcotcpiOgmM+mNpfA9vEmo4BAB7lxRdf1H333aecnJNvW2S323XvvffqoYceUkBAQKXn/OGHH3T11Vdr7969lR573nnnacaMGUpISKhW7pN54okn9Nprr2nXrl1VOn7w4MGaOXOm2rRpU6Xj09LSNHXqVM2fP7/SY5s2baoZM2Zo1KhRpzzurbfe0tSpU+V0njizym636+2339bll19e6c/bv3+/OnbsqJycHE2ePFnvv/9+pa+pK8u2Z2jym8vFVQjPEB7kr6V/H67I4Mr/3ysAAN6KAgQAAMMe+GyDZi3fbToGjmkXH66v/zpEAXYWygKAJN1xxx169tlny32tZcuWatWqlfLy8rRu3ToVFPz/FoJXXHGF3nnnnVOe88svv9S4ceNUUvL/KwEiIiLUpUsXhYaG6sCBA9q8eXO5i/0dOnTQkiVLFBtb+5K6a9eu2rix/BDuhg0bKjExUVFRUUpLS9OmTZvK/fyYmBgtWrRI3bt3P+W5Dx06pCFDhpRbEePn56dOnTopISFBeXl52rBhQ7kyyd/fX5988onGjRtX4TlXrlyp008/XQ7H0RsmmjRpovbt2+v3339XSkqK6xxJSUnq3bv3KfNdfPHF+vjjjxUREaHff/9djRs3PuXxdSW/yKFR//1Zew7lWfLzULlrBrfSP0Z3Nh0DAAC34i97AAAMu2pQoth5wHNsS8vRSz/+YToGAHiEDz74oFz50aVLF/3yyy/atWuXFi5cqKSkJB08eFAPPfSQ/PyO/nn57rvv6rnnnjvpOQ8fPqyrr77aVX5ERERoxowZysjI0LJly7RgwQJt2LBBu3fv1uTJk12v+/3333XnnXfW6ftLTEzUv/71L61fv17p6en69ddftWDBAq1fv1579+7VNddc4zo2MzNTY8aMqXTLqnvuuadc+XHllVdq37592rBhgxYsWKBly5YpIyNDr7/+usLCjs4CKykp0bXXXquMjIwKz/nAAw+4yo+//vWv2rNnjxYuXKg9e/boxhtvdJ3jgQceOGW2hQsX6uOPP5YkPfzww5aVH5L09He/U354ELufTVcNSjQdAwAAt2MFCAAAHuDGWb/pmw2ppmPgmAC7TZ9PG6TOTaJMRwEAY4qKitSuXTvt2bNH0tFVH6tXr1ZMTEyFx7/44ou69dZbJUnR0dHavn27GjRocMJxr732muuivSR99dVXOvfcc0+aY9y4cfrss88kSQEBAUpLS1N0dHQN39VR48eP14QJEzRp0iRXcXMyDzzwgP7973+7nj/77LO6/fbbKzw2KytLcXFxKioqkiRNnDhRn3zyyUnP/dlnn5Vb9fHSSy9p2rRp5Y7JzMxUw4YNVVpaqubNm2v79u3lthgrLCxUq1atlJKSIpvNpkOHDlX471NSUqIePXpo06ZN6tKli9asWSN/f/9Tvve6smZPpi58damcXH3wGOd3b6wXJ596tRAAAPUBK0AAAPAANw1razoCyih2lOrO2etU7Dhxn3UA8BXff/+9q/yQjs7NOFn5IUm33HKLevToIenoKo+XX365wuPKDhXv2rXrKcsPSbr//vtdj4uLi7Vy5coq5T+VOXPm6JJLLqm0/JCkhx56SC1atHA9nzt37kmPTUpKcpUf0tHVIKcyduxYdenSxfV86dKlJxyzatUq/Xnf4oQJE06YrxIUFKSLLrpIklRaWqrVq1dX+LP++9//ulamvPTSS5aVH0UlTt316TrKDw9z3dCqzbMBAMDbUYAAAOABujWL0pB2DN72JJtSsvTKQrbCAuC7Fi5c6HocFBR00vkUZV188cWux7Nnz67wmPT0dNfjrl27VnrO448p+3orBAQE6JxzznE937Jly0mPPT5bdd9fRe+t7NcSExMrPEerVq1cj9PS0k74fnJysv75z39Kki655BINGzas0lx15aWF27QtLafyA2GZAa0bqFszVrkCAHwDBQgAAB6CVSCe56WFf2hzSpbpGABgxK5du1yPO3TooMDAwEpfU3ZA+Pr167Vz584TjgkPD3c9Lrta4mQKCwvLPT/VKhR3KbuVV1bWyX8vlH1vUvXfX03fW2U7W995553Kzs5WeHi4nn766Rr9jJrYnJKlVxdtt+znoWqmDmltOgIAAJahAAEAwEOc3qahejWPNh0DZRzdCmutStgKC4APOnLkiOtxRERElV4TGRlZ7vmaNWtOOOa0005zPV62bJlrGPrJ/PTTT67HAQEB5V5vld27d7sex8fHn/S4vn37ymazuZ7//PPPpzxvcXGxli1b5no+ePDgE46Ji4urMMfJ8pU9XpIWLVqkDz/8UNLR7byaNGlyykx1xeEs1d2frlOxg72vPEm7+HCN6JRgOgYAAJahAAEAwIPcdCb7MXuajclZeoW7VwH4oLKlR3Z2dpVec/zqiD9nTpR15ZVXKjQ0VJKUkpJSbsD48Q4fPqy///3vrudXXXWVGjZsWKUsdaWgoEDffPON6/mAAQNOemyTJk00duxY1/P77rvvlP92Dz/8sA4cOCDpaLFyxRVXnHBMr169XKXK7NmzTyiMioqKXNuN2Ww29erVy/W9kpIS3XzzzZKkzp07669//etJs9S16Yt3aP3+I5UfCEvdMIzPmgAA30IBAgCABzmrcyO1Twiv/EBY6qUf/9DvqVW7+AcA9UWzZs1cj7du3Vql7ZzWr19f7nlFW2A1btxYM2bMcA3zfvjhhzVp0iT9/PPPysrKUklJifbv36+ZM2eqT58+rhJlxIgRlm7f9Kfnn39ehw8fdj2fPHnyKY9/6aWX1LFjR0nSunXr1KdPH7377rvav3+/SkpKlJWVpUWLFmn8+PF67LHHJB3dYmvOnDmKijpxLkODBg00fPhwSdLevXt17733yuFwSJIcDofuvvtu7d+/X5J01llnldtG64UXXtDGjRslSS+++OIJA9TdZUd6jp77fqslPwtV1zQ6RBf0sGYFEAAAnsJWWtlmoQAAwFJzV+3T3z5ZazoGjtOtaZTm3TRQ/nbuHwHgGz755BNNmjSp3POJEyee8jW9evUqt+3VRRddpI8//rjCYxctWqSbbrpJmzdvPuU54+LidN111+mhhx6y7AL+n7Zu3apevXopLy9PktSnTx+tXLmy3DZXFcnMzNT111+vuXPnusqKitjtdp133nl68skn1aFDh5Met3TpUg0ZMkRO59EtGZs2bar27dtr69atrvLDbrfrl19+Uf/+/SUdXV3ToUMHZWdna9KkSfroo4+q9d5r46LXl2nFzkOW/TxUzcNjumjKwETTMQAAsBR/wQMA4GHG9GiiZjEhpmPgOOv3H9HrP+8wHQMALHPuueeWW01w7733llsJcbxXXnnlhJkfp9r+adiwYfr66681evTokx4TEBCgKVOm6LrrrrO8/MjJydG4ceNc5UdQUJDefPPNSssP6egw83fffVdPPPGEgoODT3rcsGHDNG3atFOWH5I0cOBAvfzyy66fvX//fi1cuNBVfvj5+em1115zlR9S+cHnzzzzjOvrJSUlevHFF3XaaacpMjJSERER6tu3r55//vlK57FUxWs/baf88EANwwJ1cb/mpmMAAGA5ChAAADyMv91P1w1tbToGKvD8D9u09QBbYQHwDeHh4br77rtdz3fs2KGhQ4dq+fLl5Y7Ly8vTv/71L91yyy0nnKO4uLjCc+fn5+vmm29Wu3bt9OWXX0qSQkNDddppp2n48OHq1q2b7Ha7iouL9dRTT6lt27au7aKs4HA4dOmll5abYfLkk0+qZ8+eVXr93Llz1apVK915550qKCiQzWZTx44ddeaZZ+r00093bXW1YMECjRo1SiNGjFBqauopz3nDDTcoKSlJEydOVKNGjRQQEKDGjRtr0qRJWrlypa699lrXsT/99JM++OADSdKDDz6opk2bSjpa6owYMUK33nqrVq5cqezsbOXk5Oi3337TbbfdpuHDhysnJ6c6/1TlrN17WM9893uNXw/3uWpQKwUH2E3HAADAcmyBBQCAByoodmjwEz/qYE7l+63DWp0aR+izmwYpiIsIAHyA0+nUmDFj9NVXX5X7emJiolq1aqW8vDytW7dO+fn5kqShQ4cqJydHq1atkiSNHz9en376abnXFhUV6ZxzztHChQslSdHR0XrmmWd02WWXKTAw0HVcRkaGnnjiCT399NP688/W++6775RD0+tCaWmprrnmGr399tuur91222167rnnqvT66dOn67rrrnM9v+aaa/Twww+Xm6nidDo1b9483XLLLUpJSZEkderUScuXL1dkZGSt8peUlKhXr17asGGDOnXqpLVr17pWz1xxxRV67733JEmjR4/WDTfcIJvNpldeecX1v+Mrr7xSM2fOrPbPzS0s0XkvLNaujLxa5UfdCw/y19J7hysyxNpVVAAAeAJWgAAA4IGCA+y6elAr0zFQgc0p2frXV6ferx4A6gs/Pz/NmzdP06ZNk5/f///5uGvXLi1cuFBJSUmu8mP06NH67LPPVFhY6DouOjr6hHM++uijrvIjODhYCxYs0NVXX12u/JCkhg0b6sknn9QLL7zg+trjjz+uFStW1OVbPMHtt99ervy4+uqr9eyzz1bptZs3b9bNN9/sen7PPffozTffLFd+SEf/XcePH6+lS5eqYcOGrtfed999tc7/4osvasOGDa7Hf5YfGzdudJUfw4cP1/z583Xeeefp3HPP1fz58zVkyBBJ0jvvvFPpXJaKPPj5BsoPD3Vp/xaUHwAAn0UBAgCAh7rs9JaKCPI3HQMVmLV8t/634dRblQBAfREQEKCXXnpJ69ev19/+9jf17NlTMTExCgwMVPPmzTV27Fh99tln+uKLLxQTE6ODBw+6XtuiRYty5yooKNDzzz/ven799derd+/ep/z506ZNU/fu3SUdXZ3x4osv1uG7K+/+++8vl+/iiy/W9OnTqzT3Q5Kee+45FRUdXb2ZkJCgRx555JTHJyYmlis9ZsyYUastqFJSUvTwww9LOjqAfsSIEa7vffjhh67Hd911V7n35Ofnp7vuusv1/M/ts6rq8zX7NWfV/hqmhjuFBNh17RBuqgEA+C4KEAAAPFRkcIAuP72l6Rg4ibvnrNW+TO50BeA7OnfurGeeeUarV6/WoUOHVFhYqD179mjevHm64IILJEmHDh3SgQMHXK/p169fuXOsWLFCWVlZrudjxoyp9OfabLZyx/3888+1fSsVeuyxx8rNGRkzZozee++9citfKvPDDz+4Hp999tkKCgqq9DV//ttJRwuilStXVvnnHe+uu+5SVlaWwsPDT1i1kpSU5Hp85plnnvDakSNHuh5XZ5XN3kN5emDehhqkhRWuHNhScRHBpmMAAGAMBQgAAB7sqkGtFOTPr2tPlJVfols/XKMSh9N0FADwGGUv3vv5+Z1QgOzfX36VQPPmzat03rLHVTYsvCb++9//6v7773c9HzVqlD755BP5+1dvJWbZ91eT9ybV/P0tXrxY77//viTpH//4h2vw+Z/+nDXSoEGDCouZkJAQxcTESJKSk5Or9DNLHE7d+uFqZReW1Cgz3Csy2F83nNHGdAwAAIziigoAAB4sLiJIl/ZvUfmBMGLVnkw9891W0zEAwGOUHXh+1llnKTY2ttz3j7/w/uf8kMrk5f3/iruQkJBaJDzRG2+8odtvv931fNiwYZo3b16VVm8cr+xravLepJq9v5KSEk2bNk2S1LFjx3Lv509lZ7NUpqrHPvfDNq3ee7jK54W1rhnSWtGhgZUfCABAPUYBAgCAh5t2ZluFMwvEY73283b9vDXddAwAMG7fvn3lZkdMnTr1hGOaNGlS7vmvv/5apXP/9ttvrsfHr2yojVmzZunGG290PR84cKC++OKLGpcsZd9fTd6bVLP39+eMlj8f/zn4vKyoqChJR7cpKygoOOH7+fn5yszMlFTx8PrjLd+RoVcX/VHtrLBGw7BAXTuY2R8AAFCAAADg4RqGBzG80oOVlkp/+2SN0rNPvJgEAL7C4XDohhtucK1mOO200zRu3LgTjuvdu7fCwsJcz19++WU5HI5Tnnvv3r3lVpacccYZdZJ57ty5mjJlipzOo1sZ9u3bV19//bXCw8NrfM4hQ4a4Hi9ZskSrVq2q9DXPPfec63FkZKR69epVrZ+Zmpqqhx56SJI0ceLEcoPPy+rYsaPr8Y8//njC98vOLyl7bEUO5xXp9o/XyFlaraiw0I3D2iiMG2gAAKAAAQDAG1w7pLUahrGFgac6mFOk2z9eKydXggDUM9nZ2fr0009PWVJkZGTooosu0ldffSVJCggI0PTp0yscHh4YGKjJkye7nq9atUpTp05VcXFxhedOTk7WBRdcUG7FwtVXX33SLImJibLZbLLZbBo2bNhJj/vf//6nSy65xPW+evbsqe+++861SqKmpkyZ4npcWlqqCRMmaNu2bRUeW1paqvvuu8/17yZJV1xxRbXnjvw5+DwsLOyEwedllR1y/vTTT6u09P9/ZzmdTj311FMVHluRe+asU8oRin9P1SgyWJcPaGk6BgAAHsFWWvZTDwAA8Fhv/7JTj3yxyXQMnMJdozpo2pltTccAgDqTmpqqxo0bKyEhQWPGjNGAAQPUsmVL2e12HThwQIsWLdInn3yiQ4cOSZLsdrs++OADXXTRRSc9Z3Jysnr16qW0tDTX19q2baurrrpKvXv3Vnh4uNLT0/Xzzz/r7bff1pEjR1zHXXvttZo+ffpJz52YmKjdu3dLOrpSZNGiRRUeFxoaWm5GR79+/dSgQYMq/ZtI0jvvvKOEhIQKv3f55Zdr1qxZruchISG67LLLNHLkSDVu3FgFBQVav3693nnnHa1bt851XJMmTbR69WrFx8dXOcfixYs1dOhQSdJ//vMf3XPPPSc9Ni8vT61bt9aBAwckSaNHj9aNN94om82ml19+2VXENG7cWNu3bz/pNmCvLdqu//xvS5UzwnqPjeuqyf0pQAAAkChAAADwGkUlTg1/ZpH2ZVZtqCqs5+9n00fXDVDfxKpfRAMAT/ZnAVIVMTExmj59usaPH1/psatWrdL555+v5OTkKme56KKLNGvWrArnW/ypqgWIzWar8s+tyM6dO5WYmFjh9woLCzVp0iR9/vnnVT5fixYt9OWXX6pbt25Vfo3D4VDv3r21bt06dejQQevWrVNg4KlXi86fP18XXnjhSVf0+Pv76/PPP9e5555b4fd/3pquKW+vYOsrD9ayYah++NsZCrCz4QcAABJbYAEA4DUC/f10+1ntTcfAKZQ4S3Xj+6uUyrYgAOqJsLAwnXXWWae8sB4dHa3rrrtOW7ZsqVL5IR2dBbJhwwbdcccdla686NOnjz766CN9/PHHpyw/PEVQUJA+++wzvfvuu+rZs+cpj23YsKHuuecerVu3rlrlh3R02PmfK0hefPHFSssPSRozZozmzJmjRo0anfC9Ro0aae7cuSctP/Zk5OmWD1dTfni420a2p/wAAKAMVoAAAOBFnM5SnfvCYm1JzTYdBafQo1mUPrn+dAUF2E1HAYA6UVBQoNWrV2vPnj06cOCA8vLylJCQoMTERA0ePLhWxURxcbHWrVundevWKSMjQ4WFhYqMjFTTpk3Vr18/NW/evA7fifX27NmjlStXav/+/crOzlZwcLAaNmyo7t27q3v37tWe+fGn//73vzp8+LASEhJ04403Vuu1BQUF+uGHH7Rly9GtrDp27KiRI0cqODi4wuPzixy68NVftDmFzx+erH1CuP7316Hy86vdCicAAOoTChAAALzMD5sP6Np3fjUdA5W4sHdTPXtRT9MxAACotVs+WKUv1qWYjoFKvH55H43qcuLqHgAAfBnrIgEA8DIjOyWob8sY0zFQibmr9mv64h2mYwAAUCuv/7Sd8sML9GgWRfkBAEAFKEAAAPBC9/ylo+kIqIL/fLNFP29NNx0DAIAaWbLtoJ789nfTMVAFd5zdwXQEAAA8EgUIAABeqF9iA43oFG86BirhcJbqlg9Xa9fBXNNRAAColr2H8nTzh6vkYOq5xzu9dUMNbR9nOgYAAB6JAgQAAC9116gOYsal5zuSX6yp7/6qnMIS01EAAKiS/CKHrn/vNx3OKzYdBVVw5yhWfwAAcDIUIAAAeKmOjSI1tldT0zFQBdvScnT7x2tMxwAAoErumbNOm1KyTMdAFZzTtZH6MBsOAICTogABAMCL/e2s9gq08+vcG3y/6YCe+Y591AEAnu3VRX9o/tpk0zFQBUH+fnrgvE6mYwAA4NG4YgIAgBdrFhOqSwe0MB0DVfTij3/oq3UppmMAAFChz9fsZ+i5F7n+jNZqFhNqOgYAAB6NAgQAAC/31xHtFBMaYDoGqujO2Wu1Zu9h0zEAAChn2fYM3TV7nUqZee4VmkaH6KZhbU3HAADA41GAAADg5aJDA3XXqI6mY6CK8osdunrmSu08mGs6CgAAkqTfU7N1/Xu/qsjhNB0FVfT3czsqOMBuOgYAAB6PAgQAgHrg4n7N1b1ZlOkYqKJDuUW64q0kpWcXmo4CAPBxqUcKdNXbK5RVUGI6Cqro9NYNNbp7E9MxAADwChQgAADUA35+Nv3zgq6y2UwnQVXtPZSvKW+vUE4hF5wAAGZkFxTr6pkrlXykwHQUVJHdz6YHz+9sOgYAAF6DAgQAgHqiZ/NoTerb3HQMVMPG5Czd8N5vKmbLEQCAxYodTt04a5U2pWSZjoJqmHxaC3VqHGk6BgAAXoMCBACAeuTuczoqKoSB6N5kyR8HdefstaZjAAB8zL1z1mnJHwdNx0A1xIQG6I6z25uOAQCAV6EAAQCgHmkQFqg7z+5gOgaq6fM1yfr3V5tNxwAA+Ihnvvtdc1btNx0D1XTH2R0UHRpoOgYAAF6FAgQAgHrm0v4t1KUJWyN4m+mLd2jGkh2mYwAA6rkPV+zRiz/+YToGqqlz40hdcloL0zEAAPA6FCAAANQzfn42/YuB6F7p0a8264u1yaZjAADqqe83HdA/PttgOgZq4KExnWX348MdAADVRQECAEA91LtljCb0bmY6BqqptFS645O1WrqdPdkBAHVr0e9pmvb+KpU4S01HQTWd372x+rdqaDoGAABeiQIEAIB66p6/dFRkiL/pGKimIodT1737m9bsPWw6CgCgnli6/aCuf+83FTmcpqOgmkIC7LrvvE6mYwAA4LUoQAAAqKdiw4N0+8j2pmOgBnIKS3TFW0namHzEdBQAgJdbsfOQrpn5qwpLKD+80Y3D2qhxVIjpGAAAeC0KEAAA6rErTk9Up8YRpmOgBrLyS3TZm0nakpplOgoAwEut3pOpq2euVH6xw3QU1EBiw1BdP7S16RgAAHg1ChAAAOoxu59Nj4zpajoGaigzr1iXvZmkP9JyTEcBAHiZ9fuO6Mq3ViinsMR0FNSAzSY9MaG7ggLspqMAAODVKEAAAKjnTmvVQON6NTUdAzV0MKdIk6cv186DuaajAAC8xOaULF3+VpKyCig/vNWl/Vsy+BwAgDpAAQIAgA+4/7xOigkNMB0DNZSWXahL3liuXZQgAIBK/JGWo8veTNLhvGLTUVBDTaKCde9fOpqOAQBAvUABAgCAD4gND9LDY7qYjoFaSM0q0MVvsBIEAHByOw/mavL05crILTIdBbXw2IXdFB7kbzoGAAD1AgUIAAA+4oKeTTWqS4LpGKiFoyXIMkoQAMAJ9h7K0+Tpy5WWXWg6Cmrhwt5NNaxDvOkYAADUGxQgAAD4kEfHdlU0W2F5tQNZhbr4jWXakc5gdADAUTsP5uriN5Yr5UiB6SiohbjwID04urPpGAAA1CsUIAAA+JC4iGA9dD5bYXm7A1mFumT6cm2nBAEAn/d7arYuen2Z9h/ONx0FtfTwmC6KDg00HQMAgHqFAgQAAB8zrldTndWZrbC83YGsQl302jJt2H/EdBQAgCHr9h3WpDeWKZ1tr7zeqC6NdF73xqZjAABQ71CAAADgg/49tquiQtgKy9tl5Bbp4jeWa/mODNNRAAAWW7HzkC6dnqTDecWmo6CWokIC9OhYVugCAOAOFCAAAPig+MhgPXQ+e0zXBzmFJbryrRX6dmOq6SgAAIv8vDVdV761QtmFJaajoA78Y3QnxUUEm44BAEC9RAECAICPurB3M43sFG86BupAYYlTN72/Sh+t3GM6CgDAzb5cm6xr3/lV+cUO01FQB85oH6cJfZqbjgEAQL1FAQIAgA97bFw3tsKqJxzOUt07Z71eXfSH6SgAADeZtXy3bv1otYocTtNRUAfCAu3697iupmMAAFCvUYAAAODD4iOD9eBotsKqT5743+/691ebTccAANSx5xds0wOfbZCz1HQS1JW7z+moZjGhpmMAAFCvUYAAAODjxvdppuEd2QqrPpm+eIfunL1WJdwhDAD1wiNfbNRz3281HQN1qF9ijK4cmGg6BgAA9R4FCAAA0GPjuikyxN90DNShT3/bpxtm/aZC9ogHAK9VWOzQrR+u1tu/7DIdBXUoLNCuJyf0MB0DAACfQAECAADUKCpY/ziPrbDqmx82p+nyt1Yoq6DYdBQAQDUdzCnUJdOTNH9tsukoqGOPXNBFrWLDTMcAAMAnUIAAAABJ0sS+zTWsQ5zpGKhjK3Ye0oWvLNXujFzTUQAAVbT1QLbGvvyLVu3JNB0FdWxMjyaa0Ke56RgAAPgMChAAAODy1IQeigsPMh0DdeyPtByNffkXLd+RYToKAKASP29N1/hXlmpfZr7pKKhjzWJC9Oi4rqZjAADgUyhAAACAS1xEkJ65qIdsNtNJUNcy84p1+Ywkfbhij+koAICTmLV8t66auVLZhSWmo6CO+fvZ9MLFvRQZHGA6CgAAPoUCBAAAlDO0fZxuGNrGdAy4QbGjVH+fu17//GKjHM5S03EAAMc4naX65xcb9cBnG/j/n+upv45sp94tY0zHAADA59hKS0v5dAUAAMopcTh10evLtGrPYdNR4CbD2sfpxcm9FMGdqABgVG5hiW79aLUWbE4zHQVuMqB1A31w7QD5+bHEFgAAq1GAAACACu3LzNO5LyxWVj7bcNRX7eLDNePKfmrRMNR0FADwScmH83XtO79qU0qW6Shwk+jQAH3z1yFqHBViOgoAAD6JLbAAAECFmsWE6onx3U3HgBttS8vRBS8vUdJOhqMDgNXW7TusC17+hfKjnntifHfKDwAADKIAAQAAJ/WXro11Wf8WpmPAjTLzinXZm0n6eOVe01EAwGd8vHKvJr62TOnZhaajwI0u7d9Co7o0Mh0DAACfxhZYAADglAqLHbrg5V+0JTXbdBS42dWDEnXfuZ3kb+ceGQBwh4Jih/7x+QbN/nWf6Shws7bx4frylsEKDrCbjgIAgE+jAAEAAJX6Iy1H57+4RPnFDtNR4Ga9W8Topcm91CSa7ToAoC7tzsjVjbNWseWVDwjy99Nn0wapU+NI01EAAPB53N4HAAAq1TY+XI9c0MV0DFhg1Z5MnffCYi3ckmY6CgDUG99tTNX5Ly6h/PAR9/6lI+UHAAAeghUgAACgyv760Wp9vibZdAxYwGaTbjyjje44u4PsfjbTcQDAK5U4nHrq29/1+s87TEeBRYZ3jNdbU/qZjgEAAI6hAAEAAFWWU1ii0S8s1q6MPNNRYJHTWjXQi5f0UkJksOkoAOBV0rIKdMuHq5W085DpKLBIQmSQvr51iBqGB5mOAgAAjqEAAQAA1bJ+3xGNf3WpihxO01FgkYZhgXpuUk8NbR9nOgoAeIWkHRm6+cPVSs8uNB0FFgm0++mT6weoZ4sY01EAAEAZzAABAADV0q1ZlO75SwfTMWChjNwiTXl7hZ757nc5ndw7AwCn8tpP2zX5zSTKDx/zz7FdKD8AAPBArAABAAA1ctP7v+nr9ammY8Bip7dpqBcu7qm4CLbEAoCy0rMLdPen67Xw9zTTUWCxS/u30L/HdTMdAwAAVIACBAAA1EheUYnGv7pUm1OyTUeBxeLCg/TcpJ4a3C7WdBQA8AjfbkzV3+eu16HcItNRYLE+LWP04dQBCvRngw0AADwRBQgAAKixfZl5Ov/FJcrMKzYdBRaz2aTLB7TU3//SSSGBdtNxAMCI7IJiPfLFJn362z7TUWBAfESQvrxlsOIjWRUJAICnogABAAC1smx7hi6fkaQSZkP4pFaxYXpmYg/1bsm+5wB8S9LODN3xyVrty8w3HQUGBNr99NF1A/j9BwCAh6MAAQAAtTZz6S49PH+j6RgwxM8mXT+0jW4/qz1bgACo94pKnHrmu981ffEO0f37rsfGddXk/i1NxwAAAJWgAAEAAHXinjnr9PHKvaZjwKCOjSL07EU91LlJlOkoAOAWW1KzdPvHa5h/5eMuOa25Hr+wu+kYAACgCihAAABAnSgqceqS6cv12+5M01FgUIDdpltHtNNNw9rK7mczHQcA6oTTWarpi3fo2e+3qrDEaToODOrdIlofXXc6Kx4BAPASFCAAAKDOpGcXaMxLvyjlSIHpKDCsZ/NoPTOxh9rEh5uOAgC1si8zT3fOXqvlOw6ZjgLD4iOC9MUtg5XA0HMAALwGBQgAAKhT6/Yd1sTXlnGHLBTk76e7z+mgawa3Nh0FAKrN4SzVW7/s1HPfb1VekcN0HBgWYLfpo+tOVx+GngMA4FUoQAAAQJ2bt3q/bv94jekY8BD9EmP06Nhu6tAownQUAKiStXsP675567UxOct0FHiIR8d21WUDGHoOAIC3oQABAABu8e+vNmv64h2mY8BD+PvZdM3gVvrryHYKDfQ3HQcAKpRTWKKnv/1d7y7bJSd/KeOYSf2a64nxDD0HAMAbUYAAAAC3cDhLdfXMlfppa7rpKPAgTaND9PCYzjqrcyPTUQCgnP9tSNXD8zcqNYs5Vvh/fVrG6IOp/RXkbzcdBQAA1AAFCAAAcJus/GJd8PIv2nkw13QUeJiRneL18JguahYTajoKAB+XfDhfD83fqO83HTAdBR6mdWyY5tw4UDFhgaajAACAGqIAAQAAbrU9LUdjX/5F2YUlpqPAw4QE2HXriLa6dkhrBdj9TMcB4GMczlLNXLpTz363VbkMOcdxYsMDNffGQWrRkKIeAABvRgECAADcbsm2g7pq5goVO/jYgRO1iw/Xo+O6qn+rhqajAPAR6/cd0d/nrdOG/Qw5x4lCA+366LoB6t4s2nQUAABQSxQgAADAEp+v2a/bPl4jPnngZCb0aaa//6WjGoYHmY4CoJ5KyyrQM99v1exf9zLkHBWy+9k0/Yq+Gt4x3nQUAABQByhAAACAZaYv3qF/f7XZdAx4sKiQAN06oq0uH5CoQH+2xQJQN/KLHHpj8Q69/tN25bHdFU7hsXHdNLl/C9MxAABAHaEAAQAAlnr0q016c/FO0zHg4Vo0CNVdozro/B5NTEcB4OXmrNqnp7/9XSlHCkxHgYebdmZb3TWqg+kYAACgDlGAAAAAy9364WrNX5tsOga8QM/m0fr7uR2ZDwKg2pJ2ZOjRrzZr/f4jpqPAC4zr1VTPTeppOgYAAKhjFCAAAMByRSVOXTVzhX75I8N0FHiJkZ3ide9fOqltfLjpKAA83M6DuXr86836btMB01HgJQa1baiZV52mADtbLwIAUN9QgAAAACNyCks06fVl2picZToKvITdz6ZJfZvr9rPaKS4i2HQcAB7mcF6Rnl+wTbOW71axgz9zUTUdG0Vo9g2nKyI4wHQUAADgBhQgAADAmPTsAo17Zan2ZeabjgIvEhZo19ShrXXd0NYKDfQ3HQeAYQXFDr23fLde+vEPHckvNh0HXqRxVLDm3jRQjaNCTEcBAABuQgECAACM2pGeowmvLdOh3CLTUeBl4iKCdNuIdrqoX3O2LQF8UH6RQ7OSduuNn3YoPafQdBx4mchgf31yw+nq2CjSdBQAAOBGFCAAAMC4NXsydcn0JOUXO0xHgRdqGh2iG85oo4v6NVOQv910HABuRvGB2gqw2/TO1adpYJtY01EAAICbUYAAAACP8OOWNF337q8qcfLRBDWTEBmk64e20eT+LRQcQBEC1Df5RUe3unrj5+06mMOqQdSMzSY9e1FPjevV1HQUAABgAQoQAADgMT75da/u/nSd6RjwcrHhgbp2SGtdPqClwoKYEQJ4u/wih95dtkvTF++g+ECtPTq2qy4b0NJ0DAAAYBEKEAAA4FFe/HGbnvluq+kYqAdiQgN09eBWunJgoiKDA0zHAVBNFB+oaw+O7qyrB7cyHQMAAFiIAgQAAHicf325STOW7DQdA/VEZLC/pgxK1NWDWik6NNB0HACVyMov1gdJezR98Q5l5FJ8oG7ce05H3TCsjekYAADAYhQgAADAIz3w2QbNWr7bdAzUI2GBdl1+ektdNaiVEiKDTccBcJydB3P19i879elv+5RX5DAdB/XI7SPb6a8j25uOAQAADKAAAQAAHuueOev08cq9pmOgngmw23Rut8a6ZnArdW8WbToO4POWbj+oGUt26sctaeKvU9S1m4a10d3ndDQdAwAAGEIBAgAAPJbTWao7P12ruav2m46CeqpvyxhdPbiVRnVpJLufzXQcwGcUljg0f02y3v5llzalZJmOg3rqmsGt9I/RnU3HAAAABlGAAAAAj+ZwluqvH63Wl+tSTEdBPdYsJkSXDWipSX2bKyaMOSGAuxzMKdT7y3dr1vI9Ss8pNB0H9djlA1rqX2O7mo4BAAAMowABAAAer8Th1LQPVuvbjammo6CeC/L305geTXTF6Ynq1izKdByg3tiSmqUZS3Zq/ppkFZY4TcdBPTepX3M9Mb676RgAAMADUIAAAACvUFTi1I3v/6YFm9NMR4GP6NU8Wpef3lLndW+sIH+76TiA18kvcuir9cn6cMVe/bY703Qc+IhxvZrqmYk95Me2hgAAQBQgAADAixSVOHXT+7/pB0oQWCg6NEDnd2+i8X2aqWfzaNNxAI+3Yf8RfbRijz5fk6zswhLTceBDRndvrOcv7sVMJwAA4EIBAgAAvEpRiVPTPlil7zcdMB0FPqhtfLgm9G6mcb2bKiEy2HQcwGMczivS/LXJ+njlXm1MZqg5rDeqS4Jentxb/nY/01EAAIAHoQABAABehxIEptn9bBrSNlbj+zTT2Z0TFBTAFlnwPSUOp37amq5Pf9unBZvTVORgtgfMGNYhTm9c3leB/pQfAACgPAoQAADglYodTk17f5W+owSBYZEh/hrdrYkm9Gmm3i1jTMcB3G5Lapbm/LZfn63Zr/TsQtNx4OOGtovV9Cv6UkQDAIAKUYAAAACvVexw6uYPVunbjZQg8AytY8M0vk8zndetsRJjw0zHAerMpuQj+mp9qv63IUXb03NNxwEkHd326oVLeinIn/IDAABUjAIEAAB4taMlyGp9uzHVdBSgnA4JETqnayOd07WROjWONB0HqLb1+47o6/Up+mZDinZl5JmOA5QztmdTPT2xOzM/AADAKVGAAAAAr1ficOreuev16W/7TEcBKtSiQahGdTlahvRhmyx4sDV7MvX1hlR9syFFew/lm44DVGjyaS306Niu8vOzmY4CAAA8HAUIAACoN/791WZNX7zDdAzglOIjgnR25wSN6tpIp7duyN3LMO633Zn6en2K/rchVfsPU3rAs107pJUeOK+z6RgAAMBLUIAAAIB65bVF2/Wf/20xHQOokqiQAI3oFK9RXRppYJuGiggOMB0JPuBgTqEWbzuoxdvStXjrQaXnMMgc3uGvI9rp9rPam44BAAC8CAUIAACodz5auUf3z9sgh5OPOfAe/n42dW8WrcHtGmpw2zj1ahGtAFaHoA4UlTj12+5MLd6Wrp+2pmtTSpb4KxDe5r5zO+m6oa1NxwAAAF6GAgQAANRL325M1a0frlZhidN0FKBGwgLtOq1VQw1pF6tBbWPVoVGE6UjwIjvSc7R420H9vC1dy7dnKLfIYToSUCN2P5sev7CbLurb3HQUAADghShAAABAvbVse4amvvurcgpLTEcBai0uIkiD28ZqcNujhUijqGDTkeBBUo7ka9Xuw1q6/aB+2pqufZnM8oD3C/L304uX9NLZXRqZjgIAALwUBQgAAKjX1u87oilvr1BGbpHpKECdahMXrt4to9WrebR6tYhR+4QI2f1spmPBAsUOpzYmZ2n1nkz9tvvofylHCkzHAupURJC/pl/ZVwNaNzQdBQAAeDEKEAAAUO/tPJiry2ckcUc06rXQQLu6NY1Sz2OFSM/m0awSqScycgq16ljZsWrPYa3bd1gFxWzvh/qrYVig3rn6NHVtGmU6CgAA8HIUIAAAwCekHinQFW8laeuBHNNRAMs0igxWzxZHV4n0bBGt7k2jFRJoNx0Lp3Akv1hbUrP0e2q21uw9rN92Z2p3Rp7pWIBlmsWE6N2rT1PruHDTUQAAQD1AAQIAAHzG4bwiXT3zV63ak2k6CmCE3c+mFg1C1T4hXG3jI9Q+IVzt4sPVJi5cQQEUI1YqLHboj/QcbUnN1u9l/kvNYisr+K72CeF69+r+rF4DAAB1hgIEAAD4lPwih26c9ZsWbU03HQXwGHY/m5rHhKh9QoTaxoerXcLRcqRNXLiCKUZqpajEqf2H87X1QPaxsuPo6o5dGXlyOPlTDPjTGe3j9NLkXooIDjAdBQAA1CMUIAAAwOcUO5y645O1mr822XQUwKP52aTmDULVskGomkSHqEl0iJoe+59NooPVOCpEgf5+pmMaVexwKvlwvvZl/vlfnvYeOvo/92XmKy27QPQcwKldcXpLPXR+F9n9bKajAACAeoYCBAAA+Kznvt+q5xdsMx0D8Fo2mxQbHnSsFAkuV5A0igxWVEiAokMDFBkcID8vu7BZWOJQZm6xMvOKlJlXpEO5RcrMLdbBnELtPVZu7D2UpwNZFBxATdn9bHrgvE66alAr01EAAEA9RQECAAB82hdrk3Xn7LUqLHGajgLUWzabFBHkr6jQgKOlSEigokIC/r8gOfY/o0ICFBJgV6C/nwLtfgryP/b42H92m012P8nPZpPdzyY/P5vstqPFSlGJU4UlThWVOFXkcKqwxHH08bGvF7oeO45+v9ipI/nFOpxXpEPHio5DuUfLjszcIuUWOQz/qwH1W3iQv168pJfO7BhvOgoAAKjHKEAAAIDPW7v3sKa++6vSsgtNRwEAoN5rEhWsGVP6qVPjSNNRAABAPefbG/YCAABI6tE8WvNvHqyuTbkQAwCAO/VoFqXPbx5E+VFP7Nq1SzabzfVffbFo0SLXe0pMTDQdBwBQCxQgAAAAkhpFBWv29QN1brdGpqMAAFAvndutkT6+/nTFRQSbjlJlU6ZMKXeB32azaenSpVV+/bBhw1yvu/POO92YFAAAVIQCBAAA4JiQQLteubSPbh3R1nQUAADqlZuGtdErl/ZRcIDddJRae+CBB0xHAAAAVUQBAgAAcJy/ndVBL1zcU0H+fFQCAKA2Au1+enpid919TkfTUerMwoULtWDBAtMxAABAFfBXPQAAQAXG9Gyqj68/XfERQaajAADglaJDA/TeNadpQp/mpqPUufvvv990BI+QmJio0tJS138AAHgaChAAAICT6Nk8Wp/fPEhdmjCoFQCA6mgdG6Z5Nw1S/9YNTUepM23b/v8WmUlJSfriiy8MpgEAAFVBAQIAAHAKjaNC9OkNA/WXrgxHBwCgKoZ3jNe8aYPUKjbMdJQ61aNHD40bN871/MEHH2TVAwAAHo4CBAAAoBIhgXa9ehnD0QEAOBW7n013jeqgt6b0U1RIgOk4bvGvf/1Lfn5HL6WsWbNGs2fPrvOfsX//fv373//WoEGD1LhxYwUFBSk+Pl59+vTR3//+d23evLnOf+aUKVNks9lks9n08MMPS5KcTqc+//xzTZw4Ue3atVN4eHi570vSrl27XK+z2WzVOr/D4dAnn3yi8847Ty1btlRwcLCaNGmiUaNG6d1335XD4ag098MPP+w675QpU1xf/+abbzRhwgS1adNGISEhio+P19ChQ/Xyyy+roKCgJv9EVfLDDz/opptuUrdu3RQbG6ugoCA1bdpUZ511ll544QXl5uZW+VybNm3SXXfdpQEDBig2NlaBgYEKCQlRQkKCTjvtNF177bWaOXOmDh065Lb3AwD1gb/pAAAAAN7ib2d1UMdGkbrn03XKLiwxHQcAAI8RGx6oFy7ppYFtYk1HcasuXbro4osv1gcffCBJeuihhzR+/HjZ7fY6Of+zzz6rBx988IQL5enp6UpPT9eqVav09NNP65ZbbtGTTz4pf3/3XNY5cOCALr30UrcNe09PT9ekSZO0cOHCcl9PSUlRSkqKvvvuO7366quaPXu2mjVrVuXz5ubm6pprrtHHH39c7usFBQVKT0/X4sWL9dJLL+mTTz5Rt27d6uS9SNL27ds1derUE96PJCUnJys5OVk//PCD/vOf/+jtt9/WqFGjTnqu0tJS3XPPPXrmmWfkdDrLfa+4uFgFBQVKS0vTypUrNWPGDHXq1EmbNm2qs/cCAPUNK0AAAACq4dxujfXFLYOZCwIAwDF9W8boq1uH1Pvy40+PPPKIq3jYsmWL3nvvvTo57x133KE77rijXPnRtm1bDRs2TF27dnWtsCgpKdFzzz2nCRMmqKSk7m/IKCws1LnnnusqPxISEjR48GANGDBAMTExtT5/SUmJLrjgAldZ0KhRIw0dOlR9+/ZVUFCQ67jly5drxIgRSk9Pr/K5p0yZ4io/GjRooEGDBql///4KDw93HbNlyxaNHDlS27Ztq/V7kaRVq1Zp4MCB5cqPyMhI9e/fX2eeeabatWvn+npKSorOP/98zZs376Tnu//++/XUU0+5yg+bzab27dtr2LBhGj58uHr16lXu/RxfkgAAyqMAAQAAqKbE2DDNvWmgLu3fwnQUAACMunZIK3103QAlRAabjmKZtm3blttu6ZFHHlFxcXGtzjl79mw9++yzruf9+vXTmjVrtG3bNi1cuFDr16/Xzp07NXr0aNcxn3/+uR5//PFa/dyKvPzyy1q1apXatGmjb7/9VikpKVq8eLGWLVumAwcO6JprrqnV+V9//XUtW7ZMcXFxmjNnjvbv36+ffvpJK1euVGpqqm6//XbXsVu3btW0adOqdN6vvvpKn376qcLCwvTGG28oNTVVS5Ys0fLly3XgwAE9/vjjruIqLS1Nl19+ea3Lg4yMDI0ZM0ZpaWmSpA4dOmj+/Pk6dOiQli9frh9//FFbt27V5s2bNXLkSElHV3FcddVV2r179wnnS01N1dNPP+16PnXqVCUnJ+v333/XwoULtWDBAq1atUpZWVlavXq17r//fsXFxdXqPQBAfUcBAgAAUANB/nb9e1w3vXBxT4UF1s22FwAAeIuIIH+9ellvPXBeZ/nbfe/SwoMPPuharbBr1y69+eabNT5XUVGRbr31Vtfz3r17a+HCherRo0e541q2bKnPP/9cY8aMcX3tX//6l/bt21fjn12R7OxsNW/eXEuWLNHZZ59dbrZHQECAmjdvXqvzHzx4UGFhYfr+++914YUXumaqSFJ0dLSeffZZPfDAA66vzZ49W4sXL67Sef38/DRv3jxNnTpVAQH/P4cmNDRU9957r1577TXX15KSkvT+++/X6r387W9/0/79+yUdLa1Wrlyp888//4Qt0Tp27KhvvvlGf/nLXyRJR44c0T//+c8Tzvf999+7yrTBgwfrjTfeUKNGjU44zmazqWfPnnr00Ue1aNGiWr0HAKjvfO9TCgAAQB0a07Op5t8yWB0bRZiOAgCAJTo2itD8WwbrL10bm45iTPPmzXX99de7nj/66KM1Hq49Z84cpaamSjp6YXvGjBkKCwur8Fg/Pz+98cYbiog4+rmjuLhYr7/+eo1+7qk8++yzFV54ryv33HPPCQVPWQ899JDat2/vel62uDiVKVOm6Kyzzjrp96+55hqdeeaZ1T5vRfbt2+eaBRMYGKgPP/zQ9b+Xivj7++uNN95wFTMffPCBjhw5csI5/zRo0KAq5air+TMAUF9RgAAAANRSm7hwfTZtkC7qW7s7IgEA8HTjezfVvJsGqVVsxRfofcl9992n0NBQSUcHXb/88ss1Os9nn33menzGGWeoZ8+epzw+ISFBkydPrvD1dSEuLk5jx46t03OW5e/vrxtvvLHSY8oWTPPnz6/SdlW33HJLpcfcfPPNrsdLly51bV9VXR999JFrBsvo0aPVpk2bSl/TrFkznXHGGZKODmZfunRpue8HB///VnLr1q2rUS4AQHkUIAAAAHUgOMCuJyd01zMX9VBIAHfiAQDqlyB/Pz02rpueuainQtj6UdLRIqLsBff//Oc/ysnJqfZ5kpKSXI//3CKpMmVngWzatEnZ2dnV/rknM2DAANesDHfo06ePYmNjKz2u7L9FTk6OtmzZcsrjExISKi2PJGnUqFHltvX69ddfK31NRcpuyzV8+PAqv65r166ux6tWrSr3vT59+rgef/PNN7rvvvtOWCUCAKge9/1GAwAA8EHjezdTt6ZRuun9VfojrfoXQQAA8DTNYkL06qV91K1ZlOkoHufuu+/Wq6++qqysLB08eFD//e9/y82vqExJSUm5YdjdunWr0uvKHud0OrVz505179696sFPoSorGWqjbAFwKu3bt1dAQIBrJsa2bdvUuXPnWp83LCxMiYmJ2rlzp+u8NbFhwwbX4xkzZuiLL76o0uv++OMP1+ODBw+W+96QIUPUu3dvVzHy+OOP67nnntOIESM0fPhwDR48WH369GHbKwCoBgoQAACAOtY+IULzbx6kBz7boLmr9puOAwBAjQ3vGK/nJvVUVEhA5Qf7oAYNGuiOO+7QQw89JEl6+umnNW3aNMXExFTp9YcPHy73vGHDhlV63fErKDIzM6v0uqo41RyLulDV92i32xUVFeUqCY7/t6rpef889s8CpLLznkxGRobr8erVq2t0juNXd9hsNs2ZM0fnnnuuNm/eLOnoVllfffWVvvrqK0lSZGSkzj77bE2ZMkXnnXdejX4uAPgStsACAABwg9BAfz17UU/9Z3w3BfnzkQsA4F2CA/z08JguemtKP8qPStx+++2ui+9HjhzRU089VeXXFhYWlnseGBhYpdcdf9zx56kNPz/3fm6p6nuUpKCgINfjyt6ju857Mrm5uTV6XVkVzTVJTEzU6tWr9cILL1S4qicrK0uffvqpRo8erdNPP91V5AAAKsZf4wAAAG50cb8W+mzaILWJY1gsAMA7dGsapa9uGaIpAxNNR/EKERERuueee1zPX3jhhSoP1o6KKr+tWFVneRx/XHR0dJVe5wmqM6+k7LGRkZFGznsyZf93N3v2bJWWllb7v5kzZ1Z47qCgIN1yyy1au3at9u/fr1mzZmnq1KknbE+2fPlynXnmmXW6AggA6hsKEAAAADfr1DhSX94yRFcOTFSZmZsAAHgUu59Ntwxvq7k3DVSb+HDTcbzKzTffrMaNG0s6ujLgscceq9LrwsPDFRIS4npe1bv5t2/fXu55XFxcFZOaV9X3eOjQIWVlZbmex8fH18l5S0tLtWvXriqf92QSEhJcj6taeNVEkyZNdOmll+qNN97QH3/8odWrV+vCCy90fX/37t166aWX3PbzAcDbUYAAAABYICTQrkfGdNGsa/qraXRI5S8AAMBCiQ1D9ekNp+uOszsowM6lguoKCQnR/fff73r+2muvad++fVV6ba9evVyPV6xYUaXXJCUluR7HxMQoMTGxakE9wK+//qrS0tJKjzv+36Lsv1NFNm/eXKVVIL///nu5YqV3796VvqYiAwYMcD1evnx5jc5REz179tSnn36qM8880/W17777zrKfDwDehk81AAAAFhrUNlb/u22IJvZpZjoKAACSpMmntdDXfx2iXi2qNrgbFZs6dapatmwp6ehciX/9619Vet2QIUNcj+fMmaPi4uJKXzNr1izX48GDB8vmRUtMk5OTtXjx4kqP++ijj1yPu3TpUulg+eLiYs2bN69a542OjlbXrl0rfU1FRo0a5Xr8+eefnzDQ3J1sNpvGjBnjen7gwAHLfjYAeBsKEAAAAItFBAfoqYk9NP2KvooLD6r8BQAAuEFceJDemtJPj13YTaGB/qbjeL3AwEA9+OCDrudvvfWWdu/eXenrrrrqKtfj1NRUPf/886c8fs6cOeVWgFxzzTU1SGvWAw88cMpVIJs2bdL777/vej5lypQqnfef//ynCgoKTvr99PT0cv++l156qfz9a/Z/+xdeeKGr8MrKytIdd9xRo/OUVZWVMX8qu9qlQYMGtf7ZAFBfUYAAAAAYclbnBH17+1Cd262R6SgAAB8zqksjfXv7UA3vWLP5B6jYlVdeqfbt20uSSkpKys2aOJkOHTpowoQJruf33XefPvvsswqPXb58ua6++mrX8x49emj06NG1ymzC4sWLdeutt8rhcJzwvX379mns2LEqKSmRdHS+SVVLnu3bt2vy5MkVliCZmZkaO3asDh8+LEkKDg7WbbfdVuP34O/vryeeeML1fMaMGbrhhhuUl5d3ytfl5uZq5syZGjFixAnfu/3223Xfffdp7969pzzHzp079corr7ieDx06tJrpAcB3cIsHAACAQQ3CAvXKpX00f81+/ePzjTqSX/m2FwAA1FREkL8eGtNZE/o0Nx2lXrLb7XrkkUd0ySWXVOt1L7/8shYvXqwDBw6ouLhY48aN0/jx4zV+/Hg1bdpUBw8e1Ndff6133nnHVQwEBwfr3Xffld1ud8dbcZsLLrhA33zzjV566SUtXbpU1157rTp27Kj8/HwtXrxYr732mqukkKTnn3++0u2vJGnEiBFavXq15s2bp+7du+uGG25Qjx49VFJSol9//VWvvPKKkpOTXcc/+OCDatu2ba3ey6RJk5SUlKTnnntOkvT6669rzpw5mjx5sgYOHOgalJ6ZmaktW7YoKSlJ33//vfLy8soNUf/T4cOH9fzzz+s///mPBg4cqDPOOEM9evRQXFycAgIClJqaqp9//lkzZ850rQCJjIzUrbfeWqv3AQD1GQUIAACABxjTs6n6t26oe+as06Lf003HAQDUQ6e1aqBnL+qhZjGhpqPUa5MmTdLjjz+udevWVfk18fHxWrhwoc466yzt379f0tGtrubMmVPh8REREZo/f766d+9eJ5mt1LNnT5133nm64YYbtGrVKt30f+3de2yV933H8a9vx9jGBhvM1ZhAai4NTlpSSpIlQNc0ash6TbQuWbul6cK0qoqWaVOapl2TqZepm6o1mrZGW5akm7poI9mWqg1ZL0pTYLmUhBC8XAw4JgZsMNiA8f2yP8xY1iYpEOCxf369pCMfOEdHHyGQjvTmeX6f/eybvverX/3qScekmpqauPXWW+Paa6+NxsbGt7wl1bp16+L2228/5e1v5Jvf/GZMmzYtvvSlL8XIyEi0t7fH3XffHXffffdpf+bIyEhs2rQpNm3a9JbvKysri/Xr10dNjbPlAN6MW2ABAIwRMysmxf2ffm98/eP1UZYbX/+bE4CxK1eQH5+/ekk8ePMl4sc5kJeXd9IHoL/e0qVLY9u2bXHLLbdEWVnZG76nqKgorr/++ti+fXusWbPmbS7Nzs033xzf//73o66u7g1fX7BgQTzyyCPxhS984ZQ+95prromNGzfG8uXL3/D1GTNmxL333hv33HPPKW9+K3fccUds3bo1rrvuuigufuvz3ZYsWRK33XZbPP7447/02rp16+Kmm276lUFj0qRJccMNN8T27dvjAx/4wNuZDpC8vJFTOWEJAIBz4rVD3fEn65+PJ3cdynoKAOPYe+ZXxtc+Xh+LZpZnPYVT0NvbG0888UTs2rUrDh06FBUVFVFbWxtr1qyJioqKrOedshtvvDEeeOCBiIj48pe/HHfeeeeJ15566qloaGiItra2qKqqivr6+rj00ksjLy/vV37unXfeGXfddVdEjJ6/cv/99594bdu2bfHcc8/Fvn37ory8PJYsWRKrV68+7UPPT1ZPT09s2rQpmpqa4uDBgxERMWXKlFi4cGHU19fHnDlzTupzdu/eHS+88EI0NzdHZ2dn5OXlxZQpU2Lx4sWxYsWKcfn3ACALboEFADAGzasqjQfXXRr3btwVf/HYy9E7MJz1JADGkYqSwvj8B5fGDStrs57CaZg0aVJcddVVWc84J1auXBkrV64845974YUXZnKLsJKSkrjyyivf9ufU1tZGba1/vwBvl1tgAQCMYZ+5fGH88NbV8b7FM7KeAsA48eGL5sSP/2iN+AEATHiuAAEAGOPmVZXGfZ9eERu2t8Zd32uIfYd7s54EwBhUW1UaX/nosli1qDrrKQAAY4IAAgAwTnxw2ay4om56/NWPGuO+TU0xOOwoNwAiigry4uYrFsYt76+LSUUFWc8BABgzBBAAgHGkrLgw7rhmaXx8+dz44r9vjy3NHVlPAiBDF8+vjK99rD4Wz3LIOQDALxJAAADGoaWzK+KhP7gsHnxmd/z5oy9FZ/dA1pMAOIdGDzlfEjesnJ/1FACAMStvZGTEvRMAAMaxDs6mdAAAEixJREFUQ8f64+uPvhjrt7SEb3YA6fvQhbPjTz/0zqgun5T1FACAMU0AAQBIxDOvHoov/tv2eLntaNZTADgL5lWVxFc+sixWL56R9RQAgHFBAAEASMjg0HDcu7EpvvXjxujuH8p6DgBnQHFhfvzeFQvjc+97R5TkHHIOAHCyBBAAgATt6eyJP/teQzzW0Jb1FABOU15exIcunBO3Xb0k5k4tyXoOAMC4I4AAACTsiVcOxNcffTFe3Oe2WADjyXvmV8YXf+Od8a55U7OeAgAwbgkgAACJGx4eiYefa4m/fOyVaD3Sm/UcAN5CbVVpfP7qJbG2fnbWUwAAxj0BBABggugdGIp7NzbFtx/fGUf7BrOeA8DrVJQUxufeVxc3XnZe5Arzs54DAJAEAQQAYII52NUXd/9kR3z3qeYYGPJVECBLhfl58duXzI8/fH9dVJblsp4DAJAUAQQAYIJqaj8W39jwUjy6vTXrKQAT0pVLZ8Tta5fG+dWTs54CAJAkAQQAYIJ7trkjvvqDF2NLc0fWUwAmhAvmVMQd1yyNy86fnvUUAICkCSAAAERExIbtrfGNDS/FrvZjWU8BSNLMiuL446sWx7XLayI/Py/rOQAAyRNAAAA4YXBoOL779O741o8a4+Cx/qznACRhWlkubl61MH7n0vlRmivMeg4AwIQhgAAA8Eu6+gbjnp/ujPs2vRpdfYNZzwEYl6aV5WLdqoXxKeEDACATAggAAG+qs7s/7tv0aty3uSmO9AghACdj+uRcrFt1fnzqkvlRkivIeg4AwIQlgAAA8Csd6R2I72xujns37oqO7oGs5wCMScIHAMDYIoAAAHDSjvUNxj892Rx//7OmONDVl/UcgDGhenJxrFu9MD65UvgAABhLBBAAAE5Z78BQ/PPTu+PbP90ZbUeEEGBiEj4AAMY2AQQAgNPWNzgU//rzlvjbx3fGns6erOcAnBPVk4vj91cvjE9eMj8mFQkfAABjlQACAMDbNjA0HA8/uyf+5vEd0XywO+s5AGeF8AEAML4IIAAAnDFDwyPxyPN7469/siN2HujKeg7AGVE3Y3LcdPmC+Ni75wofAADjiAACAMAZNzw8Eo9ub42/+9mu2PpaZ9ZzAE5ZXl7E6rrquOnyBbFqUXXWcwAAOA0CCAAAZ9WW5o74h41NsaGhNYaGffUExrZJRflx7fKa+PSvLYh3zJic9RwAAN4GAQQAgHNiT2dPPLD51Xjwmd1xpGcw6zkA/8/MiuL43UvPi+vfWxuVZbms5wAAcAYIIAAAnFPH+gZj/ZaWuH/zq9HUfizrOcAEVz93Snzm8gVxzYWzo6ggP+s5AACcQQIIAACZefzl/fHA5ub46Sv7w92xgHMlPy/iqgtmxWcuXxArzqvKeg4AAGeJAAIAQOZ2H+yOf3yyOf7l56/F4Z6BrOcAiSovLozfXDEvbrzsvJhXVZr1HAAAzjIBBACAMaN3YCj+Y+ve+M5/vRoNe49kPQdIxAVzKuL699bGR989NyYXF2Y9BwCAc0QAAQBgTHq2uSO++/Tu+MEL+6K7fyjrOcA4U15cGB9515z4xIraqK+ZkvUcAAAyIIAAADCmdfcPxqMvtMb6LS3xZNPB8O0VeCsXz6+M31oxL665cHaU5lztAQAwkQkgAACMGy0d3fHQs3vi4Wdbovlgd9ZzgDFi+uRcfORdc+MTK+bFopnlWc8BAGCMEEAAABiXnm46FOu3tMQPXtgXXX2DWc8BzrFcQX78+tIZcd3FNbFmUXUUFuRnPQkAgDFGAAEAYFzr6R+KDQ2t8dCWlti8sz2GfbuFpNXPnRLXXVwTH75oTlSW5bKeAwDAGCaAAACQjL2dPfHws3vioWdboqn9WNZzgDOkprIk1tbPjmuX18TiWW5xBQDAyRFAAABI0pbmjnhoS0tsaGiNQ8f6s54DnKLaqtJYWz8rrl42Oy6aNzXrOQAAjEMCCAAASRsaHolnXj0UG7a3xn82tMbew71ZTwLexILpZXH1slmxtn52LJs7Jes5AACMcwIIAAATyvOvdcZjDa3xWENr7DzgNlmQtfOrJ8fa+tHosXR2RdZzAABIiAACAMCE1dh2NDY0tMaG7a3RsPdI1nNgwlg0c3KsrZ8da+tnx6KZzvQAAODsEEAAACAiWjq647HjMWRLc0cM+5YMZ9TS2eVx9bLR6PGOGZOzngMAwAQggAAAwC84cLQvfvjfbfFYQ2ts3tkeA0O+MsOpKssVxKXnT4sr6qpj9aLqOG96WdaTAACYYAQQAAB4C0d7B+LJXQdj446DsbHxgHND4E3k5UVcMKciVtVVx6pF1bG8tjJyhflZzwIAYAITQAAA4BTsO9wTm3a0x88a22PzjoNxoKsv60mQmery4riibnqsqquOy+umx/TJxVlPAgCAEwQQAAB4G15qPRIbG9tj4472eLrpUHT3D2U9Cc6aXEF+vOe8yli1aPS2VktnV2Q9CQAA3pQAAgAAZ0j/4HA8t7sjNu5oj0072uP5lsMx5DR1xrnzqyfHqkWjV3lcsnBalOQKsp4EAAAnRQABAICz5EjvQDy582Bs3NEeW5o74uXWozEoiDCGleYK4qKaqfHu2qlx8fzKWF5bGZVluaxnAQDAaRFAAADgHOnpH4oX9hyOra91xtbXOmLr7s7Ye7g361lMYDWVJbG8tjIunj/6WDKrPAoLHFwOAEAaBBAAAMhQ25He0SCyuzO2vtYZ21o645hzRDgLigvzY9ncKSeCx/LaqTGjYlLWswAA4KwRQAAAYAwZGh6JV9qOHr9KpDOe290RO/Z3hTtncSry8iLmVZbGBXMqTtzKatncKZErdHUHAAAThwACAABjXFffYGxr6Yzte45E4/6j0djWFTv2d0VX32DW0xgDppXlYvGs8hOPJTPLo25meZQVF2Y9DQAAMiWAAADAOLWnsyd2tB2NV/Z3RWNbVzS2HY0d+7viqDCSpJKigqibOXk0cswqj8UzK2LxrPKoLi/OehoAAIxJAggAACRmb2dP7NjfFa+0HY3G/aNhpLFNGBkvSooKoqay5HjsqDgeO8qjtqo08vPzsp4HAADjhgACAAATxL7Do2GkpaMn9h3uib2dvbGnsyf2dvZE6+He6BscznrihDCpKD/mTi2NeZUlUVNZEjWVpVFTdfxnZUlMn+yKDgAAOBMEEAAAICIiDhztjT2dvbH3eBTZ29kTezp7j8eSnmjv6s964rhQXJgfc6eWxLyq0uOB4//iRk1lqVtWAQDAOSKAAAAAJ6VvYCj2Hh4NJPuP9kVnd38c6RmIzp6BOHz80dl9/Pnxn/1D4/uqkoL8vJhaUhRTS3NRVVYUVWW5qCw9/igb/b2ppbmoOvHrXEwpKcp6NgAAEAIIAABwFnX3D56II/8bRV4fTHr6h6JvYCj6hoajf/D44/XPB4djcHgkhkdGYmh49HHi+chIDA9HDI+MRGFBXuQKCmJSUX7kCvIjV5gfxYWjP0efF4w+L8iP4uPvKf6F1yYV5Z+IGVNLR2PH1NJc1n+EAADAaRJAAAAAAACA5ORnPQAAAAAAAOBME0AAAAAAAIDkCCAAAAAAAEByBBAAAAAAACA5AggAAAAAAJAcAQQAAAAAAEiOAAIAAAAAACRHAAEAAAAAAJIjgAAAAAAAAMkRQAAAAAAAgOQIIAAAAAAAQHIEEAAAAAAAIDkCCAAAAAAAkBwBBAAAAAAASI4AAgAAAAAAJEcAAQAAAAAAkiOAAAAAAAAAyRFAAAAAAACA5AggAAAAAABAcgQQAAAAAAAgOQIIAAAAAACQHAEEAAAAAABIjgACAAAAAAAkRwABAAAAAACSI4AAAAAAAADJEUAAAAAAAIDkCCAAAAAAAEByBBAAAAAAACA5AggAAAAAAJAcAQQAAAAAAEiOAAIAAAAAACRHAAEAAAAAAJIjgAAAAAAAAMkRQAAAAAAAgOQIIAAAAAAAQHIEEAAAAAAAIDkCCAAAAAAAkBwBBAAAAAAASI4AAgAAAAAAJEcAAQAAAAAAkiOAAAAAAAAAyRFAAAAAAACA5AggAAAAAABAcgQQAAAAAAAgOQIIAAAAAACQHAEEAAAAAABIjgACAAAAAAAkRwABAAAAAACSI4AAAAAAAADJEUAAAAAAAIDkCCAAAAAAAEByBBAAAAAAACA5AggAAAAAAJAcAQQAAAAAAEiOAAIAAAAAACRHAAEAAAAAAJIjgAAAAAAAAMkRQAAAAAAAgOQIIAAAAAAAQHIEEAAAAAAAIDkCCAAAAAAAkBwBBAAAAAAASI4AAgAAAAAAJEcAAQAAAAAAkiOAAAAAAAAAyRFAAAAAAACA5AggAAAAAABAcgQQAAAAAAAgOQIIAAAAAACQHAEEAAAAAABIjgACAAAAAAAkRwABAAAAAACSI4AAAAAAAADJEUAAAAAAAIDkCCAAAAAAAEByBBAAAAAAACA5AggAAAAAAJAcAQQAAAAAAEiOAAIAAAAAACRHAAEAAAAAAJIjgAAAAAAAAMkRQAAAAAAAgOQIIAAAAAAAQHIEEAAAAAAAIDkCCAAAAAAAkBwBBAAAAAAASI4AAgAAAAAAJEcAAQAAAAAAkiOAAAAAAAAAyRFAAAAAAACA5AggAAAAAABAcgQQAAAAAAAgOQIIAAAAAACQHAEEAAAAAABIjgACAAAAAAAkRwABAAAAAACSI4AAAAAAAADJEUAAAAAAAIDkCCAAAAAAAEByBBAAAAAAACA5AggAAAAAAJAcAQQAAAAAAEiOAAIAAAAAACRHAAEAAAAAAJIjgAAAAAAAAMkRQAAAAAAAgOQIIAAAAAAAQHIEEAAAAAAAIDkCCAAAAAAAkBwBBAAAAAAASI4AAgAAAAAAJEcAAQAAAAAAkiOAAAAAAAAAyRFAAAAAAACA5AggAAAAAABAcgQQAAAAAAAgOQIIAAAAAACQHAEEAAAAAABIjgACAAAAAAAkRwABAAAAAACSI4AAAAAAAADJEUAAAAAAAIDkCCAAAAAAAEByBBAAAAAAACA5AggAAAAAAJAcAQQAAAAAAEiOAAIAAAAAACRHAAEAAAAAAJIjgAAAAAAAAMkRQAAAAAAAgOQIIAAAAAAAQHIEEAAAAAAAIDkCCAAAAAAAkBwBBAAAAAAASI4AAgAAAAAAJEcAAQAAAAAAkiOAAAAAAAAAyRFAAAAAAACA5AggAAAAAABAcgQQAAAAAAAgOQIIAAAAAACQHAEEAAAAAABIjgACAAAAAAAkRwABAAAAAACSI4AAAAAAAADJEUAAAAAAAIDkCCAAAAAAAEByBBAAAAAAACA5AggAAAAAAJAcAQQAAAAAAEiOAAIAAAAAACRHAAEAAAAAAJIjgAAAAAAAAMkRQAAAAAAAgOQIIAAAAAAAQHIEEAAAAAAAIDkCCAAAAAAAkBwBBAAAAAAASI4AAgAAAAAAJEcAAQAAAAAAkiOAAAAAAAAAyRFAAAAAAACA5AggAAAAAABAcgQQAAAAAAAgOQIIAAAAAACQHAEEAAAAAABIjgACAAAAAAAkRwABAAAAAACSI4AAAAAAAADJEUAAAAAAAIDkCCAAAAAAAEByBBAAAAAAACA5AggAAAAAAJAcAQQAAAAAAEiOAAIAAAAAACRHAAEAAAAAAJIjgAAAAAAAAMkRQAAAAAAAgOQIIAAAAAAAQHIEEAAAAAAAIDkCCAAAAAAAkBwBBAAAAAAASI4AAgAAAAAAJEcAAQAAAAAAkiOAAAAAAAAAyRFAAAAAAACA5AggAAAAAABAcgQQAAAAAAAgOQIIAAAAAACQHAEEAAAAAABIjgACAAAAAAAkRwABAAAAAACSI4AAAAAAAADJEUAAAAAAAIDkCCAAAAAAAEByBBAAAAAAACA5AggAAAAAAJAcAQQAAAAAAEiOAAIAAAAAACRHAAEAAAAAAJIjgAAAAAAAAMkRQAAAAAAAgOQIIAAAAAAAQHIEEAAAAAAAIDkCCAAAAAAAkBwBBAAAAAAASI4AAgAAAAAAJEcAAQAAAAAAkiOAAAAAAAAAyRFAAAAAAACA5AggAAAAAABAcgQQAAAAAAAgOQIIAAAAAACQHAEEAAAAAABIjgACAAAAAAAkRwABAAAAAACSI4AAAAAAAADJEUAAAAAAAIDkCCAAAAAAAEByBBAAAAAAACA5AggAAAAAAJAcAQQAAAAAAEiOAAIAAAAAACRHAAEAAAAAAJIjgAAAAAAAAMn5HwhEJvi6sZnqAAAAAElFTkSuQmCC;" vertex="1" parent="1">
          <mxGeometry x="-2209.9966900634763" y="-46.000003814697266" width="1600" height="1200" as="geometry" />
        </mxCell>
      </root>
    </mxGraphModel>
  </diagram>
</mxfile>
